<svg xmlns="http://www.w3.org/2000/svg" width="22" height="22" viewBox="0 0 22 22" fill="none">
  <path d="M20.1663 13.7502V8.25016C20.1663 3.66683 18.333 1.8335 13.7497 1.8335H8.24967C3.66634 1.8335 1.83301 3.66683 1.83301 8.25016V13.7502C1.83301 18.3335 3.66634 20.1668 8.24967 20.1668H13.7497C18.333 20.1668 20.1663 18.3335 20.1663 13.7502Z" stroke="#191919" stroke-width="1.5" stroke-linecap="round" stroke-linejoin="round"/>
  <path d="M2.30957 6.51758H19.6896" stroke="#191919" stroke-width="1.5" stroke-linecap="round" stroke-linejoin="round"/>
  <path d="M7.80957 1.93457V6.38957" stroke="#191919" stroke-width="1.5" stroke-linecap="round" stroke-linejoin="round"/>
  <path d="M14.1904 1.93457V5.97707" stroke="#191919" stroke-width="1.5" stroke-linecap="round" stroke-linejoin="round"/>
  <path d="M8.9375 13.2456V12.1456C8.9375 10.7339 9.93667 10.1564 11.1558 10.8623L12.1092 11.4123L13.0625 11.9623C14.2817 12.6681 14.2817 13.8231 13.0625 14.5289L12.1092 15.0789L11.1558 15.6289C9.93667 16.3348 8.9375 15.7573 8.9375 14.3456V13.2456V13.2456Z" stroke="#191919" stroke-width="1.5" stroke-miterlimit="10" stroke-linecap="round" stroke-linejoin="round"/>
</svg>