<svg width="28" height="29" viewBox="0 0 28 29" fill="none" xmlns="http://www.w3.org/2000/svg">
<rect y="28.272" width="28.272" height="28" rx="5" transform="rotate(-90 0 28.272)" fill="white"/>
<g clip-path="url(#clip0_281_246)">
<path d="M6.99624 8.64397C7.06907 8.64397 7.13891 8.61504 7.19041 8.56354C7.24191 8.51204 7.27084 8.4422 7.27084 8.36937V5.62336C7.27084 5.55053 7.24191 5.48068 7.19041 5.42918C7.13891 5.37769 7.06907 5.34875 6.99624 5.34875C6.92341 5.34875 6.85356 5.37769 6.80207 5.42918C6.75057 5.48068 6.72164 5.55053 6.72164 5.62336V8.36937C6.72164 8.4422 6.75057 8.51204 6.80207 8.56354C6.85356 8.61504 6.92341 8.64397 6.99624 8.64397ZM8.35689 6.99636C8.42972 6.99636 8.49956 6.96743 8.55106 6.91593C8.60256 6.86443 8.63149 6.79459 8.63149 6.72176V5.62336C8.63149 5.55053 8.60256 5.48068 8.55106 5.42918C8.49956 5.37769 8.42972 5.34875 8.35689 5.34875C8.28406 5.34875 8.21421 5.37769 8.16271 5.42918C8.11122 5.48068 8.08229 5.55053 8.08229 5.62336V6.72176C8.08229 6.79459 8.11122 6.86443 8.16271 6.91593C8.21421 6.96743 8.28406 6.99636 8.35689 6.99636ZM5.62323 6.99636C5.69606 6.99636 5.76591 6.96743 5.81741 6.91593C5.8689 6.86443 5.89783 6.79459 5.89783 6.72176V5.62336C5.89783 5.55053 5.8689 5.48068 5.81741 5.42918C5.76591 5.37769 5.69606 5.34875 5.62323 5.34875C5.55041 5.34875 5.48056 5.37769 5.42906 5.42918C5.37756 5.48068 5.34863 5.55053 5.34863 5.62336V6.72176C5.34863 6.79459 5.37756 6.86443 5.42906 6.91593C5.48056 6.96743 5.55041 6.99636 5.62323 6.99636ZM21.2755 19.628C21.2027 19.628 21.1328 19.6569 21.0813 19.7084C21.0298 19.7599 21.0009 19.8298 21.0009 19.9026V22.6486C21.0009 22.7214 21.0298 22.7913 21.0813 22.8428C21.1328 22.8943 21.2027 22.9232 21.2755 22.9232C21.3483 22.9232 21.4182 22.8943 21.4697 22.8428C21.5212 22.7913 21.5501 22.7214 21.5501 22.6486V19.9026C21.5501 19.8298 21.5212 19.7599 21.4697 19.7084C21.4182 19.6569 21.3483 19.628 21.2755 19.628ZM19.9148 21.2756C19.842 21.2756 19.7722 21.3045 19.7207 21.356C19.6692 21.4075 19.6402 21.4774 19.6402 21.5502V22.6486C19.6402 22.7214 19.6692 22.7913 19.7207 22.8428C19.7722 22.8943 19.842 22.9232 19.9148 22.9232C19.9877 22.9232 20.0575 22.8943 20.109 22.8428C20.1605 22.7913 20.1894 22.7214 20.1894 22.6486V21.5502C20.1894 21.4774 20.1605 21.4075 20.109 21.356C20.0575 21.3045 19.9877 21.2756 19.9148 21.2756ZM22.6485 21.2756C22.5757 21.2756 22.5058 21.3045 22.4543 21.356C22.4028 21.4075 22.3739 21.4774 22.3739 21.5502V22.6486C22.3739 22.7214 22.4028 22.7913 22.4543 22.8428C22.5058 22.8943 22.5757 22.9232 22.6485 22.9232C22.7213 22.9232 22.7912 22.8943 22.8427 22.8428C22.8942 22.7913 22.9231 22.7214 22.9231 22.6486V21.5502C22.9231 21.4774 22.8942 21.4075 22.8427 21.356C22.7912 21.3045 22.7213 21.2756 22.6485 21.2756ZM19.3739 17.1566C19.2857 16.9568 19.1291 16.795 18.9323 16.7004C18.7354 16.6058 18.5113 16.5845 18.3002 16.6403L14.3514 17.7896C14.284 17.8118 14.2277 17.8594 14.1946 17.9222C14.1614 17.9851 14.1539 18.0583 14.1737 18.1266C14.1934 18.1948 14.2388 18.2528 14.3004 18.2883C14.362 18.3237 14.4349 18.334 14.5038 18.3168L18.4512 17.1676C18.5346 17.1492 18.6217 17.1597 18.6983 17.1974C18.7749 17.235 18.8364 17.2977 18.8727 17.3749L18.9991 17.6674C19.0307 17.7447 19.0343 17.8307 19.0092 17.9104C18.9841 17.9902 18.932 18.0586 18.8617 18.104L13.3615 21.1891C13.2519 21.2418 13.1325 21.271 13.011 21.2747C12.8894 21.2785 12.7684 21.2568 12.6558 21.2111L10.2077 19.9836C10.1428 19.9538 10.069 19.9505 10.0017 19.9742C9.93437 19.998 9.87897 20.047 9.84719 20.1109C9.81542 20.1748 9.80978 20.2486 9.83145 20.3166C9.85312 20.3845 9.90041 20.4414 9.9633 20.4752L12.4114 21.7026C12.5899 21.7868 12.7852 21.8291 12.9825 21.8262C13.209 21.83 13.4326 21.7756 13.632 21.6683L19.1336 18.5818C19.3215 18.469 19.4623 18.2921 19.5299 18.0836C19.5976 17.8752 19.5875 17.6493 19.5016 17.4477L19.3739 17.1566Z" fill="url(#paint0_linear_281_246)"/>
<path d="M11.5272 16.8916L13.3121 18.9086C13.3642 18.9691 13.3928 19.0463 13.3928 19.1262C13.3928 19.206 13.3642 19.2833 13.3121 19.3438L13.1995 19.4646C13.176 19.4902 13.1476 19.5108 13.116 19.5252C13.0844 19.5395 13.0502 19.5474 13.0155 19.5484C12.9455 19.5481 12.8782 19.5211 12.8274 19.4729L11.7743 18.4541C11.7482 18.4288 11.7175 18.409 11.6837 18.3956C11.65 18.3823 11.614 18.3757 11.5777 18.3763C11.5414 18.3769 11.5056 18.3846 11.4723 18.399C11.439 18.4134 11.4089 18.4342 11.3837 18.4603C11.3584 18.4863 11.3386 18.5171 11.3252 18.5508C11.3119 18.5846 11.3053 18.6206 11.3059 18.6569C11.3064 18.6931 11.3142 18.7289 11.3286 18.7622C11.343 18.7955 11.3638 18.8256 11.3899 18.8509L12.4443 19.8683C12.5942 20.0154 12.7959 20.0978 13.0059 20.0976H13.0375C13.1449 20.095 13.2507 20.0708 13.3486 20.0265C13.4465 19.9821 13.5345 19.9185 13.6073 19.8395L13.7198 19.7186C13.8656 19.5576 13.9467 19.3483 13.9475 19.1311C13.9482 18.9139 13.8686 18.704 13.724 18.542L11.9391 16.5264C11.8276 16.4084 11.6743 16.3389 11.5121 16.3328H8.35414V16.0582C8.34981 15.8361 8.25767 15.6247 8.09788 15.4703C7.9381 15.3159 7.72367 15.2311 7.50151 15.2344H6.20127C5.979 15.2307 5.76436 15.3154 5.6045 15.4699C5.44463 15.6243 5.3526 15.8359 5.34863 16.0582V20.1772C5.3526 20.3995 5.44463 20.6111 5.6045 20.7655C5.76436 20.92 5.979 21.0047 6.20127 21.001H7.50425C7.72641 21.0043 7.94084 20.9195 8.10063 20.7651C8.26042 20.6107 8.35256 20.3994 8.35689 20.1772V16.882H11.5038C11.5117 16.8848 11.5195 16.8881 11.5272 16.8916ZM9.92761 13.6554C9.44509 13.7902 8.95498 13.8961 8.45986 13.9726C8.40232 13.98 8.34862 14.0055 8.30645 14.0454C8.26429 14.0852 8.23583 14.1374 8.22515 14.1944C8.21448 14.2514 8.22214 14.3104 8.24704 14.3628C8.27194 14.4152 8.3128 14.4584 8.36375 14.4861L10.6649 15.7506C10.7069 15.7739 10.7542 15.7857 10.8022 15.785H10.8256C12.7917 15.612 15.1546 14.3021 16.6787 13.3232C16.5226 13.2089 16.3744 13.0841 16.2352 12.9497C14.7688 13.871 12.6159 15.0422 10.853 15.2344L9.30563 14.3776C9.6077 14.3131 9.9839 14.2225 10.404 14.103C10.2296 13.9714 10.0699 13.8213 9.92761 13.6554ZM20.7263 14.4106C20.4183 14.3379 20.1205 14.2277 19.8393 14.0824C19.6124 14.1198 19.3828 14.1386 19.1528 14.1387C19.0856 14.1387 19.0155 14.1387 18.9524 14.1387C19.2065 14.3668 19.4958 14.5523 19.8091 14.6879C18.6091 15.0738 16.1514 15.7836 14.0755 15.7836C13.7431 15.7851 13.4109 15.764 13.0814 15.7204C12.8274 15.8152 12.572 15.8989 12.3194 15.9731L12.4567 16.1104C12.4938 16.1494 12.5415 16.1766 12.594 16.1886C13.0808 16.2853 13.5764 16.3313 14.0727 16.3259C17.0398 16.3259 20.6096 14.9818 20.7606 14.9241C20.8117 14.9011 20.8545 14.863 20.8833 14.815C20.9121 14.767 20.9255 14.7113 20.9218 14.6554C20.9181 14.5995 20.8973 14.5461 20.8624 14.5024C20.8274 14.4586 20.78 14.4266 20.7263 14.4106Z" fill="url(#paint1_linear_281_246)"/>
<path d="M19.1623 6.17256C18.4285 6.16984 17.7104 6.38495 17.099 6.79063C16.4875 7.19632 16.0102 7.77434 15.7276 8.45148C15.4449 9.12862 15.3695 9.87443 15.511 10.5944C15.6525 11.3145 16.0044 11.9763 16.5223 12.4961C17.0402 13.0159 17.7008 13.3704 18.4202 13.5145C19.1397 13.6587 19.8858 13.5861 20.564 13.3059C21.2422 13.0257 21.822 12.5506 22.2299 11.9407C22.6379 11.3307 22.8556 10.6135 22.8556 9.87967C22.8565 9.39375 22.7617 8.9124 22.5766 8.46312C22.3915 8.01384 22.1197 7.60542 21.7767 7.26119C21.4338 6.91695 21.0263 6.64363 20.5778 6.45685C20.1292 6.27006 19.6482 6.17346 19.1623 6.17256ZM18.5362 9.36067C18.6639 9.5529 18.959 9.63528 19.2707 9.70942C19.6826 9.81789 20.2085 9.95244 20.3897 10.4673C20.5476 10.9177 20.2895 11.39 19.7746 11.5891C19.6653 11.6305 19.5515 11.6586 19.4355 11.6728V12.0765C19.4355 12.1493 19.4065 12.2192 19.3551 12.2707C19.3036 12.3221 19.2337 12.3511 19.1609 12.3511C19.088 12.3511 19.0182 12.3221 18.9667 12.2707C18.9152 12.2192 18.8863 12.1493 18.8863 12.0765V11.6522C18.7659 11.628 18.6485 11.5908 18.5362 11.541C18.3727 11.4731 18.2244 11.3734 18.0997 11.2478C17.975 11.1222 17.8765 10.9731 17.8098 10.8092C17.7942 10.775 17.7857 10.738 17.7849 10.7004C17.7841 10.6628 17.791 10.6255 17.8053 10.5907C17.8195 10.5559 17.8407 10.5244 17.8676 10.4981C17.8946 10.4718 17.9266 10.4514 17.9617 10.438C17.9969 10.4246 18.0344 10.4186 18.0719 10.4203C18.1095 10.422 18.1463 10.4315 18.1801 10.448C18.2138 10.4645 18.2439 10.4878 18.2683 10.5164C18.2927 10.545 18.311 10.5783 18.322 10.6142C18.3635 10.7103 18.4236 10.7971 18.4987 10.8699C18.5739 10.9427 18.6627 11 18.76 11.0385C19.0166 11.1566 19.3092 11.1699 19.5755 11.0756C19.7128 11.0234 19.9476 10.8655 19.8721 10.6486C19.7966 10.4316 19.5398 10.3465 19.132 10.2367C18.7531 10.1392 18.3233 10.0266 18.0803 9.66136C17.9726 9.50793 17.9148 9.32502 17.9148 9.13756C17.9148 8.9501 17.9726 8.76719 18.0803 8.61376C18.1776 8.48962 18.2988 8.38627 18.4368 8.30986C18.5748 8.23344 18.7267 8.18551 18.8835 8.16891V7.68286C18.8835 7.61003 18.9125 7.54019 18.964 7.48869C19.0155 7.43719 19.0853 7.40826 19.1581 7.40826C19.231 7.40826 19.3008 7.43719 19.3523 7.48869C19.4038 7.54019 19.4327 7.61003 19.4327 7.68286V8.17028L19.4863 8.17852C19.7173 8.21605 19.9343 8.31425 20.115 8.46309C20.2957 8.61192 20.4336 8.80606 20.5147 9.02566C20.5309 9.06092 20.5394 9.09921 20.5397 9.138C20.54 9.1768 20.5321 9.21523 20.5165 9.25075C20.5009 9.28627 20.478 9.31808 20.4492 9.34408C20.4204 9.37008 20.3864 9.38969 20.3495 9.40161C20.3125 9.41352 20.2735 9.41748 20.235 9.41322C20.1964 9.40896 20.1592 9.39657 20.1257 9.37687C20.0923 9.35718 20.0634 9.33063 20.041 9.29896C20.0186 9.2673 20.0031 9.23124 19.9957 9.19317C19.9433 9.07131 19.8612 8.96457 19.7569 8.88275C19.6525 8.80094 19.5292 8.74668 19.3984 8.72497C19.0936 8.6728 18.6913 8.72497 18.5293 8.94465C18.4881 9.00652 18.4668 9.07944 18.468 9.15373C18.4692 9.22803 18.493 9.3002 18.5362 9.36067ZM12.1874 14.136C12.6766 14.1379 13.1554 13.9946 13.563 13.7242C13.9707 13.4538 14.289 13.0684 14.4775 12.617C14.666 12.1656 14.7164 11.6684 14.6221 11.1883C14.5278 10.7083 14.2932 10.267 13.9479 9.92045C13.6027 9.57386 13.1624 9.33752 12.6827 9.24138C12.203 9.14524 11.7056 9.19362 11.2535 9.38039C10.8013 9.56716 10.4148 9.88392 10.1428 10.2905C9.87078 10.6972 9.72559 11.1754 9.72559 11.6646C9.72558 12.3184 9.98464 12.9455 10.446 13.4087C10.9074 13.8719 11.5336 14.1334 12.1874 14.136ZM12.4112 12.1287C12.392 12.0682 12.3247 12.0394 12.1366 11.9831C11.9485 11.9268 11.6794 11.8458 11.5311 11.6C11.4768 11.5126 11.4437 11.4136 11.4344 11.3111C11.4252 11.2086 11.44 11.1053 11.4778 11.0095C11.5155 10.9138 11.5751 10.8281 11.6518 10.7595C11.7286 10.6909 11.8203 10.6411 11.9196 10.6142V10.4289C11.9196 10.356 11.9486 10.2862 12.0001 10.2347C12.0516 10.1832 12.1214 10.1543 12.1942 10.1543C12.2671 10.1543 12.3369 10.1832 12.3884 10.2347C12.4399 10.2862 12.4689 10.356 12.4689 10.4289V10.6115C12.5962 10.6525 12.7116 10.724 12.8052 10.8197C12.8987 10.9154 12.9675 11.0324 13.0057 11.1607C13.0191 11.1964 13.025 11.2345 13.0229 11.2726C13.0207 11.3107 13.0107 11.3479 12.9934 11.3819C12.9761 11.4159 12.9519 11.446 12.9223 11.4701C12.8928 11.4942 12.8585 11.5119 12.8218 11.5221C12.785 11.5322 12.7465 11.5346 12.7087 11.5291C12.671 11.5235 12.6348 11.5102 12.6025 11.4898C12.5702 11.4695 12.5425 11.4427 12.5211 11.4111C12.4998 11.3795 12.4852 11.3438 12.4785 11.3062C12.463 11.2637 12.4372 11.2256 12.4034 11.1954C12.3696 11.1652 12.3289 11.1439 12.2849 11.1332C12.1791 11.1126 12.0418 11.1332 11.9979 11.1978C11.9868 11.2167 11.981 11.2383 11.981 11.2602C11.981 11.2822 11.9868 11.3038 11.9979 11.3227C12.0364 11.3872 12.1572 11.4216 12.2862 11.46C12.5142 11.5259 12.8258 11.6165 12.9357 11.9694C12.9801 12.1217 12.9659 12.2852 12.8957 12.4275C12.8256 12.5699 12.7046 12.6807 12.5567 12.7383C12.5268 12.7511 12.496 12.7621 12.4647 12.7712V12.9085C12.4647 12.9813 12.4358 13.0512 12.3843 13.1027C12.3328 13.1542 12.263 13.1831 12.1901 13.1831C12.1173 13.1831 12.0475 13.1542 11.996 13.1027C11.9445 13.0512 11.9155 12.9813 11.9155 12.9085V12.7479L11.8496 12.7232C11.7402 12.6757 11.6418 12.6059 11.561 12.5181C11.4801 12.4304 11.4185 12.3267 11.3801 12.2138C11.3656 12.179 11.3584 12.1417 11.359 12.1041C11.3596 12.0665 11.3679 12.0294 11.3834 11.9951C11.3989 11.9608 11.4213 11.9301 11.4492 11.9048C11.4771 11.8796 11.5099 11.8603 11.5455 11.8482C11.5812 11.8362 11.6189 11.8315 11.6564 11.8347C11.6939 11.8378 11.7303 11.8486 11.7635 11.8664C11.7966 11.8842 11.8258 11.9086 11.8491 11.9381C11.8724 11.9677 11.8894 12.0017 11.8991 12.038C11.9146 12.0781 11.9384 12.1145 11.9689 12.1448C11.9994 12.175 12.036 12.1986 12.0762 12.2138C12.1174 12.2333 12.1621 12.2443 12.2077 12.2459C12.2532 12.2476 12.2987 12.2399 12.3412 12.2234C12.3412 12.2234 12.429 12.1877 12.4112 12.1287Z" fill="url(#paint2_linear_281_246)"/>
</g>
<defs>
<linearGradient id="paint0_linear_281_246" x1="5.78799" y1="14.136" x2="22.6776" y2="14.2077" gradientUnits="userSpaceOnUse">
<stop stop-color="#18BAD4"/>
<stop offset="0.54" stop-color="#31B680"/>
<stop offset="1" stop-color="#80C242"/>
</linearGradient>
<linearGradient id="paint1_linear_281_246" x1="5.73798" y1="16.9754" x2="20.7041" y2="17.0984" gradientUnits="userSpaceOnUse">
<stop stop-color="#18BAD4"/>
<stop offset="0.54" stop-color="#31B680"/>
<stop offset="1" stop-color="#80C242"/>
</linearGradient>
<linearGradient id="paint2_linear_281_246" x1="10.0538" y1="10.1543" x2="22.6718" y2="10.2427" gradientUnits="userSpaceOnUse">
<stop stop-color="#18BAD4"/>
<stop offset="0.54" stop-color="#31B680"/>
<stop offset="1" stop-color="#80C242"/>
</linearGradient>
<clipPath id="clip0_281_246">
<rect width="17.5745" height="17.5745" fill="white" transform="translate(5.34863 5.34875)"/>
</clipPath>
</defs>
</svg>
