<svg width="28" height="28" viewBox="0 0 28 28" fill="none" xmlns="http://www.w3.org/2000/svg">
<rect y="28" width="28" height="28" rx="5" transform="rotate(-90 0 28)" fill="white"/>
<g clip-path="url(#clip0_281_241)">
<path d="M21.4586 6.92892H19.0787V5.84108C19.0788 5.69682 19.021 5.55844 18.9181 5.45637C18.8152 5.35429 18.6755 5.2969 18.5298 5.2968C18.3842 5.2967 18.2445 5.35392 18.1414 5.45585C18.0383 5.55779 17.9804 5.6961 17.9803 5.84036V6.92892H14.6851V5.84108C14.6851 5.76965 14.671 5.69891 14.6434 5.6329C14.6158 5.56689 14.5754 5.50691 14.5245 5.45637C14.4735 5.40582 14.413 5.36572 14.3464 5.33834C14.2798 5.31096 14.2084 5.29685 14.1362 5.2968C13.9906 5.2967 13.8508 5.35392 13.7478 5.45585C13.6447 5.55779 13.5868 5.6961 13.5867 5.84036V6.92892H10.2915V5.84108C10.2915 5.76965 10.2773 5.69891 10.2498 5.6329C10.2222 5.56689 10.1818 5.50691 10.1309 5.45637C10.0799 5.40582 10.0194 5.36572 9.95276 5.33834C9.88614 5.31096 9.81474 5.29685 9.74262 5.2968C9.59696 5.2967 9.45723 5.35392 9.35416 5.45585C9.2511 5.55779 9.19314 5.6961 9.19305 5.84036V6.92892H6.81317C6.42488 6.92892 6.05248 7.08163 5.77785 7.35349C5.50321 7.62534 5.34883 7.99409 5.34863 8.37864V21.2514C5.34863 21.6361 5.50293 22.005 5.77759 22.277C6.05224 22.549 6.42475 22.7018 6.81317 22.7018H21.4586C21.847 22.7018 22.2195 22.549 22.4941 22.277C22.7688 22.005 22.9231 21.6361 22.9231 21.2514V8.37864C22.9229 7.99409 22.7685 7.62534 22.4939 7.35349C22.2193 7.08163 21.8469 6.92892 21.4586 6.92892ZM21.8247 21.2521C21.8247 21.3482 21.7862 21.4403 21.7177 21.5083C21.6492 21.5762 21.5563 21.6145 21.4593 21.6147H6.81317C6.71607 21.6147 6.62294 21.5765 6.55428 21.5085C6.48561 21.4405 6.44704 21.3483 6.44704 21.2521V8.37937C6.44723 8.28332 6.48589 8.19128 6.55453 8.12343C6.62318 8.05558 6.71619 8.01748 6.81317 8.01748H9.19305V9.10532C9.19295 9.24957 9.25072 9.38796 9.35365 9.49003C9.45657 9.59211 9.59623 9.6495 9.74188 9.6496C9.88754 9.6497 10.0273 9.59248 10.1303 9.49055C10.2334 9.38861 10.2914 9.2503 10.2915 9.10604V8.01748H13.5867V9.10532C13.5866 9.24957 13.6443 9.38796 13.7473 9.49003C13.8502 9.59211 13.9898 9.6495 14.1355 9.6496C14.2812 9.6497 14.4209 9.59248 14.524 9.49055C14.627 9.38861 14.685 9.2503 14.6851 9.10604V8.01748H17.9803V9.10532C17.9802 9.24957 18.038 9.38796 18.1409 9.49003C18.2438 9.59211 18.3835 9.6495 18.5291 9.6496C18.6748 9.6497 18.8145 9.59248 18.9176 9.49055C19.0206 9.38861 19.0786 9.2503 19.0787 9.10604V8.01748H21.4586C21.5554 8.01767 21.6482 8.05586 21.7167 8.12369C21.7852 8.19151 21.8238 8.28345 21.824 8.37937L21.8247 21.2521Z" fill="url(#paint0_linear_281_241)"/>
<path d="M9.19336 11.8243H11.3902V13.4561H9.19336V11.8243ZM9.19336 14.5439H11.3902V16.1757H9.19336V14.5439ZM9.19336 17.2635H11.3902V18.8953H9.19336V17.2635ZM13.0378 17.2635H15.2346V18.8953H13.0378V17.2635ZM13.0378 14.5439H15.2346V16.1757H13.0378V14.5439ZM13.0378 11.8243H15.2346V13.4561H13.0378V11.8243ZM16.8822 17.2635H19.079V18.8953H16.8822V17.2635ZM16.8822 14.5439H19.079V16.1757H16.8822V14.5439ZM16.8822 11.8243H19.079V13.4561H16.8822V11.8243Z" fill="url(#paint1_linear_281_241)"/>
</g>
<defs>
<linearGradient id="paint0_linear_281_241" x1="5.78799" y1="13.9993" x2="22.6776" y2="14.0718" gradientUnits="userSpaceOnUse">
<stop stop-color="#18BAD4"/>
<stop offset="0.54" stop-color="#31B680"/>
<stop offset="1" stop-color="#80C242"/>
</linearGradient>
<linearGradient id="paint1_linear_281_241" x1="9.4405" y1="15.3598" x2="18.9407" y2="15.4162" gradientUnits="userSpaceOnUse">
<stop stop-color="#18BAD4"/>
<stop offset="0.54" stop-color="#31B680"/>
<stop offset="1" stop-color="#80C242"/>
</linearGradient>
<clipPath id="clip0_281_241">
<rect width="17.5745" height="17.4054" fill="white" transform="translate(5.34863 5.2973)"/>
</clipPath>
</defs>
</svg>
