<svg width="28" height="28" viewBox="0 0 28 28" fill="none" xmlns="http://www.w3.org/2000/svg">
<rect y="28" width="28" height="28" rx="5" transform="rotate(-90 0 28)" fill="white"/>
<path d="M16.1279 8.44035C16.968 8.60425 17.74 9.01511 18.3453 9.62033C18.9505 10.2256 19.3613 10.9976 19.5252 11.8377L16.1279 8.44035ZM16.1279 5C17.8733 5.19389 19.5008 5.97549 20.7433 7.21645C21.9859 8.45741 22.7695 10.084 22.9656 11.8291L16.1279 5ZM22.1055 18.6926V21.2728C22.1065 21.5124 22.0574 21.7495 21.9615 21.969C21.8655 22.1884 21.7247 22.3854 21.5482 22.5474C21.3717 22.7093 21.1633 22.8326 20.9364 22.9093C20.7095 22.9861 20.4691 23.0146 20.2305 22.993C17.5839 22.7054 15.0416 21.8011 12.808 20.3526C10.7299 19.032 8.96797 17.2701 7.64745 15.192C6.19388 12.9482 5.2893 10.3936 5.00698 7.73508C4.98549 7.49723 5.01375 7.25752 5.08998 7.0312C5.16621 6.80488 5.28872 6.59691 5.44972 6.42054C5.61073 6.24416 5.80669 6.10324 6.02514 6.00675C6.24359 5.91026 6.47974 5.86031 6.71855 5.86009H9.29881C9.71622 5.85598 10.1209 6.00379 10.4374 6.27597C10.7539 6.54815 10.9606 6.92612 11.019 7.33944C11.1279 8.16518 11.3299 8.97595 11.621 9.75628C11.7368 10.0641 11.7618 10.3987 11.6932 10.7203C11.6246 11.042 11.4653 11.3372 11.234 11.5711L10.1417 12.6634C11.3661 14.8166 13.149 16.5995 15.3022 17.8239L16.3945 16.7316C16.6284 16.5003 16.9236 16.341 17.2453 16.2724C17.5669 16.2038 17.9015 16.2288 18.2093 16.3445C18.9896 16.6357 19.8004 16.8377 20.6262 16.9466C21.044 17.0055 21.4255 17.216 21.6983 17.5379C21.971 17.8598 22.116 18.2708 22.1055 18.6926Z" stroke="url(#paint0_linear_565_268)" stroke-width="1.5" stroke-linecap="round" stroke-linejoin="round"/>
<defs>
<linearGradient id="paint0_linear_565_268" x1="13.9828" y1="5" x2="13.9828" y2="23" gradientUnits="userSpaceOnUse">
<stop stop-color="#18BAD4"/>
<stop offset="1" stop-color="#80C242"/>
</linearGradient>
</defs>
</svg>
