<svg width="71" height="71" viewBox="0 0 71 71" fill="none" xmlns="http://www.w3.org/2000/svg">
<g filter="url(#filter0_d_867_31593)">
<circle cx="35.2497" cy="29.7478" r="21.2497" fill="#E84127"/>
</g>
<path fill-rule="evenodd" clip-rule="evenodd" d="M40.5033 24.1807C40.5419 24.2483 40.6096 24.2965 40.6965 24.2965C43.0146 24.2965 44.9078 26.1876 44.9078 28.5031V34.2342C44.9078 36.5498 43.0146 38.4408 40.6965 38.4408H29.8012C27.4733 38.4408 25.5898 36.5498 25.5898 34.2342V28.5031C25.5898 26.1876 27.4733 24.2965 29.8012 24.2965C29.8784 24.2965 29.9557 24.2579 29.9847 24.1807L30.0426 24.0649C30.0759 23.9948 30.1101 23.9228 30.1448 23.8497C30.3919 23.3293 30.6653 22.7535 30.8347 22.4151C31.279 21.5467 32.0324 21.0643 32.9693 21.0547H37.5187C38.4556 21.0643 39.2187 21.5467 39.663 22.4151C39.8151 22.719 40.0469 23.2086 40.2703 23.6804C40.3164 23.7778 40.3621 23.8744 40.4067 23.9685L40.5033 24.1807ZM39.7976 27.8881C39.7976 28.3705 40.1839 28.7565 40.6669 28.7565C41.1498 28.7565 41.5458 28.3705 41.5458 27.8881C41.5458 27.4057 41.1498 27.0101 40.6669 27.0101C40.1839 27.0101 39.7976 27.4057 39.7976 27.8881ZM33.5725 29.3837C34.0264 28.9302 34.6156 28.689 35.2435 28.689C35.8713 28.689 36.4605 28.9302 36.9048 29.374C37.3491 29.8179 37.5906 30.4064 37.5906 31.0335C37.5809 32.3264 36.5378 33.3781 35.2435 33.3781C34.6156 33.3781 34.0264 33.1369 33.5821 32.693C33.1378 32.2492 32.8963 31.6607 32.8963 31.0335V31.0239C32.8867 30.4161 33.1281 29.8275 33.5725 29.3837ZM37.924 33.7138C37.2382 34.3988 36.2916 34.8233 35.2485 34.8233C34.2343 34.8233 33.2877 34.4278 32.5633 33.7138C31.8485 32.9902 31.4525 32.0446 31.4525 31.0316C31.4428 30.0282 31.8388 29.0826 32.5536 28.359C33.278 27.6354 34.2343 27.2398 35.2485 27.2398C36.2626 27.2398 37.2189 27.6354 37.9337 28.3494C38.6484 29.073 39.0444 30.0282 39.0444 31.0316C39.0348 32.0832 38.6098 33.0288 37.924 33.7138Z" fill="white"/>
<defs>
<filter id="filter0_d_867_31593" x="8.86917e-05" y="0.0981002" width="70.4998" height="70.4998" filterUnits="userSpaceOnUse" color-interpolation-filters="sRGB">
<feFlood flood-opacity="0" result="BackgroundImageFix"/>
<feColorMatrix in="SourceAlpha" type="matrix" values="0 0 0 0 0 0 0 0 0 0 0 0 0 0 0 0 0 0 127 0" result="hardAlpha"/>
<feOffset dy="5.59996"/>
<feGaussianBlur stdDeviation="6.99996"/>
<feComposite in2="hardAlpha" operator="out"/>
<feColorMatrix type="matrix" values="0 0 0 0 0 0 0 0 0 0 0 0 0 0 0 0 0 0 0.1 0"/>
<feBlend mode="normal" in2="BackgroundImageFix" result="effect1_dropShadow_867_31593"/>
<feBlend mode="normal" in="SourceGraphic" in2="effect1_dropShadow_867_31593" result="shape"/>
</filter>
</defs>
</svg>
