<svg width="30" height="30" viewBox="0 0 30 30" fill="none" xmlns="http://www.w3.org/2000/svg">
<g clip-path="url(#clip0_58_3248)">
<rect x="0.5" y="0.5" width="29" height="29" rx="4.5" fill="white" stroke="#73C04D"/>
<path d="M8.95825 19.375C9.12401 19.375 9.28298 19.4408 9.40019 19.5581C9.5174 19.6753 9.58325 19.8342 9.58325 20V21.875C9.58325 21.99 9.67659 22.0833 9.79159 22.0833H20.2083C20.2635 22.0833 20.3165 22.0614 20.3556 22.0223C20.3946 21.9832 20.4166 21.9303 20.4166 21.875V20C20.4166 19.8342 20.4824 19.6753 20.5996 19.5581C20.7169 19.4408 20.8758 19.375 21.0416 19.375C21.2073 19.375 21.3663 19.4408 21.4835 19.5581C21.6007 19.6753 21.6666 19.8342 21.6666 20V21.875C21.6666 22.2618 21.5129 22.6327 21.2394 22.9062C20.966 23.1797 20.595 23.3333 20.2083 23.3333H9.79159C9.40481 23.3333 9.03388 23.1797 8.76039 22.9062C8.4869 22.6327 8.33325 22.2618 8.33325 21.875V20C8.33325 19.8342 8.3991 19.6753 8.51631 19.5581C8.63352 19.4408 8.79249 19.375 8.95825 19.375Z" fill="#73C04D"/>
<path d="M9.35012 13.3083C9.40809 13.2502 9.47694 13.2042 9.55272 13.1728C9.62851 13.1413 9.70975 13.1252 9.79179 13.1252C9.87383 13.1252 9.95507 13.1413 10.0309 13.1728C10.1066 13.2042 10.1755 13.2502 10.2335 13.3083L14.3751 17.4491V7.29163C14.3751 7.12587 14.441 6.96689 14.5582 6.84968C14.6754 6.73247 14.8344 6.66663 15.0001 6.66663C15.1659 6.66663 15.3249 6.73247 15.4421 6.84968C15.5593 6.96689 15.6251 7.12587 15.6251 7.29163V17.4491L19.7668 13.3083C19.8839 13.1912 20.0428 13.1253 20.2085 13.1253C20.3741 13.1253 20.533 13.1912 20.6501 13.3083C20.7673 13.4254 20.8331 13.5843 20.8331 13.75C20.8331 13.9156 20.7673 14.0745 20.6501 14.1916L15.4418 19.4C15.3838 19.458 15.315 19.5041 15.2392 19.5355C15.1634 19.5669 15.0822 19.5831 15.0001 19.5831C14.9181 19.5831 14.8368 19.5669 14.7611 19.5355C14.6853 19.5041 14.6164 19.458 14.5585 19.4L9.35012 14.1916C9.29207 14.1337 9.24601 14.0648 9.21459 13.989C9.18317 13.9132 9.16699 13.832 9.16699 13.75C9.16699 13.6679 9.18317 13.5867 9.21459 13.5109C9.24601 13.4351 9.29207 13.3663 9.35012 13.3083Z" fill="#73C04D"/>
</g>
<defs>
<clipPath id="clip0_58_3248">
<rect width="30" height="30" fill="white"/>
</clipPath>
</defs>
</svg>
