<svg width="288" height="198" viewBox="0 0 288 198" fill="none" xmlns="http://www.w3.org/2000/svg">
<path d="M279.448 65C278.399 66.357 277.432 67.775 276.552 69.2465C273.899 73.7884 271.793 78.6286 270.278 83.6659C269.783 85.7087 269.573 87.8103 269.654 89.9108C269.751 92.1425 270.222 94.342 271.046 96.418C271.533 97.8793 271.949 99.3531 272.295 100.839C279.847 132.901 260.61 174.267 258.107 179.444H66.5282C65.8541 178.732 65.8353 177.864 66.6405 176.815C74.3681 166.667 62.6145 144.279 51.7847 122.247C40.9549 100.215 41.2545 52.9723 82.4202 56.4757C94.3112 57.4811 105.06 54.4711 112.581 44.8602C121.389 33.6194 126.12 19.8119 137.431 10.5508C146.301 3.28795 158.248 -1.60804 169.77 1.30207C181.499 4.23717 190.157 14.4975 200.587 20.1242C208.251 24.2714 216.95 26.1127 225.636 25.4261C234.762 24.6767 242.864 20.6487 251.016 16.7832C258.987 12.9988 267.763 8.62733 275.871 14.7348C290.683 26.7687 290.109 50.2308 279.448 65Z" fill="url(#paint0_linear_867_20589)"/>
<path d="M279.767 182.047C279.767 184.327 221.092 186.175 148.729 186.175C76.3659 186.175 17.6914 184.302 17.6914 182.047C17.6914 179.793 76.3659 177.926 148.729 177.926C221.092 177.926 279.767 179.774 279.767 182.047Z" fill="url(#paint1_linear_867_20589)"/>
<path d="M256.31 162.682C262.403 169.827 259.637 175.272 262.259 175.547C262.383 175.566 262.509 175.566 262.633 175.547C264.675 175.285 263.951 170.582 270.492 164.443C274.624 160.559 282.477 153.584 280.398 149.93C278.619 146.808 273.226 153.565 270.442 149.343C268.414 146.271 276.509 145.234 275.236 142.012C273.819 138.44 268.875 143.23 268.183 139.739C267.49 136.248 271.229 131.402 268.183 130.552L268.039 130.521C265.087 129.859 264.013 134.468 263.464 137.522C262.914 140.575 262.939 141.606 261.997 141.356C261.054 141.106 258.345 137.209 256.379 139.483C254.413 141.756 260.243 147.183 259.644 151.173C259.044 155.164 254.887 148.469 253.402 152.147C252.484 154.264 253.283 159.135 256.31 162.682Z" fill="url(#paint2_linear_867_20589)"/>
<path style="mix-blend-mode:screen" d="M255.973 154.451L263.088 161.027L264.393 150.51L264.381 150.517L259.974 143.928L264.505 149.617L266.028 137.34L265.485 144.571L270.217 143.235L265.435 145.252L264.605 156.281L274.773 153.889L264.555 156.93L263.463 170.819L262.165 170.688L262.989 161.795L255.973 154.451Z" fill="url(#paint3_linear_867_20589)"/>
<path d="M256.758 170.238L256.858 171.375L257.738 181.367C257.76 181.629 257.879 181.874 258.071 182.053C258.264 182.232 258.517 182.332 258.78 182.335L267.263 182.41C267.526 182.414 267.781 182.318 267.977 182.142C268.172 181.966 268.294 181.723 268.318 181.46L269.273 172.474L269.498 170.363L256.758 170.238Z" fill="url(#paint4_linear_867_20589)"/>
<g style="mix-blend-mode:multiply" opacity="0.2">
<path d="M256.859 171.375L257.739 181.367C257.761 181.629 257.88 181.874 258.073 182.053C258.266 182.232 258.519 182.333 258.782 182.335L262.814 182.373C259.15 180.911 258.258 177.651 259 175.153C259.812 172.456 268.363 172.468 269.275 172.474L261.16 170.77L256.859 171.375Z" fill="#D3DEE5"/>
</g>
<path d="M256.371 172.408L269.828 172.526C270.059 172.528 270.248 172.342 270.25 172.111L270.261 170.787C270.263 170.556 270.078 170.367 269.847 170.365L256.39 170.248C256.159 170.245 255.97 170.431 255.968 170.662L255.956 171.986C255.954 172.217 256.14 172.406 256.371 172.408Z" fill="url(#paint5_linear_867_20589)"/>
<path d="M91.4142 55.3636V62.1955L91.564 174.828C91.5689 176.354 92.1768 177.816 93.255 178.894C94.3333 179.973 95.7942 180.581 97.3191 180.586L230.317 180.043V66.4608C230.313 65.1849 229.804 63.9625 228.9 63.0621C227.997 62.1617 226.773 61.6568 225.498 61.6585L178.683 61.8521L125.352 62.0707L123.329 58.3237L120.739 53.5214C120.448 52.9817 120.015 52.5318 119.487 52.2204C118.959 51.9089 118.356 51.7477 117.743 51.7541L94.8847 51.8415C94.4257 51.8448 93.9717 51.9385 93.5489 52.1173C93.1261 52.296 92.7426 52.5564 92.4203 52.8835C92.098 53.2105 91.8433 53.5979 91.6707 54.0234C91.498 54.449 91.4109 54.9044 91.4142 55.3636Z" fill="#BF3678"/>
<path d="M238.911 54.553L223.106 113.986C222.771 115.259 222.188 116.454 221.39 117.501C220.592 118.548 219.595 119.427 218.457 120.088C217.318 120.748 216.06 121.177 214.755 121.349C213.45 121.522 212.124 121.434 210.853 121.092L167.122 109.452C165.849 109.117 164.655 108.533 163.608 107.735C162.562 106.937 161.683 105.939 161.023 104.8C160.363 103.661 159.934 102.402 159.762 101.097C159.589 99.7914 159.677 98.4647 160.019 97.1931L174.375 43.1873L193.064 31.9902L231.801 42.3005C233.074 42.6349 234.268 43.2177 235.315 44.0153C236.362 44.8129 237.241 45.8096 237.902 46.9482C238.562 48.0868 238.992 49.3448 239.165 50.6499C239.338 51.955 239.252 53.2814 238.911 54.553Z" fill="url(#paint6_linear_867_20589)"/>
<path d="M193.077 31.9902L189.058 47.0966L174.383 43.1936L193.077 31.9902Z" fill="#BBE4FF"/>
<path d="M206.361 49.7253C211.08 50.9742 213.565 54.7212 212.347 59.2675C210.949 64.5257 206.73 65.7247 201.692 64.382L200.675 67.773L197.829 67.0174L199.202 61.2846L200.244 61.5656C204.352 62.6584 208.053 62.8146 209.214 58.4431C209.982 55.5642 208.59 53.2599 205.669 52.4855C202.747 51.7111 200.432 52.9039 199.683 55.7141L196.562 54.8898C197.71 50.5059 201.643 48.47 206.361 49.7253ZM197.273 74.7798C196.823 74.677 196.414 74.442 196.098 74.105C195.783 73.7679 195.575 73.3442 195.502 72.8882C195.429 72.4322 195.493 71.9648 195.688 71.5458C195.882 71.1269 196.197 70.7756 196.592 70.5371C196.988 70.2986 197.445 70.1837 197.906 70.2071C198.367 70.2306 198.811 70.3914 199.18 70.6689C199.549 70.9463 199.826 71.3278 199.977 71.7643C200.128 72.2008 200.145 72.6724 200.026 73.1186C199.88 73.7034 199.508 74.2064 198.992 74.5177C198.476 74.829 197.858 74.9233 197.273 74.7798Z" fill="url(#paint7_linear_867_20589)"/>
<path d="M93.3945 179.05C94.4526 180.04 95.8475 180.589 97.2958 180.587H230.181C230.181 180.587 246.366 170.788 253.57 136.192C258.52 112.461 252.446 91.6157 250.73 87.1069C250.609 86.7927 250.395 86.5226 250.118 86.332C249.84 86.1414 249.512 86.0392 249.175 86.0391H114.037C113.766 86.0387 113.5 86.1045 113.26 86.2307C113.021 86.3569 112.816 86.5397 112.664 86.7631C112.511 86.9866 112.415 87.2439 112.385 87.5128C112.354 87.7817 112.39 88.054 112.489 88.306C114.829 94.2886 119.555 118.6 114.205 140.488C107.838 166.623 97.6516 175.335 93.3945 179.05Z" fill="#EC5F9D"/>
<path d="M70.1043 157.761C58.0323 150.96 47.0715 147.432 45.6171 149.93C44.1627 152.428 52.7829 159.922 64.8611 166.735C76.9393 173.548 87.8939 177.052 89.3421 174.572C90.7902 172.093 82.2012 164.568 70.1043 157.761Z" fill="#EA9F96"/>
<path d="M48.9349 150.169C43.6605 142.925 30.8332 177.858 29.1978 187.344C27.5624 196.83 32.8369 188.187 39.8966 174.617C46.9562 161.047 50.9885 153.054 48.9349 150.169Z" fill="#EA9F96"/>
<path d="M34.7083 186.219L32.6235 190.347L28.4102 189.354L29.671 185.008L34.7083 186.219Z" fill="#EA9F96"/>
<path d="M28.3962 189.387C28.3962 189.387 26.998 190.792 23.5586 192.222C20.1193 193.652 19.4951 192.984 19.1893 193.783C18.8834 194.582 31.049 197.012 31.049 197.012L32.622 190.28C32.622 190.28 28.4461 189.212 28.3962 189.387Z" fill="url(#paint8_linear_867_20589)"/>
<path d="M81.7362 164.8C81.7362 164.8 55.3951 145.44 45.8636 148.85C37.8427 151.71 29.0977 185.233 29.0977 185.233L35.2085 187.106L49.9645 160.128C49.9645 160.128 64.009 174.136 78.9335 178.501C93.858 182.866 91.7857 172.412 91.7857 172.412L81.7362 164.8Z" fill="url(#paint9_linear_867_20589)"/>
<path d="M72.8999 166.953C59.0927 168.571 48.1817 172.187 48.5562 175.028C48.9308 177.869 60.3785 178.856 74.1858 177.239C87.993 175.621 98.9039 172.005 98.5294 169.164C98.1549 166.323 86.7071 165.336 72.8999 166.953Z" fill="#EA9F96"/>
<path d="M53.0789 175.146C54.4146 166.291 20.6206 182.578 12.7994 188.292C4.97826 194.006 14.8031 191.414 29.4031 186.506C44.003 181.597 52.5483 178.656 53.0789 175.146Z" fill="#EA9F96"/>
<path d="M16.4066 191.634L11.8875 192.589L10.0273 188.68L14.5216 186.844L16.4066 191.634Z" fill="#EA9F96"/>
<path d="M9.99441 188.692C9.99441 188.692 8.02195 188.474 4.7574 186.688C1.49285 184.902 1.63642 183.99 0.824962 184.271C0.0135062 184.552 5.73115 195.562 5.73115 195.562L11.9731 192.577C11.9731 192.577 10.1567 188.649 9.99441 188.692Z" fill="url(#paint10_linear_867_20589)"/>
<path d="M98.6424 165.936C98.6424 165.936 104.66 181.248 85.5343 182.466C74.8956 183.206 64.2199 183.249 53.5754 182.597C52.4956 182.597 17.0162 193.301 17.0162 193.301L13.8516 186.032C13.8516 186.032 41.7968 171.219 50.598 169.458C59.3992 167.697 77.5446 166.335 77.5446 166.335L98.6424 165.936Z" fill="url(#paint11_linear_867_20589)"/>
<path d="M78.2366 120.668C78.7247 121.066 79.092 121.593 79.2971 122.189C79.5022 122.784 79.537 123.426 79.3976 124.04C78.2865 129.661 73.7799 152.017 69.6227 151.43C64.729 150.743 69.7538 130.697 71.6701 126.138C73.268 122.341 75.7773 118.807 78.2366 120.668Z" fill="#EA9F96"/>
<path d="M74.6708 142.898L71.4188 154.926C71.4188 154.926 65.3516 154.682 65.3516 154.358C65.3516 154.033 67.9545 141.73 67.9545 141.73L74.6708 142.898Z" fill="#EA9F96"/>
<path d="M68.4258 136.955L76.3843 142.019L81.1719 124.671L75.6665 120.193C75.6665 120.193 72.9387 121.942 71.2409 126.9C69.5431 131.859 68.4258 136.955 68.4258 136.955Z" fill="white"/>
<path d="M71.8338 133.8C72.5891 141.394 76.9959 144.073 76.6901 150.349C76.3842 156.625 71.6279 165.031 72.7452 166.042C73.8625 167.054 97.326 166.554 98.0314 166.242C98.7367 165.93 96.3148 158.648 96.215 152.272C96.1151 145.896 99.9601 136.092 101.327 128.08C101.951 124.507 101.951 122.34 100.466 120.842C97.5383 117.9 91.365 118.063 91.365 118.063L90.9405 111.581C90.9405 111.581 95.9341 102.169 91.9579 97.7668C87.9818 93.3642 77.6888 92.3962 76.6277 99.1844C75.5665 105.973 78.8685 113.417 81.3841 114.01C82.0976 114.163 82.8312 114.199 83.5563 114.116L83.2941 115.708L82.8447 118.462C82.8447 118.462 78.2943 118.519 76.4716 119.78C74.649 121.042 71.0786 126.2 71.8338 133.8Z" fill="#EA9F96"/>
<g style="mix-blend-mode:multiply" opacity="0.5">
<path d="M83.3047 115.708L88.1859 112.586C86.7815 113.385 83.5668 114.116 83.5668 114.116L83.3047 115.708Z" fill="#EA9F96"/>
</g>
<path d="M97.1797 120.903C96.7077 121.32 96.3608 121.859 96.1778 122.461C95.9948 123.063 95.9829 123.705 96.1435 124.313C97.4606 129.865 102.785 152.072 106.923 151.328C111.786 150.46 106.025 130.614 103.94 126.13C102.217 122.396 99.5829 118.949 97.1797 120.903Z" fill="#EA9F96"/>
<path d="M74.8029 142.873C75.8669 145.178 76.3777 147.699 76.2947 150.236C76.251 154.738 71.7943 164.811 72.2999 166.273C72.6931 167.422 88.0546 167.153 95.1704 166.785C96.356 166.768 97.5388 166.666 98.7096 166.479C99.365 166.073 97.3426 157.062 96.7871 152.509C96.5312 150.429 97.043 147.245 97.6547 144.391C98.2664 141.537 99.1216 138.527 99.3401 137.784C99.3485 137.737 99.361 137.691 99.3775 137.646V137.615L99.9643 139.251L107.792 137.321C105.476 127.461 103.198 123.583 101.013 121.029C98.8282 118.474 94.1467 118.193 94.1467 118.193C94.1467 118.193 91.213 124.438 84.634 124.195C78.055 123.951 81.1135 118.487 81.1135 118.487C81.1135 118.487 78.1985 118.487 76.5819 119.511C74.9652 120.535 73.4921 122.796 72.562 125.562C71.632 128.329 71.245 130.696 71.7069 134.699C71.9878 137.715 73.9103 140.887 74.8029 142.873Z" fill="white"/>
<path d="M108.416 149.4C108.304 150.05 108.026 150.661 107.61 151.173C107.193 151.685 106.652 152.081 106.038 152.322C100.32 154.789 79.8652 163.413 77.9052 161.565C75.6206 159.416 104.696 145.54 106.113 146.415C107.168 147.064 108.634 147.595 108.416 149.4Z" fill="#EA9F96"/>
<path d="M77.1299 161.595C77.5224 161.043 77.9564 160.521 78.4283 160.034C79.4207 159.01 80.7066 158.161 81.6928 159.11C82.679 160.059 82.7227 160.846 82.4294 162.132C82.136 163.419 80.4132 165.979 79.7578 165.573C79.1024 165.167 80.1198 163.119 79.8764 163.132L79.7953 163.182C79.3271 163.637 77.08 167.116 76.4496 166.66C75.8191 166.204 75.9564 163.275 77.1299 161.595Z" fill="#EA9F96"/>
<path d="M58.5458 166.953H91.6719V165.336H58.5458V166.953Z" fill="url(#paint12_linear_867_20589)"/>
<path d="M49.8826 166.96H80.7116L72.0166 145.934H41.1875L49.8826 166.96Z" fill="url(#paint13_linear_867_20589)"/>
<path d="M49.0115 166.96H79.8405L71.1392 145.934H40.3164L49.0115 166.96Z" fill="url(#paint14_linear_867_20589)"/>
<path d="M57.6081 157.492C58.1636 158.879 59.3621 159.703 60.2796 159.335C61.1972 158.966 61.4906 157.542 60.9351 156.156C60.3795 154.77 59.1811 153.939 58.2635 154.282C57.3459 154.626 57.0463 156.1 57.6081 157.492Z" fill="white"/>
<path d="M78.4582 93.8018C78.7328 92.6028 79.8127 91.8471 80.8176 91.2726C84.1571 89.3991 88.3954 89.6926 91.6412 91.6286C95.4738 93.9142 97.1341 98.2357 98.2327 102.357C98.2827 102.563 98.3388 102.776 98.3888 102.982C98.9443 105.399 99.219 108.209 100.886 110.101C101.984 111.35 103.451 112.249 104.406 113.642C105.779 115.653 105.242 118.169 104.962 120.411C104.6 123.278 104.094 126.219 104.593 129.098C104.824 130.441 105.661 132.339 104.493 133.469C103.937 133.899 103.248 134.12 102.546 134.094C95.3864 134.537 83.614 131.365 86.2169 121.923C86.8037 119.793 88.3517 118.107 89.3379 116.177C90.0332 114.733 90.561 113.214 90.9109 111.65C90.9546 111.269 91.6662 104.368 86.9785 102.651C85.5316 102.122 84.1219 101.496 82.7589 100.777C81.2236 99.9524 79.822 98.8996 78.6017 97.6549C76.5169 98.1732 76.3422 101.339 76.3422 101.339C75.2311 96.2872 78.4582 93.8018 78.4582 93.8018Z" fill="url(#paint15_linear_867_20589)"/>
<path d="M139.978 41.2689H63.077C62.083 41.2689 61.0987 41.0729 60.1804 40.6921C59.2622 40.3114 58.4279 39.7533 57.7253 39.0498C57.0227 38.3463 56.4656 37.5112 56.0858 36.5922C55.706 35.6732 55.5109 34.6883 55.5117 33.6938C55.5117 31.6864 56.3088 29.7613 57.7275 28.3419C59.1463 26.9224 61.0706 26.125 63.077 26.125H139.978C141.984 26.125 143.909 26.9224 145.327 28.3419C146.746 29.7613 147.543 31.6864 147.543 33.6938C147.543 35.7018 146.746 37.6275 145.328 39.048C143.909 40.4684 141.985 41.2672 139.978 41.2689Z" fill="white" stroke="#BBE4FF" stroke-width="2.09124" stroke-miterlimit="10"/>
<path d="M74.7682 41.2689H63.077C62.083 41.2689 61.0987 41.0729 60.1804 40.6921C59.2622 40.3114 58.4279 39.7533 57.7253 39.0498C57.0227 38.3463 56.4656 37.5112 56.0858 36.5922C55.706 35.6732 55.5109 34.6883 55.5117 33.6938C55.5117 31.6864 56.3088 29.7613 57.7275 28.3419C59.1463 26.9224 61.0706 26.125 63.077 26.125H74.7682V41.2689Z" fill="url(#paint16_linear_867_20589)"/>
<path d="M61.8232 35.3245C61.3537 35.0139 60.9867 34.5709 60.7688 34.0517C60.5509 33.5324 60.4918 32.9602 60.5989 32.4073C60.706 31.8545 60.9746 31.3458 61.3706 30.9456C61.7667 30.5454 62.2725 30.2717 62.824 30.1591C63.3755 30.0465 63.948 30.1 64.4692 30.3129C64.9903 30.5257 65.4366 30.8884 65.7517 31.3551C66.0669 31.8217 66.2366 32.3714 66.2395 32.9345C66.2424 33.4977 66.0784 34.049 65.7681 34.5189C65.3508 35.1479 64.7013 35.5859 63.9619 35.7369C63.2226 35.8878 62.4535 35.7396 61.8232 35.3245ZM64.5946 31.1342C64.2345 30.898 63.8125 30.7738 63.3819 30.7775C62.9513 30.7811 62.5314 30.9123 62.1753 31.1545C61.8193 31.3967 61.5429 31.7391 61.3812 32.1384C61.2195 32.5377 61.1797 32.9759 61.2668 33.3978C61.3539 33.8197 61.5641 34.2063 61.8707 34.5088C62.1773 34.8113 62.5667 35.016 62.9896 35.0972C63.4125 35.1785 63.8499 35.1324 64.2467 34.965C64.6435 34.7976 64.9817 34.5164 65.2188 34.1567C65.3766 33.9174 65.4856 33.6492 65.5396 33.3677C65.5936 33.0861 65.5916 32.7966 65.5336 32.5159C65.4756 32.2351 65.3628 31.9685 65.2017 31.7314C65.0406 31.4943 64.8343 31.2914 64.5946 31.1342Z" fill="white"/>
<path d="M69.3136 37.3356L65.2812 34.6565L65.7057 34.0195L69.7318 36.6923L69.3136 37.3356Z" fill="white"/>
<path d="M200.635 125.756L178.938 147.463" stroke="#E2F2FE" stroke-width="10.7281" stroke-miterlimit="10" stroke-linecap="round"/>
<path d="M200.635 147.463L178.938 125.756" stroke="#E2F2FE" stroke-width="10.7281" stroke-miterlimit="10" stroke-linecap="round"/>
<path opacity="0.2" d="M212.051 145.075C216.879 133.096 211.086 119.469 199.113 114.639C187.139 109.809 173.519 115.604 168.691 127.583C163.863 139.562 169.656 153.189 181.629 158.019C193.603 162.849 207.223 157.054 212.051 145.075Z" fill="url(#paint17_linear_867_20589)"/>
<path d="M249.203 171.613L245.276 177.471L219.01 159.798L207.594 152.148L211.526 146.277L222.924 153.921L249.203 171.613Z" fill="url(#paint18_linear_867_20589)"/>
<path d="M222.929 153.921L213.866 147.845C216.779 141.887 217.322 135.044 215.385 128.7C213.448 122.356 209.175 116.986 203.43 113.674C197.685 110.362 190.898 109.357 184.441 110.862C177.983 112.366 172.338 116.268 168.647 121.778C164.956 127.288 163.494 133.995 164.557 140.543C165.621 147.09 169.13 152.989 174.375 157.046C179.62 161.103 186.21 163.016 192.811 162.398C199.412 161.78 205.532 158.676 209.933 153.715L219.015 159.798L222.929 153.921ZM177.581 155.451C173.805 152.919 170.865 149.324 169.132 145.12C167.398 140.916 166.95 136.293 167.843 131.834C168.736 127.375 170.93 123.281 174.149 120.07C177.367 116.859 181.465 114.675 185.925 113.794C190.384 112.912 195.004 113.374 199.201 115.12C203.398 116.866 206.984 119.818 209.504 123.602C212.024 127.386 213.366 131.834 213.361 136.381C213.355 140.929 212.001 145.372 209.471 149.15C206.074 154.212 200.808 157.718 194.829 158.899C188.85 160.081 182.647 158.841 177.581 155.451Z" fill="url(#paint19_linear_867_20589)"/>
<path d="M257.69 66.8043L251.66 62.0457C251.275 61.7376 251.027 61.2901 250.97 60.8002C250.912 60.3103 251.051 59.8177 251.354 59.429L259.1 49.5996L262.896 49.0938L268.295 53.3528C268.68 53.6608 268.928 54.1083 268.985 54.5982C269.042 55.0881 268.904 55.5808 268.601 55.9694L260.305 66.492C259.998 66.8781 259.551 67.1275 259.062 67.1859C258.572 67.2444 258.079 67.1072 257.69 66.8043ZM259.275 49.9056L251.61 59.6289C251.485 59.7874 251.392 59.9692 251.337 60.1637C251.282 60.3582 251.266 60.5617 251.29 60.7624C251.314 60.9631 251.377 61.1572 251.476 61.3334C251.574 61.5097 251.707 61.6647 251.866 61.7896L257.896 66.5482C258.215 66.7994 258.622 66.9136 259.025 66.8656C259.429 66.8176 259.797 66.6114 260.049 66.2922L268.345 55.7695C268.47 55.611 268.563 55.4292 268.618 55.2347C268.673 55.0402 268.689 54.8368 268.665 54.636C268.641 54.4353 268.578 54.2412 268.479 54.065C268.38 53.8887 268.248 53.7337 268.089 53.6088L262.802 49.4372L259.275 49.9056Z" fill="white"/>
<path d="M262.852 49.2695L261.21 51.3491L259.188 49.7566L262.852 49.2695Z" fill="white"/>
<path d="M265.821 55.9115L260.371 51.6113L260.228 51.7928L265.678 56.0929L265.821 55.9115Z" fill="white"/>
<path d="M264.95 57.0111L259.5 52.7109L259.357 52.8924L264.807 57.1925L264.95 57.0111Z" fill="white"/>
<path d="M264.075 58.1107L258.625 53.8105L258.482 53.992L263.932 58.2921L264.075 58.1107Z" fill="white"/>
<path d="M263.216 59.2044L257.766 54.9043L257.623 55.0857L263.073 59.3859L263.216 59.2044Z" fill="white"/>
<path d="M262.345 60.3041L256.895 56.0039L256.752 56.1853L262.202 60.4855L262.345 60.3041Z" fill="white"/>
<path d="M261.474 61.4037L256.023 57.1035L255.88 57.285L261.331 61.5851L261.474 61.4037Z" fill="white"/>
<path d="M260.622 62.5013L255.172 58.2012L255.029 58.3826L260.479 62.6827L260.622 62.5013Z" fill="white"/>
<path d="M259.751 63.6009L254.301 59.3008L254.158 59.4822L259.608 63.7823L259.751 63.6009Z" fill="white"/>
<path d="M78.8749 81.0613L72.4519 85.2766C72.0381 85.5446 71.5353 85.6385 71.0526 85.538C70.57 85.4374 70.1465 85.1505 69.874 84.7395L63.0078 74.2731L63.7319 70.5262L69.4807 66.7792C69.8946 66.5112 70.3974 66.4173 70.88 66.5179C71.3626 66.6184 71.7861 66.9053 72.0587 67.3163L79.4055 78.5196C79.6623 78.9298 79.7506 79.4235 79.6516 79.8973C79.5527 80.3711 79.2744 80.7883 78.8749 81.0613ZM63.3574 74.1919L70.1486 84.5459C70.2585 84.7149 70.4007 84.8604 70.567 84.9742C70.7333 85.0879 70.9204 85.1677 71.1177 85.2089C71.3149 85.2501 71.5183 85.2519 71.7162 85.2142C71.9141 85.1766 72.1026 85.1001 72.2709 84.9893L78.6939 80.7803C79.034 80.5559 79.2715 80.206 79.3545 79.807C79.4376 79.408 79.3594 78.9923 79.1371 78.6508L71.7965 67.4412C71.5712 67.1023 71.2215 66.8657 70.8231 66.7827C70.4248 66.6998 70.0098 66.777 69.668 66.9978L64.0502 70.6948L63.3574 74.1919Z" fill="white"/>
<path d="M63.8928 70.6074L65.341 72.8244L63.1875 74.2357L63.8928 70.6074Z" fill="white"/>
<path d="M71.1289 69.8995L65.3242 73.707L65.4508 73.9003L71.2556 70.0927L71.1289 69.8995Z" fill="white"/>
<path d="M71.8946 71.0733L66.0898 74.8809L66.2165 75.0741L72.0212 71.2666L71.8946 71.0733Z" fill="white"/>
<path d="M72.6602 72.2472L66.8555 76.0547L66.9821 76.2479L72.7868 72.4404L72.6602 72.2472Z" fill="white"/>
<path d="M73.4297 73.4132L67.625 77.2207L67.7516 77.4139L73.5563 73.6064L73.4297 73.4132Z" fill="white"/>
<path d="M74.7485 74.9365L68.918 78.7559L69.045 78.9499L74.8755 75.1306L74.7485 74.9365Z" fill="white"/>
<path d="M74.961 75.755L69.1562 79.5625L69.2829 79.7557L75.0876 75.9482L74.961 75.755Z" fill="white"/>
<path d="M75.7383 76.9269L69.9336 80.7344L70.0602 80.9276L75.8649 77.1201L75.7383 76.9269Z" fill="white"/>
<path d="M76.5 78.0948L70.6953 81.9023L70.8219 82.0956L76.6267 78.2881L76.5 78.0948Z" fill="white"/>
<defs>
<linearGradient id="paint0_linear_867_20589" x1="166.506" y1="10.1323" x2="166.506" y2="163.444" gradientUnits="userSpaceOnUse">
<stop stop-color="#E2F4FF"/>
<stop offset="1" stop-color="#D7ECFF"/>
</linearGradient>
<linearGradient id="paint1_linear_867_20589" x1="277.139" y1="182.047" x2="21.3991" y2="182.047" gradientUnits="userSpaceOnUse">
<stop stop-color="#E2F4FF"/>
<stop offset="1" stop-color="#D7ECFF"/>
</linearGradient>
<linearGradient id="paint2_linear_867_20589" x1="266.884" y1="135.998" x2="266.884" y2="172.087" gradientUnits="userSpaceOnUse">
<stop stop-color="#8AD3FF"/>
<stop offset="1" stop-color="#5F9CFF"/>
</linearGradient>
<linearGradient id="paint3_linear_867_20589" x1="274.773" y1="154.082" x2="255.973" y2="154.082" gradientUnits="userSpaceOnUse">
<stop stop-color="#8AD3FF"/>
<stop offset="1" stop-color="#5F9CFF"/>
</linearGradient>
<linearGradient id="paint4_linear_867_20589" x1="269.498" y1="176.321" x2="256.758" y2="176.321" gradientUnits="userSpaceOnUse">
<stop stop-color="#A4DBFF"/>
<stop offset="1" stop-color="#C8E6FF"/>
</linearGradient>
<linearGradient id="paint5_linear_867_20589" x1="270.537" y1="171.606" x2="256.23" y2="171.624" gradientUnits="userSpaceOnUse">
<stop stop-color="#294698"/>
<stop offset="1" stop-color="#0E4BA6"/>
</linearGradient>
<linearGradient id="paint6_linear_867_20589" x1="215.366" y1="38.5161" x2="191.903" y2="95.1995" gradientUnits="userSpaceOnUse">
<stop stop-color="#8AD3FF"/>
<stop offset="1" stop-color="#5F9CFF"/>
</linearGradient>
<linearGradient id="paint7_linear_867_20589" x1="205.325" y1="53.5034" x2="200.109" y2="75.1721" gradientUnits="userSpaceOnUse">
<stop stop-color="#E2F4FF"/>
<stop offset="1" stop-color="#D7ECFF"/>
</linearGradient>
<linearGradient id="paint8_linear_867_20589" x1="23.9964" y1="197.113" x2="29.8162" y2="188.401" gradientUnits="userSpaceOnUse">
<stop stop-color="#294698"/>
<stop offset="1" stop-color="#0E4BA6"/>
</linearGradient>
<linearGradient id="paint9_linear_867_20589" x1="25.7481" y1="190.645" x2="65.3589" y2="165.135" gradientUnits="userSpaceOnUse">
<stop stop-color="#8AD3FF"/>
<stop offset="1" stop-color="#5F9CFF"/>
</linearGradient>
<linearGradient id="paint10_linear_867_20589" x1="1.98572" y1="190.92" x2="12.4598" y2="189.978" gradientUnits="userSpaceOnUse">
<stop stop-color="#294698"/>
<stop offset="1" stop-color="#0E4BA6"/>
</linearGradient>
<linearGradient id="paint11_linear_867_20589" x1="59.162" y1="178.094" x2="102.158" y2="168.692" gradientUnits="userSpaceOnUse">
<stop stop-color="#8AD3FF"/>
<stop offset="1" stop-color="#5F9CFF"/>
</linearGradient>
<linearGradient id="paint12_linear_867_20589" x1="91.6719" y1="166.141" x2="58.5395" y2="166.141" gradientUnits="userSpaceOnUse">
<stop stop-color="#8AD3FF"/>
<stop offset="1" stop-color="#5F9CFF"/>
</linearGradient>
<linearGradient id="paint13_linear_867_20589" x1="80.7116" y1="156.444" x2="41.1875" y2="156.444" gradientUnits="userSpaceOnUse">
<stop stop-color="#8AD3FF"/>
<stop offset="1" stop-color="#5F9CFF"/>
</linearGradient>
<linearGradient id="paint14_linear_867_20589" x1="79.8343" y1="156.444" x2="40.3164" y2="156.444" gradientUnits="userSpaceOnUse">
<stop stop-color="#294698"/>
<stop offset="1" stop-color="#0E4BA6"/>
</linearGradient>
<linearGradient id="paint15_linear_867_20589" x1="105.299" y1="112.068" x2="76.1174" y2="112.068" gradientUnits="userSpaceOnUse">
<stop stop-color="#294698"/>
<stop offset="1" stop-color="#0E4BA6"/>
</linearGradient>
<linearGradient id="paint16_linear_867_20589" x1="55.5117" y1="33.7188" x2="74.7682" y2="33.7188" gradientUnits="userSpaceOnUse">
<stop stop-color="#294698"/>
<stop offset="1" stop-color="#0E4BA6"/>
</linearGradient>
<linearGradient id="paint17_linear_867_20589" x1="167.973" y1="142.986" x2="212.795" y2="129.639" gradientUnits="userSpaceOnUse">
<stop stop-color="#6EBFC1"/>
<stop offset="0.28" stop-color="#64ABB2"/>
<stop offset="0.73" stop-color="#578F9E"/>
<stop offset="1" stop-color="#528597"/>
</linearGradient>
<linearGradient id="paint18_linear_867_20589" x1="207.594" y1="161.877" x2="249.203" y2="161.877" gradientUnits="userSpaceOnUse">
<stop stop-color="#8AD3FF"/>
<stop offset="1" stop-color="#5F9CFF"/>
</linearGradient>
<linearGradient id="paint19_linear_867_20589" x1="164.229" y1="136.348" x2="222.929" y2="136.348" gradientUnits="userSpaceOnUse">
<stop stop-color="#294698"/>
<stop offset="1" stop-color="#0E4BA6"/>
</linearGradient>
</defs>
</svg>
