<svg width="19" height="20" viewBox="0 0 19 20" fill="none" xmlns="http://www.w3.org/2000/svg">
<path d="M4.29167 15.2083H14.7083C14.9167 15.2083 15.0729 15.1128 15.1771 14.9219C15.2813 14.7309 15.2639 14.5486 15.125 14.375L12.2604 10.5469C12.1562 10.408 12.0174 10.3385 11.8437 10.3385C11.6701 10.3385 11.5312 10.408 11.4271 10.5469L8.71875 14.1667L6.79167 11.5885C6.6875 11.4497 6.54861 11.3802 6.375 11.3802C6.20139 11.3802 6.0625 11.4497 5.95833 11.5885L3.875 14.375C3.73611 14.5486 3.71875 14.7309 3.82292 14.9219C3.92708 15.1128 4.08333 15.2083 4.29167 15.2083ZM2.20833 19.375C1.63542 19.375 1.14479 19.1712 0.736458 18.7635C0.328819 18.3552 0.125 17.8646 0.125 17.2917V2.70833C0.125 2.13542 0.328819 1.64479 0.736458 1.23646C1.14479 0.828819 1.63542 0.625 2.20833 0.625H16.7917C17.3646 0.625 17.8552 0.828819 18.2635 1.23646C18.6712 1.64479 18.875 2.13542 18.875 2.70833V17.2917C18.875 17.8646 18.6712 18.3552 18.2635 18.7635C17.8552 19.1712 17.3646 19.375 16.7917 19.375H2.20833Z" fill="#040406"/>
</svg>
