<svg width="28" height="28" viewBox="0 0 28 28" fill="none" xmlns="http://www.w3.org/2000/svg">
<rect y="28" width="28" height="28" rx="5" transform="rotate(-90 0 28)" fill="white"/>
<g clip-path="url(#clip0_281_237)">
<path fill-rule="evenodd" clip-rule="evenodd" d="M16.4447 14.2702C17.2926 12.7165 17.8182 11.2617 17.8182 10.1515C17.8182 8.23013 16.1603 6.54545 13.9545 6.54545C11.7488 6.54545 10.0909 8.23013 10.0909 10.1515C10.0909 11.2617 10.6165 12.7165 11.4645 14.2702C12.2461 15.7023 13.206 17.0484 13.9545 18.017C14.7031 17.0484 15.663 15.7023 16.4447 14.2702ZM15.0529 19.1222C16.6341 17.0996 19.3636 13.1707 19.3636 10.1515C19.3636 7.30641 16.9419 5 13.9545 5C10.9672 5 8.54545 7.30641 8.54545 10.1515C8.54545 13.1707 11.2751 17.0996 12.8562 19.1222C13.4241 19.8486 14.485 19.8486 15.0529 19.1222ZM13.9545 11.1818C14.3813 11.1818 14.7273 10.8359 14.7273 10.4091C14.7273 9.98233 14.3813 9.63636 13.9545 9.63636C13.5278 9.63636 13.1818 9.98233 13.1818 10.4091C13.1818 10.8359 13.5278 11.1818 13.9545 11.1818ZM13.9545 12.7273C15.2349 12.7273 16.2727 11.6894 16.2727 10.4091C16.2727 9.1288 15.2349 8.09091 13.9545 8.09091C12.6743 8.09091 11.6364 9.1288 11.6364 10.4091C11.6364 11.6894 12.6743 12.7273 13.9545 12.7273ZM7.77273 20.4545C7.34596 20.4545 7 20.8005 7 21.2273C7 21.654 7.34596 22 7.77273 22H20.1364C20.5631 22 20.9091 21.654 20.9091 21.2273C20.9091 20.8005 20.5631 20.4545 20.1364 20.4545H7.77273Z" fill="url(#paint0_linear_281_237)"/>
</g>
<defs>
<linearGradient id="paint0_linear_281_237" x1="7.34773" y1="13.5" x2="20.7148" y2="13.5465" gradientUnits="userSpaceOnUse">
<stop stop-color="#18BAD4"/>
<stop offset="0.54" stop-color="#31B680"/>
<stop offset="1" stop-color="#80C242"/>
</linearGradient>
<clipPath id="clip0_281_237">
<rect width="13.9091" height="17" fill="white" transform="translate(7 5)"/>
</clipPath>
</defs>
</svg>
