<svg width="24" height="24" viewBox="0 0 24 24" fill="none" xmlns="http://www.w3.org/2000/svg">
<path d="M10.0909 4.94867C10.7167 4.8022 11.3573 4.72898 12 4.73049C18.3636 4.73049 22 12.0032 22 12.0032C21.4482 13.0356 20.7901 14.0075 20.0364 14.9032M13.9273 13.9305C13.6776 14.1984 13.3765 14.4134 13.042 14.5624C12.7074 14.7115 12.3463 14.7916 11.9801 14.7981C11.6139 14.8046 11.2501 14.7372 10.9106 14.6C10.571 14.4629 10.2625 14.2587 10.0035 13.9997C9.74452 13.7407 9.54036 13.4323 9.40319 13.0927C9.26602 12.7531 9.19866 12.3893 9.20512 12.0231C9.21158 11.6569 9.29174 11.2958 9.4408 10.9613C9.58986 10.6267 9.80478 10.3256 10.0727 10.0759M17.4 17.4032C15.846 18.5878 13.9537 19.244 12 19.2759C5.63636 19.2759 2 12.0032 2 12.0032C3.13081 9.89585 4.69921 8.05468 6.6 6.60322L17.4 17.4032Z" stroke="#040406" stroke-width="2" stroke-linecap="round" stroke-linejoin="round"/>
<path d="M2 2.00391L22 22.0039" stroke="#040406" stroke-width="2" stroke-linecap="round" stroke-linejoin="round"/>
</svg>
