<svg width="22" height="18" viewBox="0 0 22 18" fill="none" xmlns="http://www.w3.org/2000/svg">
<path d="M9.09091 1.94867C9.71667 1.8022 10.3573 1.72898 11 1.73049C17.3636 1.73049 21 9.00322 21 9.00322C20.4482 10.0356 19.7901 11.0075 19.0364 11.9032M12.9273 10.9305C12.6776 11.1984 12.3765 11.4134 12.042 11.5624C11.7074 11.7115 11.3463 11.7916 10.9801 11.7981C10.6139 11.8046 10.2501 11.7372 9.91055 11.6C9.57096 11.4629 9.26247 11.2587 9.0035 10.9997C8.74452 10.7407 8.54036 10.4323 8.40319 10.0927C8.26602 9.75307 8.19866 9.38933 8.20512 9.02314C8.21158 8.65694 8.29174 8.29581 8.4408 7.96126C8.58986 7.62672 8.80478 7.32563 9.07273 7.07595M16.4 14.4032C14.846 15.5878 12.9537 16.244 11 16.2759C4.63636 16.2759 1 9.00322 1 9.00322C2.13081 6.89585 3.69921 5.05468 5.6 3.60322L16.4 14.4032Z" stroke="#040406" stroke-width="2" stroke-linecap="round" stroke-linejoin="round"/>
</svg>
