<svg width="104" height="129" viewBox="0 0 104 129" fill="none" xmlns="http://www.w3.org/2000/svg">
<g opacity="0.7">
<path d="M101.161 128.8C102.342 128.8 103.299 127.843 103.299 126.663C103.299 125.482 102.342 124.525 101.161 124.525C99.9798 124.525 99.0225 125.482 99.0225 126.663C99.0225 127.843 99.9798 128.8 101.161 128.8Z" fill="#C5C5C5"/>
<path d="M76.57 128.8C77.7509 128.8 78.7083 127.843 78.7083 126.663C78.7083 125.482 77.7509 124.525 76.57 124.525C75.389 124.525 74.4316 125.482 74.4316 126.663C74.4316 127.843 75.389 128.8 76.57 128.8Z" fill="#C5C5C5"/>
<path d="M51.9792 128.8C53.1601 128.8 54.1175 127.843 54.1175 126.663C54.1175 125.482 53.1601 124.525 51.9792 124.525C50.7982 124.525 49.8408 125.482 49.8408 126.663C49.8408 127.843 50.7982 128.8 51.9792 128.8Z" fill="#C5C5C5"/>
<path d="M27.3883 128.8C28.5693 128.8 29.5267 127.843 29.5267 126.663C29.5267 125.482 28.5693 124.525 27.3883 124.525C26.2074 124.525 25.25 125.482 25.25 126.663C25.25 127.843 26.2074 128.8 27.3883 128.8Z" fill="#C5C5C5"/>
<path d="M2.79751 128.8C3.97848 128.8 4.93585 127.843 4.93585 126.663C4.93585 125.482 3.97848 124.525 2.79751 124.525C1.61654 124.525 0.65918 125.482 0.65918 126.663C0.65918 127.843 1.61654 128.8 2.79751 128.8Z" fill="#C5C5C5"/>
<path d="M101.161 102.081C102.342 102.081 103.299 101.124 103.299 99.9438C103.299 98.7633 102.342 97.8063 101.161 97.8063C99.9798 97.8063 99.0225 98.7633 99.0225 99.9438C99.0225 101.124 99.9798 102.081 101.161 102.081Z" fill="#C5C5C5"/>
<path d="M76.57 102.081C77.7509 102.081 78.7083 101.124 78.7083 99.9438C78.7083 98.7633 77.7509 97.8063 76.57 97.8063C75.389 97.8063 74.4316 98.7633 74.4316 99.9438C74.4316 101.124 75.389 102.081 76.57 102.081Z" fill="#C5C5C5"/>
<path d="M51.9792 102.081C53.1601 102.081 54.1175 101.124 54.1175 99.9438C54.1175 98.7633 53.1601 97.8063 51.9792 97.8063C50.7982 97.8063 49.8408 98.7633 49.8408 99.9438C49.8408 101.124 50.7982 102.081 51.9792 102.081Z" fill="#C5C5C5"/>
<path d="M27.3883 102.081C28.5693 102.081 29.5267 101.124 29.5267 99.9438C29.5267 98.7633 28.5693 97.8063 27.3883 97.8063C26.2074 97.8063 25.25 98.7633 25.25 99.9438C25.25 101.124 26.2074 102.081 27.3883 102.081Z" fill="#C5C5C5"/>
<path d="M2.79751 102.081C3.97848 102.081 4.93585 101.124 4.93585 99.9438C4.93585 98.7633 3.97848 97.8063 2.79751 97.8063C1.61654 97.8063 0.65918 98.7633 0.65918 99.9438C0.65918 101.124 1.61654 102.081 2.79751 102.081Z" fill="#C5C5C5"/>
<path d="M101.161 75.3625C102.342 75.3625 103.299 74.4055 103.299 73.225C103.299 72.0445 102.342 71.0875 101.161 71.0875C99.9798 71.0875 99.0225 72.0445 99.0225 73.225C99.0225 74.4055 99.9798 75.3625 101.161 75.3625Z" fill="#C5C5C5"/>
<path d="M76.57 75.3625C77.7509 75.3625 78.7083 74.4055 78.7083 73.225C78.7083 72.0445 77.7509 71.0875 76.57 71.0875C75.389 71.0875 74.4316 72.0445 74.4316 73.225C74.4316 74.4055 75.389 75.3625 76.57 75.3625Z" fill="#C5C5C5"/>
<path d="M51.9792 75.3625C53.1601 75.3625 54.1175 74.4055 54.1175 73.225C54.1175 72.0445 53.1601 71.0875 51.9792 71.0875C50.7982 71.0875 49.8408 72.0445 49.8408 73.225C49.8408 74.4055 50.7982 75.3625 51.9792 75.3625Z" fill="#C5C5C5"/>
<path d="M27.3883 75.3625C28.5693 75.3625 29.5267 74.4055 29.5267 73.225C29.5267 72.0445 28.5693 71.0875 27.3883 71.0875C26.2074 71.0875 25.25 72.0445 25.25 73.225C25.25 74.4055 26.2074 75.3625 27.3883 75.3625Z" fill="#C5C5C5"/>
<path d="M2.79751 75.3625C3.97848 75.3625 4.93585 74.4055 4.93585 73.225C4.93585 72.0445 3.97848 71.0875 2.79751 71.0875C1.61654 71.0875 0.65918 72.0445 0.65918 73.225C0.65918 74.4055 1.61654 75.3625 2.79751 75.3625Z" fill="#C5C5C5"/>
<path d="M101.161 48.6438C102.342 48.6438 103.299 47.6868 103.299 46.5063C103.299 45.3258 102.342 44.3688 101.161 44.3688C99.9798 44.3688 99.0225 45.3258 99.0225 46.5063C99.0225 47.6868 99.9798 48.6438 101.161 48.6438Z" fill="#C5C5C5"/>
<path d="M76.57 48.6438C77.7509 48.6438 78.7083 47.6868 78.7083 46.5063C78.7083 45.3258 77.7509 44.3688 76.57 44.3688C75.389 44.3688 74.4316 45.3258 74.4316 46.5063C74.4316 47.6868 75.389 48.6438 76.57 48.6438Z" fill="#C5C5C5"/>
<path d="M51.9792 48.6438C53.1601 48.6438 54.1175 47.6868 54.1175 46.5063C54.1175 45.3258 53.1601 44.3688 51.9792 44.3688C50.7982 44.3688 49.8408 45.3258 49.8408 46.5063C49.8408 47.6868 50.7982 48.6438 51.9792 48.6438Z" fill="#C5C5C5"/>
<path d="M27.3883 48.6438C28.5693 48.6438 29.5267 47.6868 29.5267 46.5063C29.5267 45.3258 28.5693 44.3688 27.3883 44.3688C26.2074 44.3688 25.25 45.3258 25.25 46.5063C25.25 47.6868 26.2074 48.6438 27.3883 48.6438Z" fill="#C5C5C5"/>
<path d="M2.79751 48.6438C3.97848 48.6438 4.93585 47.6868 4.93585 46.5063C4.93585 45.3258 3.97848 44.3688 2.79751 44.3688C1.61654 44.3688 0.65918 45.3258 0.65918 46.5063C0.65918 47.6868 1.61654 48.6438 2.79751 48.6438Z" fill="#C5C5C5"/>
<path d="M101.161 21.925C102.342 21.925 103.299 20.968 103.299 19.7875C103.299 18.607 102.342 17.65 101.161 17.65C99.9798 17.65 99.0225 18.607 99.0225 19.7875C99.0225 20.968 99.9798 21.925 101.161 21.925Z" fill="#C5C5C5"/>
<path d="M76.57 21.925C77.7509 21.925 78.7083 20.968 78.7083 19.7875C78.7083 18.607 77.7509 17.65 76.57 17.65C75.389 17.65 74.4316 18.607 74.4316 19.7875C74.4316 20.968 75.389 21.925 76.57 21.925Z" fill="#C5C5C5"/>
<path d="M51.9792 21.925C53.1601 21.925 54.1175 20.968 54.1175 19.7875C54.1175 18.607 53.1601 17.65 51.9792 17.65C50.7982 17.65 49.8408 18.607 49.8408 19.7875C49.8408 20.968 50.7982 21.925 51.9792 21.925Z" fill="#C5C5C5"/>
<path d="M27.3883 21.925C28.5693 21.925 29.5267 20.968 29.5267 19.7875C29.5267 18.607 28.5693 17.65 27.3883 17.65C26.2074 17.65 25.25 18.607 25.25 19.7875C25.25 20.968 26.2074 21.925 27.3883 21.925Z" fill="#C5C5C5"/>
<path d="M2.79751 21.925C3.97848 21.925 4.93585 20.968 4.93585 19.7875C4.93585 18.607 3.97848 17.65 2.79751 17.65C1.61654 17.65 0.65918 18.607 0.65918 19.7875C0.65918 20.968 1.61654 21.925 2.79751 21.925Z" fill="#C5C5C5"/>
</g>
</svg>
