<svg width="22" height="21" viewBox="0 0 22 21" fill="none" xmlns="http://www.w3.org/2000/svg">
<path d="M13.4262 10.4552C13.4709 10.4796 13.508 10.5158 13.5335 10.5599C13.559 10.604 13.5719 10.6542 13.5709 10.7051C13.5734 10.7486 13.5654 10.792 13.5476 10.8316C13.5297 10.8713 13.5024 10.906 13.4681 10.9328L8.86991 13.2336C8.82612 13.2578 8.77679 13.2702 8.72675 13.2696C8.67672 13.269 8.62772 13.2553 8.58455 13.23C8.54138 13.2047 8.50553 13.1687 8.48053 13.1253C8.45552 13.082 8.44222 13.0329 8.44193 12.9828V8.42742C8.44097 8.37663 8.45384 8.32653 8.47917 8.2825C8.5045 8.23847 8.54134 8.20217 8.58573 8.17748C8.6266 8.15391 8.67295 8.14151 8.72012 8.14153C8.78914 8.14356 8.85642 8.16362 8.91528 8.19973L13.4262 10.4552ZM21.2814 4.7134V16.6969C21.28 17.8315 20.8287 18.9193 20.0263 19.7216C19.224 20.524 18.1362 20.9753 17.0015 20.9767H5.01809C3.88343 20.9753 2.79563 20.524 1.99331 19.7216C1.19098 18.9193 0.73964 17.8315 0.738281 16.6969L0.738281 4.7134C0.73964 3.57874 1.19098 2.49095 1.99331 1.68862C2.79563 0.886296 3.88343 0.434953 5.01809 0.433594L17.0015 0.433594C18.1362 0.434953 19.224 0.886296 20.0263 1.68862C20.8287 2.49095 21.28 3.57874 21.2814 4.7134V4.7134ZM15.2828 10.7051C15.2831 10.3445 15.1857 9.99049 15.0009 9.68077C14.8161 9.37105 14.5509 9.11717 14.2334 8.94613L9.7156 6.69067C9.41131 6.51609 9.06645 6.4246 8.71563 6.42539C8.36481 6.42617 8.02037 6.51921 7.71686 6.69515C7.41335 6.8711 7.16146 7.12378 6.98644 7.42782C6.81143 7.73187 6.71945 8.0766 6.71974 8.42742V12.9828C6.71768 13.3336 6.80885 13.6786 6.98392 13.9826C7.15898 14.2865 7.41165 14.5385 7.71608 14.7127C8.02423 14.8926 8.37442 14.988 8.73125 14.9892C9.06136 14.9907 9.38606 14.9054 9.67281 14.7418L14.2745 12.4419C14.5821 12.2686 14.8379 12.0162 15.0152 11.7108C15.1925 11.4055 15.2849 11.0582 15.2828 10.7051V10.7051Z" fill="white"/>
</svg>
