<svg width="16" height="16" viewBox="0 0 16 16" fill="none" xmlns="http://www.w3.org/2000/svg">
<path d="M8.00065 6.66665C9.47341 6.66665 10.6673 5.47274 10.6673 3.99998C10.6673 2.52722 9.47341 1.33331 8.00065 1.33331C6.52789 1.33331 5.33398 2.52722 5.33398 3.99998C5.33398 5.47274 6.52789 6.66665 8.00065 6.66665Z" stroke="#959595"/>
<path d="M13.3323 12C13.3337 11.8906 13.3337 11.7793 13.3337 11.6666C13.3337 10.01 10.9457 8.66663 8.00033 8.66663C5.05499 8.66663 2.66699 10.01 2.66699 11.6666C2.66699 13.3233 2.66699 14.6666 8.00033 14.6666C9.48766 14.6666 10.5603 14.562 11.3337 14.3753" stroke="#959595" stroke-linecap="round"/>
</svg>
