<svg width="24" height="24" viewBox="0 0 24 24" fill="none" xmlns="http://www.w3.org/2000/svg">
<path d="M11.8067 12.4669C12.3363 12.4669 12.7657 12.0375 12.7657 11.5078C12.7657 10.9782 12.3363 10.5488 11.8067 10.5488C11.277 10.5488 10.8477 10.9782 10.8477 11.5078C10.8477 12.0375 11.277 12.4669 11.8067 12.4669Z" stroke="#040406" stroke-width="1.91803" stroke-linecap="round" stroke-linejoin="round"/>
<path d="M18.5176 12.4669C19.0473 12.4669 19.4766 12.0375 19.4766 11.5078C19.4766 10.9782 19.0473 10.5488 18.5176 10.5488C17.988 10.5488 17.5586 10.9782 17.5586 11.5078C17.5586 12.0375 17.988 12.4669 18.5176 12.4669Z" stroke="#040406" stroke-width="1.91803" stroke-linecap="round" stroke-linejoin="round"/>
<path d="M5.09183 12.4669C5.62148 12.4669 6.05085 12.0375 6.05085 11.5078C6.05085 10.9782 5.62148 10.5488 5.09183 10.5488C4.56218 10.5488 4.13281 10.9782 4.13281 11.5078C4.13281 12.0375 4.56218 12.4669 5.09183 12.4669Z" stroke="#040406" stroke-width="1.91803" stroke-linecap="round" stroke-linejoin="round"/>
</svg>
