<svg width="25" height="25" viewBox="0 0 25 25" fill="none" xmlns="http://www.w3.org/2000/svg">
<g clip-path="url(#clip0_867_19933)">
<mask id="mask0_867_19933" style="mask-type:alpha" maskUnits="userSpaceOnUse" x="0" y="0" width="25" height="26">
<rect y="0.00195312" width="25" height="25" fill="#D9D9D9"/>
</mask>
<g mask="url(#mask0_867_19933)">
<path d="M12.5013 20.8346C11.9284 20.8346 11.4381 20.6308 11.0305 20.2232C10.6221 19.8148 10.418 19.3242 10.418 18.7513C10.418 18.1784 10.6221 17.6878 11.0305 17.2794C11.4381 16.8718 11.9284 16.668 12.5013 16.668C13.0742 16.668 13.5648 16.8718 13.9732 17.2794C14.3808 17.6878 14.5846 18.1784 14.5846 18.7513C14.5846 19.3242 14.3808 19.8148 13.9732 20.2232C13.5648 20.6308 13.0742 20.8346 12.5013 20.8346ZM12.5013 14.5846C11.9284 14.5846 11.4381 14.3805 11.0305 13.9721C10.6221 13.5645 10.418 13.0742 10.418 12.5013C10.418 11.9284 10.6221 11.4378 11.0305 11.0294C11.4381 10.6218 11.9284 10.418 12.5013 10.418C13.0742 10.418 13.5648 10.6218 13.9732 11.0294C14.3808 11.4378 14.5846 11.9284 14.5846 12.5013C14.5846 13.0742 14.3808 13.5645 13.9732 13.9721C13.5648 14.3805 13.0742 14.5846 12.5013 14.5846ZM12.5013 8.33464C11.9284 8.33464 11.4381 8.13047 11.0305 7.72214C10.6221 7.3145 10.418 6.82422 10.418 6.2513C10.418 5.67839 10.6221 5.18811 11.0305 4.78047C11.4381 4.37214 11.9284 4.16797 12.5013 4.16797C13.0742 4.16797 13.5648 4.37214 13.9732 4.78047C14.3808 5.18811 14.5846 5.67839 14.5846 6.2513C14.5846 6.82422 14.3808 7.3145 13.9732 7.72214C13.5648 8.13047 13.0742 8.33464 12.5013 8.33464Z" fill="#040406"/>
</g>
</g>
<defs>
<clipPath id="clip0_867_19933">
<rect width="25" height="25" fill="white" transform="translate(0 0.00195312)"/>
</clipPath>
</defs>
</svg>
