<svg width="507" height="625" viewBox="0 0 507 625" fill="none" xmlns="http://www.w3.org/2000/svg">
<g clip-path="url(#clip0_1_4)">
<mask id="mask0_1_4" style="mask-type:luminance" maskUnits="userSpaceOnUse" x="-1186" y="0" width="1800" height="693">
<path d="M613.419 692.118H-1185.83V0.111115H613.419V692.118Z" fill="white"/>
</mask>
<g mask="url(#mask0_1_4)">
<path d="M386.218 218.297C386.27 218.297 386.322 218.245 386.322 218.192C386.322 218.192 386.27 218.14 386.218 218.14L386.165 218.192C386.165 218.245 386.218 218.297 386.218 218.297Z" fill="#F1F1F1"/>
<path d="M273.44 243.335C273.492 243.335 273.545 243.335 273.545 243.283C273.545 243.23 273.492 243.23 273.44 243.23C273.44 243.23 273.388 243.23 273.388 243.283C273.388 243.335 273.44 243.335 273.44 243.335Z" fill="#F1F1F1"/>
<path d="M298.531 243.493C298.636 243.493 298.741 243.388 298.741 243.283C298.741 243.178 298.636 243.073 298.531 243.073C298.426 243.073 298.321 243.178 298.321 243.283C298.321 243.388 298.426 243.493 298.531 243.493Z" fill="#F1F1F1"/>
<path d="M323.569 243.65C323.779 243.65 323.936 243.492 323.936 243.282C323.936 243.072 323.779 242.915 323.569 242.915C323.411 242.915 323.254 243.072 323.254 243.282C323.254 243.492 323.411 243.65 323.569 243.65Z" fill="#F1F1F1"/>
<path d="M348.66 243.703C348.87 243.703 349.081 243.493 349.081 243.283C349.081 243.073 348.87 242.862 348.66 242.862C348.397 242.862 348.24 243.073 348.24 243.283C348.24 243.493 348.397 243.703 348.66 243.703Z" fill="#F1F1F1"/>
<path d="M373.698 243.756C373.961 243.756 374.171 243.546 374.171 243.283C374.171 243.02 373.961 242.81 373.698 242.81C373.435 242.81 373.225 243.02 373.225 243.283C373.225 243.546 373.435 243.756 373.698 243.756Z" fill="#F1F1F1"/>
<path d="M398.789 243.756C399.052 243.756 399.262 243.546 399.262 243.283C399.262 243.02 399.052 242.81 398.789 242.81C398.526 242.81 398.264 243.02 398.264 243.283C398.264 243.546 398.526 243.756 398.789 243.756Z" fill="#F1F1F1"/>
<path d="M423.828 243.703C424.09 243.703 424.248 243.493 424.248 243.283C424.248 243.073 424.09 242.862 423.828 242.862C423.617 242.862 423.407 243.073 423.407 243.283C423.407 243.493 423.617 243.703 423.828 243.703Z" fill="#F1F1F1"/>
<path d="M448.918 243.65C449.075 243.65 449.233 243.492 449.233 243.282C449.233 243.072 449.075 242.915 448.918 242.915C448.708 242.915 448.551 243.072 448.551 243.282C448.551 243.492 448.708 243.65 448.918 243.65Z" fill="#F1F1F1"/>
<path d="M473.957 243.493C474.062 243.493 474.167 243.388 474.167 243.283C474.167 243.178 474.062 243.073 473.957 243.073C473.852 243.073 473.747 243.178 473.747 243.283C473.747 243.388 473.852 243.493 473.957 243.493Z" fill="#F1F1F1"/>
<path d="M499.047 243.335C499.047 243.335 499.1 243.335 499.1 243.283C499.1 243.23 499.047 243.23 499.047 243.23C498.995 243.23 498.943 243.23 498.943 243.283C498.943 243.335 498.995 243.335 499.047 243.335Z" fill="#F1F1F1"/>
<path d="M235.882 268.478C235.935 268.478 235.987 268.425 235.987 268.321C235.987 268.268 235.935 268.216 235.882 268.216C235.778 268.216 235.725 268.268 235.725 268.321C235.725 268.425 235.778 268.478 235.882 268.478Z" fill="#F1F1F1"/>
<path d="M260.921 268.741C261.131 268.741 261.341 268.583 261.341 268.321C261.341 268.11 261.131 267.953 260.921 267.953C260.711 267.953 260.5 268.11 260.5 268.321C260.5 268.583 260.711 268.741 260.921 268.741Z" fill="#F1F1F1"/>
<path d="M286.012 268.951C286.327 268.951 286.59 268.688 286.59 268.321C286.59 268.005 286.327 267.742 286.012 267.742C285.644 267.742 285.381 268.005 285.381 268.321C285.381 268.688 285.644 268.951 286.012 268.951Z" fill="#F1F1F1"/>
<path d="M311.05 269.162C311.524 269.162 311.892 268.794 311.892 268.321C311.892 267.9 311.524 267.532 311.05 267.532C310.577 267.532 310.209 267.9 310.209 268.321C310.209 268.794 310.577 269.162 311.05 269.162Z" fill="#F1F1F1"/>
<path d="M336.141 269.32C336.667 269.32 337.088 268.9 337.088 268.321C337.088 267.795 336.667 267.374 336.141 267.374C335.563 267.374 335.142 267.795 335.142 268.321C335.142 268.9 335.563 269.32 336.141 269.32Z" fill="#F1F1F1"/>
<path d="M361.179 269.478C361.811 269.478 362.284 268.952 362.284 268.321C362.284 267.742 361.811 267.216 361.179 267.216C360.548 267.216 360.075 267.742 360.075 268.321C360.075 268.952 360.548 269.478 361.179 269.478Z" fill="#F1F1F1"/>
<path d="M386.218 269.478C386.849 269.478 387.375 268.952 387.375 268.321C387.375 267.742 386.849 267.216 386.218 267.216C385.639 267.216 385.113 267.742 385.113 268.321C385.113 268.952 385.639 269.478 386.218 269.478Z" fill="#F1F1F1"/>
<path d="M411.309 269.478C411.94 269.478 412.413 268.952 412.413 268.321C412.413 267.742 411.94 267.216 411.309 267.216C410.678 267.216 410.204 267.742 410.204 268.321C410.204 268.952 410.678 269.478 411.309 269.478Z" fill="#F1F1F1"/>
<path d="M436.347 269.373C436.926 269.373 437.399 268.9 437.399 268.321C437.399 267.742 436.926 267.322 436.347 267.322C435.768 267.322 435.348 267.742 435.348 268.321C435.348 268.9 435.768 269.373 436.347 269.373Z" fill="#F1F1F1"/>
<path d="M461.438 269.162C461.911 269.162 462.28 268.794 462.28 268.321C462.28 267.9 461.911 267.532 461.438 267.532C460.965 267.532 460.596 267.9 460.596 268.321C460.596 268.794 460.965 269.162 461.438 269.162Z" fill="#F1F1F1"/>
<path d="M486.476 268.951C486.844 268.951 487.107 268.688 487.107 268.321C487.107 268.005 486.844 267.742 486.476 267.742C486.16 267.742 485.845 268.005 485.845 268.321C485.845 268.688 486.16 268.951 486.476 268.951Z" fill="#F1F1F1"/>
<path d="M198.272 293.568C198.325 293.568 198.429 293.463 198.429 293.411C198.429 293.306 198.325 293.253 198.272 293.253C198.167 293.253 198.115 293.306 198.115 293.411C198.115 293.463 198.167 293.568 198.272 293.568Z" fill="#F1F1F1"/>
<path d="M223.311 293.832C223.574 293.832 223.731 293.621 223.731 293.411C223.731 293.201 223.574 292.991 223.311 292.991C223.1 292.991 222.89 293.201 222.89 293.411C222.89 293.621 223.1 293.832 223.311 293.832Z" fill="#F1F1F1"/>
<path d="M248.402 294.148C248.823 294.148 249.138 293.832 249.138 293.411C249.138 292.991 248.823 292.622 248.402 292.622C247.981 292.622 247.613 292.991 247.613 293.411C247.613 293.832 247.981 294.148 248.402 294.148Z" fill="#F1F1F1"/>
<path d="M273.44 294.516C274.072 294.516 274.545 294.043 274.545 293.411C274.545 292.78 274.072 292.307 273.44 292.307C272.862 292.307 272.336 292.78 272.336 293.411C272.336 294.043 272.862 294.516 273.44 294.516Z" fill="#F1F1F1"/>
<path d="M298.531 294.726C299.268 294.726 299.846 294.148 299.846 293.411C299.846 292.675 299.268 292.096 298.531 292.096C297.795 292.096 297.216 292.675 297.216 293.411C297.216 294.148 297.795 294.726 298.531 294.726Z" fill="#F1F1F1"/>
<path d="M323.569 294.989C324.464 294.989 325.2 294.306 325.2 293.411C325.2 292.517 324.464 291.833 323.569 291.833C322.675 291.833 321.991 292.517 321.991 293.411C321.991 294.306 322.675 294.989 323.569 294.989Z" fill="#F1F1F1"/>
<path d="M348.66 295.147C349.607 295.147 350.396 294.358 350.396 293.411C350.396 292.464 349.607 291.675 348.66 291.675C347.713 291.675 346.924 292.464 346.924 293.411C346.924 294.358 347.713 295.147 348.66 295.147Z" fill="#F1F1F1"/>
<path d="M373.699 295.2C374.698 295.2 375.54 294.411 375.54 293.411C375.54 292.412 374.698 291.623 373.699 291.623C372.699 291.623 371.91 292.412 371.91 293.411C371.91 294.411 372.699 295.2 373.699 295.2Z" fill="#F1F1F1"/>
<path d="M398.79 295.2C399.789 295.2 400.578 294.411 400.578 293.411C400.578 292.412 399.789 291.623 398.79 291.623C397.79 291.623 396.948 292.412 396.948 293.411C396.948 294.411 397.79 295.2 398.79 295.2Z" fill="#F1F1F1"/>
<path d="M423.828 295.147C424.775 295.147 425.564 294.358 425.564 293.411C425.564 292.464 424.775 291.675 423.828 291.675C422.881 291.675 422.092 292.464 422.092 293.411C422.092 294.358 422.881 295.147 423.828 295.147Z" fill="#F1F1F1"/>
<path d="M448.919 294.989C449.76 294.989 450.497 294.306 450.497 293.411C450.497 292.517 449.76 291.833 448.919 291.833C448.024 291.833 447.288 292.517 447.288 293.411C447.288 294.306 448.024 294.989 448.919 294.989Z" fill="#F1F1F1"/>
<path d="M473.957 294.779C474.746 294.779 475.377 294.2 475.377 293.411C475.377 292.622 474.746 291.991 473.957 291.991C473.221 291.991 472.589 292.622 472.589 293.411C472.589 294.2 473.221 294.779 473.957 294.779Z" fill="#F1F1F1"/>
<path d="M499.048 294.516C499.627 294.516 500.153 294.043 500.153 293.411C500.153 292.78 499.627 292.307 499.048 292.307C498.417 292.307 497.891 292.78 497.891 293.411C497.891 294.043 498.417 294.516 499.048 294.516Z" fill="#F1F1F1"/>
<path d="M185.753 318.764C185.91 318.764 186.015 318.606 186.015 318.449C186.015 318.291 185.91 318.186 185.753 318.186C185.595 318.186 185.438 318.291 185.438 318.449C185.438 318.606 185.595 318.764 185.753 318.764Z" fill="#F1F1F1"/>
<path d="M210.792 319.186C211.16 319.186 211.476 318.87 211.476 318.449C211.476 318.081 211.16 317.765 210.792 317.765C210.424 317.765 210.108 318.081 210.108 318.449C210.108 318.87 210.424 319.186 210.792 319.186Z" fill="#F1F1F1"/>
<path d="M235.883 319.606C236.461 319.606 236.987 319.08 236.987 318.449C236.987 317.871 236.461 317.344 235.883 317.344C235.252 317.344 234.726 317.871 234.726 318.449C234.726 319.08 235.252 319.606 235.883 319.606Z" fill="#F1F1F1"/>
<path d="M260.921 319.975C261.763 319.975 262.447 319.291 262.447 318.449C262.447 317.608 261.763 316.924 260.921 316.924C260.08 316.924 259.396 317.608 259.396 318.449C259.396 319.291 260.08 319.975 260.921 319.975Z" fill="#F1F1F1"/>
<path d="M286.012 320.343C287.011 320.343 287.853 319.501 287.853 318.449C287.853 317.45 287.011 316.608 286.012 316.608C284.96 316.608 284.118 317.45 284.118 318.449C284.118 319.501 284.96 320.343 286.012 320.343Z" fill="#F1F1F1"/>
<path d="M311.05 320.606C312.26 320.606 313.207 319.659 313.207 318.449C313.207 317.292 312.26 316.293 311.05 316.293C309.84 316.293 308.894 317.292 308.894 318.449C308.894 319.659 309.84 320.606 311.05 320.606Z" fill="#F1F1F1"/>
<path d="M336.141 320.816C337.404 320.816 338.456 319.764 338.456 318.449C338.456 317.187 337.404 316.082 336.141 316.082C334.826 316.082 333.774 317.187 333.774 318.449C333.774 319.764 334.826 320.816 336.141 320.816Z" fill="#F1F1F1"/>
<path d="M361.179 320.974C362.547 320.974 363.704 319.869 363.704 318.449C363.704 317.082 362.547 315.977 361.179 315.977C359.812 315.977 358.655 317.082 358.655 318.449C358.655 319.869 359.812 320.974 361.179 320.974Z" fill="#F1F1F1"/>
<path d="M386.218 321.027C387.638 321.027 388.795 319.869 388.795 318.449C388.795 317.029 387.638 315.872 386.218 315.872C384.798 315.872 383.693 317.029 383.693 318.449C383.693 319.869 384.798 321.027 386.218 321.027Z" fill="#F1F1F1"/>
<path d="M411.309 320.974C412.676 320.974 413.781 319.869 413.781 318.449C413.781 317.082 412.676 315.977 411.309 315.977C409.941 315.977 408.784 317.082 408.784 318.449C408.784 319.869 409.941 320.974 411.309 320.974Z" fill="#F1F1F1"/>
<path d="M436.347 320.816C437.662 320.816 438.714 319.764 438.714 318.449C438.714 317.187 437.662 316.082 436.347 316.082C435.085 316.082 433.98 317.187 433.98 318.449C433.98 319.764 435.085 320.816 436.347 320.816Z" fill="#F1F1F1"/>
<path d="M461.438 320.606C462.595 320.606 463.595 319.659 463.595 318.449C463.595 317.292 462.595 316.293 461.438 316.293C460.228 316.293 459.281 317.292 459.281 318.449C459.281 319.659 460.228 320.606 461.438 320.606Z" fill="#F1F1F1"/>
<path d="M486.476 320.343C487.528 320.343 488.37 319.501 488.37 318.449C488.37 317.45 487.528 316.608 486.476 316.608C485.477 316.608 484.635 317.45 484.635 318.449C484.635 319.501 485.477 320.343 486.476 320.343Z" fill="#F1F1F1"/>
<path d="M148.143 343.591C148.194 343.591 148.194 343.591 148.194 343.539C148.194 343.487 148.194 343.487 148.143 343.487C148.091 343.487 148.091 343.487 148.091 343.539C148.091 343.591 148.091 343.591 148.143 343.591Z" fill="#F1F1F1"/>
<path d="M173.181 344.012C173.497 344.012 173.707 343.802 173.707 343.539C173.707 343.276 173.497 343.066 173.181 343.066C172.919 343.066 172.708 343.276 172.708 343.539C172.708 343.802 172.919 344.012 173.181 344.012Z" fill="#F1F1F1"/>
<path d="M198.273 344.486C198.799 344.486 199.22 344.066 199.22 343.54C199.22 343.014 198.799 342.54 198.273 342.54C197.747 342.54 197.273 343.014 197.273 343.54C197.273 344.066 197.747 344.486 198.273 344.486Z" fill="#F1F1F1"/>
<path d="M223.311 344.907C224.1 344.907 224.731 344.276 224.731 343.54C224.731 342.751 224.1 342.119 223.311 342.119C222.575 342.119 221.943 342.751 221.943 343.54C221.943 344.276 222.575 344.907 223.311 344.907Z" fill="#F1F1F1"/>
<path d="M248.402 345.433C249.454 345.433 250.296 344.592 250.296 343.54C250.296 342.488 249.454 341.646 248.402 341.646C247.35 341.646 246.508 342.488 246.508 343.54C246.508 344.592 247.35 345.433 248.402 345.433Z" fill="#F1F1F1"/>
<path d="M273.44 345.801C274.703 345.801 275.755 344.802 275.755 343.54C275.755 342.277 274.703 341.225 273.44 341.225C272.178 341.225 271.178 342.277 271.178 343.54C271.178 344.802 272.178 345.801 273.44 345.801Z" fill="#F1F1F1"/>
<path d="M298.531 346.17C300.004 346.17 301.161 345.012 301.161 343.54C301.161 342.067 300.004 340.91 298.531 340.91C297.058 340.91 295.901 342.067 295.901 343.54C295.901 345.012 297.058 346.17 298.531 346.17Z" fill="#F1F1F1"/>
<path d="M323.569 346.433C325.2 346.433 326.515 345.118 326.515 343.54C326.515 341.909 325.2 340.594 323.569 340.594C321.991 340.594 320.676 341.909 320.676 343.54C320.676 345.118 321.991 346.433 323.569 346.433Z" fill="#F1F1F1"/>
<path d="M348.66 346.748C350.396 346.748 351.869 345.275 351.869 343.54C351.869 341.751 350.396 340.331 348.66 340.331C346.872 340.331 345.452 341.751 345.452 343.54C345.452 345.275 346.872 346.748 348.66 346.748Z" fill="#F1F1F1"/>
<path d="M373.699 346.801C375.54 346.801 376.96 345.328 376.96 343.54C376.96 341.751 375.54 340.278 373.699 340.278C371.91 340.278 370.437 341.751 370.437 343.54C370.437 345.328 371.91 346.801 373.699 346.801Z" fill="#F1F1F1"/>
<path d="M398.79 346.801C400.578 346.801 402.051 345.328 402.051 343.54C402.051 341.751 400.578 340.278 398.79 340.278C396.949 340.278 395.528 341.751 395.528 343.54C395.528 345.328 396.949 346.801 398.79 346.801Z" fill="#F1F1F1"/>
<path d="M423.828 346.748C425.616 346.748 427.037 345.275 427.037 343.54C427.037 341.751 425.616 340.331 423.828 340.331C422.092 340.331 420.619 341.751 420.619 343.54C420.619 345.275 422.092 346.748 423.828 346.748Z" fill="#F1F1F1"/>
<path d="M448.919 346.538C450.549 346.538 451.864 345.17 451.864 343.54C451.864 341.856 450.549 340.541 448.919 340.541C447.236 340.541 445.92 341.856 445.92 343.54C445.92 345.17 447.236 346.538 448.919 346.538Z" fill="#F1F1F1"/>
<path d="M473.957 346.222C475.483 346.222 476.692 345.012 476.692 343.54C476.692 342.014 475.483 340.804 473.957 340.804C472.484 340.804 471.274 342.014 471.274 343.54C471.274 345.012 472.484 346.222 473.957 346.222Z" fill="#F1F1F1"/>
<path d="M499.048 345.907C500.31 345.907 501.415 344.855 501.415 343.54C501.415 342.225 500.31 341.173 499.048 341.173C497.733 341.173 496.681 342.225 496.681 343.54C496.681 344.855 497.733 345.907 499.048 345.907Z" fill="#F1F1F1"/>
<path d="M135.624 368.734C135.676 368.734 135.729 368.682 135.729 368.577C135.729 368.525 135.676 368.472 135.624 368.472C135.519 368.472 135.466 368.525 135.466 368.577C135.466 368.682 135.519 368.734 135.624 368.734Z" fill="#F1F1F1"/>
<path d="M160.662 369.208C161.03 369.208 161.293 368.945 161.293 368.577C161.293 368.262 161.03 367.946 160.662 367.946C160.347 367.946 160.031 368.262 160.031 368.577C160.031 368.945 160.347 369.208 160.662 369.208Z" fill="#F1F1F1"/>
<path d="M185.754 369.682C186.332 369.682 186.858 369.209 186.858 368.577C186.858 367.999 186.332 367.473 185.754 367.473C185.122 367.473 184.649 367.999 184.649 368.577C184.649 369.209 185.122 369.682 185.754 369.682Z" fill="#F1F1F1"/>
<path d="M210.792 370.261C211.739 370.261 212.475 369.524 212.475 368.577C212.475 367.683 211.739 366.947 210.792 366.947C209.898 366.947 209.109 367.683 209.109 368.577C209.109 369.524 209.898 370.261 210.792 370.261Z" fill="#F1F1F1"/>
<path d="M235.883 370.734C237.04 370.734 238.04 369.787 238.04 368.577C238.04 367.42 237.04 366.421 235.883 366.421C234.673 366.421 233.726 367.42 233.726 368.577C233.726 369.787 234.673 370.734 235.883 370.734Z" fill="#F1F1F1"/>
<path d="M260.921 371.26C262.394 371.26 263.551 370.05 263.551 368.577C263.551 367.157 262.394 365.947 260.921 365.947C259.448 365.947 258.291 367.157 258.291 368.577C258.291 370.05 259.448 371.26 260.921 371.26Z" fill="#F1F1F1"/>
<path d="M286.012 371.733C287.695 371.733 289.116 370.313 289.116 368.577C289.116 366.842 287.695 365.474 286.012 365.474C284.276 365.474 282.856 366.842 282.856 368.577C282.856 370.313 284.276 371.733 286.012 371.733Z" fill="#F1F1F1"/>
<path d="M311.05 372.049C312.997 372.049 314.522 370.524 314.522 368.577C314.522 366.684 312.997 365.106 311.05 365.106C309.157 365.106 307.579 366.684 307.579 368.577C307.579 370.524 309.157 372.049 311.05 372.049Z" fill="#F1F1F1"/>
<path d="M336.141 372.417C338.245 372.417 339.928 370.681 339.928 368.577C339.928 366.473 338.245 364.79 336.141 364.79C333.985 364.79 332.301 366.473 332.301 368.577C332.301 370.681 333.985 372.417 336.141 372.417Z" fill="#F1F1F1"/>
<path d="M361.179 372.575C363.389 372.575 365.125 370.787 365.125 368.577C365.125 366.421 363.389 364.632 361.179 364.632C358.97 364.632 357.234 366.421 357.234 368.577C357.234 370.787 358.97 372.575 361.179 372.575Z" fill="#F1F1F1"/>
<path d="M386.218 372.628C388.48 372.628 390.268 370.839 390.268 368.577C390.268 366.368 388.48 364.58 386.218 364.58C384.009 364.58 382.22 366.368 382.22 368.577C382.22 370.839 384.009 372.628 386.218 372.628Z" fill="#F1F1F1"/>
<path d="M411.309 372.628C413.518 372.628 415.359 370.839 415.359 368.577C415.359 366.368 413.518 364.58 411.309 364.58C409.1 364.58 407.258 366.368 407.258 368.577C407.258 370.839 409.1 372.628 411.309 372.628Z" fill="#F1F1F1"/>
<path d="M436.347 372.417C438.504 372.417 440.187 370.681 440.187 368.577C440.187 366.473 438.504 364.79 436.347 364.79C434.243 364.79 432.56 366.473 432.56 368.577C432.56 370.681 434.243 372.417 436.347 372.417Z" fill="#F1F1F1"/>
<path d="M461.438 372.154C463.384 372.154 464.962 370.576 464.962 368.577C464.962 366.631 463.384 365.053 461.438 365.053C459.492 365.053 457.861 366.631 457.861 368.577C457.861 370.576 459.492 372.154 461.438 372.154Z" fill="#F1F1F1"/>
<path d="M486.476 371.733C488.212 371.733 489.632 370.313 489.632 368.577C489.632 366.842 488.212 365.474 486.476 365.474C484.793 365.474 483.373 366.842 483.373 368.577C483.373 370.313 484.793 371.733 486.476 371.733Z" fill="#F1F1F1"/>
<path d="M123.105 393.772C123.157 393.772 123.21 393.72 123.21 393.667C123.21 393.562 123.157 393.51 123.105 393.51C123 393.51 122.947 393.562 122.947 393.667C122.947 393.72 123 393.772 123.105 393.772Z" fill="#F1F1F1"/>
<path d="M148.143 394.298C148.511 394.298 148.774 393.983 148.774 393.667C148.774 393.299 148.511 393.037 148.143 393.037C147.775 393.037 147.512 393.299 147.512 393.667C147.512 393.983 147.775 394.298 148.143 394.298Z" fill="#F1F1F1"/>
<path d="M173.182 394.825C173.866 394.825 174.392 394.299 174.392 393.668C174.392 392.984 173.866 392.458 173.182 392.458C172.551 392.458 172.025 392.984 172.025 393.668C172.025 394.299 172.551 394.825 173.182 394.825Z" fill="#F1F1F1"/>
<path d="M198.273 395.456C199.272 395.456 200.061 394.667 200.061 393.668C200.061 392.668 199.272 391.827 198.273 391.827C197.273 391.827 196.484 392.668 196.484 393.668C196.484 394.667 197.273 395.456 198.273 395.456Z" fill="#F1F1F1"/>
<path d="M223.311 396.035C224.626 396.035 225.678 394.983 225.678 393.668C225.678 392.353 224.626 391.301 223.311 391.301C222.049 391.301 220.944 392.353 220.944 393.668C220.944 394.983 222.049 396.035 223.311 396.035Z" fill="#F1F1F1"/>
<path d="M248.402 396.561C250.033 396.561 251.295 395.246 251.295 393.668C251.295 392.037 250.033 390.722 248.402 390.722C246.771 390.722 245.456 392.037 245.456 393.668C245.456 395.246 246.771 396.561 248.402 396.561Z" fill="#F1F1F1"/>
<path d="M273.44 397.139C275.387 397.139 276.912 395.561 276.912 393.668C276.912 391.722 275.387 390.196 273.44 390.196C271.547 390.196 269.969 391.722 269.969 393.668C269.969 395.561 271.547 397.139 273.44 397.139Z" fill="#F1F1F1"/>
<path d="M298.531 397.613C300.688 397.613 302.476 395.824 302.476 393.668C302.476 391.459 300.688 389.67 298.531 389.67C296.322 389.67 294.533 391.459 294.533 393.668C294.533 395.824 296.322 397.613 298.531 397.613Z" fill="#F1F1F1"/>
<path d="M323.569 398.034C325.989 398.034 327.988 396.087 327.988 393.668C327.988 391.248 325.989 389.302 323.569 389.302C321.15 389.302 319.203 391.248 319.203 393.668C319.203 396.087 321.15 398.034 323.569 398.034Z" fill="#F1F1F1"/>
<path d="M348.66 398.297C351.238 398.297 353.289 396.245 353.289 393.668C353.289 391.09 351.238 388.986 348.66 388.986C346.083 388.986 343.979 391.09 343.979 393.668C343.979 396.245 346.083 398.297 348.66 398.297Z" fill="#F1F1F1"/>
<path d="M373.699 398.454C376.381 398.454 378.486 396.298 378.486 393.668C378.486 390.985 376.381 388.881 373.699 388.881C371.069 388.881 368.912 390.985 368.912 393.668C368.912 396.298 371.069 398.454 373.699 398.454Z" fill="#F1F1F1"/>
<path d="M398.79 398.507C401.472 398.507 403.629 396.35 403.629 393.668C403.629 390.985 401.472 388.776 398.79 388.776C396.107 388.776 393.898 390.985 393.898 393.668C393.898 396.35 396.107 398.507 398.79 398.507Z" fill="#F1F1F1"/>
<path d="M423.828 398.402C426.458 398.402 428.562 396.245 428.562 393.668C428.562 391.038 426.458 388.934 423.828 388.934C421.25 388.934 419.094 391.038 419.094 393.668C419.094 396.245 421.25 398.402 423.828 398.402Z" fill="#F1F1F1"/>
<path d="M448.919 398.034C451.339 398.034 453.285 396.087 453.285 393.668C453.285 391.248 451.339 389.302 448.919 389.302C446.499 389.302 444.5 391.248 444.5 393.668C444.5 396.087 446.499 398.034 448.919 398.034Z" fill="#F1F1F1"/>
<path d="M473.957 397.665C476.166 397.665 478.007 395.877 478.007 393.668C478.007 391.406 476.166 389.618 473.957 389.618C471.748 389.618 469.907 391.406 469.907 393.668C469.907 395.877 471.748 397.665 473.957 397.665Z" fill="#F1F1F1"/>
<path d="M499.048 397.192C500.994 397.192 502.572 395.614 502.572 393.668C502.572 391.722 500.994 390.091 499.048 390.091C497.049 390.091 495.471 391.722 495.471 393.668C495.471 395.614 497.049 397.192 499.048 397.192Z" fill="#F1F1F1"/>
<path d="M110.533 418.863C110.638 418.863 110.69 418.81 110.69 418.705C110.69 418.653 110.638 418.6 110.533 418.6C110.481 418.6 110.428 418.653 110.428 418.705C110.428 418.81 110.481 418.863 110.533 418.863Z" fill="#F1F1F1"/>
<path d="M135.624 419.336C135.939 419.336 136.255 419.073 136.255 418.705C136.255 418.39 135.939 418.074 135.624 418.074C135.256 418.074 134.993 418.39 134.993 418.705C134.993 419.073 135.256 419.336 135.624 419.336Z" fill="#F1F1F1"/>
<path d="M160.663 419.968C161.347 419.968 161.925 419.389 161.925 418.706C161.925 418.022 161.347 417.443 160.663 417.443C159.979 417.443 159.4 418.022 159.4 418.706C159.4 419.389 159.979 419.968 160.663 419.968Z" fill="#F1F1F1"/>
<path d="M185.754 420.599C186.753 420.599 187.595 419.758 187.595 418.706C187.595 417.706 186.753 416.865 185.754 416.865C184.702 416.865 183.86 417.706 183.86 418.706C183.86 419.758 184.702 420.599 185.754 420.599Z" fill="#F1F1F1"/>
<path d="M210.792 421.23C212.159 421.23 213.317 420.126 213.317 418.706C213.317 417.338 212.159 416.233 210.792 416.233C209.424 416.233 208.32 417.338 208.32 418.706C208.32 420.126 209.424 421.23 210.792 421.23Z" fill="#F1F1F1"/>
<path d="M235.883 421.862C237.566 421.862 238.986 420.441 238.986 418.706C238.986 416.97 237.566 415.602 235.883 415.602C234.147 415.602 232.727 416.97 232.727 418.706C232.727 420.441 234.147 421.862 235.883 421.862Z" fill="#F1F1F1"/>
<path d="M260.921 422.493C263.025 422.493 264.656 420.81 264.656 418.706C264.656 416.654 263.025 414.971 260.921 414.971C258.87 414.971 257.186 416.654 257.186 418.706C257.186 420.81 258.87 422.493 260.921 422.493Z" fill="#F1F1F1"/>
<path d="M286.012 423.019C288.379 423.019 290.273 421.125 290.273 418.706C290.273 416.339 288.379 414.392 286.012 414.392C283.592 414.392 281.699 416.339 281.699 418.706C281.699 421.125 283.592 423.019 286.012 423.019Z" fill="#F1F1F1"/>
<path d="M311.05 423.492C313.68 423.492 315.837 421.388 315.837 418.706C315.837 416.076 313.68 413.919 311.05 413.919C308.42 413.919 306.264 416.076 306.264 418.706C306.264 421.388 308.42 423.492 311.05 423.492Z" fill="#F1F1F1"/>
<path d="M336.141 424.018C339.034 424.018 341.401 421.651 341.401 418.706C341.401 415.813 339.034 413.446 336.141 413.446C333.196 413.446 330.828 415.813 330.828 418.706C330.828 421.651 333.196 424.018 336.141 424.018Z" fill="#F1F1F1"/>
<path d="M361.18 424.281C364.23 424.281 366.755 421.809 366.755 418.706C366.755 415.655 364.23 413.183 361.18 413.183C358.129 413.183 355.604 415.655 355.604 418.706C355.604 421.809 358.129 424.281 361.18 424.281Z" fill="#F1F1F1"/>
<path d="M386.218 424.334C389.374 424.334 391.846 421.809 391.846 418.706C391.846 415.602 389.374 413.077 386.218 413.077C383.114 413.077 380.589 415.602 380.589 418.706C380.589 421.809 383.114 424.334 386.218 424.334Z" fill="#F1F1F1"/>
<path d="M411.309 424.281C414.36 424.281 416.884 421.809 416.884 418.706C416.884 415.655 414.36 413.183 411.309 413.183C408.258 413.183 405.733 415.655 405.733 418.706C405.733 421.809 408.258 424.281 411.309 424.281Z" fill="#F1F1F1"/>
<path d="M436.347 424.018C439.293 424.018 441.66 421.651 441.66 418.706C441.66 415.813 439.293 413.446 436.347 413.446C433.454 413.446 431.087 415.813 431.087 418.706C431.087 421.651 433.454 424.018 436.347 424.018Z" fill="#F1F1F1"/>
<path d="M461.438 423.598C464.121 423.598 466.277 421.388 466.277 418.706C466.277 416.023 464.121 413.866 461.438 413.866C458.755 413.866 456.546 416.023 456.546 418.706C456.546 421.388 458.755 423.598 461.438 423.598Z" fill="#F1F1F1"/>
<path d="M486.476 423.124C488.896 423.124 490.895 421.125 490.895 418.706C490.895 416.286 488.896 414.34 486.476 414.34C484.057 414.34 482.11 416.286 482.11 418.706C482.11 421.125 484.057 423.124 486.476 423.124Z" fill="#F1F1F1"/>
<path d="M98.0145 443.849C98.0672 443.849 98.0672 443.796 98.0672 443.796C98.0672 443.743 98.0672 443.691 98.0145 443.691C97.9618 443.691 97.9618 443.743 97.9618 443.796C97.9618 443.796 97.9618 443.849 98.0145 443.849Z" fill="#F1F1F1"/>
<path d="M123.105 444.321C123.368 444.321 123.63 444.111 123.63 443.796C123.63 443.48 123.368 443.218 123.105 443.218C122.789 443.218 122.527 443.48 122.527 443.796C122.527 444.111 122.789 444.321 123.105 444.321Z" fill="#F1F1F1"/>
<path d="M148.144 444.901C148.775 444.901 149.248 444.375 149.248 443.796C149.248 443.165 148.775 442.691 148.144 442.691C147.512 442.691 147.039 443.165 147.039 443.796C147.039 444.375 147.512 444.901 148.144 444.901Z" fill="#F1F1F1"/>
<path d="M173.182 445.585C174.181 445.585 175.023 444.796 175.023 443.796C175.023 442.797 174.181 441.955 173.182 441.955C172.182 441.955 171.393 442.797 171.393 443.796C171.393 444.796 172.182 445.585 173.182 445.585Z" fill="#F1F1F1"/>
<path d="M198.273 446.268C199.64 446.268 200.745 445.164 200.745 443.796C200.745 442.376 199.64 441.271 198.273 441.271C196.905 441.271 195.748 442.376 195.748 443.796C195.748 445.164 196.905 446.268 198.273 446.268Z" fill="#F1F1F1"/>
<path d="M223.311 446.899C225.047 446.899 226.467 445.532 226.467 443.796C226.467 442.06 225.047 440.64 223.311 440.64C221.628 440.64 220.208 442.06 220.208 443.796C220.208 445.532 221.628 446.899 223.311 446.899Z" fill="#F1F1F1"/>
<path d="M248.402 447.583C250.506 447.583 252.242 445.9 252.242 443.796C252.242 441.692 250.506 439.956 248.402 439.956C246.298 439.956 244.562 441.692 244.562 443.796C244.562 445.9 246.298 447.583 248.402 447.583Z" fill="#F1F1F1"/>
<path d="M273.44 448.32C275.965 448.32 277.964 446.268 277.964 443.796C277.964 441.271 275.965 439.272 273.44 439.272C270.968 439.272 268.917 441.271 268.917 443.796C268.917 446.268 270.968 448.32 273.44 448.32Z" fill="#F1F1F1"/>
<path d="M298.531 448.951C301.372 448.951 303.686 446.637 303.686 443.796C303.686 440.956 301.372 438.641 298.531 438.641C295.691 438.641 293.376 440.956 293.376 443.796C293.376 446.637 295.691 448.951 298.531 448.951Z" fill="#F1F1F1"/>
<path d="M323.57 449.477C326.726 449.477 329.303 446.952 329.303 443.796C329.303 440.64 326.726 438.063 323.57 438.063C320.413 438.063 317.889 440.64 317.889 443.796C317.889 446.952 320.413 449.477 323.57 449.477Z" fill="#F1F1F1"/>
<path d="M348.66 449.95C352.08 449.95 354.815 447.215 354.815 443.796C354.815 440.377 352.08 437.589 348.66 437.589C345.241 437.589 342.453 440.377 342.453 443.796C342.453 447.215 345.241 449.95 348.66 449.95Z" fill="#F1F1F1"/>
<path d="M373.699 450.161C377.223 450.161 380.116 447.32 380.116 443.796C380.116 440.272 377.223 437.379 373.699 437.379C370.174 437.379 367.334 440.272 367.334 443.796C367.334 447.32 370.174 450.161 373.699 450.161Z" fill="#F1F1F1"/>
<path d="M398.79 450.266C402.367 450.266 405.26 447.373 405.26 443.796C405.26 440.219 402.367 437.326 398.79 437.326C395.213 437.326 392.32 440.219 392.32 443.796C392.32 447.373 395.213 450.266 398.79 450.266Z" fill="#F1F1F1"/>
<path d="M423.828 449.95C427.247 449.95 430.035 447.215 430.035 443.796C430.035 440.377 427.247 437.589 423.828 437.589C420.409 437.589 417.674 440.377 417.674 443.796C417.674 447.215 420.409 449.95 423.828 449.95Z" fill="#F1F1F1"/>
<path d="M448.919 449.53C452.075 449.53 454.652 446.952 454.652 443.796C454.652 440.587 452.075 438.01 448.919 438.01C445.71 438.01 443.133 440.587 443.133 443.796C443.133 446.952 445.71 449.53 448.919 449.53Z" fill="#F1F1F1"/>
<path d="M473.957 449.004C476.85 449.004 479.165 446.637 479.165 443.796C479.165 440.903 476.85 438.589 473.957 438.589C471.064 438.589 468.75 440.903 468.75 443.796C468.75 446.637 471.064 449.004 473.957 449.004Z" fill="#F1F1F1"/>
<path d="M499.048 448.372C501.573 448.372 503.624 446.321 503.624 443.796C503.624 441.271 501.573 439.22 499.048 439.22C496.47 439.22 494.419 441.271 494.419 443.796C494.419 446.321 496.47 448.372 499.048 448.372Z" fill="#F1F1F1"/>
<path d="M110.533 469.254C110.796 469.254 110.954 469.096 110.954 468.834C110.954 468.623 110.796 468.413 110.533 468.413C110.323 468.413 110.113 468.623 110.113 468.834C110.113 469.096 110.323 469.254 110.533 469.254Z" fill="#F1F1F1"/>
<path d="M135.624 469.833C136.15 469.833 136.571 469.36 136.571 468.834C136.571 468.308 136.15 467.887 135.624 467.887C135.098 467.887 134.625 468.308 134.625 468.834C134.625 469.36 135.098 469.833 135.624 469.833Z" fill="#F1F1F1"/>
<path d="M160.663 470.517C161.609 470.517 162.346 469.781 162.346 468.834C162.346 467.94 161.609 467.151 160.663 467.151C159.768 467.151 159.032 467.94 159.032 468.834C159.032 469.781 159.768 470.517 160.663 470.517Z" fill="#F1F1F1"/>
<path d="M185.754 471.201C187.016 471.201 188.121 470.149 188.121 468.834C188.121 467.519 187.016 466.467 185.754 466.467C184.439 466.467 183.387 467.519 183.387 468.834C183.387 470.149 184.439 471.201 185.754 471.201Z" fill="#F1F1F1"/>
<path d="M210.792 471.885C212.475 471.885 213.843 470.517 213.843 468.834C213.843 467.151 212.475 465.783 210.792 465.783C209.109 465.783 207.741 467.151 207.741 468.834C207.741 470.517 209.109 471.885 210.792 471.885Z" fill="#F1F1F1"/>
<path d="M235.883 472.674C237.987 472.674 239.67 470.938 239.67 468.834C239.67 466.73 237.987 465.047 235.883 465.047C233.726 465.047 232.043 466.73 232.043 468.834C232.043 470.938 233.726 472.674 235.883 472.674Z" fill="#F1F1F1"/>
<path d="M260.921 473.358C263.446 473.358 265.445 471.359 265.445 468.834C265.445 466.362 263.446 464.31 260.921 464.31C258.449 464.31 256.397 466.362 256.397 468.834C256.397 471.359 258.449 473.358 260.921 473.358Z" fill="#F1F1F1"/>
<path d="M286.012 474.147C288.905 474.147 291.272 471.78 291.272 468.834C291.272 465.941 288.905 463.574 286.012 463.574C283.066 463.574 280.699 465.941 280.699 468.834C280.699 471.78 283.066 474.147 286.012 474.147Z" fill="#F1F1F1"/>
<path d="M311.05 474.83C314.364 474.83 317.047 472.148 317.047 468.834C317.047 465.52 314.364 462.89 311.05 462.89C307.736 462.89 305.054 465.52 305.054 468.834C305.054 472.148 307.736 474.83 311.05 474.83Z" fill="#F1F1F1"/>
<path d="M336.141 475.462C339.771 475.462 342.716 472.516 342.716 468.834C342.716 465.204 339.771 462.259 336.141 462.259C332.459 462.259 329.513 465.204 329.513 468.834C329.513 472.516 332.459 475.462 336.141 475.462Z" fill="#F1F1F1"/>
<path d="M361.18 475.935C365.072 475.935 368.281 472.779 368.281 468.834C368.281 464.941 365.072 461.733 361.18 461.733C357.287 461.733 354.078 464.941 354.078 468.834C354.078 472.779 357.287 475.935 361.18 475.935Z" fill="#F1F1F1"/>
<path d="M386.218 476.145C390.268 476.145 393.529 472.884 393.529 468.834C393.529 464.836 390.268 461.522 386.218 461.522C382.22 461.522 378.959 464.836 378.959 468.834C378.959 472.884 382.22 476.145 386.218 476.145Z" fill="#F1F1F1"/>
<path d="M411.309 475.935C415.201 475.935 418.41 472.779 418.41 468.834C418.41 464.941 415.201 461.733 411.309 461.733C407.416 461.733 404.207 464.941 404.207 468.834C404.207 472.779 407.416 475.935 411.309 475.935Z" fill="#F1F1F1"/>
<path d="M436.347 475.514C440.029 475.514 443.028 472.516 443.028 468.834C443.028 465.152 440.029 462.154 436.347 462.154C432.665 462.154 429.719 465.152 429.719 468.834C429.719 472.516 432.665 475.514 436.347 475.514Z" fill="#F1F1F1"/>
<path d="M461.438 474.83C464.752 474.83 467.435 472.148 467.435 468.834C467.435 465.52 464.752 462.89 461.438 462.89C458.124 462.89 455.441 465.52 455.441 468.834C455.441 472.148 458.124 474.83 461.438 474.83Z" fill="#F1F1F1"/>
<path d="M486.476 474.199C489.475 474.199 491.842 471.78 491.842 468.834C491.842 465.888 489.475 463.469 486.476 463.469C483.531 463.469 481.164 465.888 481.164 468.834C481.164 471.78 483.531 474.199 486.476 474.199Z" fill="#F1F1F1"/>
<path d="M511.567 473.41C514.092 473.41 516.143 471.359 516.143 468.834C516.143 466.309 514.092 464.258 511.567 464.258C509.042 464.258 506.991 466.309 506.991 468.834C506.991 471.359 509.042 473.41 511.567 473.41Z" fill="#F1F1F1"/>
<path d="M98.0139 494.134C98.1189 494.134 98.2239 494.029 98.2239 493.924C98.2239 493.766 98.1189 493.714 98.0139 493.714C97.9089 493.714 97.804 493.766 97.804 493.924C97.804 494.029 97.9089 494.134 98.0139 494.134Z" fill="#F1F1F1"/>
<path d="M123.105 494.661C123.526 494.661 123.842 494.345 123.842 493.924C123.842 493.504 123.526 493.135 123.105 493.135C122.632 493.135 122.316 493.504 122.316 493.924C122.316 494.345 122.632 494.661 123.105 494.661Z" fill="#F1F1F1"/>
<path d="M148.143 495.345C148.933 495.345 149.616 494.713 149.616 493.924C149.616 493.083 148.933 492.452 148.143 492.452C147.354 492.452 146.671 493.083 146.671 493.924C146.671 494.713 147.354 495.345 148.143 495.345Z" fill="#F1F1F1"/>
<path d="M173.182 496.081C174.392 496.081 175.338 495.082 175.338 493.924C175.338 492.715 174.392 491.768 173.182 491.768C172.025 491.768 171.025 492.715 171.025 493.924C171.025 495.082 172.025 496.081 173.182 496.081Z" fill="#F1F1F1"/>
<path d="M198.273 496.765C199.851 496.765 201.113 495.502 201.113 493.924C201.113 492.346 199.851 491.084 198.273 491.084C196.695 491.084 195.432 492.346 195.432 493.924C195.432 495.502 196.695 496.765 198.273 496.765Z" fill="#F1F1F1"/>
<path d="M223.311 497.501C225.31 497.501 226.941 495.923 226.941 493.924C226.941 491.926 225.31 490.295 223.311 490.295C221.312 490.295 219.734 491.926 219.734 493.924C219.734 495.923 221.312 497.501 223.311 497.501Z" fill="#F1F1F1"/>
<path d="M248.402 498.29C250.822 498.29 252.768 496.344 252.768 493.924C252.768 491.505 250.822 489.506 248.402 489.506C245.982 489.506 244.036 491.505 244.036 493.924C244.036 496.344 245.982 498.29 248.402 498.29Z" fill="#F1F1F1"/>
<path d="M273.44 499.027C276.281 499.027 278.595 496.765 278.595 493.924C278.595 491.084 276.281 488.769 273.44 488.769C270.6 488.769 268.338 491.084 268.338 493.924C268.338 496.765 270.6 499.027 273.44 499.027Z" fill="#F1F1F1"/>
<path d="M298.531 499.816C301.793 499.816 304.423 497.186 304.423 493.924C304.423 490.663 301.793 487.981 298.531 487.981C295.27 487.981 292.64 490.663 292.64 493.924C292.64 497.186 295.27 499.816 298.531 499.816Z" fill="#F1F1F1"/>
<path d="M323.569 500.605C327.252 500.605 330.25 497.606 330.25 493.924C330.25 490.242 327.252 487.244 323.569 487.244C319.887 487.244 316.889 490.242 316.889 493.924C316.889 497.606 319.887 500.605 323.569 500.605Z" fill="#F1F1F1"/>
<path d="M348.66 501.341C352.763 501.341 356.077 498.027 356.077 493.924C356.077 489.821 352.763 486.455 348.66 486.455C344.557 486.455 341.191 489.821 341.191 493.924C341.191 498.027 344.557 501.341 348.66 501.341Z" fill="#F1F1F1"/>
<path d="M373.699 501.92C378.117 501.92 381.694 498.343 381.694 493.924C381.694 489.506 378.117 485.929 373.699 485.929C369.28 485.929 365.703 489.506 365.703 493.924C365.703 498.343 369.28 501.92 373.699 501.92Z" fill="#F1F1F1"/>
<path d="M398.79 501.972C403.208 501.972 406.838 498.343 406.838 493.924C406.838 489.453 403.208 485.824 398.79 485.824C394.318 485.824 390.689 489.453 390.689 493.924C390.689 498.343 394.318 501.972 398.79 501.972Z" fill="#F1F1F1"/>
<path d="M423.828 501.394C427.983 501.394 431.35 498.027 431.35 493.924C431.35 489.769 427.983 486.402 423.828 486.402C419.672 486.402 416.306 489.769 416.306 493.924C416.306 498.027 419.672 501.394 423.828 501.394Z" fill="#F1F1F1"/>
<path d="M448.919 500.71C452.654 500.71 455.704 497.659 455.704 493.924C455.704 490.137 452.654 487.086 448.919 487.086C445.132 487.086 442.081 490.137 442.081 493.924C442.081 497.659 445.132 500.71 448.919 500.71Z" fill="#F1F1F1"/>
<path d="M473.957 499.868C477.271 499.868 479.954 497.186 479.954 493.924C479.954 490.611 477.271 487.928 473.957 487.928C470.643 487.928 467.961 490.611 467.961 493.924C467.961 497.186 470.643 499.868 473.957 499.868Z" fill="#F1F1F1"/>
<path d="M499.048 499.132C501.888 499.132 504.256 496.765 504.256 493.924C504.256 491.031 501.888 488.717 499.048 488.717C496.155 488.717 493.788 491.031 493.788 493.924C493.788 496.765 496.155 499.132 499.048 499.132Z" fill="#F1F1F1"/>
<path d="M85.4947 519.014C85.5471 519.014 85.5471 519.014 85.5471 518.962C85.5471 518.91 85.5471 518.91 85.4947 518.91C85.4424 518.91 85.39 518.91 85.39 518.962C85.39 519.014 85.4424 519.014 85.4947 519.014Z" fill="#F1F1F1"/>
<path d="M110.533 519.435C110.796 519.435 111.059 519.225 111.059 518.962C111.059 518.699 110.796 518.489 110.533 518.489C110.27 518.489 110.06 518.699 110.06 518.962C110.06 519.225 110.27 519.435 110.533 519.435Z" fill="#F1F1F1"/>
<path d="M135.624 520.067C136.203 520.067 136.729 519.594 136.729 518.962C136.729 518.331 136.203 517.858 135.624 517.858C134.993 517.858 134.52 518.331 134.52 518.962C134.52 519.594 134.993 520.067 135.624 520.067Z" fill="#F1F1F1"/>
<path d="M160.663 520.803C161.662 520.803 162.504 519.962 162.504 518.962C162.504 517.963 161.662 517.174 160.663 517.174C159.663 517.174 158.874 517.963 158.874 518.962C158.874 519.962 159.663 520.803 160.663 520.803Z" fill="#F1F1F1"/>
<path d="M185.753 521.54C187.174 521.54 188.331 520.382 188.331 518.962C188.331 517.542 187.174 516.385 185.753 516.385C184.333 516.385 183.176 517.542 183.176 518.962C183.176 520.382 184.333 521.54 185.753 521.54Z" fill="#F1F1F1"/>
<path d="M210.792 522.223C212.58 522.223 214.053 520.751 214.053 518.962C214.053 517.174 212.58 515.701 210.792 515.701C209.003 515.701 207.531 517.174 207.531 518.962C207.531 520.751 209.003 522.223 210.792 522.223Z" fill="#F1F1F1"/>
<path d="M235.883 523.012C238.092 523.012 239.881 521.171 239.881 518.962C239.881 516.753 238.092 514.965 235.883 514.965C233.621 514.965 231.833 516.753 231.833 518.962C231.833 521.171 233.621 523.012 235.883 523.012Z" fill="#F1F1F1"/>
<path d="M260.921 523.854C263.604 523.854 265.813 521.645 265.813 518.962C265.813 516.28 263.604 514.123 260.921 514.123C258.239 514.123 256.082 516.28 256.082 518.962C256.082 521.645 258.239 523.854 260.921 523.854Z" fill="#F1F1F1"/>
<path d="M286.012 524.59C289.115 524.59 291.64 522.066 291.64 518.962C291.64 515.859 289.115 513.334 286.012 513.334C282.856 513.334 280.384 515.859 280.384 518.962C280.384 522.066 282.856 524.59 286.012 524.59Z" fill="#F1F1F1"/>
<path d="M311.05 525.432C314.627 525.432 317.52 522.539 317.52 518.962C317.52 515.385 314.627 512.492 311.05 512.492C307.473 512.492 304.58 515.385 304.58 518.962C304.58 522.539 307.473 525.432 311.05 525.432Z" fill="#F1F1F1"/>
<path d="M336.141 526.274C340.139 526.274 343.4 523.012 343.4 518.962C343.4 514.965 340.139 511.651 336.141 511.651C332.091 511.651 328.83 514.965 328.83 518.962C328.83 523.012 332.091 526.274 336.141 526.274Z" fill="#F1F1F1"/>
<path d="M361.179 527.115C365.651 527.115 369.333 523.486 369.333 518.962C369.333 514.491 365.651 510.862 361.179 510.862C356.708 510.862 353.026 514.491 353.026 518.962C353.026 523.486 356.708 527.115 361.179 527.115Z" fill="#F1F1F1"/>
<path d="M386.218 527.641C391.057 527.641 394.95 523.749 394.95 518.962C394.95 514.176 391.057 510.283 386.218 510.283C381.431 510.283 377.539 514.176 377.539 518.962C377.539 523.749 381.431 527.641 386.218 527.641Z" fill="#F1F1F1"/>
<path d="M411.309 527.168C415.832 527.168 419.515 523.486 419.515 518.962C419.515 514.439 415.832 510.756 411.309 510.756C406.785 510.756 403.103 514.439 403.103 518.962C403.103 523.486 406.785 527.168 411.309 527.168Z" fill="#F1F1F1"/>
<path d="M436.347 526.326C440.45 526.326 443.711 523.012 443.711 518.962C443.711 514.912 440.45 511.598 436.347 511.598C432.297 511.598 428.983 514.912 428.983 518.962C428.983 523.012 432.297 526.326 436.347 526.326Z" fill="#F1F1F1"/>
<path d="M461.438 525.485C465.015 525.485 467.961 522.592 467.961 518.962C467.961 515.385 465.015 512.44 461.438 512.44C457.808 512.44 454.915 515.385 454.915 518.962C454.915 522.592 457.808 525.485 461.438 525.485Z" fill="#F1F1F1"/>
<path d="M486.476 524.643C489.632 524.643 492.21 522.118 492.21 518.962C492.21 515.806 489.632 513.281 486.476 513.281C483.373 513.281 480.795 515.806 480.795 518.962C480.795 522.118 483.373 524.643 486.476 524.643Z" fill="#F1F1F1"/>
<path d="M511.567 523.907C514.302 523.907 516.512 521.697 516.512 518.962C516.512 516.227 514.302 514.018 511.567 514.018C508.832 514.018 506.623 516.227 506.623 518.962C506.623 521.697 508.832 523.907 511.567 523.907Z" fill="#F1F1F1"/>
<path d="M98.0139 544.262C98.1189 544.262 98.2239 544.157 98.2239 544.052C98.2239 543.895 98.1189 543.842 98.0139 543.842C97.9089 543.842 97.804 543.895 97.804 544.052C97.804 544.157 97.9089 544.262 98.0139 544.262Z" fill="#F1F1F1"/>
<path d="M123.105 544.789C123.526 544.789 123.842 544.473 123.842 544.053C123.842 543.632 123.526 543.264 123.105 543.264C122.632 543.264 122.316 543.632 122.316 544.053C122.316 544.473 122.632 544.789 123.105 544.789Z" fill="#F1F1F1"/>
<path d="M148.143 545.473C148.933 545.473 149.616 544.842 149.616 544.053C149.616 543.211 148.933 542.58 148.143 542.58C147.354 542.58 146.671 543.211 146.671 544.053C146.671 544.842 147.354 545.473 148.143 545.473Z" fill="#F1F1F1"/>
<path d="M173.182 546.209C174.392 546.209 175.338 545.21 175.338 544.053C175.338 542.843 174.392 541.896 173.182 541.896C172.025 541.896 171.025 542.843 171.025 544.053C171.025 545.21 172.025 546.209 173.182 546.209Z" fill="#F1F1F1"/>
<path d="M198.273 546.893C199.851 546.893 201.113 545.631 201.113 544.053C201.113 542.474 199.851 541.159 198.273 541.159C196.695 541.159 195.432 542.474 195.432 544.053C195.432 545.631 196.695 546.893 198.273 546.893Z" fill="#F1F1F1"/>
<path d="M223.311 547.629C225.31 547.629 226.941 546.051 226.941 544.053C226.941 542.054 225.31 540.423 223.311 540.423C221.312 540.423 219.734 542.054 219.734 544.053C219.734 546.051 221.312 547.629 223.311 547.629Z" fill="#F1F1F1"/>
<path d="M248.402 548.418C250.822 548.418 252.768 546.472 252.768 544.053C252.768 541.633 250.822 539.634 248.402 539.634C245.982 539.634 244.036 541.633 244.036 544.053C244.036 546.472 245.982 548.418 248.402 548.418Z" fill="#F1F1F1"/>
<path d="M273.44 549.155C276.281 549.155 278.595 546.893 278.595 544.053C278.595 541.212 276.281 538.898 273.44 538.898C270.6 538.898 268.338 541.212 268.338 544.053C268.338 546.893 270.6 549.155 273.44 549.155Z" fill="#F1F1F1"/>
<path d="M298.531 549.996C301.845 549.996 304.475 547.314 304.475 544.053C304.475 540.739 301.845 538.056 298.531 538.056C295.217 538.056 292.535 540.739 292.535 544.053C292.535 547.314 295.217 549.996 298.531 549.996Z" fill="#F1F1F1"/>
<path d="M323.569 550.785C327.304 550.785 330.302 547.735 330.302 544.053C330.302 540.318 327.304 537.267 323.569 537.267C319.835 537.267 316.836 540.318 316.836 544.053C316.836 547.735 319.835 550.785 323.569 550.785Z" fill="#F1F1F1"/>
<path d="M348.66 551.522C352.816 551.522 356.13 548.155 356.13 544.053C356.13 539.897 352.816 536.531 348.66 536.531C344.505 536.531 341.138 539.897 341.138 544.053C341.138 548.155 344.505 551.522 348.66 551.522Z" fill="#F1F1F1"/>
<path d="M373.699 552.101C378.17 552.101 381.747 548.471 381.747 544.053C381.747 539.582 378.17 535.952 373.699 535.952C369.28 535.952 365.651 539.582 365.651 544.053C365.651 548.471 369.28 552.101 373.699 552.101Z" fill="#F1F1F1"/>
<path d="M398.79 552.153C403.261 552.153 406.89 548.524 406.89 544.052C406.89 539.529 403.261 535.899 398.79 535.899C394.266 535.899 390.636 539.529 390.636 544.052C390.636 548.524 394.266 552.153 398.79 552.153Z" fill="#F1F1F1"/>
<path d="M423.828 551.627C428.036 551.627 431.403 548.208 431.403 544.052C431.403 539.844 428.036 536.478 423.828 536.478C419.672 536.478 416.253 539.844 416.253 544.052C416.253 548.208 419.672 551.627 423.828 551.627Z" fill="#F1F1F1"/>
<path d="M448.919 550.838C452.654 550.838 455.704 547.787 455.704 544.053C455.704 540.265 452.654 537.214 448.919 537.214C445.132 537.214 442.081 540.265 442.081 544.053C442.081 547.787 445.132 550.838 448.919 550.838Z" fill="#F1F1F1"/>
<path d="M473.957 550.102C477.324 550.102 480.006 547.366 480.006 544.053C480.006 540.686 477.324 538.003 473.957 538.003C470.643 538.003 467.908 540.686 467.908 544.053C467.908 547.366 470.643 550.102 473.957 550.102Z" fill="#F1F1F1"/>
<path d="M499.048 549.313C501.941 549.313 504.308 546.946 504.308 544.053C504.308 541.107 501.941 538.74 499.048 538.74C496.102 538.74 493.735 541.107 493.735 544.053C493.735 546.946 496.102 549.313 499.048 549.313Z" fill="#F1F1F1"/>
<path d="M110.533 569.511C110.796 569.511 110.954 569.3 110.954 569.09C110.954 568.88 110.796 568.67 110.533 568.67C110.323 568.67 110.113 568.88 110.113 569.09C110.113 569.3 110.323 569.511 110.533 569.511Z" fill="#F1F1F1"/>
<path d="M135.624 570.142C136.203 570.142 136.676 569.669 136.676 569.09C136.676 568.512 136.203 568.038 135.624 568.038C135.046 568.038 134.572 568.512 134.572 569.09C134.572 569.669 135.046 570.142 135.624 570.142Z" fill="#F1F1F1"/>
<path d="M160.663 570.774C161.609 570.774 162.346 570.037 162.346 569.09C162.346 568.196 161.609 567.407 160.663 567.407C159.768 567.407 159.032 568.196 159.032 569.09C159.032 570.037 159.768 570.774 160.663 570.774Z" fill="#F1F1F1"/>
<path d="M185.754 571.457C187.016 571.457 188.121 570.405 188.121 569.09C188.121 567.775 187.016 566.723 185.754 566.723C184.439 566.723 183.387 567.775 183.387 569.09C183.387 570.405 184.439 571.457 185.754 571.457Z" fill="#F1F1F1"/>
<path d="M210.792 572.141C212.475 572.141 213.843 570.774 213.843 569.09C213.843 567.407 212.475 566.04 210.792 566.04C209.109 566.04 207.741 567.407 207.741 569.09C207.741 570.774 209.109 572.141 210.792 572.141Z" fill="#F1F1F1"/>
<path d="M235.883 572.93C237.987 572.93 239.67 571.194 239.67 569.09C239.67 566.986 237.987 565.251 235.883 565.251C233.726 565.251 232.043 566.986 232.043 569.09C232.043 571.194 233.726 572.93 235.883 572.93Z" fill="#F1F1F1"/>
<path d="M260.921 573.667C263.446 573.667 265.497 571.615 265.497 569.09C265.497 566.566 263.446 564.514 260.921 564.514C258.396 564.514 256.345 566.566 256.345 569.09C256.345 571.615 258.396 573.667 260.921 573.667Z" fill="#F1F1F1"/>
<path d="M286.012 574.403C288.905 574.403 291.272 572.036 291.272 569.09C291.272 566.197 288.905 563.83 286.012 563.83C283.066 563.83 280.699 566.197 280.699 569.09C280.699 572.036 283.066 574.403 286.012 574.403Z" fill="#F1F1F1"/>
<path d="M311.05 575.087C314.364 575.087 317.047 572.404 317.047 569.09C317.047 565.777 314.364 563.094 311.05 563.094C307.736 563.094 305.054 565.777 305.054 569.09C305.054 572.404 307.736 575.087 311.05 575.087Z" fill="#F1F1F1"/>
<path d="M336.141 575.771C339.823 575.771 342.769 572.772 342.769 569.09C342.769 565.408 339.823 562.41 336.141 562.41C332.407 562.41 329.461 565.408 329.461 569.09C329.461 572.772 332.407 575.771 336.141 575.771Z" fill="#F1F1F1"/>
<path d="M361.18 576.244C365.125 576.244 368.333 573.035 368.333 569.09C368.333 565.145 365.125 561.937 361.18 561.937C357.234 561.937 354.026 565.145 354.026 569.09C354.026 573.035 357.234 576.244 361.18 576.244Z" fill="#F1F1F1"/>
<path d="M386.218 576.454C390.321 576.454 393.635 573.141 393.635 569.09C393.635 565.04 390.321 561.726 386.218 561.726C382.167 561.726 378.854 565.04 378.854 569.09C378.854 573.141 382.167 576.454 386.218 576.454Z" fill="#F1F1F1"/>
<path d="M411.309 576.244C415.254 576.244 418.463 573.035 418.463 569.09C418.463 565.145 415.254 561.937 411.309 561.937C407.364 561.937 404.155 565.145 404.155 569.09C404.155 573.035 407.364 576.244 411.309 576.244Z" fill="#F1F1F1"/>
<path d="M436.347 575.771C440.029 575.771 443.028 572.772 443.028 569.09C443.028 565.408 440.029 562.41 436.347 562.41C432.665 562.41 429.719 565.408 429.719 569.09C429.719 572.772 432.665 575.771 436.347 575.771Z" fill="#F1F1F1"/>
<path d="M461.438 575.139C464.752 575.139 467.487 572.457 467.487 569.09C467.487 565.777 464.752 563.041 461.438 563.041C458.072 563.041 455.389 565.777 455.389 569.09C455.389 572.457 458.072 575.139 461.438 575.139Z" fill="#F1F1F1"/>
<path d="M486.476 574.456C489.475 574.456 491.842 572.036 491.842 569.09C491.842 566.145 489.475 563.725 486.476 563.725C483.531 563.725 481.164 566.145 481.164 569.09C481.164 572.036 483.531 574.456 486.476 574.456Z" fill="#F1F1F1"/>
<path d="M511.567 573.772C514.145 573.772 516.196 571.668 516.196 569.09C516.196 566.513 514.145 564.462 511.567 564.462C508.99 564.462 506.886 566.513 506.886 569.09C506.886 571.668 508.99 573.772 511.567 573.772Z" fill="#F1F1F1"/>
<path d="M98.0145 594.234C98.0672 594.234 98.0672 594.181 98.0672 594.181C98.0672 594.128 98.0672 594.076 98.0145 594.076C97.9618 594.076 97.9618 594.128 97.9618 594.181C97.9618 594.181 97.9618 594.234 98.0145 594.234Z" fill="#F1F1F1"/>
<path d="M123.105 594.706C123.368 594.706 123.63 594.443 123.63 594.18C123.63 593.865 123.368 593.602 123.105 593.602C122.789 593.602 122.527 593.865 122.527 594.18C122.527 594.443 122.789 594.706 123.105 594.706Z" fill="#F1F1F1"/>
<path d="M148.143 595.338C148.775 595.338 149.301 594.812 149.301 594.181C149.301 593.497 148.775 592.971 148.143 592.971C147.512 592.971 146.986 593.497 146.986 594.181C146.986 594.812 147.512 595.338 148.143 595.338Z" fill="#F1F1F1"/>
<path d="M173.182 595.969C174.181 595.969 175.023 595.18 175.023 594.181C175.023 593.181 174.181 592.34 173.182 592.34C172.182 592.34 171.393 593.181 171.393 594.181C171.393 595.18 172.182 595.969 173.182 595.969Z" fill="#F1F1F1"/>
<path d="M198.273 596.653C199.64 596.653 200.745 595.548 200.745 594.181C200.745 592.761 199.64 591.656 198.273 591.656C196.905 591.656 195.748 592.761 195.748 594.181C195.748 595.548 196.905 596.653 198.273 596.653Z" fill="#F1F1F1"/>
<path d="M223.311 597.337C225.099 597.337 226.52 595.917 226.52 594.181C226.52 592.392 225.099 590.972 223.311 590.972C221.575 590.972 220.155 592.392 220.155 594.181C220.155 595.917 221.575 597.337 223.311 597.337Z" fill="#F1F1F1"/>
<path d="M248.402 598.073C250.559 598.073 252.295 596.285 252.295 594.181C252.295 592.024 250.559 590.288 248.402 590.288C246.245 590.288 244.51 592.024 244.51 594.181C244.51 596.285 246.245 598.073 248.402 598.073Z" fill="#F1F1F1"/>
<path d="M273.44 598.757C275.965 598.757 278.069 596.706 278.069 594.181C278.069 591.603 275.965 589.552 273.44 589.552C270.915 589.552 268.864 591.603 268.864 594.181C268.864 596.706 270.915 598.757 273.44 598.757Z" fill="#F1F1F1"/>
<path d="M298.531 599.388C301.424 599.388 303.739 597.021 303.739 594.181C303.739 591.288 301.424 588.921 298.531 588.921C295.638 588.921 293.324 591.288 293.324 594.181C293.324 597.021 295.638 599.388 298.531 599.388Z" fill="#F1F1F1"/>
<path d="M323.57 599.914C326.778 599.914 329.356 597.337 329.356 594.181C329.356 590.972 326.778 588.395 323.57 588.395C320.413 588.395 317.836 590.972 317.836 594.181C317.836 597.337 320.413 599.914 323.57 599.914Z" fill="#F1F1F1"/>
<path d="M348.66 600.388C352.08 600.388 354.92 597.6 354.92 594.181C354.92 590.709 352.08 587.921 348.66 587.921C345.189 587.921 342.401 590.709 342.401 594.181C342.401 597.6 345.189 600.388 348.66 600.388Z" fill="#F1F1F1"/>
<path d="M373.699 600.703C377.328 600.703 380.221 597.758 380.221 594.181C380.221 590.551 377.328 587.606 373.699 587.606C370.122 587.606 367.176 590.551 367.176 594.181C367.176 597.758 370.122 600.703 373.699 600.703Z" fill="#F1F1F1"/>
<path d="M398.79 600.703C402.367 600.703 405.312 597.758 405.312 594.181C405.312 590.551 402.367 587.606 398.79 587.606C395.16 587.606 392.214 590.551 392.214 594.181C392.214 597.758 395.16 600.703 398.79 600.703Z" fill="#F1F1F1"/>
<path d="M423.828 600.388C427.3 600.388 430.087 597.6 430.087 594.181C430.087 590.709 427.3 587.921 423.828 587.921C420.356 587.921 417.568 590.709 417.568 594.181C417.568 597.6 420.356 600.388 423.828 600.388Z" fill="#F1F1F1"/>
<path d="M448.919 600.02C452.128 600.02 454.758 597.389 454.758 594.181C454.758 590.92 452.128 588.342 448.919 588.342C445.658 588.342 443.08 590.92 443.08 594.181C443.08 597.389 445.658 600.02 448.919 600.02Z" fill="#F1F1F1"/>
<path d="M473.957 599.441C476.903 599.441 479.27 597.074 479.27 594.181C479.27 591.235 476.903 588.868 473.957 588.868C471.064 588.868 468.697 591.235 468.697 594.181C468.697 597.074 471.064 599.441 473.957 599.441Z" fill="#F1F1F1"/>
<path d="M499.048 598.81C501.573 598.81 503.677 596.706 503.677 594.181C503.677 591.603 501.573 589.499 499.048 589.499C496.471 589.499 494.367 591.603 494.367 594.181C494.367 596.706 496.471 598.81 499.048 598.81Z" fill="#F1F1F1"/>
<path d="M110.533 619.375C110.638 619.375 110.69 619.271 110.69 619.218C110.69 619.166 110.638 619.061 110.533 619.061C110.481 619.061 110.428 619.166 110.428 619.218C110.428 619.271 110.481 619.375 110.533 619.375Z" fill="#F1F1F1"/>
<path d="M135.624 619.849C135.939 619.849 136.255 619.586 136.255 619.218C136.255 618.85 135.939 618.588 135.624 618.588C135.256 618.588 134.993 618.85 134.993 619.218C134.993 619.586 135.256 619.849 135.624 619.849Z" fill="#F1F1F1"/>
<path d="M160.663 620.481C161.347 620.481 161.925 619.902 161.925 619.219C161.925 618.535 161.347 617.956 160.663 617.956C159.979 617.956 159.4 618.535 159.4 619.219C159.4 619.902 159.979 620.481 160.663 620.481Z" fill="#F1F1F1"/>
<path d="M185.754 621.112C186.753 621.112 187.595 620.271 187.595 619.219C187.595 618.167 186.753 617.325 185.754 617.325C184.702 617.325 183.86 618.167 183.86 619.219C183.86 620.271 184.702 621.112 185.754 621.112Z" fill="#F1F1F1"/>
<path d="M210.792 621.744C212.159 621.744 213.317 620.586 213.317 619.219C213.317 617.851 212.159 616.694 210.792 616.694C209.424 616.694 208.32 617.851 208.32 619.219C208.32 620.586 209.424 621.744 210.792 621.744Z" fill="#F1F1F1"/>
<path d="M235.883 622.322C237.566 622.322 238.986 620.954 238.986 619.219C238.986 617.483 237.566 616.115 235.883 616.115C234.147 616.115 232.727 617.483 232.727 619.219C232.727 620.954 234.147 622.322 235.883 622.322Z" fill="#F1F1F1"/>
<path d="M260.921 622.953C263.025 622.953 264.656 621.27 264.656 619.219C264.656 617.167 263.025 615.484 260.921 615.484C258.87 615.484 257.186 617.167 257.186 619.219C257.186 621.27 258.87 622.953 260.921 622.953Z" fill="#F1F1F1"/>
<path d="M286.012 623.585C288.432 623.585 290.378 621.638 290.378 619.219C290.378 616.799 288.432 614.853 286.012 614.853C283.592 614.853 281.594 616.799 281.594 619.219C281.594 621.638 283.592 623.585 286.012 623.585Z" fill="#F1F1F1"/>
<path d="M311.05 624.163C313.786 624.163 315.995 621.954 315.995 619.219C315.995 616.483 313.786 614.274 311.05 614.274C308.315 614.274 306.106 616.483 306.106 619.219C306.106 621.954 308.315 624.163 311.05 624.163Z" fill="#F1F1F1"/>
<path d="M336.141 624.584C339.087 624.584 341.454 622.164 341.454 619.219C341.454 616.273 339.087 613.853 336.141 613.853C333.143 613.853 330.776 616.273 330.776 619.219C330.776 622.164 333.143 624.584 336.141 624.584Z" fill="#F1F1F1"/>
<path d="M361.18 624.847C364.283 624.847 366.808 622.322 366.808 619.219C366.808 616.115 364.283 613.59 361.18 613.59C358.076 613.59 355.551 616.115 355.551 619.219C355.551 622.322 358.076 624.847 361.18 624.847Z" fill="#F1F1F1"/>
<path d="M386.218 624.899C389.374 624.899 391.951 622.375 391.951 619.219C391.951 616.063 389.374 613.538 386.218 613.538C383.114 613.538 380.537 616.063 380.537 619.219C380.537 622.375 383.114 624.899 386.218 624.899Z" fill="#F1F1F1"/>
<path d="M411.309 624.847C414.412 624.847 416.937 622.322 416.937 619.219C416.937 616.115 414.412 613.59 411.309 613.59C408.205 613.59 405.68 616.115 405.68 619.219C405.68 622.322 408.205 624.847 411.309 624.847Z" fill="#F1F1F1"/>
<path d="M436.347 624.584C439.345 624.584 441.712 622.164 441.712 619.219C441.712 616.273 439.345 613.853 436.347 613.853C433.401 613.853 431.034 616.273 431.034 619.219C431.034 622.164 433.401 624.584 436.347 624.584Z" fill="#F1F1F1"/>
<path d="M461.438 624.163C464.173 624.163 466.382 621.954 466.382 619.219C466.382 616.483 464.173 614.274 461.438 614.274C458.703 614.274 456.493 616.483 456.493 619.219C456.493 621.954 458.703 624.163 461.438 624.163Z" fill="#F1F1F1"/>
<path d="M486.476 623.69C488.949 623.69 490.947 621.691 490.947 619.219C490.947 616.746 488.949 614.748 486.476 614.748C484.057 614.748 482.058 616.746 482.058 619.219C482.058 621.691 484.057 623.69 486.476 623.69Z" fill="#F1F1F1"/>
<path fill-rule="evenodd" clip-rule="evenodd" d="M496.628 653.83C476.377 653.83 459.913 637.366 459.913 617.115C459.913 596.863 476.377 580.399 496.628 580.399C516.88 580.399 533.344 596.863 533.344 617.115C533.344 637.366 516.88 653.83 496.628 653.83ZM496.628 583.608C478.165 583.608 463.121 598.652 463.121 617.115C463.121 635.63 478.165 650.621 496.628 650.621C515.144 650.621 530.188 635.63 530.188 617.115C530.188 598.652 515.144 583.608 496.628 583.608Z" fill="url(#paint0_radial_1_4)"/>
<path fill-rule="evenodd" clip-rule="evenodd" d="M365.177 275.106C356.183 275.106 348.871 267.795 348.871 258.8C348.871 249.806 356.183 242.441 365.177 242.441C374.172 242.441 381.484 249.806 381.484 258.8C381.484 267.795 374.172 275.106 365.177 275.106ZM365.177 245.65C357.918 245.65 352.08 251.541 352.08 258.8C352.08 266.006 357.918 271.898 365.177 271.898C372.384 271.898 378.275 266.006 378.275 258.8C378.275 251.541 372.384 245.65 365.177 245.65Z" fill="url(#paint1_linear_1_4)"/>
</g>
</g>
<defs>
<radialGradient id="paint0_radial_1_4" cx="0" cy="0" r="1" gradientUnits="userSpaceOnUse" gradientTransform="translate(32583.1 41131.2) scale(5126.78 5126.68)">
<stop stop-color="#FEFEFE"/>
<stop offset="1" stop-color="#F6F6F6"/>
</radialGradient>
<linearGradient id="paint1_linear_1_4" x1="15381.1" y1="-21345.6" x2="15381.1" y2="-23368.7" gradientUnits="userSpaceOnUse">
<stop stop-color="#8BC65B"/>
<stop offset="1" stop-color="#1AB9CB"/>
</linearGradient>
<clipPath id="clip0_1_4">
<rect width="613.333" height="692.222" fill="white" transform="translate(0.333374 0.111115)"/>
</clipPath>
</defs>
</svg>
