<svg width="24" height="25" viewBox="0 0 24 25" fill="none" xmlns="http://www.w3.org/2000/svg">
<path d="M19.6756 2.89401C18.4086 1.83966 16.9369 1.05917 15.3533 0.601707C13.7698 0.144244 12.1086 0.019729 10.4746 0.236008C7.45163 0.628726 4.69145 2.15718 2.75449 4.51102C0.817521 6.86485 -0.151032 9.86763 0.0454884 12.9096C0.242009 15.9516 1.58887 18.8048 3.8126 20.8899C6.03633 22.9749 8.97022 24.1355 12.0186 24.136H19.0006C20.3262 24.1344 21.597 23.6071 22.5343 22.6698C23.4717 21.7325 23.999 20.4616 24.0006 19.136V11.445V11.382C23.8947 9.74745 23.4566 8.15166 22.7129 6.69222C21.9693 5.23278 20.9358 3.94037 19.6756 2.89401ZM8.00056 7.13601H12.0006C12.2658 7.13601 12.5201 7.24136 12.7077 7.4289C12.8952 7.61644 13.0006 7.87079 13.0006 8.13601C13.0006 8.40123 12.8952 8.65558 12.7077 8.84311C12.5201 9.03065 12.2658 9.13601 12.0006 9.13601H8.00056C7.73535 9.13601 7.48099 9.03065 7.29346 8.84311C7.10592 8.65558 7.00056 8.40123 7.00056 8.13601C7.00056 7.87079 7.10592 7.61644 7.29346 7.4289C7.48099 7.24136 7.73535 7.13601 8.00056 7.13601ZM16.0006 17.136H8.00056C7.73535 17.136 7.48099 17.0307 7.29346 16.8431C7.10592 16.6556 7.00056 16.4012 7.00056 16.136C7.00056 15.8708 7.10592 15.6164 7.29346 15.4289C7.48099 15.2414 7.73535 15.136 8.00056 15.136H16.0006C16.2658 15.136 16.5201 15.2414 16.7077 15.4289C16.8952 15.6164 17.0006 15.8708 17.0006 16.136C17.0006 16.4012 16.8952 16.6556 16.7077 16.8431C16.5201 17.0307 16.2658 17.136 16.0006 17.136ZM16.0006 13.136H8.00056C7.73535 13.136 7.48099 13.0307 7.29346 12.8431C7.10592 12.6556 7.00056 12.4012 7.00056 12.136C7.00056 11.8708 7.10592 11.6164 7.29346 11.4289C7.48099 11.2414 7.73535 11.136 8.00056 11.136H16.0006C16.2658 11.136 16.5201 11.2414 16.7077 11.4289C16.8952 11.6164 17.0006 11.8708 17.0006 12.136C17.0006 12.4012 16.8952 12.6556 16.7077 12.8431C16.5201 13.0307 16.2658 13.136 16.0006 13.136Z" fill="white"/>
</svg>
