<svg width="31" height="31" viewBox="0 0 31 31" fill="none" xmlns="http://www.w3.org/2000/svg">
<path d="M14.633 26.5956L14.6248 26.5912L14.5966 26.576C14.5725 26.5629 14.5382 26.544 14.4941 26.5194C14.406 26.4703 14.2793 26.3983 14.1194 26.3042C13.7996 26.1161 13.3467 25.8392 12.8049 25.479C11.7231 24.7598 10.2776 23.7027 8.82819 22.3516C5.95996 19.6779 2.9209 15.7056 2.9209 10.8124C2.9209 7.16219 5.99211 4.26758 9.69947 4.26758C11.8797 4.26758 13.8318 5.26375 15.0756 6.82517C16.3193 5.26375 18.2715 4.26758 20.4517 4.26758C24.159 4.26758 27.2302 7.16219 27.2302 10.8124C27.2302 15.7056 24.1912 19.6779 21.323 22.3516C19.8736 23.7027 18.4281 24.7598 17.3463 25.479C16.8044 25.8392 16.3515 26.1161 16.0318 26.3042C15.8719 26.3983 15.7451 26.4703 15.657 26.5194C15.613 26.544 15.5786 26.5629 15.5545 26.576L15.5263 26.5912L15.5182 26.5956L15.5147 26.5974C15.2405 26.743 14.9106 26.743 14.6364 26.5974L14.633 26.5956Z" fill="white"/>
</svg>
