<svg width="24" height="25" viewBox="0 0 24 25" fill="none" xmlns="http://www.w3.org/2000/svg">
<path d="M3.75691e-05 12.1226C-0.0101686 14.687 2.06043 16.7741 4.62486 16.7844C5.80587 16.789 6.94433 16.3435 7.80844 15.5384L14.7279 18.6626C14.6798 18.9213 14.6535 19.1836 14.649 19.4467C14.6409 22.0288 16.7274 24.1285 19.3095 24.1367C21.8916 24.1449 23.9913 22.0583 23.9995 19.4763C24.0077 16.8942 21.9212 14.7944 19.3391 14.7862C17.7964 14.7814 16.3506 15.5378 15.475 16.8079L8.97401 13.8725C9.43577 12.7575 9.43755 11.5051 8.97902 10.3888L15.4711 7.43837C16.9329 9.55269 19.832 10.0815 21.9463 8.61967C24.0607 7.15779 24.5895 4.25876 23.1276 2.14443C21.6657 0.0301087 18.7666 -0.498742 16.6523 0.963134C15.3932 1.83375 14.6426 3.26782 14.645 4.79866C14.6492 5.06215 14.676 5.32474 14.7249 5.58369L7.82343 8.71981C5.95358 6.96401 3.01443 7.05648 1.25863 8.92632C0.446021 9.79179 -0.00436327 10.9355 3.75691e-05 12.1226Z" fill="white"/>
</svg>
