<svg width="33" height="33" viewBox="0 0 33 33" fill="none" xmlns="http://www.w3.org/2000/svg">
<g clip-path="url(#clip0_835_15408)">
<mask id="mask0_835_15408" style="mask-type:alpha" maskUnits="userSpaceOnUse" x="0" y="0" width="33" height="33">
<rect x="0.285156" y="0.714355" width="32.1429" height="32.1429" fill="#D9D9D9"/>
</mask>
<g mask="url(#mask0_835_15408)">
<path d="M16.3583 27.5001C15.6217 27.5001 14.9913 27.2381 14.4672 26.7139C13.9422 26.1889 13.6797 25.5581 13.6797 24.8215C13.6797 24.0849 13.9422 23.4541 14.4672 22.9291C14.9913 22.405 15.6217 22.143 16.3583 22.143C17.0949 22.143 17.7257 22.405 18.2507 22.9291C18.7748 23.4541 19.0368 24.0849 19.0368 24.8215C19.0368 25.5581 18.7748 26.1889 18.2507 26.7139C17.7257 27.2381 17.0949 27.5001 16.3583 27.5001ZM16.3583 19.4644C15.6217 19.4644 14.9913 19.2019 14.4672 18.6769C13.9422 18.1528 13.6797 17.5224 13.6797 16.7858C13.6797 16.0492 13.9422 15.4184 14.4672 14.8934C14.9913 14.3693 15.6217 14.1072 16.3583 14.1072C17.0949 14.1072 17.7257 14.3693 18.2507 14.8934C18.7748 15.4184 19.0368 16.0492 19.0368 16.7858C19.0368 17.5224 18.7748 18.1528 18.2507 18.6769C17.7257 19.2019 17.0949 19.4644 16.3583 19.4644ZM16.3583 11.4287C15.6217 11.4287 14.9913 11.1662 14.4672 10.6412C13.9422 10.1171 13.6797 9.48671 13.6797 8.7501C13.6797 8.0135 13.9422 7.38314 14.4672 6.85903C14.9913 6.33403 15.6217 6.07153 16.3583 6.07153C17.0949 6.07153 17.7257 6.33403 18.2507 6.85903C18.7748 7.38314 19.0368 8.0135 19.0368 8.7501C19.0368 9.48671 18.7748 10.1171 18.2507 10.6412C17.7257 11.1662 17.0949 11.4287 16.3583 11.4287Z" fill="#E0F1FF"/>
</g>
</g>
<defs>
<clipPath id="clip0_835_15408">
<rect width="32.1429" height="32.1429" fill="white" transform="translate(0.285156 0.714355)"/>
</clipPath>
</defs>
</svg>
