<svg width="20" height="20" viewBox="0 0 20 20" fill="none" xmlns="http://www.w3.org/2000/svg">
<g clip-path="url(#clip0_867_21340)">
<path d="M12.6262 9.69337C12.6681 9.71631 12.703 9.75031 12.7269 9.79169C12.7509 9.83306 12.763 9.88022 12.762 9.92801C12.7644 9.96879 12.7569 10.0095 12.7401 10.0468C12.7233 10.084 12.6977 10.1166 12.6656 10.1418L8.34877 12.3018C8.30766 12.3245 8.26134 12.3361 8.21438 12.3355C8.16741 12.3349 8.1214 12.3221 8.08087 12.2984C8.04034 12.2746 8.00669 12.2408 7.98322 12.2001C7.95974 12.1594 7.94726 12.1133 7.94699 12.0663V7.78971C7.94608 7.74203 7.95816 7.695 7.98195 7.65367C8.00573 7.61233 8.04031 7.57825 8.08199 7.55507C8.12035 7.53294 8.16386 7.5213 8.20815 7.52132C8.27294 7.52322 8.33611 7.54206 8.39136 7.57596L12.6262 9.69337ZM20.0006 4.30301V15.553C19.9993 16.6182 19.5756 17.6394 18.8223 18.3927C18.0691 19.1459 17.0479 19.5696 15.9827 19.5709H4.7327C3.66749 19.5696 2.64627 19.1459 1.89306 18.3927C1.13984 17.6394 0.71612 16.6182 0.714844 15.553L0.714844 4.30301C0.71612 3.2378 1.13984 2.21659 1.89306 1.46337C2.64627 0.710151 3.66749 0.286432 4.7327 0.285156L15.9827 0.285156C17.0479 0.286432 18.0691 0.710151 18.8223 1.46337C19.5756 2.21659 19.9993 3.2378 20.0006 4.30301V4.30301ZM14.3691 9.92801C14.3694 9.58944 14.278 9.25711 14.1045 8.96635C13.931 8.67558 13.682 8.43725 13.384 8.27667L9.1427 6.15926C8.85703 5.99536 8.53328 5.90948 8.20393 5.91021C7.87459 5.91095 7.55123 5.99829 7.26629 6.16347C6.98136 6.32865 6.74488 6.56586 6.58058 6.8513C6.41628 7.13673 6.32993 7.46036 6.3302 7.78971V12.0663C6.32827 12.3956 6.41386 12.7195 6.57821 13.0048C6.74256 13.2902 6.97976 13.5268 7.26556 13.6903C7.55485 13.8592 7.88361 13.9488 8.21859 13.9499C8.5285 13.9513 8.83333 13.8712 9.10252 13.7177L13.4225 11.5585C13.7114 11.3958 13.9515 11.1588 14.1179 10.8722C14.2843 10.5855 14.3711 10.2595 14.3691 9.92801V9.92801Z" fill="white"/>
</g>
<defs>
<clipPath id="clip0_867_21340">
<rect width="19.2857" height="19.2857" fill="white" transform="translate(0.714844 0.285156)"/>
</clipPath>
</defs>
</svg>
