<svg width="25" height="25" viewBox="0 0 25 25" fill="none" xmlns="http://www.w3.org/2000/svg">
<path d="M16.7025 12.0884C16.7025 12.3466 16.9118 12.5559 17.17 12.5559C17.4282 12.5559 17.6375 12.3466 17.6375 12.0884C17.6375 11.8302 17.4282 11.6209 17.17 11.6209C16.9118 11.6209 16.7025 11.8302 16.7025 12.0884ZM16.7025 12.0884H17.17M12.0277 12.0884C12.0277 12.3466 12.237 12.5559 12.4951 12.5559C12.7533 12.5559 12.9626 12.3466 12.9626 12.0884C12.9626 11.8302 12.7533 11.6209 12.4951 11.6209C12.237 11.6209 12.0277 11.8302 12.0277 12.0884ZM12.0277 12.0884H12.4951M7.35278 12.0884C7.35278 12.3466 7.56209 12.5559 7.82027 12.5559C8.07846 12.5559 8.28776 12.3466 8.28776 12.0884C8.28776 11.8302 8.07846 11.6209 7.82027 11.6209C7.56209 11.6209 7.35278 11.8302 7.35278 12.0884ZM7.35278 12.0884H7.82027M1.27545 12.0884C1.27545 17.7685 6.29868 22.3731 12.4951 22.3731C13.6015 22.3731 14.6704 22.2263 15.6801 21.9528C16.8956 22.8068 18.3768 23.3081 19.9749 23.3081C20.2233 23.3081 20.4689 23.296 20.7109 23.2723C20.9099 23.2529 21.1071 23.2257 21.3016 23.1909C20.6988 22.4794 20.2707 21.616 20.0823 20.6662C19.9693 20.0965 20.2483 19.5431 20.6645 19.138C22.5558 17.297 23.7148 14.8168 23.7148 12.0884C23.7148 6.40828 18.6916 1.80365 12.4951 1.80365C6.29868 1.80365 1.27545 6.40828 1.27545 12.0884Z" stroke="white" stroke-width="2.24394" stroke-linecap="round" stroke-linejoin="round"/>
</svg>
