<svg width="29" height="21" viewBox="0 0 29 21" fill="none" xmlns="http://www.w3.org/2000/svg">
<path fill-rule="evenodd" clip-rule="evenodd" d="M17.2908 2.83854C16.9383 3.00517 16.6262 3.38352 16.6262 3.97049V5.88825C16.6262 6.50789 16.111 7.01022 15.4754 7.01022H11.9312C7.19887 7.01022 3.03962 11.0745 2.83658 16.3514C5.11281 14.1899 8.08107 12.9487 11.2983 12.9487H15.4754C16.111 12.9487 16.6262 13.451 16.6262 14.0707V17.0112C16.6262 17.5982 16.9383 17.9765 17.2908 18.1432C17.6431 18.3097 18.0387 18.2768 18.3571 17.9846C18.3572 17.9845 18.357 17.9847 18.3571 17.9846L25.423 11.4851C26.0188 10.8657 25.9355 9.9507 25.462 9.53224L25.4452 9.51705L18.3574 2.99737C18.3572 2.99722 18.3575 2.99753 18.3574 2.99737C18.039 2.7054 17.6431 2.672 17.2908 2.83854ZM16.2866 0.819457C17.4215 0.28291 18.8613 0.377707 19.9352 1.3638L27.017 7.87791C28.5549 9.247 28.4719 11.6367 27.0628 13.06C27.0503 13.0726 27.0376 13.0849 27.0245 13.0969L19.936 19.6172C18.862 20.6033 17.4215 20.6988 16.2866 20.1623C15.1518 19.6257 14.3247 18.4698 14.3247 17.0112V15.1926H11.2983C7.80896 15.1926 4.62224 17.0055 2.66143 20.151C2.39342 20.5809 1.86464 20.7843 1.36775 20.6486C0.870849 20.5129 0.527344 20.0713 0.527344 19.5682V16.7555C0.527344 10.2096 5.64444 4.76628 11.9312 4.76628H14.3247V3.97049C14.3247 2.51186 15.1518 1.356 16.2866 0.819457Z" fill="white"/>
</svg>
