<svg width="37" height="37" viewBox="0 0 37 37" fill="none" xmlns="http://www.w3.org/2000/svg">
<path d="M18.0975 19.5645C18.9237 19.5645 19.5935 18.8947 19.5935 18.0685C19.5935 17.2423 18.9237 16.5725 18.0975 16.5725C17.2713 16.5725 16.6016 17.2423 16.6016 18.0685C16.6016 18.8947 17.2713 19.5645 18.0975 19.5645Z" stroke="white" stroke-width="2.99192" stroke-linecap="round" stroke-linejoin="round"/>
<path d="M28.5702 19.5645C29.3964 19.5645 30.0661 18.8947 30.0661 18.0685C30.0661 17.2423 29.3964 16.5725 28.5702 16.5725C27.744 16.5725 27.0742 17.2423 27.0742 18.0685C27.0742 18.8947 27.744 19.5645 28.5702 19.5645Z" stroke="white" stroke-width="2.99192" stroke-linecap="round" stroke-linejoin="round"/>
<path d="M7.62584 19.5645C8.45204 19.5645 9.1218 18.8947 9.1218 18.0685C9.1218 17.2423 8.45204 16.5725 7.62584 16.5725C6.79965 16.5725 6.12988 17.2423 6.12988 18.0685C6.12988 18.8947 6.79965 19.5645 7.62584 19.5645Z" stroke="white" stroke-width="2.99192" stroke-linecap="round" stroke-linejoin="round"/>
</svg>
