<svg width="26" height="24" viewBox="0 0 26 24" fill="none" xmlns="http://www.w3.org/2000/svg">
<path d="M12.633 23.1967L12.6248 23.1924L12.5966 23.1771C12.5725 23.164 12.5382 23.1451 12.4941 23.1206C12.406 23.0714 12.2793 22.9995 12.1194 22.9054C11.7996 22.7173 11.3467 22.4403 10.8049 22.0801C9.72305 21.361 8.27755 20.3038 6.82819 18.9528C3.95996 16.279 0.920898 12.3067 0.920898 7.41354C0.920898 3.76333 3.99211 0.868713 7.69947 0.868713C9.87968 0.868713 11.8318 1.86488 13.0756 3.4263C14.3193 1.86488 16.2715 0.868713 18.4517 0.868713C22.159 0.868713 25.2302 3.76333 25.2302 7.41354C25.2302 12.3067 22.1912 16.279 19.323 18.9528C17.8736 20.3038 16.4281 21.361 15.3463 22.0801C14.8044 22.4403 14.3515 22.7173 14.0318 22.9054C13.8719 22.9995 13.7451 23.0714 13.657 23.1206C13.613 23.1451 13.5786 23.164 13.5545 23.1771L13.5263 23.1924L13.5182 23.1967L13.5147 23.1986C13.2405 23.3442 12.9106 23.3442 12.6364 23.1986L12.633 23.1967Z" fill="white"/>
</svg>
