<svg width="12" height="7" viewBox="0 0 12 7" fill="none" xmlns="http://www.w3.org/2000/svg">
<path d="M11.5917 0.841652C11.5142 0.763545 11.422 0.70155 11.3205 0.659243C11.2189 0.616935 11.11 0.595154 11 0.595154C10.89 0.595154 10.7811 0.616935 10.6795 0.659243C10.578 0.70155 10.4858 0.763545 10.4083 0.841652L6.59168 4.65831C6.51421 4.73642 6.42204 4.79841 6.32049 4.84072C6.21894 4.88303 6.11002 4.90481 6.00001 4.90481C5.89 4.90481 5.78108 4.88303 5.67953 4.84072C5.57798 4.79841 5.48581 4.73642 5.40834 4.65831L1.59168 0.841652C1.51421 0.763545 1.42204 0.70155 1.32049 0.659243C1.21894 0.616935 1.11002 0.595154 1.00001 0.595154C0.89 0.595154 0.781078 0.616935 0.679529 0.659243C0.577979 0.70155 0.485812 0.763545 0.408343 0.841652C0.253134 0.997787 0.166016 1.209 0.166016 1.42915C0.166016 1.6493 0.253134 1.86051 0.408343 2.01665L4.23334 5.84164C4.70209 6.30981 5.33751 6.57277 6.00001 6.57277C6.66251 6.57277 7.29793 6.30981 7.76668 5.84164L11.5917 2.01665C11.7469 1.86051 11.834 1.6493 11.834 1.42915C11.834 1.209 11.7469 0.997787 11.5917 0.841652Z" fill="white"/>
</svg>
