<svg width="22" height="17" viewBox="0 0 22 17" fill="none" xmlns="http://www.w3.org/2000/svg">
<path d="M9.09091 1.44641C9.71667 1.29994 10.3573 1.22672 11 1.22823C17.3636 1.22823 21 8.50096 21 8.50096C20.4482 9.53333 19.7901 10.5053 19.0364 11.401M12.9273 10.4282C12.6776 10.6962 12.3765 10.9111 12.042 11.0602C11.7074 11.2092 11.3463 11.2894 10.9801 11.2958C10.6139 11.3023 10.2501 11.2349 9.91055 11.0978C9.57096 10.9606 9.26247 10.7564 9.0035 10.4975C8.74452 10.2385 8.54036 9.93 8.40319 9.59041C8.26602 9.25081 8.19866 8.88707 8.20512 8.52088C8.21158 8.15469 8.29174 7.79355 8.4408 7.459C8.58986 7.12446 8.80478 6.82337 9.07273 6.57369M16.4 13.901C14.846 15.0855 12.9537 15.7417 11 15.7737C4.63636 15.7737 1 8.50096 1 8.50096C2.13081 6.39359 3.69921 4.55242 5.6 3.10096L16.4 13.901Z" stroke="white" stroke-width="2" stroke-linecap="round" stroke-linejoin="round"/>
</svg>
