<svg width="24" height="25" viewBox="0 0 24 25" fill="none" xmlns="http://www.w3.org/2000/svg">
<path d="M10.0909 5.44641C10.7167 5.29994 11.3573 5.22672 12 5.22823C18.3636 5.22823 22 12.501 22 12.501C21.4482 13.5333 20.7901 14.5053 20.0364 15.401M13.9273 14.4282C13.6776 14.6962 13.3765 14.9111 13.042 15.0602C12.7074 15.2092 12.3463 15.2894 11.9801 15.2958C11.6139 15.3023 11.2501 15.2349 10.9106 15.0978C10.571 14.9606 10.2625 14.7564 10.0035 14.4975C9.74452 14.2385 9.54036 13.93 9.40319 13.5904C9.26602 13.2508 9.19866 12.8871 9.20512 12.5209C9.21158 12.1547 9.29174 11.7935 9.4408 11.459C9.58986 11.1245 9.80478 10.8234 10.0727 10.5737M17.4 17.901C15.846 19.0855 13.9537 19.7417 12 19.7737C5.63636 19.7737 2 12.501 2 12.501C3.13081 10.3936 4.69921 8.55242 6.6 7.10096L17.4 17.901Z" stroke="white" stroke-width="2" stroke-linecap="round" stroke-linejoin="round"/>
<path d="M2 2.50098L22 22.501" stroke="white" stroke-width="2" stroke-linecap="round" stroke-linejoin="round"/>
</svg>
