<svg width="32" height="18" viewBox="0 0 32 18" fill="none" xmlns="http://www.w3.org/2000/svg">
<path d="M1.17372 11.7867L6.33372 17C6.45767 17.125 6.60514 17.2242 6.76762 17.2918C6.9301 17.3595 7.10437 17.3944 7.28039 17.3944C7.4564 17.3944 7.63068 17.3595 7.79316 17.2918C7.95563 17.2242 8.1031 17.125 8.22705 17C8.35202 16.876 8.45122 16.7286 8.51891 16.5661C8.5866 16.4036 8.62145 16.2293 8.62145 16.0533C8.62145 15.8773 8.5866 15.703 8.51891 15.5406C8.45122 15.3781 8.35202 15.2306 8.22705 15.1067L3.48039 10.3333H30.6671C31.0207 10.3333 31.3598 10.1928 31.6099 9.9428C31.8599 9.69275 32.0004 9.35361 32.0004 8.99999C32.0004 8.64637 31.8599 8.30723 31.6099 8.05718C31.3598 7.80713 31.0207 7.66665 30.6671 7.66665H3.40039L8.22705 2.83999C8.46344 2.59202 8.59531 2.26258 8.59531 1.91999C8.59531 1.5774 8.46344 1.24796 8.22705 0.999989C8.1031 0.875017 7.95563 0.775825 7.79316 0.708133C7.63068 0.640441 7.4564 0.605591 7.28039 0.605591C7.10437 0.605591 6.9301 0.640441 6.76762 0.708133C6.60514 0.775825 6.45767 0.875017 6.33372 0.999989L1.17372 6.13332C0.424651 6.88332 0.00390625 7.89998 0.00390625 8.95999C0.00390625 10.02 0.424651 11.0367 1.17372 11.7867Z" fill="white"/>
</svg>
