<svg width="32" height="18" viewBox="0 0 32 18" fill="none" xmlns="http://www.w3.org/2000/svg">
<path d="M1.17372 11.7865L6.33372 16.9999C6.45767 17.1248 6.60514 17.224 6.76762 17.2917C6.9301 17.3594 7.10437 17.3943 7.28039 17.3943C7.4564 17.3943 7.63068 17.3594 7.79316 17.2917C7.95563 17.224 8.1031 17.1248 8.22705 16.9999C8.35202 16.8759 8.45122 16.7284 8.51891 16.566C8.5866 16.4035 8.62145 16.2292 8.62145 16.0532C8.62145 15.8772 8.5866 15.7029 8.51891 15.5404C8.45122 15.378 8.35202 15.2305 8.22705 15.1065L3.48039 10.3332H30.6671C31.0207 10.3332 31.3598 10.1927 31.6099 9.94267C31.8599 9.69263 32.0004 9.35349 32.0004 8.99987C32.0004 8.64624 31.8599 8.30711 31.6099 8.05706C31.3598 7.80701 31.0207 7.66653 30.6671 7.66653H3.40039L8.22705 2.83987C8.46344 2.5919 8.59531 2.26245 8.59531 1.91987C8.59531 1.57728 8.46344 1.24784 8.22705 0.999866C8.1031 0.874895 7.95563 0.775703 7.79316 0.708011C7.63068 0.640319 7.4564 0.605469 7.28039 0.605469C7.10437 0.605469 6.9301 0.640319 6.76762 0.708011C6.60514 0.775703 6.45767 0.874895 6.33372 0.999866L1.17372 6.1332C0.424651 6.8832 0.00390625 7.89986 0.00390625 8.95987C0.00390625 10.0199 0.424651 11.0365 1.17372 11.7865Z" fill="#040406"/>
</svg>
