<svg width="22" height="22" viewBox="0 0 22 22" fill="none" xmlns="http://www.w3.org/2000/svg">
<g id="account_box">
<mask id="mask0_810_860" style="mask-type:alpha" maskUnits="userSpaceOnUse" x="0" y="0" width="22" height="22">
<rect id="Bounding box" x="0.806641" width="21.1631" height="21.1631" fill="#D9D9D9"/>
</mask>
<g mask="url(#mask0_810_860)">
<path id="account_box_2" d="M5.15782 16.5751C5.94998 15.7075 6.8705 15.0241 7.91937 14.5248C8.96825 14.0256 10.1015 13.7759 11.3191 13.7759C12.5366 13.7759 13.6699 14.0256 14.7187 14.5248C15.7676 15.0241 16.6881 15.7075 17.4803 16.5751V3.95452H5.15782V16.5751ZM11.3191 11.8117C12.1699 11.8117 12.896 11.4761 13.4975 10.805C14.099 10.1338 14.3997 9.32357 14.3997 8.37416C14.3997 7.42476 14.099 6.61449 13.4975 5.94336C12.896 5.27223 12.1699 4.93666 11.3191 4.93666C10.4682 4.93666 9.74207 5.27223 9.14062 5.94336C8.53917 6.61449 8.23844 7.42476 8.23844 8.37416C8.23844 9.32357 8.53917 10.1338 9.14062 10.805C9.74207 11.4761 10.4682 11.8117 11.3191 11.8117ZM5.15782 19.6688C4.67372 19.6688 4.2593 19.4765 3.91457 19.0918C3.56983 18.7071 3.39746 18.2447 3.39746 17.7045V3.95452C3.39746 3.41434 3.56983 2.95192 3.91457 2.56724C4.2593 2.18257 4.67372 1.99023 5.15782 1.99023H17.4803C17.9644 1.99023 18.3788 2.18257 18.7236 2.56724C19.0683 2.95192 19.2407 3.41434 19.2407 3.95452V17.7045C19.2407 18.2447 19.0683 18.7071 18.7236 19.0918C18.3788 19.4765 17.9644 19.6688 17.4803 19.6688H5.15782ZM6.91817 17.7045H15.7199V17.459C15.1038 16.8861 14.4217 16.4564 13.6735 16.1699C12.9254 15.8835 12.1406 15.7402 11.3191 15.7402C10.4976 15.7402 9.71274 15.8835 8.96458 16.1699C8.21643 16.4564 7.5343 16.8861 6.91817 17.459V17.7045ZM11.3191 9.84738C10.9523 9.84738 10.6406 9.70415 10.3839 9.41769C10.1272 9.13123 9.99879 8.78339 9.99879 8.37416C9.99879 7.96494 10.1272 7.61709 10.3839 7.33064C10.6406 7.04418 10.9523 6.90095 11.3191 6.90095C11.6858 6.90095 11.9975 7.04418 12.2542 7.33064C12.511 7.61709 12.6393 7.96494 12.6393 8.37416C12.6393 8.78339 12.511 9.13123 12.2542 9.41769C11.9975 9.70415 11.6858 9.84738 11.3191 9.84738Z" fill="url(#paint0_linear_810_860)"/>
</g>
</g>
<defs>
<linearGradient id="paint0_linear_810_860" x1="3.39746" y1="15.2492" x2="19.8594" y2="14.304" gradientUnits="userSpaceOnUse">
<stop stop-color="#18BAD4"/>
<stop offset="0.515625" stop-color="#31B680"/>
<stop offset="1" stop-color="#80C242"/>
</linearGradient>
</defs>
</svg>
