<svg width="20" height="20" viewBox="0 0 20 20" fill="none" xmlns="http://www.w3.org/2000/svg">
<g clip-path="url(#clip0_892_16235)">
<path d="M15.8333 0H4.16667C3.062 0.00132321 2.00296 0.440735 1.22185 1.22185C0.440735 2.00296 0.00132321 3.062 0 4.16667L0 15.8333C0.00132321 16.938 0.440735 17.997 1.22185 18.7782C2.00296 19.5593 3.062 19.9987 4.16667 20H15.8333C16.938 19.9987 17.997 19.5593 18.7782 18.7782C19.5593 17.997 19.9987 16.938 20 15.8333V4.16667C19.9987 3.062 19.5593 2.00296 18.7782 1.22185C17.997 0.440735 16.938 0.00132321 15.8333 0V0ZM4.16667 1.66667H15.8333C16.4964 1.66667 17.1323 1.93006 17.6011 2.3989C18.0699 2.86774 18.3333 3.50363 18.3333 4.16667V15.8333C18.3319 16.2046 18.2464 16.5707 18.0833 16.9042L10.4475 9.26833C10.0606 8.88131 9.6012 8.57429 9.0956 8.36483C8.59001 8.15537 8.0481 8.04756 7.50083 8.04756C6.95357 8.04756 6.41166 8.15537 5.90606 8.36483C5.40047 8.57429 4.94109 8.88131 4.55417 9.26833L1.66667 12.155V4.16667C1.66667 3.50363 1.93006 2.86774 2.3989 2.3989C2.86774 1.93006 3.50363 1.66667 4.16667 1.66667ZM4.16667 18.3333C3.50363 18.3333 2.86774 18.0699 2.3989 17.6011C1.93006 17.1323 1.66667 16.4964 1.66667 15.8333V14.5117L5.73167 10.4467C5.96383 10.2144 6.2395 10.0301 6.54292 9.90432C6.84634 9.77858 7.17156 9.71387 7.5 9.71387C7.82844 9.71387 8.15366 9.77858 8.45708 9.90432C8.7605 10.0301 9.03617 10.2144 9.26833 10.4467L16.9042 18.0833C16.5707 18.2464 16.2046 18.3319 15.8333 18.3333H4.16667Z" fill="#040406"/>
<path d="M13.3327 8.74935C13.9095 8.74935 14.4735 8.57829 14.9531 8.2578C15.4327 7.93732 15.8066 7.48179 16.0273 6.94884C16.2481 6.41589 16.3058 5.82945 16.1933 5.26367C16.0808 4.69789 15.803 4.17819 15.3951 3.77029C14.9872 3.36239 14.4675 3.0846 13.9017 2.97206C13.3359 2.85952 12.7495 2.91728 12.2165 3.13803C11.6836 3.35879 11.228 3.73263 10.9076 4.21227C10.5871 4.69191 10.416 5.25582 10.416 5.83268C10.416 6.60623 10.7233 7.3481 11.2703 7.89508C11.8173 8.44206 12.5591 8.74935 13.3327 8.74935ZM13.3327 4.58268C13.5799 4.58268 13.8216 4.656 14.0271 4.79335C14.2327 4.9307 14.3929 5.12592 14.4875 5.35433C14.5821 5.58274 14.6069 5.83407 14.5587 6.07655C14.5104 6.31902 14.3914 6.54175 14.2166 6.71657C14.0417 6.89138 13.819 7.01043 13.5765 7.05867C13.3341 7.1069 13.0827 7.08214 12.8543 6.98753C12.6259 6.89292 12.4307 6.73271 12.2933 6.52715C12.156 6.32158 12.0827 6.07991 12.0827 5.83268C12.0827 5.50116 12.2144 5.18322 12.4488 4.9488C12.6832 4.71438 13.0012 4.58268 13.3327 4.58268Z" fill="#040406"/>
</g>
<defs>
<clipPath id="clip0_892_16235">
<rect width="20" height="20" fill="white"/>
</clipPath>
</defs>
</svg>
