<svg width="21" height="24" viewBox="0 0 21 24" fill="none" xmlns="http://www.w3.org/2000/svg">
<path d="M14.5 16C14.5 16.2652 14.3946 16.5196 14.2071 16.7071C14.0196 16.8947 13.7652 17 13.5 17H11.5V19C11.5 19.2652 11.3946 19.5196 11.2071 19.7071C11.0196 19.8947 10.7652 20 10.5 20C10.2348 20 9.98043 19.8947 9.79289 19.7071C9.60536 19.5196 9.5 19.2652 9.5 19V17H7.5C7.23478 17 6.98043 16.8947 6.79289 16.7071C6.60536 16.5196 6.5 16.2652 6.5 16C6.5 15.7348 6.60536 15.4805 6.79289 15.2929C6.98043 15.1054 7.23478 15 7.5 15H9.5V13C9.5 12.7348 9.60536 12.4805 9.79289 12.2929C9.98043 12.1054 10.2348 12 10.5 12C10.7652 12 11.0196 12.1054 11.2071 12.2929C11.3946 12.4805 11.5 12.7348 11.5 13V15H13.5C13.7652 15 14.0196 15.1054 14.2071 15.2929C14.3946 15.4805 14.5 15.7348 14.5 16ZM20.5 10.485V19C20.4984 20.3256 19.9711 21.5965 19.0338 22.5338C18.0964 23.4711 16.8256 23.9984 15.5 24H5.5C4.17441 23.9984 2.90356 23.4711 1.96622 22.5338C1.02888 21.5965 0.501588 20.3256 0.5 19V5.00002C0.501588 3.67443 1.02888 2.40358 1.96622 1.46624C2.90356 0.528905 4.17441 0.00161091 5.5 2.30487e-05H10.015C10.9346 -0.00234388 11.8456 0.177611 12.6952 0.529482C13.5449 0.881354 14.3163 1.39816 14.965 2.05002L18.449 5.53602C19.1012 6.18426 19.6184 6.95548 19.9704 7.805C20.3225 8.65451 20.5025 9.56545 20.5 10.485ZM13.551 3.46402C13.2363 3.15918 12.8829 2.89695 12.5 2.68402V7.00002C12.5 7.26524 12.6054 7.51959 12.7929 7.70713C12.9804 7.89467 13.2348 8.00002 13.5 8.00002H17.816C17.603 7.61721 17.3404 7.26417 17.035 6.95002L13.551 3.46402ZM18.5 10.485C18.5 10.32 18.468 10.162 18.453 10H13.5C12.7044 10 11.9413 9.68395 11.3787 9.12134C10.8161 8.55873 10.5 7.79567 10.5 7.00002V2.04702C10.338 2.03202 10.179 2.00002 10.015 2.00002H5.5C4.70435 2.00002 3.94129 2.31609 3.37868 2.8787C2.81607 3.44131 2.5 4.20437 2.5 5.00002V19C2.5 19.7957 2.81607 20.5587 3.37868 21.1213C3.94129 21.684 4.70435 22 5.5 22H15.5C16.2956 22 17.0587 21.684 17.6213 21.1213C18.1839 20.5587 18.5 19.7957 18.5 19V10.485Z" fill="white"/>
</svg>
