<svg width="20" height="20" viewBox="0 0 20 20" fill="none" xmlns="http://www.w3.org/2000/svg">
<path d="M4.79167 15.388H15.2083C15.4167 15.388 15.5729 15.2925 15.6771 15.1016C15.7813 14.9106 15.7639 14.7283 15.625 14.5547L12.7604 10.7266C12.6562 10.5877 12.5174 10.5182 12.3437 10.5182C12.1701 10.5182 12.0312 10.5877 11.9271 10.7266L9.21875 14.3464L7.29167 11.7682C7.1875 11.6293 7.04861 11.5599 6.875 11.5599C6.70139 11.5599 6.5625 11.6293 6.45833 11.7682L4.375 14.5547C4.23611 14.7283 4.21875 14.9106 4.32292 15.1016C4.42708 15.2925 4.58333 15.388 4.79167 15.388ZM2.70833 19.5547C2.13542 19.5547 1.64479 19.3509 1.23646 18.9432C0.828819 18.5349 0.625 18.0443 0.625 17.4714V2.88802C0.625 2.3151 0.828819 1.82448 1.23646 1.41615C1.64479 1.00851 2.13542 0.804688 2.70833 0.804688H17.2917C17.8646 0.804688 18.3552 1.00851 18.7635 1.41615C19.1712 1.82448 19.375 2.3151 19.375 2.88802V17.4714C19.375 18.0443 19.1712 18.5349 18.7635 18.9432C18.3552 19.3509 17.8646 19.5547 17.2917 19.5547H2.70833Z" fill="#040406"/>
</svg>
