<svg width="20" height="20" viewBox="0 0 20 20" fill="none" xmlns="http://www.w3.org/2000/svg">
<g id="co_present">
<mask id="mask0_810_866" style="mask-type:alpha" maskUnits="userSpaceOnUse" x="0" y="0" width="20" height="20">
<rect id="Bounding box" x="0.761719" width="19.0468" height="19.0468" fill="#D9D9D9"/>
</mask>
<g mask="url(#mask0_810_866)">
<path id="co_present_2" d="M17.427 15.666V2.96809H3.14192V9.31703H1.55469V2.96809C1.55469 2.5316 1.7101 2.15794 2.02094 1.84711C2.33177 1.53628 2.70543 1.38086 3.14192 1.38086H17.427C17.8635 1.38086 18.2372 1.53628 18.548 1.84711C18.8588 2.15794 19.0143 2.5316 19.0143 2.96809V14.0787C19.0143 14.5152 18.8588 14.8889 18.548 15.1997C18.2372 15.5106 17.8635 15.666 17.427 15.666ZM7.90363 10.1106C7.03065 10.1106 6.28332 9.79981 5.66166 9.17815C5.03999 8.55648 4.72916 7.80916 4.72916 6.93618C4.72916 6.0632 5.03999 5.31588 5.66166 4.69421C6.28332 4.07254 7.03065 3.76171 7.90363 3.76171C8.7766 3.76171 9.52393 4.07254 10.1456 4.69421C10.7673 5.31588 11.0781 6.0632 11.0781 6.93618C11.0781 7.80916 10.7673 8.55648 10.1456 9.17815C9.52393 9.79981 8.7766 10.1106 7.90363 10.1106ZM7.90363 8.52341C8.34011 8.52341 8.71378 8.368 9.02461 8.05716C9.33544 7.74633 9.49086 7.37267 9.49086 6.93618C9.49086 6.49969 9.33544 6.12603 9.02461 5.81519C8.71378 5.50436 8.34011 5.34894 7.90363 5.34894C7.46714 5.34894 7.09347 5.50436 6.78264 5.81519C6.47181 6.12603 6.31639 6.49969 6.31639 6.93618C6.31639 7.37267 6.47181 7.74633 6.78264 8.05716C7.09347 8.368 7.46714 8.52341 7.90363 8.52341ZM1.55469 16.4596V14.2375C1.55469 13.7877 1.67042 13.3744 1.9019 12.9974C2.13337 12.6205 2.44089 12.3328 2.82448 12.1344C3.64455 11.7243 4.47784 11.4168 5.32437 11.2118C6.17089 11.0068 7.03065 10.9043 7.90363 10.9043C8.7766 10.9043 9.63636 11.0068 10.4829 11.2118C11.3294 11.4168 12.1627 11.7243 12.9828 12.1344C13.3664 12.3328 13.6739 12.6205 13.9054 12.9974C14.1368 13.3744 14.2526 13.7877 14.2526 14.2375V16.4596H1.55469ZM3.14192 14.8723H12.6653V14.2375C12.6653 14.092 12.629 13.9597 12.5562 13.8406C12.4835 13.7216 12.3876 13.629 12.2685 13.5629C11.5543 13.2058 10.8334 12.9379 10.1059 12.7593C9.37843 12.5808 8.64433 12.4915 7.90363 12.4915C7.16292 12.4915 6.42882 12.5808 5.70134 12.7593C4.97385 12.9379 4.25299 13.2058 3.53873 13.5629C3.41969 13.629 3.32379 13.7216 3.25104 13.8406C3.1783 13.9597 3.14192 14.092 3.14192 14.2375V14.8723Z" fill="white"/>
</g>
</g>
</svg>
