<svg width="16" height="16" viewBox="0 0 16 16" fill="none" xmlns="http://www.w3.org/2000/svg">
<path d="M10.7273 7.61277C10.7273 7.77829 10.8614 7.91247 11.027 7.91247C11.1925 7.91247 11.3266 7.77829 11.3266 7.61277C11.3266 7.44726 11.1925 7.31308 11.027 7.31308C10.8614 7.31308 10.7273 7.44726 10.7273 7.61277ZM10.7273 7.61277H11.027M7.73034 7.61277C7.73034 7.77829 7.86451 7.91247 8.03003 7.91247C8.19554 7.91247 8.32972 7.77829 8.32972 7.61277C8.32972 7.44726 8.19554 7.31308 8.03003 7.31308C7.86451 7.31308 7.73034 7.44726 7.73034 7.61277ZM7.73034 7.61277H8.03003M4.73341 7.61277C4.73341 7.77829 4.86758 7.91247 5.0331 7.91247C5.19862 7.91247 5.33279 7.77829 5.33279 7.61277C5.33279 7.44726 5.19862 7.31308 5.0331 7.31308C4.86758 7.31308 4.73341 7.44726 4.73341 7.61277ZM4.73341 7.61277H5.0331M0.8374 7.61277C0.8374 11.2541 4.05765 14.206 8.03003 14.206C8.73928 14.206 9.42455 14.1119 10.0718 13.9366C10.851 14.484 11.8006 14.8054 12.8251 14.8054C12.9843 14.8054 13.1418 14.7976 13.2969 14.7825C13.4245 14.7701 13.5509 14.7526 13.6756 14.7303C13.2892 14.2742 13.0147 13.7206 12.8939 13.1118C12.8215 12.7465 13.0004 12.3918 13.2672 12.1321C14.4797 10.9519 15.2227 9.36186 15.2227 7.61277C15.2227 3.97143 12.0024 1.01953 8.03003 1.01953C4.05765 1.01953 0.8374 3.97143 0.8374 7.61277Z" stroke="#040406" stroke-width="1.43853" stroke-linecap="round" stroke-linejoin="round"/>
</svg>
