<svg width="31" height="31" viewBox="0 0 31 31" fill="none" xmlns="http://www.w3.org/2000/svg">
<path d="M19.7025 15.4878C19.7025 15.746 19.9118 15.9553 20.17 15.9553C20.4282 15.9553 20.6375 15.746 20.6375 15.4878C20.6375 15.2297 20.4282 15.0204 20.17 15.0204C19.9118 15.0204 19.7025 15.2297 19.7025 15.4878ZM19.7025 15.4878H20.17M15.0277 15.4878C15.0277 15.746 15.237 15.9553 15.4951 15.9553C15.7533 15.9553 15.9626 15.746 15.9626 15.4878C15.9626 15.2297 15.7533 15.0204 15.4951 15.0204C15.237 15.0204 15.0277 15.2297 15.0277 15.4878ZM15.0277 15.4878H15.4951M10.3528 15.4878C10.3528 15.746 10.5621 15.9553 10.8203 15.9553C11.0785 15.9553 11.2878 15.746 11.2878 15.4878C11.2878 15.2297 11.0785 15.0204 10.8203 15.0204C10.5621 15.0204 10.3528 15.2297 10.3528 15.4878ZM10.3528 15.4878H10.8203M4.27545 15.4878C4.27545 21.1679 9.29868 25.7726 15.4951 25.7726C16.6015 25.7726 17.6704 25.6258 18.6801 25.3523C19.8956 26.2062 21.3768 26.7075 22.9749 26.7075C23.2233 26.7075 23.4689 26.6954 23.7109 26.6718C23.9099 26.6524 24.1071 26.6251 24.3016 26.5903C23.6988 25.8789 23.2707 25.0154 23.0823 24.0657C22.9693 23.4959 23.2483 22.9426 23.6645 22.5375C25.5558 20.6965 26.7148 18.2162 26.7148 15.4878C26.7148 9.80775 21.6916 5.20312 15.4951 5.20312C9.29868 5.20312 4.27545 9.80775 4.27545 15.4878Z" stroke="#040406" stroke-width="2.24394" stroke-linecap="round" stroke-linejoin="round"/>
</svg>
