<svg id="Layer_1" data-name="Layer 1" xmlns="http://www.w3.org/2000/svg" xmlns:xlink="http://www.w3.org/1999/xlink" viewBox="0 0 731.63 248.54"><defs><style>.cls-1{fill:url(#linear-gradient);}.cls-2{fill:url(#linear-gradient-8);}.cls-3{fill:url(#linear-gradient-9);}.cls-4{fill:#fff;}</style><linearGradient id="linear-gradient" x1="57.9" y1="166.02" x2="334.01" y2="166.02" gradientUnits="userSpaceOnUse"><stop offset="0" stop-color="#20bec8"/><stop offset="1" stop-color="#87c65a"/></linearGradient><linearGradient id="linear-gradient-8" x1="236.75" y1="64.53" x2="254.86" y2="64.53" xlink:href="#linear-gradient"/><linearGradient id="linear-gradient-9" x1="27.75" y1="128.26" x2="353.26" y2="128.26" xlink:href="#linear-gradient"/></defs><text x="57.1" y="-55.47"/><path className="cls-1" d="M75.05,179.65H66.48V148.26H76a41.42,41.42,0,0,1,7.89.51,9.62,9.62,0,0,1,3.85,1.76,9.38,9.38,0,0,1,2.83,3.59,11.54,11.54,0,0,1,1,4.8,11.77,11.77,0,0,1-1,4.94,8.76,8.76,0,0,1-2.84,3.51,9.3,9.3,0,0,1-3.35,1.48,30,30,0,0,1-6.17.45H75.05Zm0-17.26H76.8a9,9,0,0,0,4.61-.85,3.16,3.16,0,0,0,1.3-2.88,3.11,3.11,0,0,0-1.28-2.81,8.83,8.83,0,0,0-4.54-.84H75.05Z" transform="translate(57.1 -55.47)"/><path className="cls-1" d="M96.24,179.65V148.26h9.15v24.06h11.37v7.33Z" transform="translate(57.1 -55.47)"/><path className="cls-1" d="M117.29,179.65l11.58-31.39h11.46l11.61,31.39h-9.11L141.14,174h-13l-1.75,5.61Zm12.82-11.73h9.1l-3.42-10.35c-.1-.32-.25-.83-.43-1.53s-.42-1.6-.71-2.7c-.2.77-.4,1.51-.59,2.21s-.38,1.37-.58,2Z" transform="translate(57.1 -55.47)"/><path className="cls-1" d="M155.15,179.65V148.26H164l12.68,16.15a21.32,21.32,0,0,1,1.21,2c.56,1,1.17,2.18,1.84,3.55-.18-1.3-.31-2.46-.4-3.47s-.12-1.92-.12-2.71v-15.5H188v31.39h-8.78L166.5,163.44a18.37,18.37,0,0,1-1.23-2c-.56-1-1.17-2.16-1.82-3.51.18,1.32.31,2.48.4,3.5s.12,1.91.12,2.7v15.5Z" transform="translate(57.1 -55.47)"/><path className="cls-1" d="M195.16,179.65V148.26H204l12.68,16.15q.36.5,1.2,2c.56,1,1.17,2.18,1.85,3.55-.19-1.3-.32-2.46-.41-3.47s-.12-1.92-.12-2.71v-15.5H228v31.39h-8.78l-12.68-16.21a18.37,18.37,0,0,1-1.23-2c-.56-1-1.16-2.16-1.82-3.51.18,1.32.32,2.48.4,3.5s.13,1.91.13,2.7v15.5Z" transform="translate(57.1 -55.47)"/><path className="cls-1" d="M235.17,179.65V148.26h20.57v6.88H244.09v5.45h11v6.73h-11v5.3h11.65v7Z" transform="translate(57.1 -55.47)"/><path className="cls-1" d="M261.79,179.65V148.26h9.56a42.71,42.71,0,0,1,7.83.48,10.25,10.25,0,0,1,3.82,1.62,8.59,8.59,0,0,1,2.79,3.28,9.89,9.89,0,0,1,1,4.4,9,9,0,0,1-1.91,5.93,9.5,9.5,0,0,1-5.59,3l9.15,12.65H278.07l-7.7-12.28v12.28Zm8.58-16.55h1.69a7.83,7.83,0,0,0,4.33-.94,3.37,3.37,0,0,0,1.36-3,4,4,0,0,0-1.27-3.36,7,7,0,0,0-4.28-1h-1.83Z" transform="translate(57.1 -55.47)"/><ellipse className="cls-2" cx="245.81" cy="64.53" rx="9.05" ry="9.78"/><path className="cls-3" d="M59.4,122.67a14.28,14.28,0,0,0-4.24-2.76,12.08,12.08,0,0,0-4.69-.93,9.94,9.94,0,0,0-7.75,3.31,13.64,13.64,0,0,0-.08,16.94,9.35,9.35,0,0,0,7.33,3.3,12.5,12.5,0,0,0,4.92-1,15.31,15.31,0,0,0,4.47-3v5.77a13.51,13.51,0,0,1-4.15,2.21,15.47,15.47,0,0,1-4.86.73,15.76,15.76,0,0,1-6.16-1.18,14.24,14.24,0,0,1-5-3.47A15.49,15.49,0,0,1,36,137.31a19.1,19.1,0,0,1,0-13A15.69,15.69,0,0,1,39.26,119a14.43,14.43,0,0,1,5-3.5,15.15,15.15,0,0,1,6.05-1.19,14.65,14.65,0,0,1,4.88.8,17,17,0,0,1,4.51,2.43Z" transform="translate(57.1 -55.47)"/><path className="cls-3" d="M95.05,130.8a17.19,17.19,0,0,1-1.17,6.33,16.07,16.07,0,0,1-3.38,5.31A15.78,15.78,0,0,1,85.44,146a14.47,14.47,0,0,1-5.91,1.24,14.82,14.82,0,0,1-6-1.25,15.4,15.4,0,0,1-5-3.58,15.9,15.9,0,0,1-3.37-5.29,18.11,18.11,0,0,1,0-12.7,16.21,16.21,0,0,1,3.37-5.34,15.35,15.35,0,0,1,5-3.56,14.94,14.94,0,0,1,6-1.22,14.79,14.79,0,0,1,5.94,1.22,15.42,15.42,0,0,1,5,3.56,16.64,16.64,0,0,1,3.38,5.37A17.21,17.21,0,0,1,95.05,130.8Zm-4.93,0a12.71,12.71,0,0,0-.8-4.53A12,12,0,0,0,87,122.46a10.25,10.25,0,0,0-3.41-2.54,9.54,9.54,0,0,0-4.07-.89,9.69,9.69,0,0,0-4.08.88A10.32,10.32,0,0,0,72,122.46a11.54,11.54,0,0,0-2.3,3.79,13,13,0,0,0-.79,4.55,12.68,12.68,0,0,0,.79,4.5,11.9,11.9,0,0,0,2.3,3.8,10.42,10.42,0,0,0,3.44,2.55,9.64,9.64,0,0,0,4.09.88,9.47,9.47,0,0,0,4-.88A10.67,10.67,0,0,0,87,139.1a12,12,0,0,0,2.31-3.81A12.53,12.53,0,0,0,90.12,130.8Z" transform="translate(57.1 -55.47)"/><path className="cls-3" d="M100.46,146.43V113.79L118.92,133c.5.54,1,1.12,1.53,1.73s1.06,1.31,1.63,2.08V115h4.36v32.62l-18.83-19.54c-.5-.53-1-1.09-1.46-1.67s-.92-1.2-1.34-1.85v21.83Z" transform="translate(57.1 -55.47)"/><path className="cls-3" d="M133.11,146.43V115h16.22v4.33H137.84v7.83h11.49v4.48H137.84v14.75Z" transform="translate(57.1 -55.47)"/><path className="cls-3" d="M154.45,146.43V115h16.21v4.33H159.17v7.87h11.49v4.48H159.17v10.15h11.49v4.56Z" transform="translate(57.1 -55.47)"/><path className="cls-3" d="M176.88,146.43V104.57h11a42.49,42.49,0,0,1,9,.65,11,11,0,0,1,4.4,2.15,11.22,11.22,0,0,1,3.22,4.38,14.89,14.89,0,0,1,1.12,5.86,13.11,13.11,0,0,1-2.21,7.91,10.59,10.59,0,0,1-6.44,4l10.56,16.87H195.67l-8.9-16.38v16.38Zm9.89-22.07h2q3.42,0,5-1.26a4.74,4.74,0,0,0,1.57-3.95c0-2.09-.49-3.58-1.46-4.47s-2.63-1.33-4.94-1.33h-2.12Z" transform="translate(57.1 -55.47)"/><path className="cls-3" d="M210.83,146.43V115H227v4.33H215.55v7.87H227v4.48H215.55v10.15H227v4.56Z" transform="translate(57.1 -55.47)"/><path className="cls-3" d="M232.46,146.43V113.79L250.92,133c.5.54,1,1.12,1.53,1.73s1.05,1.31,1.62,2.08V115h4.37v32.62l-18.83-19.54c-.51-.53-1-1.09-1.46-1.67s-.92-1.2-1.34-1.85v21.83Z" transform="translate(57.1 -55.47)"/><path className="cls-3" d="M288.43,122.67a14.28,14.28,0,0,0-4.24-2.76,12.08,12.08,0,0,0-4.69-.93,9.94,9.94,0,0,0-7.75,3.31,13.64,13.64,0,0,0-.08,16.94,9.35,9.35,0,0,0,7.33,3.3,12.41,12.41,0,0,0,4.91-1,15.22,15.22,0,0,0,4.48-3v5.77a13.51,13.51,0,0,1-4.15,2.21,15.52,15.52,0,0,1-4.86.73,15.76,15.76,0,0,1-6.16-1.18,14.28,14.28,0,0,1-5-3.47,15.63,15.63,0,0,1-3.26-5.31,19.1,19.1,0,0,1,0-13,15.82,15.82,0,0,1,3.3-5.33,14.56,14.56,0,0,1,5-3.5,15.15,15.15,0,0,1,6.05-1.19,14.69,14.69,0,0,1,4.88.8,17,17,0,0,1,4.51,2.43Z" transform="translate(57.1 -55.47)"/><path className="cls-3" d="M294.28,146.43V115H310.5v4.33H299v7.87H310.5v4.48H299v10.15H310.5v4.56Z" transform="translate(57.1 -55.47)"/><text x="57.1" y="-55.47"/><text x="57.1" y="-55.47"/><text x="57.1" y="-55.47"/><path className="cls-4" d="M174.23,114.08c0,7.33,5.55,12.66,13.69,12.81h0l.35,0c.25,0,.48,0,.71,0,2-.24,3.05-1.76,2.69-3.12-.93-3.51-7.31-9.3-6.46-12.61,1.21-4.71,7.73-4.71,10.38-1.78s.79,5.16.79,5.16c1.9,2.14,1.08,3.33,1.08,3.33l-4.25-2.2a6.11,6.11,0,0,1-2.6-3.91c1.22,2.19,5.28.68,3.54-2s-7.51-2-6.94,1.27,7.39,6.31,9.83,11.36a6.66,6.66,0,0,1-1.21,7.8c-1,1.12-2.53,1.79-5,1.79l-16.33.34" transform="translate(57.1 -55.47)"/><text x="57.1" y="-55.47"/><text x="57.1" y="-55.47"/><text x="57.1" y="-55.47"/></svg>