<svg width="24" height="24" viewBox="0 0 24 24" fill="none" xmlns="http://www.w3.org/2000/svg">
<g clip-path="url(#clip0_879_66860)">
<path d="M12 0C9.62663 0 7.30655 0.703788 5.33316 2.02236C3.35977 3.34094 1.8217 5.21509 0.913451 7.4078C0.00519943 9.60051 -0.232441 12.0133 0.230582 14.3411C0.693605 16.6689 1.83649 18.8071 3.51472 20.4853C5.19295 22.1635 7.33115 23.3064 9.65892 23.7694C11.9867 24.2324 14.3995 23.9948 16.5922 23.0866C18.7849 22.1783 20.6591 20.6402 21.9776 18.6668C23.2962 16.6935 24 14.3734 24 12C23.9966 8.81846 22.7312 5.76821 20.4815 3.51852C18.2318 1.26883 15.1815 0.00344108 12 0V0ZM12 22C10.0222 22 8.08879 21.4135 6.4443 20.3147C4.79981 19.2159 3.51809 17.6541 2.76121 15.8268C2.00433 13.9996 1.8063 11.9889 2.19215 10.0491C2.578 8.10929 3.53041 6.32746 4.92894 4.92893C6.32746 3.53041 8.10929 2.578 10.0491 2.19215C11.9889 1.8063 13.9996 2.00433 15.8268 2.7612C17.6541 3.51808 19.2159 4.79981 20.3147 6.4443C21.4135 8.08879 22 10.0222 22 12C21.9971 14.6513 20.9426 17.1931 19.0679 19.0679C17.1931 20.9426 14.6513 21.9971 12 22Z" fill="#040406"/>
<path d="M15.5365 8.464C15.7251 8.64616 15.9777 8.74696 16.2399 8.74468C16.5021 8.7424 16.7529 8.63723 16.9383 8.45182C17.1237 8.26641 17.2289 8.0156 17.2311 7.7534C17.2334 7.49121 17.1326 7.23861 16.9505 7.05C15.9715 6.07111 14.7242 5.40449 13.3663 5.13445C12.0085 4.86442 10.6011 5.00308 9.32203 5.53291C8.04299 6.06275 6.94978 6.95996 6.18064 8.11109C5.4115 9.26222 5.00098 10.6156 5.00098 12C5.00098 13.3844 5.4115 14.7378 6.18064 15.8889C6.94978 17.04 8.04299 17.9373 9.32203 18.4671C10.6011 18.9969 12.0085 19.1356 13.3663 18.8656C14.7242 18.5955 15.9715 17.9289 16.9505 16.95C17.1326 16.7614 17.2334 16.5088 17.2311 16.2466C17.2289 15.9844 17.1237 15.7336 16.9383 15.5482C16.7529 15.3628 16.5021 15.2576 16.2399 15.2553C15.9777 15.2531 15.7251 15.3538 15.5365 15.536C14.8372 16.2351 13.9462 16.7112 12.9764 16.904C12.0065 17.0968 11.0012 16.9978 10.0877 16.6193C9.17413 16.2408 8.39331 15.5999 7.84396 14.7777C7.29462 13.9555 7.0014 12.9889 7.0014 12C7.0014 11.0112 7.29462 10.0445 7.84396 9.22229C8.39331 8.40007 9.17413 7.75921 10.0877 7.38073C11.0012 7.00225 12.0065 6.90316 12.9764 7.09598C13.9462 7.2888 14.8372 7.76487 15.5365 8.464Z" fill="#040406"/>
</g>
<defs>
<clipPath id="clip0_879_66860">
<rect width="24" height="24" fill="white"/>
</clipPath>
</defs>
</svg>
