<svg width="171" height="52" viewBox="0 0 171 52" fill="none" xmlns="http://www.w3.org/2000/svg">
<g clip-path="url(#clip0_29_2)">
<path d="M26.9953 47.97H21.8713V29.4213H27.5633C29.1419 29.3729 30.7216 29.4738 32.2807 29.7227C33.1167 29.8962 33.903 30.2514 34.5827 30.7627C35.3151 31.3211 35.8964 32.0499 36.2747 32.8841C36.6773 33.7763 36.8812 34.7436 36.8726 35.7204C36.889 36.7247 36.685 37.7206 36.2747 38.6395C35.9018 39.4656 35.3164 40.1808 34.5767 40.7136C33.9743 41.1335 33.2934 41.4307 32.5737 41.5882C31.3566 41.8022 30.1203 41.8913 28.8847 41.8541H26.9953V47.97ZM26.9953 37.7709H28.0416C28.9892 37.847 29.9402 37.6737 30.798 37.2686C31.0672 37.0773 31.2808 36.8193 31.4173 36.5206C31.5537 36.2219 31.6082 35.8929 31.5752 35.5668C31.605 35.2481 31.55 34.9273 31.4158 34.6361C31.2816 34.3448 31.0727 34.0933 30.8099 33.9063C29.9656 33.5059 29.0288 33.3346 28.0954 33.41H26.9953V37.7709Z" fill="url(#paint0_linear_29_2)"/>
<path d="M39.6648 47.97V29.4214H45.1356V43.6387H51.9337V47.97H39.6648Z" fill="url(#paint1_linear_29_2)"/>
<path d="M52.2507 47.97L59.1744 29.4214H66.0263L72.968 47.97H67.5211L66.5106 44.6314H58.7379L57.6916 47.9464L52.2507 47.97ZM59.9158 41.0387H65.3567L63.3119 34.9228C63.2521 34.7337 63.1624 34.4323 63.0548 34.0187C62.9471 33.605 62.8036 33.0732 62.6302 32.4232C62.5107 32.8782 62.3911 33.3155 62.2775 33.7291C62.1639 34.1428 62.0503 34.5387 61.9307 34.9109L59.9158 41.0387Z" fill="url(#paint2_linear_29_2)"/>
<path d="M74.8872 47.97V29.4214H80.1786L87.76 38.9646C88.0229 39.3451 88.2644 39.7397 88.4835 40.1464C88.8183 40.7373 89.183 41.4346 89.5836 42.2441C89.476 41.4759 89.3983 40.7905 89.3445 40.1937C89.2907 39.5968 89.2727 39.0591 89.2727 38.5923V29.4332H94.5283V47.9818H89.2787L81.6734 38.3914C81.403 38.0134 81.1574 37.6186 80.938 37.2096C80.6032 36.6187 80.2384 35.9332 79.8498 35.1355C79.9574 35.9155 80.0352 36.6009 80.089 37.2037C80.1428 37.8064 80.1607 38.3323 80.1607 38.7991V47.9582L74.8872 47.97Z" fill="url(#paint3_linear_29_2)"/>
<path d="M98.8093 47.97V29.4214H104.095L111.676 38.9646C111.82 39.1615 112.059 39.5555 112.394 40.1464C112.728 40.7373 113.093 41.4346 113.5 42.2441C113.386 41.4759 113.308 40.7905 113.255 40.1937C113.201 39.5968 113.183 39.0591 113.183 38.5923V29.4332H118.444V47.9818H113.195L105.613 38.4032C105.343 38.0252 105.097 37.6304 104.878 37.2214C104.543 36.6305 104.184 35.945 103.79 35.1473C103.897 35.9273 103.981 36.6128 104.029 37.2155C104.077 37.8182 104.107 38.3441 104.107 38.8109V47.97H98.8093Z" fill="url(#paint4_linear_29_2)"/>
<path d="M122.731 47.97V29.4214H135.03V33.4868H128.065V36.7073H134.642V40.6841H128.065V43.8159H135.03V47.9523L122.731 47.97Z" fill="url(#paint5_linear_29_2)"/>
<path d="M138.648 47.97V29.4213H144.363C145.929 29.3738 147.497 29.4687 149.045 29.705C149.864 29.8669 150.642 30.1926 151.329 30.6623C152.043 31.1579 152.617 31.8249 152.997 32.6004C153.397 33.41 153.601 34.2998 153.595 35.2004C153.649 36.4656 153.244 37.7081 152.453 38.7045C151.577 39.6565 150.398 40.2823 149.111 40.4773L154.582 47.9523H148.381L143.778 40.6959V47.9523L138.648 47.97ZM143.778 38.1904H144.788C145.687 38.2555 146.586 38.0626 147.377 37.635C147.655 37.433 147.875 37.1639 148.018 36.8535C148.16 36.5431 148.219 36.2018 148.19 35.8623C148.229 35.4957 148.18 35.1253 148.049 34.7806C147.917 34.4358 147.705 34.1263 147.431 33.8768C146.664 33.4134 145.767 33.2062 144.872 33.2859H143.778V38.1904Z" fill="url(#paint6_linear_29_2)"/>
<path d="M94.9528 18.5014C97.9412 18.5014 100.364 15.914 100.364 12.7223C100.364 9.53056 97.9412 6.94318 94.9528 6.94318C91.9644 6.94318 89.5418 9.53056 89.5418 12.7223C89.5418 15.914 91.9644 18.5014 94.9528 18.5014Z" fill="url(#paint7_linear_29_2)"/>
<path d="M17.6381 14.3C16.898 13.6116 16.0395 13.0593 15.103 12.6691C14.2147 12.3031 13.2613 12.1163 12.2989 12.1196C11.4287 12.0902 10.5626 12.2502 9.76187 12.5882C8.96115 12.9262 8.24536 13.4339 7.66511 14.0755C6.51662 15.4944 5.88696 17.2552 5.87827 19.0722C5.86959 20.8893 6.4824 22.6559 7.61728 24.0855C8.15509 24.7121 8.82757 25.2124 9.58573 25.5497C10.3439 25.887 11.1686 26.053 11.9999 26.0355C13.0108 26.0371 14.0115 25.8361 14.9416 25.4446C15.9314 25.0143 16.8363 24.4141 17.6142 23.6718V27.0814C16.8707 27.6567 16.0309 28.0987 15.1329 28.3873C14.1938 28.6832 13.2128 28.8288 12.2271 28.8187C10.9645 28.8324 9.71205 28.5953 8.54403 28.1214C7.40965 27.6588 6.38986 26.9593 5.55452 26.0709C4.71352 25.1678 4.06489 24.1068 3.64721 22.9509C2.73836 20.4691 2.73836 17.7509 3.64721 15.2691C4.07815 14.1049 4.74094 13.038 5.59637 12.1314C6.43227 11.2392 7.45157 10.534 8.58588 10.0632C9.73013 9.58622 10.9614 9.34686 12.2032 9.36001C13.1959 9.35305 14.1825 9.5129 15.121 9.83274C16.088 10.174 16.9972 10.6581 17.8175 11.2686L17.6381 14.3Z" fill="url(#paint8_linear_29_2)"/>
<path d="M38.9533 19.1041C38.9606 20.3833 38.7232 21.6524 38.2538 22.8445C37.796 24.0119 37.1092 25.0782 36.2329 25.9823C35.3747 26.8739 34.3465 27.5889 33.2075 28.0859C32.0949 28.573 30.8908 28.8227 29.6739 28.8186C28.4391 28.8222 27.2171 28.5706 26.0865 28.08C24.9562 27.5807 23.9394 26.8612 23.097 25.9645C22.222 25.0651 21.537 24.0025 21.082 22.8386C20.1654 20.4191 20.1654 17.7536 21.082 15.3341C21.5379 14.1619 22.2225 13.0897 23.097 12.1786C23.94 11.2857 24.9568 10.5701 26.0865 10.075C27.2191 9.5925 28.4406 9.34705 29.6739 9.35409C30.8954 9.34939 32.1047 9.59484 33.2254 10.075C34.3545 10.5711 35.3711 11.2865 36.2149 12.1786C37.0883 13.0985 37.7744 14.1758 38.2358 15.3518C38.7126 16.5466 38.9561 17.8198 38.9533 19.1041ZM36.0057 19.1041C36.0123 18.1905 35.8502 17.2834 35.5274 16.4273C35.2114 15.5977 34.7409 14.8341 34.1402 14.1759C33.5742 13.5403 32.8797 13.029 32.1014 12.675C31.3393 12.3247 30.5084 12.1451 29.6679 12.1491C28.8262 12.1452 27.9937 12.3227 27.2285 12.6691C26.4438 13.0237 25.7431 13.537 25.1717 14.1759C24.5711 14.8276 24.1041 15.5881 23.7965 16.4155C23.478 17.2766 23.318 18.1872 23.3242 19.1041C23.3174 20.0114 23.4775 20.9124 23.7965 21.7632C24.1082 22.5903 24.5748 23.3521 25.1717 24.0086C25.7443 24.6462 26.4447 25.1593 27.2285 25.5154C27.9953 25.8636 28.8301 26.0411 29.6739 26.0355C30.4999 26.0366 31.3162 25.8591 32.0655 25.5154C32.8535 25.1577 33.5595 24.645 34.1402 24.0086C34.7388 23.35 35.2072 22.5864 35.5214 21.7573C35.8457 20.9096 36.0099 20.0103 36.0057 19.1041Z" fill="url(#paint9_linear_29_2)"/>
<path d="M42.188 28.34V9.05273L53.2253 20.4041C53.5242 20.7232 53.8232 21.0659 54.1401 21.4264C54.4569 21.7868 54.7738 22.2005 55.1146 22.6555V9.76773H57.7215V29.0432L46.463 17.4968C46.164 17.1836 45.8651 16.8527 45.5901 16.51C45.315 16.1673 45.04 15.8009 44.7889 15.4168V28.3164L42.188 28.34Z" fill="url(#paint10_linear_29_2)"/>
<path d="M61.7095 28.34V9.76776H71.4074V12.3264H64.5375V16.9532H71.4074V19.6005H64.5375V28.3164L61.7095 28.34Z" fill="url(#paint11_linear_29_2)"/>
<path d="M74.4687 28.34V9.76776H84.1607V12.3264H77.2908V16.9769H84.1607V19.6241H77.2908V25.6219H84.1607V28.3164L74.4687 28.34Z" fill="url(#paint12_linear_29_2)"/>
<path d="M87.8796 28.34V3.60454H94.4566C96.259 3.54344 98.0629 3.6722 99.8377 3.98863C100.8 4.21137 101.699 4.64561 102.468 5.25909C103.315 5.9528 103.976 6.84161 104.394 7.84727C104.851 8.94504 105.079 10.1229 105.063 11.31C105.141 12.9677 104.678 14.6061 103.742 15.9841C102.798 17.2146 101.426 18.0564 99.8915 18.3477L106.205 28.3164H99.1142L93.7929 18.6373V28.3164L87.8796 28.34ZM93.7929 15.2986H94.9887C96.3519 15.2986 97.3484 15.0504 97.9782 14.5541C98.3077 14.2641 98.5642 13.9021 98.7271 13.4969C98.8901 13.0916 98.9551 12.6544 98.9169 12.22C98.9169 10.985 98.6239 10.1045 98.044 9.57863C97.464 9.05272 96.4715 8.79272 95.0903 8.79272H93.8228L93.7929 15.2986Z" fill="url(#paint13_linear_29_2)"/>
<path d="M108.178 28.34V9.76776H117.846V12.3264H111.001V16.9769H117.846V19.6241H111.001V25.6219H117.846V28.3164L108.178 28.34Z" fill="url(#paint14_linear_29_2)"/>
<path d="M121.111 28.34V9.05273L132.148 20.4041C132.447 20.7232 132.746 21.0659 133.063 21.4264C133.38 21.7868 133.691 22.2005 134.032 22.6555V9.76773H136.645V29.0432L125.386 17.4968C125.081 17.1836 124.788 16.8527 124.513 16.51C124.238 16.1673 123.963 15.8009 123.712 15.4168V28.3164L121.111 28.34Z" fill="url(#paint15_linear_29_2)"/>
<path d="M154.576 14.3C153.836 13.6116 152.977 13.0593 152.041 12.6691C151.152 12.3031 150.199 12.1163 149.236 12.1196C148.366 12.0902 147.5 12.2502 146.699 12.5882C145.899 12.9262 145.183 13.4339 144.603 14.0755C143.454 15.4944 142.824 17.2552 142.816 19.0722C142.807 20.8893 143.42 22.6559 144.555 24.0855C145.093 24.7121 145.765 25.2124 146.523 25.5497C147.281 25.887 148.106 26.053 148.937 26.0355C149.946 26.0378 150.945 25.8368 151.873 25.4446C152.866 25.0159 153.773 24.4156 154.552 23.6718V27.0814C153.808 27.6567 152.968 28.0987 152.07 28.3873C151.131 28.6827 150.15 28.8283 149.165 28.8187C147.902 28.8324 146.65 28.5953 145.482 28.1214C144.348 27.6581 143.328 26.9588 142.492 26.0709C141.636 25.1649 140.973 24.0978 140.543 22.9332C139.634 20.4514 139.634 17.7332 140.543 15.2514C140.981 14.082 141.652 13.0111 142.516 12.1018C143.353 11.2114 144.372 10.5066 145.505 10.0336C146.65 9.55667 147.881 9.31732 149.123 9.33047C150.115 9.32396 151.102 9.4838 152.041 9.80319C153.008 10.1445 153.917 10.6286 154.737 11.2391L154.576 14.3Z" fill="url(#paint16_linear_29_2)"/>
<path d="M158.073 28.34V9.76776H167.771V12.3264H160.895V16.9769H167.771V19.6241H160.895V25.6219H167.771V28.3164L158.073 28.34Z" fill="url(#paint17_linear_29_2)"/>
<path d="M86.2952 9.2241C86.2952 13.5555 89.6136 16.705 94.4805 16.7936H94.6898C94.8393 16.7936 94.9768 16.7936 95.1143 16.7936C96.3101 16.6518 96.9379 15.7536 96.7226 14.95C96.1666 12.8759 92.352 9.45455 92.8602 7.49864C93.5837 4.71546 97.482 4.71546 99.0664 6.44682C100.651 8.17819 99.5388 9.49592 99.5388 9.49592C100.675 10.7605 100.184 11.4636 100.184 11.4636L97.6434 10.1636C97.2429 9.89887 96.8994 9.55842 96.6326 9.16189C96.3658 8.76536 96.181 8.32059 96.0889 7.85319C96.8183 9.14728 99.2458 8.25501 98.2054 6.67137C97.1651 5.08773 93.7152 5.48955 94.056 7.42182C94.3968 9.3541 98.4745 11.1505 99.9334 14.1346C100.326 14.8787 100.467 15.7273 100.337 16.5564C100.207 17.3856 99.8119 18.152 99.2099 18.7436C98.612 19.4055 97.6972 19.8014 96.2204 19.8014L86.4567 20.0023" fill="white"/>
</g>
<defs>
<linearGradient id="paint0_linear_29_2" x1="16.7413" y1="39.9159" x2="181.828" y2="39.9159" gradientUnits="userSpaceOnUse">
<stop stop-color="#20BEC8"/>
<stop offset="1" stop-color="#87C65A"/>
</linearGradient>
<linearGradient id="paint1_linear_29_2" x1="16.7412" y1="39.9159" x2="181.828" y2="39.9159" gradientUnits="userSpaceOnUse">
<stop stop-color="#20BEC8"/>
<stop offset="1" stop-color="#87C65A"/>
</linearGradient>
<linearGradient id="paint2_linear_29_2" x1="16.7413" y1="39.9159" x2="181.828" y2="39.9159" gradientUnits="userSpaceOnUse">
<stop stop-color="#20BEC8"/>
<stop offset="1" stop-color="#87C65A"/>
</linearGradient>
<linearGradient id="paint3_linear_29_2" x1="16.7412" y1="39.9159" x2="181.828" y2="39.9159" gradientUnits="userSpaceOnUse">
<stop stop-color="#20BEC8"/>
<stop offset="1" stop-color="#87C65A"/>
</linearGradient>
<linearGradient id="paint4_linear_29_2" x1="16.7413" y1="39.9159" x2="181.828" y2="39.9159" gradientUnits="userSpaceOnUse">
<stop stop-color="#20BEC8"/>
<stop offset="1" stop-color="#87C65A"/>
</linearGradient>
<linearGradient id="paint5_linear_29_2" x1="16.7412" y1="39.9159" x2="181.828" y2="39.9159" gradientUnits="userSpaceOnUse">
<stop stop-color="#20BEC8"/>
<stop offset="1" stop-color="#87C65A"/>
</linearGradient>
<linearGradient id="paint6_linear_29_2" x1="16.7413" y1="39.9159" x2="181.828" y2="39.9159" gradientUnits="userSpaceOnUse">
<stop stop-color="#20BEC8"/>
<stop offset="1" stop-color="#87C65A"/>
</linearGradient>
<linearGradient id="paint7_linear_29_2" x1="89.5358" y1="12.7223" x2="100.364" y2="12.7223" gradientUnits="userSpaceOnUse">
<stop stop-color="#20BEC8"/>
<stop offset="1" stop-color="#87C65A"/>
</linearGradient>
<linearGradient id="paint8_linear_29_2" x1="-1.28548" y1="17.6032" x2="193.338" y2="17.6032" gradientUnits="userSpaceOnUse">
<stop stop-color="#20BEC8"/>
<stop offset="1" stop-color="#87C65A"/>
</linearGradient>
<linearGradient id="paint9_linear_29_2" x1="-1.28548" y1="17.6032" x2="193.338" y2="17.6032" gradientUnits="userSpaceOnUse">
<stop stop-color="#20BEC8"/>
<stop offset="1" stop-color="#87C65A"/>
</linearGradient>
<linearGradient id="paint10_linear_29_2" x1="-1.28548" y1="17.6032" x2="193.338" y2="17.6032" gradientUnits="userSpaceOnUse">
<stop stop-color="#20BEC8"/>
<stop offset="1" stop-color="#87C65A"/>
</linearGradient>
<linearGradient id="paint11_linear_29_2" x1="-1.2855" y1="17.6032" x2="193.338" y2="17.6032" gradientUnits="userSpaceOnUse">
<stop stop-color="#20BEC8"/>
<stop offset="1" stop-color="#87C65A"/>
</linearGradient>
<linearGradient id="paint12_linear_29_2" x1="-1.28554" y1="17.6032" x2="193.338" y2="17.6032" gradientUnits="userSpaceOnUse">
<stop stop-color="#20BEC8"/>
<stop offset="1" stop-color="#87C65A"/>
</linearGradient>
<linearGradient id="paint13_linear_29_2" x1="-1.28548" y1="17.6032" x2="193.338" y2="17.6032" gradientUnits="userSpaceOnUse">
<stop stop-color="#20BEC8"/>
<stop offset="1" stop-color="#87C65A"/>
</linearGradient>
<linearGradient id="paint14_linear_29_2" x1="-1.28549" y1="17.6032" x2="193.338" y2="17.6032" gradientUnits="userSpaceOnUse">
<stop stop-color="#20BEC8"/>
<stop offset="1" stop-color="#87C65A"/>
</linearGradient>
<linearGradient id="paint15_linear_29_2" x1="-1.28549" y1="17.6032" x2="193.338" y2="17.6032" gradientUnits="userSpaceOnUse">
<stop stop-color="#20BEC8"/>
<stop offset="1" stop-color="#87C65A"/>
</linearGradient>
<linearGradient id="paint16_linear_29_2" x1="-1.28565" y1="17.6032" x2="193.338" y2="17.6032" gradientUnits="userSpaceOnUse">
<stop stop-color="#20BEC8"/>
<stop offset="1" stop-color="#87C65A"/>
</linearGradient>
<linearGradient id="paint17_linear_29_2" x1="-1.28549" y1="17.6032" x2="193.338" y2="17.6032" gradientUnits="userSpaceOnUse">
<stop stop-color="#20BEC8"/>
<stop offset="1" stop-color="#87C65A"/>
</linearGradient>
<clipPath id="clip0_29_2">
<rect width="171" height="52" fill="white"/>
</clipPath>
</defs>
</svg>
