<svg width="22" height="22" viewBox="0 0 22 22" fill="none" xmlns="http://www.w3.org/2000/svg">
<path d="M9.625 4.125H12.375C12.375 3.76033 12.2301 3.41059 11.9723 3.15273C11.7144 2.89487 11.3647 2.75 11 2.75C10.6353 2.75 10.2856 2.89487 10.0277 3.15273C9.76987 3.41059 9.625 3.76033 9.625 4.125ZM8.25 4.125C8.25 3.39565 8.53973 2.69618 9.05546 2.18046C9.57118 1.66473 10.2707 1.375 11 1.375C11.7293 1.375 12.4288 1.66473 12.9445 2.18046C13.4603 2.69618 13.75 3.39565 13.75 4.125H19.25C19.4323 4.125 19.6072 4.19743 19.7361 4.32636C19.8651 4.4553 19.9375 4.63016 19.9375 4.8125C19.9375 4.99484 19.8651 5.1697 19.7361 5.29864C19.6072 5.42757 19.4323 5.5 19.25 5.5H18.4745L16.8176 17.6523C16.7053 18.4758 16.2983 19.2307 15.6721 19.7773C15.0459 20.3238 14.2429 20.625 13.4117 20.625H8.58825C7.75709 20.625 6.95408 20.3238 6.32789 19.7773C5.7017 19.2307 5.29475 18.4758 5.18237 17.6523L3.5255 5.5H2.75C2.56766 5.5 2.3928 5.42757 2.26386 5.29864C2.13493 5.1697 2.0625 4.99484 2.0625 4.8125C2.0625 4.63016 2.13493 4.4553 2.26386 4.32636C2.3928 4.19743 2.56766 4.125 2.75 4.125H8.25ZM9.625 8.9375C9.625 8.75516 9.55257 8.5803 9.42364 8.45136C9.2947 8.32243 9.11984 8.25 8.9375 8.25C8.75516 8.25 8.5803 8.32243 8.45136 8.45136C8.32243 8.5803 8.25 8.75516 8.25 8.9375V15.8125C8.25 15.9948 8.32243 16.1697 8.45136 16.2986C8.5803 16.4276 8.75516 16.5 8.9375 16.5C9.11984 16.5 9.2947 16.4276 9.42364 16.2986C9.55257 16.1697 9.625 15.9948 9.625 15.8125V8.9375ZM13.0625 8.25C13.2448 8.25 13.4197 8.32243 13.5486 8.45136C13.6776 8.5803 13.75 8.75516 13.75 8.9375V15.8125C13.75 15.9948 13.6776 16.1697 13.5486 16.2986C13.4197 16.4276 13.2448 16.5 13.0625 16.5C12.8802 16.5 12.7053 16.4276 12.5764 16.2986C12.4474 16.1697 12.375 15.9948 12.375 15.8125V8.9375C12.375 8.75516 12.4474 8.5803 12.5764 8.45136C12.7053 8.32243 12.8802 8.25 13.0625 8.25ZM6.545 17.4666C6.61248 17.9606 6.85664 18.4135 7.23229 18.7414C7.60793 19.0692 8.08964 19.2499 8.58825 19.25H13.4117C13.9106 19.2503 14.3926 19.0697 14.7686 18.7418C15.1445 18.4139 15.3889 17.9609 15.4564 17.4666L17.0871 5.5H4.91287L6.545 17.4666Z" fill="#D94559"/>
</svg>
