<svg width="100" height="96" viewBox="0 0 100 96" fill="none" xmlns="http://www.w3.org/2000/svg">
<g clip-path="url(#clip0_881_72618)">
<path d="M5.98747e-06 63.0873C0.163244 62.4962 0.360996 61.9152 0.592237 61.3472C1.94888 58.4487 4.28907 57.0972 7.45109 57.0972H41.1636V51.4933H40.0496C33.1481 51.4933 26.2475 51.4933 19.3478 51.4933C17.0989 51.4933 15.1109 50.8932 13.5534 49.1922C12.3721 47.9574 11.7123 46.3146 11.7115 44.6057C11.7115 32.0098 11.7115 19.4148 11.7115 6.8207C11.7418 5.07333 12.4303 3.40174 13.6395 2.1399C14.8486 0.878061 16.4893 0.118875 18.2338 0.0140182C19.6295 -0.0512048 20.5818 0.666249 20.647 1.84026C20.7175 2.96471 19.8983 3.76565 18.5312 3.90392C16.8171 4.08655 15.6248 5.31535 15.6248 7.00071C15.6092 16.3424 15.6092 25.6832 15.6248 35.0231C15.6248 35.1458 15.6535 35.2684 15.6875 35.5606C17.0832 34.4361 18.3877 33.39 19.6869 32.336C25.5779 27.5651 31.4671 22.7908 37.3546 18.013C38.6773 16.9407 39.3869 16.9329 40.7044 18.0312C46.3588 22.7273 52.0115 27.4355 57.6624 32.1559C57.9364 32.3829 58.2181 32.6047 58.5468 32.8708L66.1727 27.0999C67.3154 26.2363 68.4503 25.3649 69.593 24.4909C70.8531 23.5413 71.4767 23.5282 72.755 24.4335C75.7501 26.5659 78.7434 28.7 81.735 30.8358C81.9958 31.0185 82.2567 31.1854 82.635 31.4411C82.6611 31.0002 82.6924 30.6923 82.6924 30.3975C82.6924 22.8143 82.6924 15.231 82.6924 7.64773C82.6924 5.0388 81.5706 3.90914 78.9564 3.90653H36.4832C34.8552 3.90653 33.9891 3.22821 33.9812 1.96288C33.9678 1.48659 34.1339 1.02265 34.4466 0.663107C34.7593 0.30356 35.1957 0.0746712 35.6692 0.0218447C35.8956 0.00139278 36.123 -0.00470683 36.3501 0.0035823C50.7044 0.0035823 65.0535 0.0035823 79.3974 0.0035823C82.8959 0.0035823 85.6588 2.16377 86.4075 5.48232C86.55 6.24938 86.6078 7.02979 86.5797 7.80948C86.5901 18.3217 86.5901 28.8339 86.5797 39.3461V40.708C88.406 40.708 90.1305 40.6793 91.8471 40.708C92.8208 40.6896 93.7935 40.7771 94.7483 40.9689C96.233 41.3258 97.5547 42.1714 98.501 43.3699C99.4474 44.5684 99.9633 46.0502 99.9661 47.5773C99.9974 56.5589 99.9974 65.5415 99.9661 74.5248C99.9452 78.3182 96.7597 81.3654 92.9794 81.3811C91.6932 81.3811 90.8218 80.6662 90.7592 79.5548C90.694 78.3547 91.4662 77.5825 92.8255 77.4912C94.9126 77.3477 96.0762 76.1267 96.0788 74.0135C96.0788 65.5206 96.0788 57.0268 96.0788 48.5321C96.0788 45.6936 94.9805 44.6188 92.1054 44.6188H54.6152C52.6298 44.6188 50.6444 44.6057 48.659 44.6188C46.311 44.6396 45.1292 45.858 45.1265 48.2008C45.1265 51.1593 45.1265 54.1179 45.1265 57.1103C45.5805 57.2355 45.9849 57.3294 46.3762 57.4625C47.7578 57.9278 48.9611 58.8103 49.8199 59.9883C50.6788 61.1664 51.151 62.5818 51.1714 64.0396C51.2053 68.1408 51.1714 72.242 51.1714 76.3433V77.4964H74.2943C74.5891 77.4964 74.8813 77.4964 75.1735 77.4964C76.5458 77.5173 77.4146 78.2373 77.4485 79.3801C77.4824 80.5228 76.5771 81.3915 75.1866 81.3941C70.1748 81.4072 65.1631 81.3941 60.1487 81.3941H51.1662C51.1662 83.7891 51.1897 86.0902 51.1662 88.3887C51.1427 90.6871 50.1226 92.5864 48.2625 93.9743C47.1371 94.8295 45.7625 95.2923 44.3491 95.2919C31.8523 95.3023 19.3547 95.3023 6.85626 95.2919C5.41287 95.2742 4.01118 94.8054 2.84762 93.9511C1.68407 93.0968 0.816986 91.8998 0.367873 90.528C0.245254 90.1627 0.10698 89.8027 -0.0078125 89.44L5.98747e-06 63.0873ZM25.5674 91.4098H43.6212C46.0866 91.4098 47.2737 90.2358 47.2737 87.7729C47.2737 80.0975 47.2737 72.4212 47.2737 64.744C47.2737 62.182 46.1466 61.0106 43.6212 61.008C31.5558 60.9976 19.4878 60.9976 7.41717 61.008C5.14219 61.008 3.916 62.2473 3.91339 64.5118C3.91339 72.3177 3.91339 80.1245 3.91339 87.9321C3.91339 90.1862 5.15523 91.4072 7.43282 91.4098H25.5674ZM41.1245 47.5799C41.8028 42.7769 45.1735 40.4888 49.6113 40.6871C53.2168 40.8463 56.8354 40.721 60.4487 40.7158C60.7853 40.7158 61.1192 40.6845 61.7141 40.6532L38.9799 21.7072C31.9358 27.4103 25.0561 33.1265 17.999 38.6235C16.1179 40.0923 15.3639 41.5742 15.5518 43.8987C15.7553 46.4189 16.7467 47.5773 19.3034 47.5773H41.1245V47.5799ZM82.6742 40.6167C82.6742 39.4114 82.7185 38.2165 82.6455 37.0268C82.6054 36.6036 82.4024 36.2126 82.0793 35.9363C80.0444 34.4257 77.9677 32.9725 75.904 31.5011L71.2079 28.1591L61.5993 35.4641C63.6577 37.1781 65.5962 38.8087 67.5581 40.421C67.8132 40.6111 68.1217 40.7161 68.4399 40.721C73.0238 40.7367 77.605 40.721 82.1889 40.721C82.3531 40.6985 82.5153 40.6636 82.6742 40.6167Z" fill="#96FF9A"/>
<path d="M85.2052 59.6914C85.2052 61.5515 85.2052 63.4378 85.2052 65.324C85.2052 67.2103 84.2999 67.9616 82.4137 67.6668C79.7578 67.2311 77.0967 66.8242 74.373 66.3937C73.7703 68.2747 73.1886 70.0957 72.6042 71.9168C72.0824 73.5369 71.618 73.8813 69.9352 73.8865C68.3699 73.8865 66.8045 73.9022 65.2392 73.8865C63.6738 73.8709 63.0346 73.1847 63.0216 71.6715C63.0059 69.754 63.0216 67.8338 63.0216 65.9136C63.0216 65.5954 62.9929 65.2797 62.972 64.8701C61.9415 64.8701 60.9736 64.8701 60.0083 64.8701C57.4333 64.8414 55.6592 63.0751 55.6383 60.508C55.6227 58.7521 55.6044 56.9937 55.6383 55.2379C55.6931 53.0438 57.4646 51.1184 59.6117 51.2176C65.2339 51.4785 70.6527 50.1271 76.1444 49.3548C78.3333 49.047 80.5066 48.64 82.6902 48.3112C84.2086 48.079 85.1452 48.8748 85.1739 50.414C85.2 51.9116 85.1739 53.4091 85.2 54.904C85.2101 55.0455 85.2528 55.1827 85.3247 55.3049C85.3967 55.4271 85.496 55.531 85.6148 55.6084C87.0758 56.1302 87.5455 56.6102 87.4907 57.6955C87.4359 58.7808 86.8802 59.2452 85.3853 59.587C85.38 59.5531 85.3566 59.5792 85.2052 59.6914ZM81.2318 63.5056V52.4855L66.948 54.7605C66.948 56.8085 66.9324 58.8148 66.9767 60.821C66.9767 60.9984 67.368 61.275 67.6133 61.3193C69.4395 61.6454 71.2658 61.9298 73.092 62.2194C75.7792 62.6473 78.4664 63.0699 81.2318 63.5056ZM62.9694 60.8758V55.0631H61.8267C59.5622 55.0631 59.5621 55.0631 59.5621 57.2755V57.959C59.5543 61.2202 59.5543 61.2202 62.9616 60.8836L62.9694 60.8758ZM67.0106 65.2066V69.9679C67.5455 69.9679 68.0255 70.0018 68.4977 69.9549C68.7586 69.9288 69.1395 69.814 69.2021 69.6418C69.6561 68.3869 70.0422 67.1059 70.4779 65.7571L67.0106 65.2066Z" fill="#96FF9A"/>
<path d="M58.4107 21.5089C57.5316 21.5075 56.6615 21.3326 55.8501 20.9943C55.0388 20.6559 54.3023 20.1607 53.6827 19.537C53.0632 18.9134 52.5729 18.1736 52.2399 17.36C51.9069 16.5465 51.7378 15.6752 51.7423 14.7961C51.745 13.9166 51.9213 13.0463 52.261 12.235C52.6008 11.4237 53.0973 10.6875 53.7221 10.0685C54.3469 9.44947 55.0878 8.95986 55.9022 8.62772C56.7166 8.29558 57.5886 8.12745 58.4681 8.13294C60.2436 8.13985 61.9439 8.85074 63.196 10.1097C64.4481 11.3686 65.1497 13.0728 65.1469 14.8483C65.1366 16.6247 64.4211 18.3243 63.1579 19.5734C61.8947 20.8224 60.1871 21.5186 58.4107 21.5089ZM58.3872 17.5955C58.7527 17.6045 59.1164 17.5412 59.4573 17.4091C59.7983 17.277 60.1097 17.0788 60.3738 16.8259C60.6378 16.573 60.8492 16.2704 60.9959 15.9355C61.1426 15.6006 61.2215 15.24 61.2283 14.8744C61.2359 14.5087 61.171 14.1451 61.0372 13.8047C60.9035 13.4643 60.7036 13.1537 60.4491 12.891C60.1946 12.6282 59.8906 12.4186 59.5546 12.274C59.2186 12.1295 58.8573 12.053 58.4916 12.0489C58.126 12.0403 57.7623 12.1041 57.4214 12.2367C57.0806 12.3693 56.7694 12.568 56.5058 12.8215C56.2422 13.0749 56.0313 13.378 55.8854 13.7134C55.7395 14.0487 55.6614 14.4096 55.6557 14.7753C55.6498 15.1404 55.7159 15.503 55.8503 15.8426C55.9847 16.1821 56.1847 16.4918 56.4389 16.754C56.6931 17.0161 56.9965 17.2256 57.3316 17.3705C57.6668 17.5153 58.0273 17.5927 58.3924 17.5981L58.3872 17.5955Z" fill="#96FF9A"/>
<path d="M25.5535 1.9696C25.5465 1.71714 25.59 1.46582 25.6813 1.23036C25.7727 0.994907 25.9101 0.780034 26.0855 0.598318C26.2609 0.416601 26.4708 0.271692 26.7029 0.17207C26.9349 0.0724469 27.1846 0.0201113 27.4371 0.0181253C27.9468 0.00604475 28.4408 0.194417 28.813 0.542749C29.1853 0.891081 29.406 1.37156 29.4277 1.8809C29.4318 2.14129 29.3847 2.39994 29.2888 2.64209C29.193 2.88424 29.0504 3.10514 28.8692 3.29217C28.688 3.47921 28.4717 3.62871 28.2327 3.73214C27.9937 3.83557 27.7366 3.89091 27.4762 3.89498C26.9667 3.89224 26.4788 3.68842 26.1187 3.32786C25.7587 2.9673 25.5555 2.47916 25.5535 1.9696Z" fill="#96FF9A"/>
<path d="M84.0639 77.5161C84.3156 77.5132 84.5653 77.5611 84.7982 77.6569C85.031 77.7527 85.2421 77.8945 85.4189 78.0737C85.5957 78.253 85.7346 78.466 85.8272 78.7001C85.9198 78.9342 85.9643 79.1846 85.9579 79.4363C85.9635 79.6885 85.9183 79.9394 85.825 80.1738C85.7317 80.4083 85.5921 80.6215 85.4147 80.801C85.2372 80.9804 85.0255 81.1222 84.7921 81.2181C84.5587 81.314 84.3083 81.3619 84.056 81.359C83.7956 81.3629 83.5371 81.3144 83.2958 81.2163C83.0546 81.1182 82.8355 80.9725 82.6517 80.788C82.4679 80.6035 82.3232 80.3839 82.226 80.1422C82.1289 79.9006 82.0814 79.6419 82.0863 79.3815C82.1047 78.8731 82.3225 78.3923 82.6925 78.0433C83.0626 77.6942 83.5552 77.5048 84.0639 77.5161Z" fill="#96FF9A"/>
<path d="M18.6096 76.0833C18.6096 73.9701 18.5966 71.8595 18.6096 69.7462C18.6227 67.633 20.0497 66.8295 21.8942 67.813C25.5607 69.768 29.2227 71.7299 32.8804 73.6987C34.9676 74.818 35.0093 76.4642 33.0135 77.6852C29.361 79.9184 25.685 82.1334 22.0299 84.3745C21.2707 84.8388 20.5219 85.1337 19.661 84.6614C18.8001 84.1892 18.5939 83.357 18.6018 82.4204C18.62 80.3098 18.6096 78.1965 18.6096 76.0833ZM28.5574 75.8224L22.5882 72.6239V79.4592L28.5574 75.8224Z" fill="#96FF9A"/>
</g>
<defs>
<clipPath id="clip0_881_72618">
<rect width="100" height="95.317" fill="white"/>
</clipPath>
</defs>
</svg>
