<svg width="16" height="16" viewBox="0 0 16 16" fill="none" xmlns="http://www.w3.org/2000/svg">
<path fill-rule="evenodd" clip-rule="evenodd" d="M11.0947 6.16203L11.0801 6.63986C11.0692 6.73984 10.9699 6.79027 10.8857 6.74628L9.58648 5.61126L9.09775 7.24393C9.05757 7.34706 9.0138 7.36963 8.90945 7.31598L7.60971 6.18067L7.12099 7.81335C7.08061 7.91652 7.03684 7.93909 6.93269 7.88539L5.63295 6.75009L5.14422 8.38276C5.10385 8.48594 5.06008 8.50851 4.95573 8.45486L4.65041 8.18805C4.66275 8.70052 4.74227 9.23199 4.89582 9.76502C5.62909 12.3106 7.77455 13.9309 9.68377 13.3809C11.593 12.831 12.5478 10.3177 11.8145 7.77208C11.644 7.18014 11.3971 6.63817 11.0947 6.16203ZM8.81296 3.03804C7.30358 2.38166 5.70922 2.52919 4.74188 3.56586C3.72421 4.65624 3.68531 6.42529 4.49838 8.02205L4.88504 8.09737L4.51174 6.41547C4.50652 6.3782 4.51306 6.34346 4.53049 6.31174C4.55896 6.27578 4.59605 6.25768 4.63808 6.25532L6.30158 6.5791L5.92852 4.89734C5.91289 4.78635 5.9395 4.74393 6.05486 4.73719L7.71836 5.06097L7.3453 3.37921C7.32967 3.26822 7.35628 3.2258 7.47164 3.21906L9.06585 3.52932L8.81296 3.03804Z" fill="#E84127"/>
</svg>
