<svg width="14" height="13" viewBox="0 0 14 13" fill="none" xmlns="http://www.w3.org/2000/svg">
<path d="M6.77811 12.0692L6.77402 12.067L6.75987 12.0593C6.74781 12.0528 6.73057 12.0433 6.70848 12.031C6.66432 12.0063 6.60077 11.9703 6.5206 11.9231C6.36031 11.8288 6.13323 11.6899 5.86159 11.5094C5.31921 11.1488 4.59451 10.6188 3.86787 9.94145C2.42988 8.60097 0.90625 6.60944 0.90625 4.15625C0.90625 2.32622 2.446 0.875 4.30469 0.875C5.39774 0.875 6.37645 1.37443 7 2.15725C7.62355 1.37443 8.60226 0.875 9.69531 0.875C11.554 0.875 13.0938 2.32622 13.0938 4.15625C13.0938 6.60944 11.5701 8.60097 10.1321 9.94145C9.40549 10.6188 8.68079 11.1488 8.13841 11.5094C7.86677 11.6899 7.63969 11.8288 7.4794 11.9231C7.39923 11.9703 7.33568 12.0063 7.29152 12.031C7.26943 12.0433 7.25219 12.0528 7.24013 12.0593L7.22598 12.067L7.22189 12.0692L7.22017 12.0701C7.08269 12.1431 6.91731 12.1431 6.77983 12.0701L6.77811 12.0692Z" stroke="#040406" stroke-linejoin="round"/>
</svg>
