<svg width="696" height="458" viewBox="0 0 696 458" fill="none" xmlns="http://www.w3.org/2000/svg">
<path d="M221.034 71.2256C220.972 71.2256 220.911 71.2039 220.862 71.1641C220.814 71.1243 220.78 71.0689 220.768 71.0074C220.756 70.9458 220.765 70.8819 220.794 70.8265C220.824 70.7711 220.872 70.7276 220.93 70.7034C220.93 70.7034 221.639 70.4079 222.948 69.8903C223.014 69.8664 223.087 69.8693 223.151 69.8984C223.216 69.9275 223.266 69.9804 223.292 70.046C223.318 70.1116 223.317 70.1848 223.29 70.2499C223.263 70.3151 223.212 70.3672 223.147 70.3951C222.475 70.6594 221.806 70.9291 221.138 71.2041C221.106 71.2184 221.07 71.2257 221.034 71.2256ZM317.51 73.158H317.507C316.89 73.158 316.29 73.0993 315.724 72.983C315.654 72.9684 315.592 72.9266 315.552 72.8665C315.513 72.8064 315.498 72.733 315.513 72.6624C315.528 72.592 315.57 72.5304 315.63 72.4909C315.69 72.4513 315.763 72.437 315.834 72.4511C316.385 72.562 316.945 72.6169 317.507 72.6149H317.51C318.318 72.6149 319.161 72.5098 320.016 72.3021C320.086 72.2851 320.16 72.2966 320.222 72.334C320.283 72.3715 320.327 72.4319 320.344 72.5019C320.361 72.5719 320.35 72.6457 320.312 72.7072C320.275 72.7687 320.214 72.8128 320.144 72.8298C319.247 73.0473 318.36 73.158 317.51 73.158ZM435.724 72.8962H435.722C434.272 72.8808 432.823 72.8366 431.375 72.7635C431.339 72.7616 431.304 72.7528 431.272 72.7375C431.24 72.7221 431.211 72.7006 431.187 72.6741C431.163 72.6476 431.145 72.6167 431.133 72.583C431.121 72.5494 431.116 72.5138 431.118 72.4781C431.118 72.4422 431.126 72.4068 431.141 72.3741C431.156 72.3414 431.178 72.3121 431.204 72.288C431.231 72.2638 431.262 72.2454 431.296 72.2338C431.33 72.2222 431.366 72.2176 431.402 72.2204C432.85 72.2939 434.306 72.3378 435.727 72.3526C435.797 72.3559 435.863 72.3862 435.911 72.4371C435.959 72.4879 435.986 72.5555 435.986 72.6256C435.985 72.6957 435.958 72.763 435.909 72.8134C435.861 72.8638 435.794 72.8935 435.724 72.8962ZM440.061 72.8492C440.025 72.8498 439.99 72.8434 439.957 72.8303C439.924 72.8172 439.893 72.7977 439.868 72.7729C439.842 72.7481 439.822 72.7186 439.807 72.6858C439.793 72.6531 439.786 72.6179 439.785 72.5823C439.784 72.5466 439.791 72.5112 439.804 72.478C439.817 72.4448 439.836 72.4146 439.861 72.3889C439.886 72.3633 439.916 72.3428 439.948 72.3286C439.981 72.3144 440.016 72.3067 440.052 72.3061C441.502 72.2592 442.955 72.1801 444.37 72.0698C444.406 72.0668 444.442 72.0709 444.476 72.0819C444.51 72.0929 444.541 72.1105 444.568 72.1338C444.596 72.1571 444.618 72.1855 444.634 72.2175C444.65 72.2494 444.66 72.2842 444.662 72.3199C444.665 72.3555 444.661 72.3913 444.65 72.4252C444.639 72.4592 444.621 72.4906 444.598 72.5177C444.575 72.5449 444.546 72.5672 444.515 72.5833C444.483 72.5995 444.448 72.6092 444.412 72.6119C442.989 72.7226 441.528 72.8023 440.07 72.8492H440.061ZM427.062 72.4618C427.053 72.4618 427.046 72.4618 427.038 72.4608C425.594 72.3324 424.153 72.1777 422.715 71.9968C422.644 71.9878 422.579 71.9507 422.535 71.8937C422.49 71.8368 422.471 71.7646 422.48 71.6931C422.489 71.6217 422.526 71.5567 422.583 71.5126C422.64 71.4685 422.712 71.4488 422.783 71.4578C424.215 71.638 425.662 71.7932 427.085 71.9198C427.155 71.9258 427.22 71.9586 427.266 72.0111C427.312 72.0637 427.336 72.1321 427.333 72.202C427.33 72.2719 427.3 72.338 427.25 72.3864C427.199 72.4348 427.132 72.4618 427.062 72.4618ZM448.705 72.1714C448.636 72.1715 448.57 72.1452 448.519 72.0979C448.469 72.0506 448.438 71.9858 448.434 71.9167C448.43 71.8477 448.452 71.7796 448.496 71.7264C448.54 71.6732 448.603 71.6388 448.672 71.6304C450.12 71.4461 451.557 71.2241 452.944 70.9709C453.013 70.962 453.082 70.98 453.139 71.0211C453.195 71.0621 453.233 71.1232 453.246 71.1917C453.258 71.2601 453.244 71.3308 453.206 71.3892C453.168 71.4475 453.109 71.4891 453.042 71.5053C451.645 71.7605 450.198 71.9841 448.741 72.1693C448.729 72.1707 448.717 72.1714 448.705 72.1714ZM418.456 71.3818C418.441 71.3819 418.427 71.3807 418.412 71.3782C416.982 71.1465 415.556 70.8908 414.134 70.611C414.064 70.5971 414.002 70.5557 413.962 70.4958C413.921 70.436 413.907 70.3627 413.921 70.292C413.935 70.2214 413.976 70.1591 414.036 70.119C414.096 70.0789 414.169 70.0642 414.24 70.0782C415.655 70.3569 417.088 70.6141 418.499 70.8423C418.568 70.8516 418.63 70.8869 418.674 70.9409C418.717 70.9949 418.738 71.0635 418.733 71.1326C418.727 71.2017 418.696 71.266 418.644 71.3123C418.592 71.3587 418.525 71.3835 418.456 71.3818ZM324.054 71.1414C323.995 71.1409 323.939 71.1215 323.892 71.0861C323.845 71.0508 323.811 71.0013 323.795 70.945C323.778 70.8888 323.781 70.8287 323.801 70.7738C323.821 70.7189 323.859 70.672 323.908 70.6401C325.17 69.8413 326.244 68.8573 327.01 67.7946C327.054 67.7405 327.117 67.7053 327.186 67.6961C327.255 67.6869 327.325 67.7044 327.381 67.7451C327.437 67.7859 327.476 67.8466 327.489 67.915C327.502 67.9833 327.488 68.054 327.451 68.1126C326.644 69.2314 325.519 70.2645 324.199 71.0995C324.156 71.1269 324.105 71.1414 324.054 71.1414ZM312.097 70.8591C312.057 70.8592 312.018 70.8506 311.983 70.8339C311.947 70.8173 311.915 70.7929 311.89 70.7626C311.298 70.0634 310.832 69.2151 310.503 68.2417C310.335 67.7459 310.19 67.2424 310.07 66.7329C310.062 66.6982 310.06 66.6622 310.066 66.6271C310.072 66.5919 310.084 66.5582 310.103 66.5279C310.122 66.4976 310.146 66.4713 310.175 66.4504C310.204 66.4296 310.237 66.4147 310.271 66.4065C310.306 66.3983 310.342 66.397 310.377 66.4028C310.412 66.4085 310.446 66.4211 310.476 66.4398C310.507 66.4586 310.533 66.4831 310.554 66.512C310.575 66.5409 310.59 66.5737 310.598 66.6084C310.711 67.0851 310.852 67.5766 311.017 68.0681C311.324 68.9767 311.757 69.7653 312.305 70.412C312.338 70.4515 312.36 70.4999 312.367 70.5513C312.374 70.6026 312.366 70.655 312.344 70.702C312.322 70.749 312.287 70.7888 312.243 70.8166C312.2 70.8445 312.149 70.8592 312.097 70.8591ZM457.234 70.6049C457.168 70.6046 457.105 70.5802 457.055 70.5362C457.006 70.4922 456.974 70.4317 456.966 70.366C456.958 70.3004 456.975 70.2341 457.012 70.1796C457.049 70.1251 457.105 70.0861 457.17 70.07C458.568 69.7271 459.954 69.3366 461.326 68.8991C461.394 68.8772 461.469 68.8834 461.533 68.9164C461.597 68.9495 461.645 69.0066 461.667 69.0752C461.689 69.1438 461.683 69.2184 461.65 69.2824C461.617 69.3464 461.56 69.3947 461.491 69.4167C460.108 69.8584 458.709 70.2523 457.299 70.5978C457.278 70.6024 457.256 70.6048 457.234 70.6049ZM409.946 69.7081C409.925 69.7083 409.905 69.7059 409.884 69.701C408.473 69.3739 407.067 69.0246 405.667 68.6531C405.632 68.6439 405.6 68.6281 405.571 68.6064C405.543 68.5848 405.519 68.5578 405.501 68.5269C405.483 68.496 405.472 68.462 405.467 68.4266C405.462 68.3912 405.465 68.3553 405.474 68.3208C405.483 68.2863 405.499 68.254 405.52 68.2256C405.542 68.1973 405.569 68.1734 405.6 68.1555C405.631 68.1376 405.665 68.1259 405.7 68.1212C405.736 68.1165 405.771 68.1187 405.806 68.1279C407.198 68.4974 408.611 68.8486 410.007 69.1717C410.072 69.1864 410.13 69.2247 410.169 69.2792C410.207 69.3337 410.225 69.4006 410.217 69.4671C410.209 69.5336 410.178 69.595 410.128 69.6395C410.078 69.6839 410.013 69.7084 409.946 69.7081ZM227.094 68.8547C227.03 68.8545 226.969 68.832 226.92 68.7912C226.871 68.7505 226.838 68.6939 226.827 68.6315C226.816 68.569 226.827 68.5045 226.858 68.4491C226.889 68.3938 226.938 68.3511 226.998 68.3285C228.354 67.8178 229.713 67.3161 231.075 66.8232C231.142 66.8031 231.214 66.8093 231.276 66.8406C231.338 66.8718 231.386 66.9257 231.41 66.9912C231.433 67.0566 231.431 67.1287 231.403 67.1925C231.375 67.2563 231.324 67.307 231.26 67.3342C229.9 67.8263 228.543 68.3272 227.19 68.8368C227.159 68.8487 227.127 68.8547 227.094 68.8547ZM465.483 67.9431C465.42 67.9426 465.36 67.9205 465.312 67.8806C465.263 67.8407 465.23 67.7854 465.218 67.724C465.206 67.6626 465.215 67.5988 465.245 67.5436C465.274 67.4883 465.322 67.4448 465.379 67.4204C466.708 66.8745 468.009 66.2627 469.278 65.5875C469.309 65.5707 469.344 65.5602 469.379 65.5566C469.414 65.5531 469.45 65.5566 469.484 65.5669C469.519 65.5772 469.55 65.5941 469.578 65.6167C469.606 65.6393 469.628 65.6671 469.645 65.6985C469.662 65.73 469.673 65.7644 469.676 65.7999C469.68 65.8354 469.676 65.8713 469.666 65.9054C469.656 65.9396 469.639 65.9713 469.616 65.999C469.594 66.0266 469.566 66.0494 469.534 66.0663C468.25 66.7503 466.932 67.3698 465.586 67.9227C465.553 67.9363 465.518 67.9433 465.483 67.9431ZM401.562 67.4837C401.536 67.4837 401.509 67.4799 401.484 67.4725C400.106 67.0596 398.713 66.6186 397.341 66.1622C397.276 66.1369 397.223 66.0876 397.193 66.0243C397.163 65.9611 397.159 65.8888 397.181 65.8226C397.203 65.7563 397.25 65.7011 397.312 65.6683C397.373 65.6356 397.445 65.6279 397.513 65.6467C398.88 66.102 400.268 66.541 401.64 66.9524C401.703 66.9706 401.757 67.011 401.793 67.0661C401.828 67.1212 401.842 67.1873 401.833 67.2521C401.823 67.3169 401.791 67.3761 401.741 67.4187C401.691 67.4613 401.628 67.4844 401.562 67.4837ZM235.26 65.8994C235.196 65.8995 235.133 65.8768 235.084 65.8353C235.035 65.7938 235.002 65.7363 234.992 65.6729C234.981 65.6095 234.993 65.5444 235.026 65.4891C235.059 65.4339 235.11 65.392 235.171 65.3711C236.539 64.8954 237.91 64.4284 239.284 63.97C239.351 63.9524 239.422 63.9608 239.482 63.9937C239.543 64.0265 239.589 64.0813 239.611 64.1469C239.633 64.2124 239.629 64.2839 239.6 64.3467C239.571 64.4095 239.52 64.459 239.456 64.485C238.084 64.9432 236.715 65.4095 235.349 65.8841C235.32 65.8941 235.29 65.8993 235.26 65.8994ZM393.333 64.7433C393.301 64.7435 393.269 64.7377 393.239 64.7264C391.879 64.2278 390.526 63.7093 389.182 63.1712C389.148 63.158 389.118 63.1383 389.093 63.1134C389.067 63.0885 389.047 63.0588 389.033 63.026C389.019 62.9932 389.011 62.958 389.011 62.9223C389.01 62.8866 389.017 62.8511 389.03 62.818C389.043 62.7849 389.063 62.7546 389.088 62.7291C389.113 62.7035 389.142 62.6831 389.175 62.6691C389.208 62.655 389.243 62.6475 389.279 62.647C389.315 62.6466 389.35 62.6532 389.383 62.6664C390.723 63.2025 392.071 63.7193 393.426 64.2165C393.487 64.2378 393.538 64.28 393.57 64.3355C393.603 64.391 393.614 64.4563 393.603 64.5196C393.592 64.5829 393.558 64.6402 393.509 64.6812C393.459 64.7221 393.397 64.7442 393.333 64.7433ZM328.639 64.2007C328.567 64.2007 328.498 64.1722 328.447 64.1215C328.396 64.0708 328.368 64.002 328.367 63.9302C328.361 62.6087 327.872 61.3271 326.916 60.1199C326.871 60.0636 326.851 59.9917 326.859 59.9202C326.867 59.8487 326.904 59.7834 326.96 59.7387C327.016 59.6939 327.088 59.6734 327.16 59.6816C327.231 59.6899 327.296 59.7262 327.341 59.7826C328.375 61.0872 328.903 62.4816 328.91 63.9276C328.91 63.9997 328.882 64.0689 328.831 64.1201C328.781 64.1713 328.712 64.2003 328.64 64.2007H328.639ZM473.096 63.8245C473.039 63.8242 472.983 63.8058 472.937 63.7717C472.891 63.7377 472.856 63.6899 472.839 63.6351C472.821 63.5804 472.822 63.5215 472.84 63.467C472.858 63.4124 472.893 63.365 472.939 63.3315C474.165 62.4576 475.267 61.5282 476.214 60.5681C476.265 60.523 476.332 60.4991 476.401 60.5013C476.47 60.5034 476.535 60.5314 476.584 60.5797C476.633 60.6279 476.662 60.6929 476.665 60.7615C476.668 60.8302 476.645 60.8975 476.6 60.9499C475.632 61.9324 474.506 62.8823 473.255 63.7745C473.208 63.807 473.153 63.8245 473.096 63.8245ZM243.496 63.1498C243.431 63.1499 243.369 63.1268 243.319 63.0846C243.27 63.0425 243.237 62.9841 243.227 62.9201C243.217 62.856 243.231 62.7905 243.265 62.7353C243.299 62.6802 243.352 62.6391 243.413 62.6194C244.793 62.1778 246.175 61.7453 247.56 61.322C247.628 61.306 247.698 61.3162 247.758 61.3506C247.818 61.3849 247.863 61.4408 247.883 61.5069C247.903 61.5729 247.898 61.6443 247.867 61.7063C247.837 61.7684 247.784 61.8166 247.72 61.8411C246.337 62.264 244.957 62.6958 243.579 63.1365C243.552 63.1453 243.524 63.1498 243.496 63.1498ZM310.031 62.6378C309.993 62.6378 309.955 62.6297 309.92 62.614C309.886 62.5984 309.854 62.5756 309.829 62.5471C309.803 62.5186 309.784 62.485 309.772 62.4486C309.761 62.4122 309.757 62.3737 309.761 62.3357C309.924 60.857 310.4 59.4299 311.156 58.1487C311.174 58.1179 311.197 58.0909 311.226 58.0693C311.254 58.0478 311.287 58.0321 311.322 58.0232C311.356 58.0143 311.392 58.0123 311.427 58.0174C311.463 58.0224 311.497 58.0345 311.528 58.0528C311.558 58.0708 311.585 58.0948 311.607 58.1233C311.628 58.1518 311.644 58.1843 311.653 58.2189C311.662 58.2534 311.664 58.2894 311.659 58.3248C311.654 58.3601 311.642 58.3941 311.623 58.4248C310.907 59.6403 310.456 60.9942 310.301 62.3969C310.294 62.4631 310.262 62.5242 310.212 62.5686C310.162 62.613 310.098 62.6377 310.031 62.6378ZM385.267 61.5471C385.232 61.5469 385.198 61.5401 385.165 61.5272C383.827 60.9859 382.483 60.4579 381.134 59.9433C381.067 59.9178 381.012 59.8665 380.983 59.8007C380.953 59.735 380.951 59.6603 380.977 59.5929C381.002 59.5256 381.054 59.4712 381.119 59.4416C381.185 59.4121 381.26 59.4099 381.327 59.4355C382.657 59.9428 384.017 60.4772 385.369 61.0239C385.427 61.048 385.474 61.0913 385.504 61.1465C385.534 61.2017 385.543 61.2654 385.531 61.3269C385.519 61.3884 385.487 61.4439 385.438 61.484C385.39 61.5241 385.33 61.5464 385.267 61.5471ZM251.799 60.612C251.733 60.6124 251.67 60.589 251.62 60.5461C251.57 60.5032 251.538 60.4436 251.529 60.3786C251.519 60.3135 251.534 60.2473 251.57 60.1922C251.606 60.1371 251.66 60.097 251.724 60.0791C253.114 59.6742 254.508 59.2795 255.904 58.8949C255.974 58.8758 256.048 58.885 256.11 58.9206C256.173 58.9561 256.219 59.0151 256.238 59.0846C256.257 59.154 256.248 59.2282 256.213 59.2909C256.177 59.3535 256.118 59.3995 256.049 59.4186C254.655 59.803 253.264 60.197 251.875 60.6007C251.85 60.6082 251.825 60.612 251.799 60.612ZM377.162 58.458C377.131 58.458 377.1 58.4526 377.071 58.4422C375.699 57.9522 374.321 57.4775 372.976 57.0304C372.942 57.0192 372.911 57.0014 372.884 56.978C372.857 56.9547 372.835 56.9263 372.819 56.8944C372.803 56.8626 372.793 56.8278 372.791 56.7923C372.788 56.7567 372.793 56.721 372.804 56.6871C372.815 56.6533 372.833 56.622 372.856 56.595C372.879 56.568 372.908 56.5459 372.94 56.5299C372.972 56.5139 373.006 56.5044 373.042 56.5018C373.077 56.4992 373.113 56.5036 373.147 56.5149C374.496 56.963 375.877 57.4392 377.254 57.9308C377.314 57.9523 377.365 57.9944 377.397 58.0497C377.429 58.1049 377.441 58.1698 377.43 58.2328C377.419 58.2959 377.386 58.353 377.337 58.3942C377.288 58.4354 377.226 58.458 377.162 58.458ZM260.169 58.308C260.103 58.3074 260.04 58.283 259.991 58.2393C259.941 58.1956 259.91 58.1355 259.901 58.0702C259.893 58.0048 259.909 57.9387 259.945 57.8841C259.982 57.8295 260.037 57.79 260.101 57.773C261.503 57.4095 262.908 57.0576 264.316 56.7175C264.386 56.7029 264.458 56.7159 264.517 56.7537C264.577 56.7914 264.62 56.8509 264.636 56.9196C264.653 56.9883 264.642 57.0608 264.606 57.1216C264.57 57.1824 264.512 57.2268 264.443 57.2453C263.028 57.5873 261.625 57.9394 260.237 58.2988C260.215 58.305 260.192 58.3081 260.169 58.308ZM323.852 57.4142C323.801 57.4142 323.751 57.3999 323.708 57.3729C323.045 56.961 322.36 56.5848 321.657 56.2459C321.073 55.9623 320.479 55.6976 319.877 55.4522C319.813 55.4236 319.762 55.371 319.736 55.3055C319.709 55.2401 319.709 55.1669 319.736 55.1016C319.763 55.0362 319.814 54.9838 319.878 54.9554C319.943 54.927 320.016 54.9248 320.082 54.9494C320.695 55.1994 321.3 55.4688 321.895 55.7574C322.615 56.1051 323.316 56.4906 323.996 56.9125C324.046 56.9437 324.084 56.9904 324.105 57.0455C324.126 57.1005 324.129 57.1609 324.113 57.2176C324.097 57.2742 324.062 57.324 324.015 57.3595C323.968 57.395 323.911 57.4142 323.852 57.4142ZM268.608 56.2719C268.541 56.2724 268.476 56.2479 268.425 56.2033C268.375 56.1586 268.343 56.0969 268.336 56.0301C268.329 55.9633 268.346 55.8962 268.386 55.8417C268.425 55.7872 268.483 55.7491 268.549 55.7349C269.984 55.4154 271.414 55.1122 272.797 54.8325C272.866 54.8231 272.936 54.8402 272.992 54.8803C273.048 54.9204 273.087 54.9805 273.101 55.0484C273.115 55.1162 273.102 55.1867 273.066 55.2455C273.029 55.3044 272.971 55.347 272.905 55.3649C271.489 55.6511 270.076 55.9512 268.666 56.2653C268.647 56.2698 268.627 56.272 268.608 56.2719ZM368.929 55.7263C368.902 55.7263 368.875 55.7224 368.85 55.7145C367.469 55.2925 366.083 54.8883 364.692 54.5018C364.623 54.4825 364.564 54.4364 364.529 54.3737C364.493 54.3109 364.484 54.2366 364.503 54.1672C364.523 54.0978 364.569 54.0388 364.631 54.0034C364.694 53.9679 364.768 53.9588 364.838 53.9781C366.206 54.3578 367.609 54.7672 369.009 55.1949C369.071 55.2139 369.125 55.2546 369.159 55.3097C369.194 55.3648 369.208 55.4305 369.198 55.495C369.189 55.5594 369.156 55.6182 369.107 55.6607C369.057 55.7031 368.994 55.7264 368.929 55.7263ZM314.232 55.3179C314.176 55.3186 314.12 55.3016 314.074 55.2694C314.028 55.2371 313.993 55.1912 313.974 55.1381C313.955 55.0849 313.953 55.0272 313.969 54.9729C313.984 54.9187 314.016 54.8707 314.06 54.8356C314.452 54.518 314.859 54.2193 315.279 53.9403C314.061 53.6263 312.831 53.3622 311.592 53.1487C311.557 53.1426 311.523 53.1296 311.493 53.1105C311.463 53.0914 311.437 53.0666 311.417 53.0374C311.396 53.0083 311.382 52.9754 311.374 52.9406C311.366 52.9058 311.365 52.8699 311.371 52.8348C311.377 52.7995 311.39 52.7657 311.409 52.7354C311.428 52.7052 311.453 52.679 311.482 52.6584C311.511 52.6378 311.544 52.6233 311.579 52.6156C311.614 52.6079 311.65 52.6073 311.685 52.6138C313.152 52.869 314.571 53.1818 315.902 53.5442C316.515 53.1727 317.147 52.834 317.796 52.5295C317.828 52.5128 317.863 52.5028 317.9 52.5001C317.936 52.4974 317.973 52.5021 318.007 52.5138C318.042 52.5255 318.074 52.5441 318.101 52.5684C318.128 52.5927 318.15 52.6222 318.166 52.6552C318.181 52.6882 318.19 52.724 318.191 52.7605C318.193 52.7969 318.187 52.8333 318.174 52.8674C318.161 52.9015 318.141 52.9326 318.116 52.9589C318.091 52.9852 318.06 53.0062 318.027 53.0206C316.649 53.6703 315.43 54.4232 314.403 55.2577C314.354 55.2967 314.294 55.318 314.232 55.3179ZM277.116 54.5559C277.048 54.556 276.983 54.5307 276.933 54.4848C276.882 54.4389 276.851 54.3759 276.845 54.3082C276.839 54.2404 276.859 54.1729 276.9 54.119C276.942 54.0651 277.002 54.0286 277.069 54.0169C278.521 53.7566 279.965 53.5151 281.359 53.2998C281.394 53.2943 281.43 53.2959 281.465 53.3044C281.499 53.3128 281.532 53.3281 281.561 53.3492C281.589 53.3702 281.614 53.3968 281.632 53.4273C281.651 53.4578 281.663 53.4916 281.668 53.5269C281.674 53.5621 281.672 53.5981 281.664 53.6328C281.655 53.6674 281.64 53.7001 281.619 53.7288C281.598 53.7576 281.571 53.7819 281.541 53.8004C281.51 53.819 281.477 53.8313 281.441 53.8367C280.052 54.0511 278.612 54.2915 277.164 54.5518C277.148 54.5544 277.132 54.5558 277.116 54.5559ZM360.571 53.409C360.549 53.409 360.527 53.4063 360.506 53.4008C359.105 53.0532 357.699 52.727 356.288 52.4223C356.253 52.4148 356.22 52.4005 356.191 52.3802C356.162 52.3599 356.137 52.334 356.117 52.304C356.098 52.2739 356.085 52.2404 356.079 52.2053C356.072 52.1701 356.073 52.1341 356.081 52.0993C356.088 52.0642 356.102 52.0309 356.122 52.0014C356.142 51.9719 356.168 51.9466 356.198 51.9272C356.228 51.9078 356.262 51.8946 356.297 51.8884C356.332 51.8822 356.368 51.8831 356.403 51.891C357.793 52.1911 359.218 52.5214 360.636 52.8736C360.701 52.8892 360.758 52.9281 360.796 52.9828C360.833 53.0376 360.85 53.1043 360.842 53.1703C360.834 53.2364 360.802 53.2972 360.752 53.3412C360.702 53.3852 360.638 53.4093 360.571 53.409ZM285.697 53.2349C285.628 53.2362 285.56 53.2103 285.508 53.1628C285.457 53.1154 285.426 53.0499 285.422 52.98C285.417 52.9102 285.44 52.8414 285.485 52.788C285.531 52.7346 285.595 52.7007 285.664 52.6934C287.13 52.5081 288.584 52.3468 289.986 52.2136C290.058 52.2084 290.128 52.2309 290.183 52.2764C290.238 52.322 290.274 52.387 290.282 52.4581C290.286 52.4936 290.282 52.5295 290.271 52.5636C290.261 52.5977 290.244 52.6294 290.221 52.6569C290.198 52.6844 290.17 52.7071 290.139 52.7238C290.107 52.7405 290.073 52.7508 290.037 52.7541C288.642 52.8868 287.193 53.0476 285.732 53.2324C285.721 53.2342 285.709 53.2351 285.697 53.2349ZM307.34 52.578C305.897 52.4407 304.451 52.3472 303.002 52.2978C302.93 52.2953 302.862 52.2643 302.813 52.2117C302.764 52.159 302.737 52.0891 302.74 52.0171C302.745 51.867 302.878 51.7409 303.021 51.7552C304.513 51.8073 305.975 51.9017 307.366 52.036C307.436 52.042 307.501 52.0749 307.547 52.1277C307.593 52.1805 307.617 52.2492 307.614 52.3193C307.61 52.3893 307.58 52.4554 307.529 52.5037C307.478 52.5519 307.41 52.5786 307.34 52.578ZM294.338 52.4234C294.266 52.4254 294.196 52.3987 294.144 52.3492C294.118 52.3247 294.097 52.2954 294.082 52.2628C294.068 52.2303 294.06 52.1951 294.059 52.1595C294.058 52.1238 294.064 52.0883 294.076 52.055C294.089 52.0217 294.108 51.9912 294.133 51.9652C294.182 51.9129 294.25 51.8823 294.322 51.8803C295.803 51.794 297.266 51.7389 298.671 51.7169C298.84 51.7246 298.944 51.8343 298.947 51.9844C298.948 52.0565 298.921 52.126 298.87 52.1778C298.82 52.2296 298.752 52.2593 298.68 52.2605C297.282 52.2825 295.827 52.3371 294.355 52.4229L294.338 52.4234ZM352.092 51.5832C352.076 51.5831 352.059 51.5817 352.043 51.5791C350.602 51.3183 349.165 51.0851 347.772 50.886C347.737 50.881 347.703 50.869 347.672 50.8509C347.641 50.8327 347.615 50.8087 347.593 50.7801C347.572 50.7516 347.556 50.7191 347.547 50.6846C347.538 50.65 347.536 50.614 347.541 50.5787C347.546 50.5434 347.558 50.5094 347.577 50.4787C347.595 50.448 347.619 50.4212 347.647 50.3997C347.676 50.3783 347.708 50.3627 347.743 50.3538C347.777 50.345 347.813 50.343 347.849 50.348C349.249 50.5481 350.692 50.7824 352.14 51.0442C352.206 51.0571 352.265 51.094 352.305 51.1478C352.345 51.2015 352.365 51.2684 352.359 51.3353C352.353 51.4023 352.322 51.4647 352.273 51.5105C352.224 51.5562 352.159 51.5822 352.092 51.5832ZM321.974 51.5434C321.908 51.5429 321.846 51.5189 321.797 51.476C321.748 51.433 321.716 51.3738 321.707 51.3093C321.698 51.2447 321.712 51.1791 321.747 51.1242C321.782 51.0694 321.836 51.0291 321.899 51.0105C323.3 50.6154 324.724 50.301 326.161 50.0688C326.232 50.058 326.305 50.0754 326.363 50.1173C326.421 50.1592 326.461 50.2222 326.473 50.2929C326.485 50.364 326.468 50.4369 326.426 50.4954C326.384 50.554 326.32 50.5935 326.249 50.6053C324.832 50.8339 323.429 51.1437 322.048 51.5332C322.024 51.5399 321.999 51.5433 321.974 51.5434ZM343.506 50.3638C342.062 50.2187 340.616 50.1086 339.167 50.0336C339.131 50.0318 339.096 50.0229 339.064 50.0076C339.032 49.9923 339.003 49.9707 338.979 49.9442C338.955 49.9177 338.937 49.8868 338.925 49.8532C338.913 49.8195 338.908 49.7839 338.91 49.7483C338.917 49.5987 339.024 49.4823 339.195 49.4905C340.598 49.5625 342.057 49.6738 343.532 49.8213C343.681 49.8361 343.79 49.9693 343.775 50.1188C343.769 50.1859 343.738 50.2482 343.688 50.2935C343.638 50.3388 343.573 50.3639 343.506 50.3638ZM330.512 50.1025C330.443 50.1005 330.377 50.0723 330.328 50.0237C330.279 49.975 330.25 49.9096 330.248 49.8405C330.245 49.7715 330.269 49.7041 330.315 49.652C330.36 49.5999 330.423 49.567 330.492 49.5599C331.94 49.4526 333.392 49.3954 334.844 49.3884H334.846C334.881 49.3883 334.917 49.3952 334.95 49.4088C334.982 49.4224 335.012 49.4423 335.038 49.4674C335.063 49.4926 335.083 49.5224 335.097 49.5553C335.111 49.5883 335.118 49.6235 335.118 49.6592C335.118 49.6949 335.111 49.7302 335.097 49.7632C335.084 49.7962 335.064 49.8262 335.039 49.8514C335.014 49.8767 334.984 49.8968 334.951 49.9105C334.918 49.9243 334.883 49.9314 334.847 49.9315C333.364 49.9402 331.912 49.9974 330.533 50.1015L330.512 50.1025ZM479.091 57.5847C479.043 57.5847 478.996 57.572 478.955 57.5479C478.914 57.5239 478.879 57.4894 478.856 57.4478C478.832 57.4063 478.819 57.3592 478.82 57.3113C478.82 57.2635 478.833 57.2166 478.857 57.1753C479.218 56.5637 479.531 55.9248 479.792 55.2643C479.821 55.2019 479.873 55.153 479.938 55.1275C480.002 55.102 480.073 55.1018 480.137 55.1271C480.202 55.1523 480.254 55.201 480.284 55.2633C480.314 55.3257 480.319 55.397 480.298 55.4629C480.026 56.15 479.701 56.8148 479.325 57.451C479.301 57.4917 479.267 57.5255 479.226 57.5489C479.185 57.5724 479.138 57.5847 479.091 57.5847Z" fill="white"/>
<path d="M146.016 102.714H142.989C142.14 98.8437 140.714 95.1232 138.76 91.677L141.27 89.1657C145.021 85.4142 145.021 79.331 141.27 75.5789C137.52 71.8269 131.439 71.8269 127.688 75.5789L125.544 77.7237C122.212 75.5839 118.576 73.9605 114.759 72.9084L114.755 72.9074V69.3565C114.755 64.0507 110.455 59.7494 105.15 59.7494C99.8462 59.7494 95.5457 64.0507 95.5457 69.3565V72.3858C91.6769 73.235 87.9576 74.6606 84.5123 76.6151L82.0018 74.1038C78.2513 70.3518 72.17 70.3518 68.4191 74.1038C64.6681 77.8559 64.6681 83.9385 68.4191 87.6906L70.5622 89.8344C68.4225 93.1677 66.7991 96.8056 65.7473 100.625L65.7468 100.628H62.1984C56.8942 100.628 52.5942 104.929 52.5942 110.235C52.5942 115.541 56.8942 119.842 62.1984 119.842H65.2248C66.0736 123.713 67.499 127.434 69.4534 130.881L66.9449 133.39C63.194 137.142 63.194 143.225 66.9449 146.977C70.6959 150.729 76.7767 150.729 80.5276 146.977L82.6636 144.84C86.0031 146.973 89.6418 148.597 93.4597 149.658V153.2C93.4597 158.506 97.7597 162.807 103.064 162.807C108.369 162.807 112.668 158.506 112.668 153.2V150.173C116.538 149.324 120.257 147.898 123.703 145.942L126.212 148.452C129.962 152.204 136.043 152.204 139.794 148.452C143.545 144.7 143.545 138.617 139.794 134.865L137.657 132.727L137.658 132.727C139.79 129.386 141.413 125.747 142.474 121.928H146.015C151.32 121.928 155.62 117.627 155.62 112.321C155.621 107.015 151.321 102.714 146.016 102.714ZM132.704 111.279C132.704 127.073 119.897 139.885 104.106 139.885C88.3168 139.885 75.5087 127.073 75.5087 111.279C75.5087 95.4755 88.3168 82.6732 104.106 82.6732C119.897 82.6732 132.704 95.4755 132.704 111.279Z" fill="white"/>
<path d="M86.0332 111.279C86.0332 121.264 94.1255 129.358 104.107 129.358C114.09 129.358 122.191 121.264 122.191 111.279C122.191 101.294 114.09 93.1903 104.107 93.1903C94.125 93.1903 86.0332 101.294 86.0332 111.279Z" fill="white"/>
<path d="M225.796 66.6762H223.816C223.262 64.1455 222.329 61.7125 221.051 59.4589L222.693 57.8169C225.146 55.3633 225.146 51.3857 222.693 48.9326C220.24 46.479 216.264 46.479 213.811 48.9326L212.409 50.3352C210.23 48.936 207.853 47.8744 205.357 47.1865L205.354 47.186V44.8636C205.354 41.3938 202.542 38.5814 199.074 38.5814C195.605 38.5814 192.793 41.3938 192.793 44.8636V46.8445C190.264 47.3997 187.832 48.3319 185.579 49.6099L183.937 47.9679C181.485 45.5143 177.508 45.5143 175.056 47.9679C172.603 50.4215 172.603 54.3992 175.056 56.8522L176.457 58.2538C175.058 60.4334 173.996 62.8122 173.309 65.3093L173.308 65.3114H170.988C167.519 65.3114 164.708 68.1238 164.708 71.5936C164.708 75.0634 167.52 77.8758 170.988 77.8758H172.967C173.522 80.4068 174.454 82.84 175.732 85.0941L174.091 86.7351C171.638 89.1887 171.638 93.1663 174.091 95.6194C176.544 98.073 180.521 98.073 182.973 95.6194L184.37 94.2219L184.372 94.2229C186.555 95.6175 188.934 96.6791 191.43 97.3727V99.6884C191.43 103.158 194.242 105.971 197.71 105.971C201.179 105.971 203.991 103.158 203.991 99.6884V97.7096C206.521 97.1542 208.953 96.2218 211.207 94.9436L212.847 96.5846C215.3 99.0382 219.277 99.0382 221.729 96.5846C224.182 94.131 224.182 90.1533 221.729 87.7003L220.331 86.3023L220.332 86.3017C221.726 84.1176 222.788 81.7377 223.481 79.2406H225.797C229.266 79.2406 232.077 76.4277 232.077 72.9584C232.077 69.4891 229.265 66.6762 225.796 66.6762ZM217.092 72.277C217.092 82.6053 208.717 90.9828 198.392 90.9828C188.067 90.9828 179.691 82.6053 179.691 72.277C179.691 61.9431 188.067 53.5713 198.392 53.5713C208.717 53.5718 217.092 61.9431 217.092 72.277Z" fill="#ECECEC"/>
<path d="M186.573 72.2771C186.573 78.8063 191.864 84.0993 198.391 84.0993C204.919 84.0993 210.216 78.8063 210.216 72.2771C210.216 65.7478 204.919 60.4487 198.391 60.4487C191.864 60.4492 186.573 65.7478 186.573 72.2771Z" fill="#ECECEC"/>
<path d="M585.003 134.963V420.605C585.003 424.937 581.596 428.448 577.386 428.448H117.971C113.76 428.448 110.344 424.937 110.344 420.605V134.963C110.344 130.631 113.76 127.12 117.971 127.12H577.386C581.597 127.12 585.003 130.631 585.003 134.963Z" fill="#B5BDFF"/>
<path d="M594.861 135.106V425.97C594.861 430.381 591.296 433.956 586.887 433.956H105.984C101.575 433.956 98 430.381 98 425.97V135.106C98 130.696 101.575 127.12 105.984 127.12H586.887C591.296 127.12 594.861 130.695 594.861 135.106Z" fill="white"/>
<g clip-path="url(#clip0_94_188)">
<mask id="mask0_94_188" style="mask-type:luminance" maskUnits="userSpaceOnUse" x="274" y="194" width="146" height="45">
<path d="M419.068 194H274V238.125H419.068V194Z" fill="white"/>
</mask>
<g mask="url(#mask0_94_188)">
<path d="M296.902 234.705H292.555V218.966H297.384C298.723 218.925 300.063 219.01 301.386 219.221C302.095 219.369 302.762 219.67 303.338 220.104C303.96 220.578 304.453 221.196 304.774 221.904C305.115 222.661 305.288 223.482 305.281 224.311C305.295 225.163 305.122 226.008 304.774 226.788C304.458 227.489 303.961 228.096 303.333 228.548C302.822 228.904 302.245 229.156 301.634 229.29C300.602 229.472 299.553 229.547 298.505 229.516H296.902V234.705ZM296.902 226.051H297.789C298.593 226.115 299.4 225.968 300.128 225.625C300.356 225.462 300.537 225.243 300.653 224.99C300.769 224.736 300.815 224.457 300.787 224.18C300.812 223.91 300.766 223.638 300.652 223.391C300.538 223.144 300.361 222.93 300.138 222.771C299.422 222.432 298.627 222.286 297.835 222.35H296.902V226.051Z" fill="url(#paint0_linear_94_188)"/>
<path d="M307.649 234.705V218.966H312.291V231.03H318.058V234.705H307.649Z" fill="url(#paint1_linear_94_188)"/>
<path d="M318.327 234.705L324.201 218.966H330.014L335.903 234.705H331.282L330.425 231.872H323.831L322.943 234.685L318.327 234.705ZM324.83 228.824H329.446L327.711 223.634C327.66 223.473 327.584 223.218 327.493 222.867C327.401 222.516 327.28 222.064 327.133 221.513C327.031 221.899 326.93 222.27 326.833 222.621C326.737 222.972 326.641 223.308 326.539 223.624L324.83 228.824Z" fill="url(#paint2_linear_94_188)"/>
<path d="M337.531 234.705V218.966H342.02L348.451 227.064C348.674 227.387 348.879 227.721 349.065 228.066C349.349 228.568 349.659 229.16 349.999 229.846C349.907 229.195 349.841 228.613 349.796 228.107C349.75 227.6 349.735 227.144 349.735 226.748V218.976H354.193V234.715H349.74L343.288 226.577C343.058 226.257 342.85 225.921 342.664 225.574C342.38 225.073 342.07 224.491 341.741 223.814C341.832 224.476 341.898 225.058 341.944 225.569C341.989 226.081 342.005 226.527 342.005 226.923V234.695L337.531 234.705Z" fill="url(#paint3_linear_94_188)"/>
<path d="M357.825 234.705V218.966H362.309L368.741 227.064C368.863 227.231 369.066 227.565 369.35 228.066C369.633 228.568 369.943 229.16 370.288 229.846C370.191 229.195 370.125 228.613 370.08 228.107C370.034 227.6 370.019 227.144 370.019 226.748V218.976H374.482V234.715H370.029L363.597 226.587C363.368 226.267 363.159 225.932 362.974 225.584C362.689 225.083 362.385 224.501 362.051 223.824C362.141 224.486 362.213 225.068 362.253 225.579C362.294 226.091 362.32 226.537 362.32 226.933V234.705H357.825Z" fill="url(#paint4_linear_94_188)"/>
<path d="M378.119 234.705V218.966H388.553V222.415H382.644V225.148H388.224V228.523H382.644V231.18H388.553V234.69L378.119 234.705Z" fill="url(#paint5_linear_94_188)"/>
<path d="M391.623 234.705V218.966H396.471C397.799 218.925 399.13 219.006 400.443 219.206C401.138 219.344 401.798 219.62 402.381 220.019C402.986 220.439 403.473 221.005 403.796 221.663C404.135 222.35 404.308 223.105 404.303 223.87C404.349 224.943 404.005 225.997 403.334 226.843C402.591 227.651 401.591 228.182 400.499 228.347L405.14 234.69H399.88L395.975 228.533V234.69L391.623 234.705ZM395.975 226.407H396.831C397.594 226.462 398.357 226.298 399.028 225.935C399.264 225.764 399.45 225.536 399.572 225.272C399.692 225.009 399.742 224.719 399.718 224.431C399.751 224.12 399.709 223.806 399.598 223.513C399.486 223.221 399.306 222.958 399.074 222.746C398.423 222.353 397.662 222.177 396.903 222.245H395.975V226.407Z" fill="url(#paint6_linear_94_188)"/>
<path d="M354.553 209.699C357.089 209.699 359.144 207.504 359.144 204.796C359.144 202.087 357.089 199.892 354.553 199.892C352.018 199.892 349.963 202.087 349.963 204.796C349.963 207.504 352.018 209.699 354.553 209.699Z" fill="url(#paint7_linear_94_188)"/>
<path d="M288.963 206.134C288.335 205.55 287.607 205.082 286.812 204.75C286.059 204.44 285.25 204.281 284.434 204.284C283.695 204.259 282.961 204.395 282.281 204.682C281.602 204.969 280.995 205.399 280.502 205.944C279.528 207.148 278.994 208.642 278.987 210.184C278.979 211.726 279.499 213.225 280.462 214.438C280.918 214.97 281.489 215.394 282.132 215.68C282.775 215.967 283.475 216.107 284.18 216.093C285.038 216.094 285.886 215.923 286.676 215.591C287.515 215.226 288.283 214.717 288.943 214.087V216.98C288.312 217.468 287.6 217.843 286.838 218.088C286.041 218.339 285.209 218.463 284.373 218.454C283.302 218.466 282.239 218.265 281.248 217.863C280.286 217.47 279.421 216.876 278.712 216.123C277.999 215.356 277.448 214.456 277.094 213.475C276.323 211.369 276.323 209.063 277.094 206.957C277.459 205.969 278.022 205.063 278.747 204.294C279.457 203.537 280.321 202.939 281.284 202.539C282.254 202.134 283.299 201.931 284.352 201.942C285.195 201.937 286.032 202.072 286.828 202.344C287.648 202.633 288.419 203.044 289.115 203.562L288.963 206.134Z" fill="url(#paint8_linear_94_188)"/>
<path d="M307.046 210.211C307.052 211.296 306.851 212.373 306.453 213.385C306.064 214.375 305.482 215.28 304.738 216.047C304.01 216.804 303.138 217.411 302.172 217.833C301.228 218.246 300.206 218.458 299.174 218.454C298.126 218.457 297.09 218.244 296.131 217.828C295.172 217.404 294.309 216.793 293.594 216.032C292.852 215.269 292.271 214.368 291.885 213.38C291.107 211.327 291.107 209.065 291.885 207.012C292.272 206.017 292.853 205.107 293.594 204.334C294.31 203.577 295.172 202.969 296.131 202.549C297.091 202.14 298.128 201.932 299.174 201.938C300.21 201.934 301.236 202.142 302.187 202.549C303.145 202.97 304.007 203.577 304.723 204.334C305.464 205.115 306.046 206.029 306.437 207.027C306.842 208.041 307.049 209.121 307.046 210.211ZM304.546 210.211C304.551 209.436 304.414 208.666 304.14 207.94C303.872 207.236 303.473 206.588 302.963 206.029C302.483 205.49 301.894 205.056 301.233 204.755C300.587 204.458 299.882 204.306 299.169 204.309C298.455 204.306 297.749 204.457 297.099 204.75C296.434 205.051 295.839 205.487 295.354 206.029C294.845 206.582 294.449 207.227 294.188 207.93C293.918 208.66 293.782 209.433 293.787 210.211C293.781 210.981 293.917 211.745 294.188 212.467C294.452 213.169 294.848 213.816 295.354 214.373C295.84 214.914 296.434 215.349 297.099 215.651C297.75 215.947 298.458 216.097 299.174 216.093C299.875 216.094 300.567 215.943 301.203 215.651C301.871 215.348 302.47 214.913 302.963 214.373C303.471 213.814 303.868 213.166 304.135 212.462C304.41 211.743 304.549 210.98 304.546 210.211Z" fill="url(#paint9_linear_94_188)"/>
<path d="M309.791 218.048V201.682L319.154 211.314C319.408 211.585 319.661 211.876 319.93 212.182C320.199 212.487 320.468 212.838 320.757 213.224V202.288H322.968V218.645L313.417 208.847C313.164 208.581 312.91 208.3 312.677 208.01C312.443 207.719 312.21 207.408 311.997 207.082V218.028L309.791 218.048Z" fill="url(#paint10_linear_94_188)"/>
<path d="M326.352 218.048V202.288H334.579V204.46H328.751V208.386H334.579V210.632H328.751V218.028L326.352 218.048Z" fill="url(#paint11_linear_94_188)"/>
<path d="M337.176 218.048V202.288H345.398V204.46H339.57V208.406H345.398V210.652H339.57V215.742H345.398V218.028L337.176 218.048Z" fill="url(#paint12_linear_94_188)"/>
<path d="M348.553 218.048V197.059H354.133C355.662 197.007 357.192 197.116 358.698 197.385C359.514 197.574 360.277 197.942 360.929 198.463C361.648 199.051 362.209 199.806 362.563 200.659C362.951 201.59 363.144 202.59 363.131 203.597C363.197 205.004 362.804 206.394 362.01 207.563C361.209 208.608 360.045 209.322 358.744 209.569L364.1 218.028H358.084L353.57 209.815V218.028L348.553 218.048ZM353.57 206.982H354.584C355.741 206.982 356.586 206.771 357.12 206.35C357.4 206.104 357.618 205.797 357.756 205.453C357.894 205.109 357.949 204.738 357.917 204.369C357.917 203.321 357.668 202.574 357.176 202.128C356.684 201.682 355.842 201.461 354.67 201.461H353.595L353.57 206.982Z" fill="url(#paint13_linear_94_188)"/>
<path d="M365.773 218.048V202.288H373.975V204.46H368.168V208.406H373.975V210.652H368.168V215.742H373.975V218.028L365.773 218.048Z" fill="url(#paint14_linear_94_188)"/>
<path d="M376.745 218.048V201.682L386.108 211.314C386.362 211.585 386.616 211.876 386.885 212.182C387.154 212.487 387.417 212.838 387.707 213.224V202.288H389.923V218.645L380.372 208.847C380.113 208.581 379.865 208.3 379.631 208.01C379.398 207.719 379.165 207.408 378.952 207.082V218.028L376.745 218.048Z" fill="url(#paint15_linear_94_188)"/>
<path d="M405.135 206.134C404.507 205.55 403.779 205.082 402.985 204.75C402.23 204.44 401.422 204.281 400.605 204.284C399.867 204.259 399.132 204.395 398.453 204.682C397.774 204.969 397.167 205.399 396.675 205.944C395.7 207.148 395.165 208.642 395.159 210.184C395.151 211.726 395.671 213.225 396.634 214.438C397.09 214.97 397.66 215.394 398.303 215.68C398.946 215.967 399.646 216.107 400.351 216.093C401.207 216.095 402.055 215.924 402.842 215.591C403.684 215.227 404.454 214.718 405.115 214.087V216.98C404.484 217.468 403.771 217.843 403.009 218.088C402.213 218.339 401.38 218.462 400.545 218.454C399.473 218.466 398.411 218.265 397.42 217.863C396.458 217.469 395.593 216.876 394.884 216.123C394.157 215.354 393.595 214.448 393.23 213.46C392.459 211.354 392.459 209.048 393.23 206.942C393.602 205.949 394.171 205.041 394.904 204.269C395.614 203.514 396.479 202.915 397.44 202.514C398.411 202.109 399.455 201.906 400.509 201.917C401.351 201.912 402.188 202.048 402.985 202.319C403.805 202.608 404.576 203.019 405.272 203.537L405.135 206.134Z" fill="url(#paint16_linear_94_188)"/>
<path d="M408.102 218.048V202.288H416.329V204.46H410.496V208.406H416.329V210.652H410.496V215.742H416.329V218.028L408.102 218.048Z" fill="url(#paint17_linear_94_188)"/>
<path d="M347.208 201.827C347.208 205.503 350.024 208.175 354.153 208.25H354.33C354.457 208.25 354.574 208.25 354.69 208.25C355.705 208.13 356.237 207.368 356.055 206.686C355.583 204.926 352.347 202.023 352.778 200.363C353.392 198.001 356.699 198.001 358.043 199.47C359.387 200.94 358.444 202.058 358.444 202.058C359.408 203.131 358.991 203.727 358.991 203.727L356.836 202.624C356.496 202.4 356.205 202.111 355.978 201.774C355.752 201.438 355.595 201.06 355.517 200.664C356.136 201.762 358.195 201.005 357.313 199.661C356.43 198.317 353.503 198.658 353.792 200.298C354.082 201.937 357.541 203.462 358.779 205.994C359.112 206.625 359.231 207.345 359.121 208.049C359.011 208.753 358.675 209.403 358.165 209.905C357.658 210.467 356.881 210.803 355.629 210.803L347.346 210.973" fill="white"/>
</g>
</g>
<path d="M339.269 114.262C339.269 109.251 343.298 105.189 348.267 105.189C353.236 105.189 357.266 109.251 357.266 114.262C357.266 119.274 353.236 123.336 348.267 123.336C343.298 123.335 339.269 119.274 339.269 114.262Z" fill="#999999"/>
<path d="M623.87 461.994H72.6637C69.2256 461.994 66.438 456.635 66.438 450.023C66.438 443.412 69.2256 438.051 72.6637 438.051H623.87C627.308 438.051 630.094 443.412 630.094 450.023C630.094 456.635 627.308 461.994 623.87 461.994Z" fill="#2D2D2D"/>
<path d="M590.926 100.223H102.916C98.9039 100.223 95.6494 103.505 95.6494 107.551V430.719C95.6494 434.764 98.9044 438.046 102.916 438.046H590.926C594.938 438.046 598.193 434.764 598.193 430.719V107.551C598.193 103.505 594.938 100.223 590.926 100.223ZM593.365 423.874C593.365 428.254 589.839 431.804 585.479 431.804H109.878C105.518 431.804 101.982 428.254 101.982 423.874V135.05C101.982 130.67 105.518 127.12 109.878 127.12H585.479C589.839 127.12 593.365 130.67 593.365 135.05V423.874Z" fill="#2D2D2D"/>
<path d="M397.707 299.405H281.782C278.911 299.405 276.583 297.077 276.583 294.205V291.41C276.583 288.538 278.911 286.21 281.782 286.21H397.707C400.579 286.21 402.906 288.538 402.906 291.41V294.205C402.906 297.077 400.578 299.405 397.707 299.405ZM429.114 299.405H414.804C411.933 299.405 409.606 297.077 409.606 294.205V291.41C409.606 288.538 411.933 286.21 414.804 286.21H429.114C431.985 286.21 434.313 288.538 434.313 291.41V294.205C434.313 297.077 431.985 299.405 429.114 299.405Z" fill="#62BD5A"/>
<path d="M285.976 292.807C285.976 292.397 286.139 292.003 286.429 291.713C286.719 291.423 287.112 291.26 287.522 291.26C287.932 291.26 288.326 291.423 288.616 291.713C288.906 292.003 289.069 292.397 289.069 292.807C289.069 293.218 288.906 293.611 288.616 293.901C288.326 294.191 287.932 294.354 287.522 294.354C287.112 294.354 286.719 294.191 286.429 293.901C286.139 293.611 285.976 293.218 285.976 292.807ZM290.97 292.807C290.97 292.397 291.133 292.003 291.423 291.713C291.713 291.423 292.106 291.26 292.517 291.26C292.927 291.26 293.32 291.423 293.61 291.713C293.9 292.003 294.063 292.397 294.063 292.807C294.063 293.218 293.9 293.611 293.61 293.901C293.32 294.191 292.927 294.354 292.517 294.354C292.106 294.354 291.713 294.191 291.423 293.901C291.133 293.611 290.97 293.218 290.97 292.807ZM295.965 292.807C295.965 292.397 296.128 292.003 296.418 291.713C296.708 291.423 297.101 291.26 297.512 291.26C297.922 291.26 298.315 291.423 298.605 291.713C298.895 292.003 299.058 292.397 299.058 292.807C299.058 293.218 298.895 293.611 298.605 293.901C298.315 294.191 297.922 294.354 297.512 294.354C297.101 294.354 296.708 294.191 296.418 293.901C296.128 293.611 295.965 293.218 295.965 292.807ZM300.96 292.807C300.96 292.397 301.123 292.003 301.413 291.713C301.703 291.423 302.096 291.26 302.507 291.26C302.917 291.26 303.31 291.423 303.6 291.713C303.89 292.003 304.053 292.397 304.053 292.807C304.053 293.218 303.89 293.611 303.6 293.901C303.31 294.191 302.917 294.354 302.507 294.354C302.096 294.354 301.703 294.191 301.413 293.901C301.123 293.611 300.96 293.218 300.96 292.807ZM305.954 292.807C305.954 292.397 306.117 292.003 306.407 291.713C306.697 291.423 307.091 291.26 307.501 291.26C307.911 291.26 308.305 291.423 308.595 291.713C308.885 292.003 309.048 292.397 309.048 292.807C309.048 293.218 308.885 293.611 308.595 293.901C308.305 294.191 307.911 294.354 307.501 294.354C307.091 294.354 306.697 294.191 306.407 293.901C306.117 293.611 305.954 293.218 305.954 292.807ZM310.949 292.807C310.949 292.397 311.112 292.003 311.402 291.713C311.692 291.423 312.086 291.26 312.496 291.26C312.906 291.26 313.3 291.423 313.59 291.713C313.88 292.003 314.043 292.397 314.043 292.807C314.043 293.218 313.88 293.611 313.59 293.901C313.3 294.191 312.906 294.354 312.496 294.354C312.086 294.354 311.692 294.191 311.402 293.901C311.112 293.611 310.949 293.218 310.949 292.807ZM315.944 292.807C315.944 292.397 316.107 292.003 316.397 291.713C316.687 291.423 317.081 291.26 317.491 291.26C317.901 291.26 318.295 291.423 318.585 291.713C318.875 292.003 319.038 292.397 319.038 292.807C319.038 293.218 318.875 293.611 318.585 293.901C318.295 294.191 317.901 294.354 317.491 294.354C317.081 294.354 316.687 294.191 316.397 293.901C316.107 293.611 315.944 293.218 315.944 292.807ZM320.939 292.807C320.939 292.397 321.102 292.003 321.392 291.713C321.682 291.423 322.075 291.26 322.485 291.26C322.896 291.26 323.289 291.423 323.579 291.713C323.869 292.003 324.032 292.397 324.032 292.807C324.032 293.218 323.869 293.611 323.579 293.901C323.289 294.191 322.896 294.354 322.485 294.354C322.075 294.354 321.682 294.191 321.392 293.901C321.102 293.611 320.939 293.218 320.939 292.807Z" fill="white"/>
<path d="M393.961 342H308.039C306.437 342 304.901 341.549 303.769 340.747C302.636 339.945 302 338.858 302 337.724V327.276C302 326.142 302.636 325.055 303.769 324.253C304.901 323.451 306.437 323 308.039 323H393.961C395.563 323 397.099 323.451 398.231 324.253C399.364 325.055 400 326.142 400 327.276V337.724C400 338.858 399.364 339.946 398.231 340.748C397.099 341.549 395.563 342 393.961 342Z" fill="url(#paint18_linear_94_188)"/>
<path d="M368.607 356.774H331.475C331.266 356.774 331.065 356.691 330.917 356.543C330.77 356.395 330.687 356.195 330.687 355.986V355.635C330.687 355.199 331.039 354.846 331.475 354.846H368.607C369.043 354.846 369.395 355.199 369.395 355.635V355.986C369.395 356.421 369.043 356.774 368.607 356.774ZM381.803 364.036H318.279C318.07 364.036 317.869 363.953 317.721 363.806C317.574 363.658 317.491 363.457 317.491 363.248V362.897C317.491 362.462 317.843 362.109 318.279 362.109H381.803C382.239 362.109 382.591 362.462 382.591 362.897V363.248C382.591 363.683 382.239 364.036 381.803 364.036Z" fill="#64BE58"/>
<path d="M315.067 330.265C315.03 329.892 314.872 329.603 314.592 329.397C314.312 329.19 313.932 329.087 313.452 329.087C313.125 329.087 312.85 329.134 312.625 329.226C312.401 329.315 312.228 329.44 312.108 329.6C311.991 329.76 311.933 329.941 311.933 330.145C311.927 330.314 311.962 330.462 312.039 330.588C312.119 330.714 312.228 330.823 312.367 330.915C312.505 331.005 312.665 331.083 312.847 331.151C313.028 331.216 313.222 331.271 313.428 331.317L314.278 331.52C314.69 331.613 315.069 331.736 315.414 331.89C315.758 332.043 316.057 332.233 316.309 332.457C316.562 332.682 316.757 332.947 316.895 333.251C317.037 333.556 317.109 333.905 317.112 334.299C317.109 334.878 316.962 335.38 316.669 335.804C316.38 336.226 315.961 336.554 315.414 336.788C314.869 337.018 314.212 337.134 313.442 337.134C312.679 337.134 312.014 337.017 311.448 336.783C310.885 336.549 310.445 336.203 310.128 335.744C309.814 335.283 309.649 334.712 309.634 334.032H311.568C311.59 334.349 311.68 334.613 311.84 334.826C312.004 335.035 312.221 335.193 312.491 335.301C312.765 335.406 313.075 335.458 313.419 335.458C313.758 335.458 314.052 335.409 314.301 335.31C314.553 335.212 314.749 335.075 314.887 334.9C315.026 334.724 315.095 334.522 315.095 334.295C315.095 334.082 315.032 333.904 314.906 333.759C314.783 333.615 314.601 333.491 314.361 333.39C314.124 333.288 313.833 333.196 313.489 333.113L312.459 332.854C311.662 332.661 311.033 332.357 310.571 331.945C310.109 331.533 309.88 330.977 309.883 330.278C309.88 329.706 310.032 329.206 310.34 328.778C310.651 328.35 311.077 328.016 311.619 327.776C312.16 327.536 312.776 327.416 313.465 327.416C314.167 327.416 314.78 327.536 315.303 327.776C315.829 328.016 316.238 328.35 316.531 328.778C316.823 329.206 316.974 329.701 316.983 330.265H315.067ZM321.652 337.138C320.922 337.138 320.294 336.991 319.768 336.695C319.245 336.397 318.842 335.975 318.559 335.43C318.275 334.883 318.134 334.235 318.134 333.487C318.134 332.757 318.275 332.117 318.559 331.566C318.842 331.016 319.24 330.586 319.754 330.278C320.271 329.971 320.878 329.817 321.573 329.817C322.041 329.817 322.476 329.892 322.88 330.043C323.286 330.191 323.64 330.414 323.941 330.712C324.246 331.011 324.483 331.386 324.652 331.839C324.822 332.288 324.906 332.814 324.906 333.418V333.958H318.919V332.739H323.055C323.055 332.456 322.993 332.205 322.87 331.987C322.747 331.768 322.576 331.597 322.358 331.474C322.142 331.348 321.892 331.285 321.605 331.285C321.307 331.285 321.042 331.354 320.811 331.493C320.584 331.628 320.405 331.811 320.276 332.042C320.147 332.27 320.08 332.524 320.077 332.804V333.962C320.077 334.313 320.142 334.616 320.271 334.872C320.404 335.127 320.59 335.324 320.83 335.463C321.07 335.601 321.355 335.67 321.684 335.67C321.902 335.67 322.102 335.64 322.284 335.578C322.466 335.517 322.621 335.424 322.75 335.301C322.88 335.178 322.978 335.027 323.046 334.849L324.865 334.969C324.772 335.406 324.583 335.787 324.297 336.114C324.014 336.437 323.647 336.689 323.198 336.871C322.752 337.049 322.236 337.138 321.652 337.138ZM328.156 332.901V337H326.19V329.909H328.064V331.16H328.147C328.304 330.748 328.567 330.422 328.936 330.181C329.306 329.938 329.754 329.817 330.28 329.817C330.772 329.817 331.202 329.924 331.568 330.14C331.934 330.355 332.219 330.663 332.422 331.063C332.625 331.46 332.727 331.934 332.727 332.485V337H330.76V332.836C330.763 332.402 330.652 332.063 330.428 331.82C330.203 331.574 329.894 331.451 329.5 331.451C329.235 331.451 329.001 331.508 328.798 331.622C328.598 331.736 328.441 331.902 328.327 332.12C328.216 332.336 328.159 332.596 328.156 332.901ZM336.889 337.115C336.351 337.115 335.863 336.977 335.426 336.7C334.992 336.42 334.647 336.009 334.392 335.467C334.14 334.923 334.013 334.255 334.013 333.464C334.013 332.651 334.144 331.976 334.406 331.437C334.667 330.895 335.015 330.491 335.449 330.223C335.886 329.952 336.365 329.817 336.885 329.817C337.282 329.817 337.613 329.884 337.877 330.02C338.145 330.152 338.361 330.318 338.524 330.518C338.69 330.715 338.816 330.909 338.902 331.1H338.962V327.545H340.924V337H338.985V335.864H338.902C338.81 336.061 338.679 336.257 338.51 336.451C338.344 336.641 338.127 336.8 337.859 336.926C337.594 337.052 337.271 337.115 336.889 337.115ZM337.513 335.55C337.83 335.55 338.097 335.464 338.316 335.292C338.538 335.116 338.707 334.872 338.824 334.558C338.944 334.244 339.004 333.876 339.004 333.455C339.004 333.033 338.945 332.667 338.828 332.356C338.711 332.045 338.542 331.805 338.321 331.636C338.099 331.466 337.83 331.382 337.513 331.382C337.189 331.382 336.917 331.469 336.696 331.645C336.474 331.82 336.306 332.063 336.192 332.374C336.078 332.685 336.022 333.045 336.022 333.455C336.022 333.867 336.078 334.232 336.192 334.549C336.309 334.863 336.477 335.109 336.696 335.287C336.917 335.463 337.189 335.55 337.513 335.55ZM345.55 337V329.909H347.424V331.16H347.507C347.655 330.745 347.901 330.417 348.246 330.177C348.591 329.937 349.003 329.817 349.483 329.817C349.969 329.817 350.383 329.938 350.725 330.181C351.067 330.422 351.294 330.748 351.408 331.16H351.482C351.627 330.754 351.888 330.429 352.267 330.186C352.649 329.94 353.099 329.817 353.62 329.817C354.281 329.817 354.818 330.028 355.231 330.449C355.646 330.868 355.854 331.462 355.854 332.231V337H353.892V332.619C353.892 332.225 353.787 331.93 353.578 331.733C353.369 331.536 353.107 331.437 352.793 331.437C352.436 331.437 352.158 331.551 351.958 331.779C351.758 332.003 351.658 332.3 351.658 332.67V337H349.751V332.577C349.751 332.23 349.651 331.953 349.451 331.746C349.254 331.54 348.994 331.437 348.671 331.437C348.452 331.437 348.255 331.493 348.08 331.603C347.907 331.711 347.77 331.863 347.669 332.06C347.567 332.254 347.517 332.482 347.517 332.744V337H345.55ZM360.639 337.138C359.909 337.138 359.282 336.991 358.755 336.695C358.232 336.397 357.829 335.975 357.546 335.43C357.263 334.883 357.121 334.235 357.121 333.487C357.121 332.757 357.263 332.117 357.546 331.566C357.829 331.016 358.228 330.586 358.742 330.278C359.259 329.971 359.865 329.817 360.56 329.817C361.028 329.817 361.464 329.892 361.867 330.043C362.273 330.191 362.627 330.414 362.929 330.712C363.233 331.011 363.47 331.386 363.64 331.839C363.809 332.288 363.894 332.814 363.894 333.418V333.958H357.906V332.739H362.042C362.042 332.456 361.981 332.205 361.858 331.987C361.735 331.768 361.564 331.597 361.345 331.474C361.13 331.348 360.879 331.285 360.593 331.285C360.294 331.285 360.03 331.354 359.799 331.493C359.571 331.628 359.392 331.811 359.263 332.042C359.134 332.27 359.068 332.524 359.065 332.804V333.962C359.065 334.313 359.129 334.616 359.259 334.872C359.391 335.127 359.577 335.324 359.817 335.463C360.057 335.601 360.342 335.67 360.671 335.67C360.89 335.67 361.09 335.64 361.271 335.578C361.453 335.517 361.608 335.424 361.738 335.301C361.867 335.178 361.965 335.027 362.033 334.849L363.852 334.969C363.76 335.406 363.57 335.787 363.284 336.114C363.001 336.437 362.635 336.689 362.185 336.871C361.739 337.049 361.224 337.138 360.639 337.138ZM368.186 337V329.909H370.06V331.16H370.143C370.291 330.745 370.537 330.417 370.882 330.177C371.226 329.937 371.639 329.817 372.119 329.817C372.605 329.817 373.019 329.938 373.361 330.181C373.702 330.422 373.93 330.748 374.044 331.16H374.118C374.263 330.754 374.524 330.429 374.903 330.186C375.284 329.94 375.735 329.817 376.255 329.817C376.917 329.817 377.454 330.028 377.866 330.449C378.282 330.868 378.49 331.462 378.49 332.231V337H376.528V332.619C376.528 332.225 376.423 331.93 376.214 331.733C376.004 331.536 375.743 331.437 375.429 331.437C375.072 331.437 374.793 331.551 374.593 331.779C374.393 332.003 374.293 332.3 374.293 332.67V337H372.387V332.577C372.387 332.23 372.287 331.953 372.087 331.746C371.89 331.54 371.63 331.437 371.306 331.437C371.088 331.437 370.891 331.493 370.716 331.603C370.543 331.711 370.406 331.863 370.305 332.06C370.203 332.254 370.152 332.482 370.152 332.744V337H368.186ZM382.065 337.134C381.613 337.134 381.21 337.055 380.856 336.898C380.502 336.738 380.222 336.503 380.015 336.192C379.812 335.878 379.711 335.487 379.711 335.02C379.711 334.626 379.783 334.295 379.928 334.027C380.072 333.759 380.269 333.544 380.519 333.381C380.768 333.218 381.051 333.094 381.368 333.011C381.688 332.928 382.024 332.87 382.374 332.836C382.787 332.793 383.119 332.753 383.372 332.716C383.624 332.676 383.807 332.617 383.921 332.54C384.035 332.464 384.092 332.35 384.092 332.199V332.171C384.092 331.879 383.999 331.653 383.815 331.493C383.633 331.333 383.375 331.252 383.039 331.252C382.685 331.252 382.404 331.331 382.194 331.488C381.985 331.642 381.847 331.836 381.779 332.07L379.96 331.922C380.052 331.491 380.234 331.119 380.505 330.805C380.776 330.488 381.125 330.245 381.553 330.075C381.984 329.903 382.482 329.817 383.048 329.817C383.442 329.817 383.819 329.863 384.179 329.955C384.543 330.048 384.864 330.191 385.144 330.385C385.427 330.578 385.651 330.828 385.814 331.132C385.977 331.434 386.058 331.796 386.058 332.217V337H384.193V336.017H384.138C384.024 336.238 383.872 336.434 383.681 336.603C383.49 336.769 383.261 336.9 382.993 336.995C382.725 337.088 382.416 337.134 382.065 337.134ZM382.628 335.777C382.918 335.777 383.173 335.72 383.395 335.606C383.616 335.489 383.79 335.332 383.916 335.135C384.043 334.938 384.106 334.715 384.106 334.466V333.713C384.044 333.753 383.959 333.79 383.852 333.824C383.747 333.855 383.629 333.884 383.496 333.912C383.364 333.936 383.232 333.959 383.099 333.981C382.967 333.999 382.847 334.016 382.739 334.032C382.508 334.065 382.307 334.119 382.134 334.193C381.962 334.267 381.828 334.367 381.733 334.493C381.637 334.616 381.59 334.77 381.59 334.955C381.59 335.223 381.687 335.427 381.88 335.569C382.077 335.707 382.327 335.777 382.628 335.777ZM387.584 337V329.909H389.551V337H387.584ZM388.572 328.995C388.28 328.995 388.029 328.898 387.82 328.704C387.613 328.507 387.51 328.272 387.51 327.998C387.51 327.727 387.613 327.495 387.82 327.301C388.029 327.104 388.28 327.005 388.572 327.005C388.864 327.005 389.114 327.104 389.32 327.301C389.529 327.495 389.634 327.727 389.634 327.998C389.634 328.272 389.529 328.507 389.32 328.704C389.114 328.898 388.864 328.995 388.572 328.995ZM393.093 327.545V337H391.126V327.545H393.093Z" fill="white"/>
<path d="M130.71 148.101H497.707V162.827H130.71V148.101ZM511.994 148.101H537.996V162.827H511.994V148.101ZM579.393 150.169H552.902C552.776 150.169 552.651 150.144 552.535 150.096C552.418 150.047 552.313 149.977 552.223 149.888C552.134 149.798 552.064 149.693 552.016 149.576C551.967 149.46 551.943 149.335 551.943 149.209V149.061C551.943 148.935 551.967 148.81 552.016 148.694C552.064 148.577 552.134 148.472 552.223 148.383C552.313 148.293 552.418 148.223 552.535 148.174C552.651 148.126 552.776 148.101 552.902 148.101H579.393C579.647 148.101 579.891 148.203 580.071 148.383C580.251 148.562 580.352 148.807 580.352 149.061V149.209C580.352 149.464 580.251 149.708 580.071 149.888C579.891 150.068 579.647 150.169 579.393 150.169ZM579.393 155.981H552.902C552.776 155.981 552.651 155.956 552.535 155.908C552.418 155.86 552.313 155.789 552.223 155.7C552.134 155.611 552.064 155.505 552.016 155.389C551.967 155.272 551.943 155.148 551.943 155.022V154.874C551.943 154.748 551.967 154.623 552.016 154.506C552.064 154.39 552.134 154.284 552.223 154.195C552.313 154.106 552.418 154.035 552.535 153.987C552.651 153.939 552.776 153.914 552.902 153.914H579.393C579.647 153.914 579.891 154.015 580.071 154.195C580.251 154.375 580.352 154.619 580.352 154.874V155.022C580.352 155.276 580.251 155.52 580.071 155.7C579.891 155.88 579.647 155.981 579.393 155.981ZM579.393 161.794H552.902C552.776 161.794 552.651 161.769 552.535 161.721C552.418 161.673 552.313 161.602 552.223 161.513C552.134 161.424 552.064 161.318 552.016 161.202C551.967 161.085 551.943 160.96 551.943 160.834V160.686C551.943 160.56 551.967 160.435 552.016 160.319C552.064 160.203 552.134 160.097 552.223 160.008C552.313 159.919 552.418 159.848 552.535 159.8C552.651 159.752 552.776 159.727 552.902 159.727H579.393C579.647 159.727 579.891 159.828 580.071 160.008C580.251 160.188 580.352 160.432 580.352 160.686V160.834C580.352 161.089 580.251 161.333 580.071 161.513C579.891 161.693 579.647 161.794 579.393 161.794Z" fill="url(#paint19_linear_94_188)"/>
<path d="M192.7 435.989C192.7 435.989 177.024 438.308 177.291 438.153C177.559 437.997 205.982 452.579 205.982 452.579L233.987 440.027L220.102 435.989L192.7 435.989Z" fill="#30334D"/>
<path d="M198.721 457.384C198.642 457.385 198.562 457.385 198.486 457.387L198.342 457.387C194.353 457.433 191.749 457.334 191.749 457.334C191.749 457.334 191.558 457.377 191.209 457.449C187.799 458.156 169.415 461.66 170.981 454.73C172.354 448.646 183.385 449.402 187.808 449.96C187.826 449.96 187.839 449.963 187.852 449.966C188.956 450.107 189.636 450.231 189.636 450.231C189.636 450.231 191.831 449.288 195.294 447.944C195.437 447.887 195.584 447.828 195.729 447.773C207.14 443.343 231.137 434.947 237.348 439.993L237.348 439.996C237.416 440.049 237.483 440.107 237.547 440.166C237.551 440.163 237.556 440.168 237.558 440.175C237.625 440.237 237.687 440.302 237.749 440.367C237.804 440.42 237.857 440.479 237.905 440.544C237.925 440.563 237.945 440.587 237.964 440.612C238.107 440.793 238.235 440.987 238.346 441.191C238.4 441.292 238.448 441.395 238.491 441.501C238.592 441.728 238.669 441.972 238.725 442.229C238.781 442.488 238.828 442.743 238.859 442.994C238.916 443.443 238.939 443.879 238.919 444.305C238.418 455.495 211.723 457.211 198.721 457.384Z" fill="#FFD8D9"/>
<path d="M198.928 458.689L198.487 457.387L198.295 456.819C198.292 456.815 198.293 456.812 198.293 456.812L195.293 447.944L194.863 446.672C206.284 442.238 231.025 434.721 237.343 439.982L237.345 439.986C237.416 440.042 237.483 440.101 237.545 440.165C237.549 440.163 237.555 440.168 237.557 440.175C237.623 440.237 237.686 440.302 237.748 440.367C237.803 440.419 237.856 440.478 237.904 440.544C237.924 440.562 237.943 440.587 237.962 440.611C238.106 440.793 238.234 440.987 238.344 441.191C238.399 441.292 238.446 441.395 238.49 441.5C238.59 441.728 238.667 441.971 238.724 442.228C238.78 442.488 238.827 442.743 238.857 442.993C238.915 443.443 238.937 443.878 238.917 444.305C238.458 455.634 211.936 458.517 198.928 458.689ZM189.628 450.263C189.628 450.263 168.831 446.198 167.925 454.992C166.951 464.44 191.743 457.366 191.743 457.366C191.743 457.366 182.181 459.459 182.635 454.095C183.074 448.905 189.628 450.263 189.628 450.263Z" fill="black"/>
<path d="M220.531 414.562C216.449 420.295 220.1 435.989 220.1 435.989H192.7C193.457 434.915 195.59 421.389 190.785 413.932C183.03 401.904 191.385 392.551 191.385 392.551L202.78 390.479L203.507 386.85L204.006 384.35L204.124 383.77H209.249L209.435 384.86L209.836 387.235L210.43 390.74L220.905 393.015C220.906 393.014 229.877 401.427 220.531 414.562Z" fill="#FFD8D9"/>
<path d="M220.529 414.565C216.446 420.298 220.102 435.989 220.102 435.989H192.7C193.345 435.075 194.985 425.123 192.491 417.593C192.056 416.274 191.494 415.038 190.783 413.928C183.03 401.902 191.382 392.551 191.382 392.551L202.784 390.475C203.221 393.025 209.437 392.875 210.432 390.737L220.905 393.015C220.904 393.015 229.878 401.422 220.529 414.565Z" fill="#D94559"/>
<path d="M192.7 435.989C193.344 435.075 194.985 425.123 192.49 417.593C197.893 416.022 196.981 431.024 205.982 435.989H192.7Z" fill="#C4626E"/>
<path d="M235.431 426.49C235.147 428.266 233.896 430.191 232.045 432.095C227.312 436.957 217.669 436.741 211.055 438.509L210.364 434.984C210.364 434.984 222.172 431.653 224.712 427.509C224.981 427.067 225.169 426.655 225.244 426.287C226.105 422.158 221.326 416.996 221.326 416.996L220.818 393.025C220.818 393.025 236.869 417.461 235.431 426.49Z" fill="#FFD8D9"/>
<path d="M235.589 426.489C235.282 428.159 234.281 430.258 232.614 432.089C232.528 432.181 232.412 432.241 232.287 432.256C232.162 432.272 232.035 432.242 231.929 432.173L229.9 430.855L224.579 427.406C224.85 426.966 224.987 426.521 225.062 426.153C225.923 422.025 218.267 415.639 218.267 415.639L220.107 392.877C222.573 392.767 226.624 398.395 229.988 405.297C229.988 405.297 229.991 405.307 229.998 405.323C233.639 412.789 236.464 421.734 235.589 426.489Z" fill="#D94559"/>
<path d="M202.33 435.043L202.45 437.387C202.661 437.314 202.644 437.006 202.425 436.961C196.53 435.743 186.842 437.429 182.125 433.421C179.218 430.948 177.631 427.904 177.256 425.559C175.818 416.53 191.475 392.57 191.475 392.57L190.897 416.51C190.897 416.51 186.118 421.673 186.979 425.801C187.128 426.536 187.713 427.442 188.56 428.431C192.095 432.582 202.33 435.043 202.33 435.043Z" fill="#FFD8D9"/>
<path d="M186.977 425.8C187.127 426.535 188.129 427.177 188.974 428.166L184.032 432.278L182.045 433.929C179.139 431.456 177.432 428.29 176.793 426.002C175.805 422.481 177.211 416.464 179.582 410.489C179.592 410.456 179.598 410.44 179.598 410.44C183.177 401.423 188.935 392.521 191.943 392.449L193.678 416.741C193.678 416.741 186.116 421.673 186.977 425.8Z" fill="#D94559"/>
<path d="M241.091 453.956C242.741 461.002 223.991 457.586 220.511 456.894C220.155 456.823 219.96 456.782 219.96 456.782C219.96 456.782 217.243 456.909 213.099 456.892L212.856 456.891C206.839 456.86 197.939 456.531 189.965 455.108C180.181 453.364 171.785 449.983 171.799 443.5C171.8 443.486 171.801 443.475 171.799 443.466C171.801 443.201 171.817 442.934 171.849 442.66C171.851 442.653 171.85 442.65 171.849 442.647C171.884 442.365 171.93 442.08 171.99 441.79C172.046 441.528 172.122 441.279 172.222 441.046C172.265 440.938 172.314 440.833 172.368 440.73C172.425 440.623 172.487 440.518 172.552 440.415C172.552 440.415 172.556 440.415 172.555 440.411C172.617 440.317 172.682 440.225 172.752 440.136C172.769 440.112 172.789 440.089 172.811 440.067C172.858 440.003 172.911 439.942 172.968 439.886C173.031 439.819 173.094 439.753 173.161 439.689C173.163 439.682 173.169 439.677 173.173 439.679C173.93 438.974 174.99 438.497 176.29 438.207C185.235 436.217 205.536 443.179 215.827 447.076C215.976 447.132 216.126 447.191 216.271 447.247C219.81 448.587 222.053 449.53 222.053 449.53C222.053 449.53 222.745 449.397 223.868 449.245C223.881 449.242 223.896 449.242 223.913 449.239C228.414 448.634 239.638 447.772 241.091 453.956Z" fill="#FFD8D9"/>
<path d="M216.7 445.949L216.272 447.248L213.099 456.892L212.66 458.221C207.2 458.196 199.4 457.719 192.079 456.362L192.075 456.358C181.415 454.384 171.762 450.541 171.799 443.501C171.8 443.487 171.801 443.476 171.799 443.466C171.801 443.202 171.82 442.931 171.849 442.661C171.851 442.654 171.85 442.65 171.849 442.647C171.884 442.365 171.93 442.081 171.99 441.79C172.046 441.529 172.122 441.28 172.222 441.047C172.265 440.939 172.314 440.833 172.368 440.731C172.425 440.623 172.487 440.518 172.552 440.416C172.552 440.416 172.556 440.416 172.555 440.412C172.617 440.318 172.682 440.226 172.752 440.137C172.769 440.112 172.789 440.089 172.811 440.068C172.858 440.003 172.911 439.942 172.968 439.886C173.031 439.82 173.094 439.754 173.161 439.69C173.163 439.682 173.169 439.678 173.173 439.68C173.955 438.926 175.071 438.403 176.444 438.072C185.642 435.827 206.429 442.062 216.7 445.949ZM222.059 449.563C222.059 449.563 243.207 445.249 244.204 454.198C245.275 463.812 219.966 456.816 219.966 456.816C219.966 456.816 229.211 458.567 228.704 453.108C228.213 447.825 222.059 449.563 222.059 449.563Z" fill="black"/>
<path d="M225.558 414.839V437.336C225.558 437.917 225.327 438.475 224.916 438.886C224.505 439.297 223.947 439.529 223.366 439.529H188.906C188.325 439.529 187.767 439.298 187.356 438.886C186.945 438.475 186.714 437.917 186.713 437.336V414.839C186.714 414.257 186.945 413.7 187.356 413.288C187.767 412.877 188.325 412.646 188.906 412.646H223.366C223.947 412.646 224.505 412.877 224.916 413.288C225.327 413.7 225.558 414.257 225.558 414.839Z" fill="white"/>
<path d="M202.704 426.088C202.704 425.177 203.066 424.304 203.709 423.661C204.353 423.017 205.226 422.655 206.136 422.655C207.046 422.655 207.919 423.017 208.562 423.661C209.206 424.304 209.567 425.177 209.567 426.088C209.567 426.998 209.206 427.871 208.562 428.515C207.919 429.159 207.046 429.52 206.136 429.52C205.226 429.52 204.353 429.159 203.709 428.515C203.066 427.871 202.704 426.998 202.704 426.088Z" fill="#D7E0FA"/>
<path d="M225.558 414.839V437.336C225.558 437.917 225.327 438.475 224.916 438.886C224.505 439.297 223.947 439.529 223.366 439.529H188.906C188.325 439.529 187.767 439.298 187.356 438.886C186.945 438.475 186.714 437.917 186.713 437.336C221.565 438.936 225.558 433.823 223.366 412.646C223.947 412.646 224.505 412.877 224.916 413.288C225.327 413.7 225.558 414.257 225.558 414.839Z" fill="#D7E0FA"/>
<path d="M235.589 426.489C235.282 428.159 234.281 430.258 232.614 432.089C232.528 432.181 232.412 432.241 232.287 432.256C232.161 432.272 232.035 432.242 231.929 432.173L229.899 430.855C230.966 429.005 232.54 427.537 233.278 424.672C235.257 417.005 230.268 405.985 229.997 405.323C233.639 412.789 236.463 421.734 235.589 426.489Z" fill="#B53344"/>
<path d="M199.626 377.539C199.626 377.539 195.52 373.139 198.851 367.292C198.851 367.292 199.857 369.114 201.05 368.612C201.05 368.612 201.113 364.337 209.787 363.457C209.787 363.457 209.158 365.154 209.473 365.594C212.332 364.336 215.108 367.459 217.895 366.285C217.895 366.285 218.665 371.239 215.46 374.131C215.46 374.131 215.946 375.841 214.815 377.539C213.684 379.237 199.626 377.539 199.626 377.539Z" fill="#222438"/>
<path d="M200.919 376.211C200.919 376.211 199.045 374.378 198.869 376.157C198.66 378.262 201.165 379.827 201.165 379.827C201.165 379.827 201.775 386.335 207.264 386.335C212.709 386.335 213.62 379.803 213.62 379.803C213.62 379.803 216.484 379.021 215.876 376.548C215.588 375.373 214.095 376.573 214.095 376.573V373.482C214.095 373.482 212.568 374.258 209.622 372.994C207.489 372.078 206.728 370.806 204.905 370.878C202.828 370.961 200.837 373.241 200.919 376.211Z" fill="#FFD8D9"/>
<path d="M439.328 363.302C439.328 363.302 440.044 407.945 448.193 417.914C452.125 422.724 465.214 448.461 465.214 448.461C466.68 448.664 468.042 448.369 469.096 446.614C466.43 432.041 462.873 419.566 457.138 412.32C454.145 391.769 462.924 382.8 453.238 363.312L439.328 363.302Z" fill="#F9CBCB"/>
<path d="M435.833 363.299C432.395 384.722 433.636 396.931 436.339 419.282C436.367 419.508 436.406 419.738 436.458 419.96L444.415 454.198L448.425 454.752C449.436 443.439 448.851 429.214 446.853 419.645C448.338 391.749 462.37 383.984 449.311 363.31L435.833 363.299Z" fill="#F9CBCB"/>
<path d="M462.861 427.234C458.38 426.677 454.295 424.09 451.445 427.349C449.36 429.727 446.95 431.663 443.961 432.645C442.63 433.086 441.241 433.327 439.839 433.36C437.105 433.429 434.672 431.346 433.954 428.259C432.587 422.352 430.494 411.511 430.502 400.353C430.517 380.419 436.155 361.913 436.155 361.913C436.155 361.913 436.242 361.893 436.401 361.852C438.239 361.443 449.885 359.072 454.162 364.376C458.807 370.143 462.203 377.765 461.023 392.612C460.18 403.215 464.427 413.073 467.226 420.131C468.621 423.67 466.183 427.657 462.861 427.234Z" fill="black"/>
<path d="M439.206 328.704L434.329 339.039C434.329 339.039 434.163 338.776 433.882 338.309C432.021 335.292 424.963 323.735 423.173 319.127C421.734 315.416 421.469 305.886 421.728 299.415C421.827 297.015 421.995 295.028 422.207 293.92C422.207 293.92 419.186 291.157 421.991 289.621C424.69 288.146 422.794 283.828 423.805 283.688C424.816 283.548 425.366 289.386 425.366 289.386C425.366 289.386 426.799 287.866 427.282 288.447C428.011 289.309 425.529 293.922 425.529 293.922C425.885 295.003 426.218 296.091 426.529 297.185C428.16 302.918 429.272 309.152 429.838 315.852C432.85 318.975 436.002 323.558 439.206 328.704Z" fill="#F9CBCB"/>
<path d="M452.672 362.886L435.262 362.874C436.17 358.918 438.395 356.801 435.132 347.822C433.772 344.085 433.537 340.92 433.882 338.309C434.748 331.821 439.206 328.704 439.206 328.704L443.382 326.359L448.489 326.363L453.619 330.006C453.619 330.006 453.354 344.433 452.55 349.364C451.844 353.716 451.014 358.683 452.672 362.886Z" fill="#3E3279"/>
<path d="M455.545 365.588C447.534 369.687 444.796 365.272 438.714 365.224C438.239 365.223 437.738 365.249 437.219 365.302C435.374 365.502 433.881 363.849 434.19 362.02C435.151 356.403 434.831 350.195 433.422 341.816C433.107 339.954 432.59 338.132 431.879 336.382C431.451 335.325 430.955 334.297 430.396 333.304C427.772 328.607 424.392 322.257 423.173 319.126C421.734 315.415 421.469 305.885 421.728 299.414L426.528 297.185C428.159 302.918 429.368 308.589 430.356 315.623C432.798 318.166 435 321.807 437.45 325.844C437.918 326.613 438.666 327.171 439.536 327.399C440.406 327.628 441.331 327.51 442.117 327.07L443.382 326.359L448.489 326.363L453.619 330.006C453.619 330.006 453.354 344.433 452.55 349.364C451.844 353.716 453.886 361.384 455.545 365.588Z" fill="#FFBC47"/>
<path d="M471.218 351.049C471.208 351.119 471.208 351.198 471.191 351.277C471.023 352.675 470.143 354.275 468.929 355.892C466.624 358.958 463.089 362.076 460.819 363.939C459.518 365.002 458.639 365.66 458.639 365.66C460.885 370.743 456.329 375.417 454.977 372.726C454.696 372.145 455.726 370.159 455.727 369.368C455.727 368.876 454.862 368.33 454.268 367.459C453.593 366.469 454.165 365.235 454.578 364.655C455.379 363.557 456.162 362.326 456.963 361.061C459.101 357.695 461.389 354.039 464.581 351.571C459.196 348.702 455.567 347.416 451.851 344.019L453.619 330.006C453.62 330.006 471.67 344.622 471.218 351.049Z" fill="#F9CBCB"/>
<path d="M471.218 351.049C471.208 351.119 471.208 351.198 471.191 351.277C470.442 352.818 469.688 354.356 468.929 355.892C466.624 358.958 463.089 362.076 460.819 363.939L456.963 361.061C459.101 357.696 461.389 354.04 464.581 351.572C459.196 348.702 455.567 347.416 451.851 344.019L453.619 330.007C453.62 330.006 471.67 344.622 471.218 351.049Z" fill="#FE81DF"/>
<path d="M439.703 307.876C439.703 307.876 437.314 314.481 439.145 318.611C440.976 322.742 448.317 319.903 448.317 319.903L439.703 307.876Z" fill="#F9CBCB"/>
<path d="M444.497 320.149L443.386 326.358L448.487 326.362L448.317 319.903L444.497 320.149Z" fill="#F9CBCB"/>
<path d="M465.718 331.311C465.227 327.656 467.344 325.916 466.01 322.477C464.737 319.2 460.861 317.66 459.134 314.599C457.842 312.311 457.93 309.497 456.995 307.042C455.658 303.533 452.08 300.999 448.327 300.906C444.574 300.814 440.875 303.166 439.367 306.605C439.367 306.605 437.375 310.166 440.296 315.128C441.871 317.802 446.088 320.125 447.022 323.085C448.754 328.575 441.254 336.055 443.375 341.406C444.528 344.315 447.859 344.277 448.472 347.344C449.022 350.095 443.949 352.143 448.464 358.059C451.838 362.48 455.876 358.932 458.502 358.671C460.7 358.452 464.47 360.735 468.5 358.458C475.856 354.303 469.674 348.677 471.232 342.965C473.241 335.603 466.247 335.253 465.718 331.311ZM448.597 452.882L449.245 456.202C449.474 457.109 449.539 458.049 449.438 458.979L449.066 462.566L447.75 462.555L447.867 460.285C447.81 459.698 447.072 459.474 446.697 459.928L445.468 461.417C445.114 462.084 444.467 462.553 443.72 462.66C441.438 462.988 436.979 463.126 436.774 461.629C436.562 460.091 440.889 459.965 442.129 458.253C443.331 456.595 444.138 453.016 444.138 453.016C445.497 453.562 447.097 453.386 448.597 452.882ZM469.097 446.614L471.192 449.169C471.785 449.892 472.244 450.715 472.548 451.599L473.739 455.003L472.544 455.554L471.683 453.45C471.381 452.943 470.617 453.054 470.472 453.626L469.995 455.496C469.958 456.25 469.572 456.951 468.942 457.366C467.017 458.634 463.04 460.659 462.218 459.392C461.371 458.09 465.233 456.133 465.626 454.056C466.008 452.044 465.214 448.461 465.214 448.461C466.676 448.377 467.953 447.709 469.097 446.614Z" fill="#30334D"/>
<path d="M98.5352 367.514V460.543C87.4089 460.545 77.3286 456.044 70.0201 448.762C58.4356 437.216 58.1391 422.901 58.1335 420.208C60.1771 416.367 62.8096 410.208 63.601 402.26C64.9267 388.976 60.3098 378.736 58.0488 374.436C64.1368 373.081 71.6234 369.709 79.2666 364.691L98.4888 367.522L98.5352 367.514Z" fill="#209959"/>
<path d="M138.931 420.059C138.935 422.75 138.693 437.066 127.152 448.655C119.854 455.98 109.763 460.523 98.6071 460.543H98.5352V367.514L117.59 364.62C125.252 369.608 132.751 372.952 138.844 374.286C136.6 378.593 132.022 388.851 133.395 402.131C134.219 410.075 136.873 416.223 138.931 420.059Z" fill="#3DB877"/>
<path d="M98.5352 371.339V455.834C89.0254 455.834 80.0825 452.14 73.3429 445.425C64.4791 436.592 63.0545 425.771 62.8667 421.306C65.8196 415.435 67.6418 409.193 68.2862 402.728C69.2986 392.579 67.2167 383.904 64.6082 377.419C69.6762 375.627 75.1875 372.88 80.6606 369.398L98.5352 371.339Z" fill="#3DB877"/>
<path d="M134.202 421.173C134.031 425.64 132.645 436.466 123.816 445.329C117.088 452.085 108.132 455.816 98.5999 455.834H98.5356V371.339L116.215 369.332C121.701 372.792 127.224 375.519 132.297 377.292C129.713 383.789 127.664 392.471 128.713 402.616C129.381 409.077 131.227 415.314 134.202 421.173Z" fill="#389850"/>
<path d="M98.5311 373.949V453.381C89.6571 453.381 81.3092 449.933 75.0202 443.668C67.0289 435.704 65.5247 425.958 65.2695 421.647C68.1612 415.762 69.9517 409.507 70.5957 403.047C71.4095 394.889 70.3859 386.804 67.555 378.984C72.0178 377.235 76.7642 374.805 81.4275 371.876L98.4836 373.955L98.5311 373.949Z" fill="white"/>
<path d="M131.795 421.509C131.555 425.823 130.085 435.575 122.126 443.566C115.847 449.871 107.491 453.351 98.5944 453.368H98.5352V373.935L115.45 371.8C120.124 374.71 124.881 377.122 129.351 378.853C126.549 386.685 125.556 394.774 126.398 402.93C127.068 409.387 128.883 415.634 131.795 421.509Z" fill="#F3F0FF"/>
<path d="M87.3109 410.212L117.741 410.111C116.662 408.518 114.722 407.454 112.507 407.462L110.654 407.468L110.612 401.949L110.598 397.781C110.585 393.715 107.275 390.427 103.208 390.44L92.3625 390.477C88.2946 390.49 85.0106 393.8 85.0244 397.866L85.0565 407.553L83.1798 407.559C80.9657 407.567 79.0288 408.644 77.9603 410.243L85.0652 410.219L87.3109 410.212ZM92.8125 393.995L102.785 393.962C103.347 393.96 103.904 394.069 104.424 394.282C104.945 394.495 105.418 394.809 105.817 395.206C106.216 395.602 106.533 396.073 106.75 396.592C106.967 397.111 107.079 397.668 107.081 398.23L107.093 401.949V407.479L88.5727 407.541L88.5421 398.296C88.5334 395.93 90.4474 394.003 92.8125 393.995ZM118.643 412.989C118.64 412.383 118.528 411.782 118.313 411.214L77.3974 411.351C77.1856 411.92 77.0791 412.523 77.0831 413.13L77.102 418.256C77.1352 428.661 86.4658 437.074 97.9412 437.034C103.682 437.015 108.865 434.885 112.613 431.465C116.366 428.04 118.676 423.318 118.657 418.115L118.643 412.989ZM97.9146 429.223C94.0775 429.238 90.9572 426.135 90.9424 422.293C90.9312 418.455 94.029 415.333 97.8667 415.319C101.707 415.307 104.831 418.41 104.842 422.248C104.854 426.087 101.756 429.212 97.9146 429.223Z" fill="#209959"/>
<path d="M97.7894 427.957C97.3782 427.985 96.9918 428.164 96.7055 428.461C96.4192 428.757 96.2536 429.15 96.2408 429.562C96.2332 429.854 96.3035 430.142 96.4445 430.398C96.5855 430.653 96.7921 430.866 97.0429 431.015L96.7546 434.787C96.7515 434.824 96.7561 434.861 96.768 434.896C96.78 434.931 96.7991 434.963 96.8241 434.99C96.8491 435.017 96.8795 435.039 96.9133 435.053C96.9471 435.068 96.9836 435.076 97.0205 435.076L98.7911 435.068C98.8278 435.068 98.8641 435.06 98.8977 435.045C98.9312 435.031 98.9613 435.009 98.986 434.982C99.0107 434.955 99.0295 434.923 99.0411 434.888C99.0527 434.853 99.0568 434.816 99.0534 434.78L98.739 431.008C98.9823 430.862 99.1836 430.655 99.3229 430.408C99.4623 430.161 99.5351 429.882 99.534 429.599C99.5327 429.375 99.4859 429.153 99.3964 428.948C99.307 428.743 99.1767 428.557 99.0135 428.404C98.8504 428.25 98.6578 428.132 98.4473 428.055C98.2369 427.978 98.0131 427.945 97.7894 427.957Z" fill="#389850"/>
<path d="M478.239 59.6937L490.128 51.7404L482.331 48.5733L478.239 59.6937Z" fill="#A8A8A8"/>
<path d="M490.624 54.2353L502.119 38.6196L483.131 51.7404L490.624 54.2353ZM502.119 38.5911L471.268 45.3423L478.529 48.1507L502.119 38.5911Z" fill="white"/>
<path d="M502.119 38.6196L483.129 51.8195L478.239 59.6937L478.465 48.0674L502.119 38.6196Z" fill="#E8E8E8"/>
<defs>
<linearGradient id="paint0_linear_94_188" x1="288.203" y1="227.871" x2="428.255" y2="227.871" gradientUnits="userSpaceOnUse">
<stop stop-color="#20BEC8"/>
<stop offset="1" stop-color="#87C65A"/>
</linearGradient>
<linearGradient id="paint1_linear_94_188" x1="288.202" y1="227.871" x2="428.254" y2="227.871" gradientUnits="userSpaceOnUse">
<stop stop-color="#20BEC8"/>
<stop offset="1" stop-color="#87C65A"/>
</linearGradient>
<linearGradient id="paint2_linear_94_188" x1="288.203" y1="227.871" x2="428.255" y2="227.871" gradientUnits="userSpaceOnUse">
<stop stop-color="#20BEC8"/>
<stop offset="1" stop-color="#87C65A"/>
</linearGradient>
<linearGradient id="paint3_linear_94_188" x1="288.202" y1="227.871" x2="428.254" y2="227.871" gradientUnits="userSpaceOnUse">
<stop stop-color="#20BEC8"/>
<stop offset="1" stop-color="#87C65A"/>
</linearGradient>
<linearGradient id="paint4_linear_94_188" x1="288.203" y1="227.871" x2="428.254" y2="227.871" gradientUnits="userSpaceOnUse">
<stop stop-color="#20BEC8"/>
<stop offset="1" stop-color="#87C65A"/>
</linearGradient>
<linearGradient id="paint5_linear_94_188" x1="288.202" y1="227.871" x2="428.254" y2="227.871" gradientUnits="userSpaceOnUse">
<stop stop-color="#20BEC8"/>
<stop offset="1" stop-color="#87C65A"/>
</linearGradient>
<linearGradient id="paint6_linear_94_188" x1="288.203" y1="227.871" x2="428.254" y2="227.871" gradientUnits="userSpaceOnUse">
<stop stop-color="#20BEC8"/>
<stop offset="1" stop-color="#87C65A"/>
</linearGradient>
<linearGradient id="paint7_linear_94_188" x1="349.958" y1="204.796" x2="359.144" y2="204.796" gradientUnits="userSpaceOnUse">
<stop stop-color="#20BEC8"/>
<stop offset="1" stop-color="#87C65A"/>
</linearGradient>
<linearGradient id="paint8_linear_94_188" x1="272.909" y1="208.937" x2="438.019" y2="208.937" gradientUnits="userSpaceOnUse">
<stop stop-color="#20BEC8"/>
<stop offset="1" stop-color="#87C65A"/>
</linearGradient>
<linearGradient id="paint9_linear_94_188" x1="272.909" y1="208.937" x2="438.019" y2="208.937" gradientUnits="userSpaceOnUse">
<stop stop-color="#20BEC8"/>
<stop offset="1" stop-color="#87C65A"/>
</linearGradient>
<linearGradient id="paint10_linear_94_188" x1="272.91" y1="208.937" x2="438.019" y2="208.937" gradientUnits="userSpaceOnUse">
<stop stop-color="#20BEC8"/>
<stop offset="1" stop-color="#87C65A"/>
</linearGradient>
<linearGradient id="paint11_linear_94_188" x1="272.91" y1="208.937" x2="438.019" y2="208.937" gradientUnits="userSpaceOnUse">
<stop stop-color="#20BEC8"/>
<stop offset="1" stop-color="#87C65A"/>
</linearGradient>
<linearGradient id="paint12_linear_94_188" x1="272.909" y1="208.937" x2="438.019" y2="208.937" gradientUnits="userSpaceOnUse">
<stop stop-color="#20BEC8"/>
<stop offset="1" stop-color="#87C65A"/>
</linearGradient>
<linearGradient id="paint13_linear_94_188" x1="272.91" y1="208.937" x2="438.019" y2="208.937" gradientUnits="userSpaceOnUse">
<stop stop-color="#20BEC8"/>
<stop offset="1" stop-color="#87C65A"/>
</linearGradient>
<linearGradient id="paint14_linear_94_188" x1="272.909" y1="208.937" x2="438.019" y2="208.937" gradientUnits="userSpaceOnUse">
<stop stop-color="#20BEC8"/>
<stop offset="1" stop-color="#87C65A"/>
</linearGradient>
<linearGradient id="paint15_linear_94_188" x1="272.91" y1="208.937" x2="438.019" y2="208.937" gradientUnits="userSpaceOnUse">
<stop stop-color="#20BEC8"/>
<stop offset="1" stop-color="#87C65A"/>
</linearGradient>
<linearGradient id="paint16_linear_94_188" x1="272.909" y1="208.937" x2="438.019" y2="208.937" gradientUnits="userSpaceOnUse">
<stop stop-color="#20BEC8"/>
<stop offset="1" stop-color="#87C65A"/>
</linearGradient>
<linearGradient id="paint17_linear_94_188" x1="272.909" y1="208.937" x2="438.019" y2="208.937" gradientUnits="userSpaceOnUse">
<stop stop-color="#20BEC8"/>
<stop offset="1" stop-color="#87C65A"/>
</linearGradient>
<linearGradient id="paint18_linear_94_188" x1="304.45" y1="332.5" x2="398.587" y2="334.563" gradientUnits="userSpaceOnUse">
<stop stop-color="#18BAD4"/>
<stop offset="0.54" stop-color="#31B680"/>
<stop offset="1" stop-color="#80C242"/>
</linearGradient>
<linearGradient id="paint19_linear_94_188" x1="141.951" y1="155.464" x2="566.926" y2="210.596" gradientUnits="userSpaceOnUse">
<stop stop-color="#18BAD4"/>
<stop offset="0.54" stop-color="#31B680"/>
<stop offset="1" stop-color="#80C242"/>
</linearGradient>
<clipPath id="clip0_94_188">
<rect width="145.068" height="44.125" fill="white" transform="translate(274 194)"/>
</clipPath>
</defs>
</svg>
