<svg width="27" height="26" viewBox="0 0 27 26" fill="none" xmlns="http://www.w3.org/2000/svg">
<path d="M18.9502 2.84375C16.9098 2.84375 15.0989 3.64914 13.8721 5.03344C12.6452 3.64914 10.8343 2.84375 8.79395 2.84375C7.01683 2.8459 5.31311 3.55281 4.0565 4.80942C2.79988 6.06604 2.09297 7.76976 2.09082 9.54688C2.09082 16.8939 12.8371 22.7642 13.2942 23.011C13.4718 23.1067 13.6703 23.1567 13.8721 23.1567C14.0738 23.1567 14.2724 23.1067 14.45 23.011C14.907 22.7642 25.6533 16.8939 25.6533 9.54688C25.6512 7.76976 24.9443 6.06604 23.6876 4.80942C22.431 3.55281 20.7273 2.8459 18.9502 2.84375ZM18.3926 17.3022C16.9781 18.5025 15.466 19.5828 13.8721 20.5319C12.2781 19.5828 10.766 18.5025 9.35152 17.3022C7.15066 15.4141 4.52832 12.5348 4.52832 9.54688C4.52832 8.41556 4.97773 7.33058 5.77769 6.53062C6.57765 5.73066 7.66263 5.28125 8.79395 5.28125C10.6018 5.28125 12.115 6.23594 12.7437 7.77359C12.8352 7.99775 12.9914 8.18957 13.1924 8.3246C13.3933 8.45963 13.63 8.53174 13.8721 8.53174C14.1142 8.53174 14.3508 8.45963 14.5518 8.3246C14.7527 8.18957 14.9089 7.99775 15.0004 7.77359C15.6291 6.23594 17.1424 5.28125 18.9502 5.28125C20.0815 5.28125 21.1665 5.73066 21.9664 6.53062C22.7664 7.33058 23.2158 8.41556 23.2158 9.54688C23.2158 12.5348 20.5935 15.4141 18.3926 17.3022Z" fill="white"/>
</svg>
