<svg width="20" height="19" viewBox="0 0 20 19" fill="none" xmlns="http://www.w3.org/2000/svg">
<path d="M4.86979 14.7708H15.2865C15.4948 14.7708 15.651 14.6753 15.7552 14.4844C15.8594 14.2934 15.842 14.1111 15.7031 13.9375L12.8385 10.1094C12.7344 9.97049 12.5955 9.90104 12.4219 9.90104C12.2483 9.90104 12.1094 9.97049 12.0052 10.1094L9.29687 13.7292L7.36979 11.151C7.26562 11.0122 7.12674 10.9427 6.95312 10.9427C6.77951 10.9427 6.64063 11.0122 6.53646 11.151L4.45312 13.9375C4.31424 14.1111 4.29688 14.2934 4.40104 14.4844C4.50521 14.6753 4.66146 14.7708 4.86979 14.7708ZM2.78646 18.9375C2.21354 18.9375 1.72292 18.7337 1.31458 18.326C0.906944 17.9177 0.703125 17.4271 0.703125 16.8542V2.27083C0.703125 1.69792 0.906944 1.20729 1.31458 0.798958C1.72292 0.391319 2.21354 0.1875 2.78646 0.1875H17.3698C17.9427 0.1875 18.4333 0.391319 18.8417 0.798958C19.2493 1.20729 19.4531 1.69792 19.4531 2.27083V16.8542C19.4531 17.4271 19.2493 17.9177 18.8417 18.326C18.4333 18.7337 17.9427 18.9375 17.3698 18.9375H2.78646Z" fill="white"/>
</svg>
