<svg width="65" height="62" viewBox="0 0 65 62" fill="none" xmlns="http://www.w3.org/2000/svg">
<g clip-path="url(#clip0_879_67738)">
<path d="M65.0001 31.1228C64.7969 31.1228 64.7283 31.3072 64.6226 31.4248C62.3897 33.896 60.1617 36.3669 57.9384 38.8376C57.7283 39.0698 57.6188 39.2862 57.6572 39.6248C58.0347 42.9709 58.3802 46.3203 58.7514 49.6671C58.7929 50.0446 58.6885 50.1704 58.3147 50.2497C55.0623 50.9224 51.8168 51.6296 48.5619 52.2997C48.1453 52.3859 47.905 52.5703 47.6998 52.9289C46.0639 55.7975 44.404 58.6548 42.768 61.5215C42.5761 61.8594 42.4327 61.962 42.0413 61.7826C38.8455 60.3292 35.6371 58.9002 32.4331 57.4643L32.4199 39.2302L32.5344 38.9974C32.554 38.9895 32.5722 38.9787 32.5886 38.9653C37.0065 34.0243 41.4255 29.0845 45.8455 24.146C46.0607 23.9057 46.0154 23.7798 45.7965 23.5898C45.0414 22.9379 44.2964 22.2804 43.5709 21.599C43.2978 21.3422 43.16 21.3901 42.9278 21.655C41.5587 23.2142 40.1719 24.7583 38.7864 26.303C36.6797 28.6521 34.5712 30.9978 32.4608 33.3401C32.4514 33.0652 32.4344 32.7908 32.4344 32.5159C32.4344 23.1854 32.4344 13.8548 32.4344 4.5239C35.6384 3.08803 38.8461 1.65907 42.0425 0.205579C42.4333 0.0281398 42.5774 0.128194 42.7699 0.466083C44.4059 3.33531 46.0645 6.19195 47.7011 9.05866C47.9062 9.41794 48.1459 9.60419 48.5631 9.68788C51.7344 10.336 54.8974 11.0237 58.0687 11.6737C58.6136 11.7851 58.8036 11.9436 58.7281 12.5735C58.3298 15.8743 58.0033 19.1834 57.6471 22.4893C57.6328 22.5823 57.6401 22.6774 57.6686 22.7672C57.6971 22.8569 57.7459 22.9388 57.8113 23.0065C60.1566 25.6006 62.4996 28.1967 64.8403 30.795C64.8762 30.8346 64.9479 30.8422 65.0027 30.8648L65.0001 31.1228Z" fill="#0ED578"/>
<path d="M32.4317 4.52523C32.4317 13.8557 32.4317 23.1863 32.4317 32.5172C32.4317 32.7922 32.4487 33.0665 32.4582 33.3415C32.4431 33.3855 32.4286 33.4302 32.4141 33.4749C31.6049 34.3709 30.7781 35.2518 29.9954 36.1704C29.677 36.548 29.5027 36.5612 29.1441 36.1975C26.5976 33.6177 24.0229 31.0643 21.4676 28.4921C21.1971 28.2203 21.0272 28.1278 20.7214 28.4632C20.0758 29.1641 19.4 29.8386 18.6991 30.4867C18.3845 30.7755 18.4675 30.9272 18.7242 31.1826C22.2844 34.7289 25.8369 38.2827 29.3819 41.8441C29.6695 42.1329 29.8173 42.1102 30.0741 41.8195C30.8404 40.9437 31.6351 40.0923 32.4191 39.2316L32.4324 57.4656C29.2089 58.9128 25.9816 60.3475 22.7663 61.811C22.3611 61.9954 22.263 61.8003 22.1006 61.5203C20.5005 58.7285 18.8759 55.9505 17.2997 53.1448C16.9851 52.5898 16.6044 52.3476 15.9941 52.2243C12.8423 51.5856 9.7019 50.8897 6.55204 50.2422C6.16759 50.163 6.07446 50.0371 6.11536 49.6652C6.48534 46.3184 6.83456 42.9691 7.20894 39.6229C7.2467 39.2857 7.13973 39.0674 6.92894 38.8345C4.69711 36.3668 2.48037 33.8845 0.235956 31.4274C-0.0786521 31.0845 -0.0786521 30.9077 0.235956 30.5635C2.4659 28.1221 4.66564 25.6556 6.8893 23.206C7.15671 22.9116 7.23537 22.6397 7.19069 22.2433C6.81694 18.9179 6.47591 15.5887 6.11033 12.2627C6.0688 11.8852 6.23177 11.8191 6.55078 11.7524C9.72015 11.0949 12.8832 10.4046 16.0551 9.75653C16.6164 9.64138 16.9782 9.41425 17.267 8.9008C18.8344 6.11526 20.4502 3.35614 22.0245 0.574372C22.2674 0.145246 22.453 0.0282032 22.9413 0.251575C26.0961 1.69626 29.2668 3.10446 32.4317 4.52523Z" fill="#04EA84"/>
<path d="M32.415 33.4746C32.4295 33.4299 32.444 33.3852 32.4591 33.3412C34.5674 30.9955 36.6759 28.6497 38.7846 26.304C40.1689 24.7593 41.5569 23.2152 42.9261 21.656C43.1583 21.3911 43.2961 21.3414 43.5692 21.6C44.2946 22.2814 45.0428 22.939 45.7947 23.5908C46.0137 23.7796 46.059 23.9054 45.8438 24.1471C41.4204 29.0826 37.0014 34.0235 32.5868 38.9695C32.5705 38.9829 32.5522 38.9937 32.5327 39.0016C32.3571 38.8009 32.4364 38.5612 32.4352 38.3353C32.4226 36.7131 32.4201 35.0935 32.415 33.4746Z" fill="#F4EFE9"/>
<path d="M32.4156 33.4733C32.4206 35.0922 32.4231 36.7119 32.4357 38.3308C32.4357 38.5542 32.3577 38.7965 32.5332 38.9972C32.4948 39.0746 32.4571 39.1526 32.4187 39.23C31.6347 40.0907 30.84 40.9421 30.0736 41.818C29.8188 42.1087 29.6709 42.1326 29.3815 41.8425C25.8386 38.2794 22.286 34.7256 18.7238 31.181C18.4671 30.9256 18.3865 30.7739 18.6986 30.4851C19.3977 29.837 20.0754 29.1638 20.7209 28.4616C21.0299 28.1262 21.1966 28.2187 21.4672 28.4905C24.0224 31.0627 26.5972 33.6148 29.1436 36.1959C29.5023 36.5596 29.6766 36.5439 29.995 36.1688C30.779 35.2502 31.6064 34.3693 32.4156 33.4733Z" fill="#FBFAF3"/>
</g>
<defs>
<clipPath id="clip0_879_67738">
<rect width="65" height="61.7627" fill="white" transform="translate(0 0.119141)"/>
</clipPath>
</defs>
</svg>
