<svg width="20" height="20" viewBox="0 0 20 20" fill="none" xmlns="http://www.w3.org/2000/svg">
<path d="M9.73094 16.7357L9.72572 16.7329L9.70761 16.7231C9.6922 16.7147 9.67015 16.7027 9.64191 16.6869C9.58544 16.6554 9.50418 16.6093 9.40167 16.549C9.19671 16.4284 8.90635 16.2508 8.559 16.0199C7.86547 15.5589 6.9388 14.8812 6.00965 14.015C4.17091 12.301 2.22266 9.75444 2.22266 6.61757C2.22266 4.27753 4.19152 2.42188 6.5682 2.42188C7.96587 2.42188 9.21734 3.06049 10.0147 4.06147C10.812 3.06049 12.0635 2.42188 13.4611 2.42188C15.8378 2.42188 17.8067 4.27753 17.8067 6.61757C17.8067 9.75444 15.8584 12.301 14.0197 14.015C13.0905 14.8812 12.1639 15.5589 11.4703 16.0199C11.123 16.2508 10.8326 16.4284 10.6277 16.549C10.5252 16.6093 10.4439 16.6554 10.3874 16.6869C10.3592 16.7027 10.3371 16.7147 10.3217 16.7231L10.3036 16.7329L10.2984 16.7357L10.2962 16.7369C10.1204 16.8303 9.90893 16.8303 9.73314 16.7369L9.73094 16.7357Z" fill="#040406"/>
</svg>
