<svg width="50" height="50" viewBox="0 0 50 50" fill="none" xmlns="http://www.w3.org/2000/svg">
<g id="Iconsax/Bold/location">
<path id="Vector" d="M42.9605 17.6041C40.773 7.97915 32.3772 3.64581 25.0022 3.64581H24.9813C17.6272 3.64581 9.21048 7.95831 7.02299 17.5833C4.58549 28.3333 11.1688 37.4375 17.1272 43.1666C19.2391 45.2108 22.063 46.3538 25.0022 46.3541C27.8355 46.3541 30.6688 45.2916 32.8563 43.1666C38.8146 37.4375 45.398 28.3541 42.9605 17.6041ZM25.0022 28.0416C24.1404 28.0416 23.287 27.8719 22.4908 27.5421C21.6946 27.2123 20.9711 26.7289 20.3618 26.1195C19.7524 25.5102 19.269 24.7867 18.9392 23.9905C18.6094 23.1943 18.4397 22.3409 18.4397 21.4791C18.4397 20.6173 18.6094 19.764 18.9392 18.9678C19.269 18.1716 19.7524 17.4481 20.3618 16.8388C20.9711 16.2294 21.6946 15.746 22.4908 15.4162C23.287 15.0864 24.1404 14.9166 25.0022 14.9166C26.7426 14.9166 28.4118 15.6081 29.6425 16.8388C30.8732 18.0695 31.5646 19.7387 31.5646 21.4791C31.5646 23.2196 30.8732 24.8888 29.6425 26.1195C28.4118 27.3502 26.7426 28.0416 25.0022 28.0416Z" fill="url(#paint0_linear_130_949)"/>
</g>
<defs>
<linearGradient id="paint0_linear_130_949" x1="6.5022" y1="35.6771" x2="44.9338" y2="33.5452" gradientUnits="userSpaceOnUse">
<stop stop-color="#18BAD4"/>
<stop offset="0.515625" stop-color="#31B680"/>
<stop offset="1" stop-color="#80C242"/>
</linearGradient>
</defs>
</svg>
