<svg width="696" height="458" viewBox="0 0 696 458" fill="none" xmlns="http://www.w3.org/2000/svg">
<path d="M221.034 71.2256C220.971 71.2256 220.91 71.2039 220.862 71.1641C220.813 71.1243 220.78 71.0689 220.768 71.0074C220.755 70.9458 220.765 70.8819 220.794 70.8265C220.824 70.7711 220.871 70.7276 220.929 70.7034C220.929 70.7034 221.639 70.4079 222.948 69.8903C223.014 69.8664 223.087 69.8693 223.151 69.8984C223.215 69.9275 223.266 69.9804 223.292 70.046C223.318 70.1116 223.317 70.1848 223.29 70.2499C223.263 70.3151 223.212 70.3672 223.147 70.3951C222.475 70.6594 221.806 70.9291 221.138 71.2041C221.105 71.2184 221.07 71.2257 221.034 71.2256ZM317.51 73.158H317.507C316.89 73.158 316.29 73.0993 315.724 72.983C315.654 72.9684 315.592 72.9266 315.552 72.8665C315.512 72.8064 315.498 72.733 315.512 72.6624C315.527 72.592 315.569 72.5304 315.63 72.4909C315.69 72.4513 315.763 72.437 315.833 72.4511C316.384 72.562 316.945 72.6169 317.507 72.6149H317.51C318.317 72.6149 319.16 72.5098 320.016 72.3021C320.086 72.2851 320.16 72.2966 320.221 72.334C320.283 72.3715 320.327 72.4319 320.344 72.5019C320.361 72.5719 320.349 72.6457 320.312 72.7072C320.274 72.7687 320.214 72.8128 320.144 72.8298C319.247 73.0473 318.36 73.158 317.51 73.158ZM435.724 72.8962H435.721C434.272 72.8808 432.822 72.8366 431.375 72.7635C431.339 72.7616 431.304 72.7528 431.272 72.7375C431.24 72.7221 431.211 72.7006 431.187 72.6741C431.163 72.6476 431.145 72.6167 431.133 72.583C431.121 72.5494 431.115 72.5138 431.117 72.4781C431.118 72.4422 431.126 72.4068 431.141 72.3741C431.156 72.3414 431.178 72.3121 431.204 72.288C431.231 72.2638 431.262 72.2454 431.296 72.2338C431.33 72.2222 431.366 72.2176 431.402 72.2204C432.85 72.2939 434.305 72.3378 435.727 72.3526C435.797 72.3559 435.863 72.3862 435.911 72.4371C435.959 72.4879 435.986 72.5555 435.986 72.6256C435.985 72.6957 435.958 72.763 435.909 72.8134C435.86 72.8638 435.794 72.8935 435.724 72.8962ZM440.061 72.8492C440.025 72.8498 439.99 72.8434 439.956 72.8303C439.923 72.8172 439.893 72.7977 439.867 72.7729C439.842 72.7481 439.821 72.7186 439.807 72.6858C439.793 72.6531 439.785 72.6179 439.785 72.5823C439.784 72.5466 439.79 72.5112 439.804 72.478C439.817 72.4448 439.836 72.4146 439.861 72.3889C439.886 72.3633 439.915 72.3428 439.948 72.3286C439.981 72.3144 440.016 72.3067 440.052 72.3061C441.502 72.2592 442.954 72.1801 444.37 72.0698C444.406 72.0668 444.441 72.0709 444.475 72.0819C444.509 72.0929 444.541 72.1105 444.568 72.1338C444.595 72.1571 444.618 72.1855 444.634 72.2175C444.65 72.2494 444.659 72.2842 444.662 72.3199C444.665 72.3555 444.66 72.3913 444.649 72.4252C444.638 72.4592 444.621 72.4906 444.598 72.5177C444.574 72.5449 444.546 72.5672 444.514 72.5833C444.483 72.5995 444.448 72.6092 444.412 72.6119C442.989 72.7226 441.528 72.8023 440.07 72.8492H440.061ZM427.062 72.4618C427.053 72.4618 427.045 72.4618 427.037 72.4608C425.594 72.3324 424.153 72.1777 422.715 71.9968C422.643 71.9878 422.578 71.9507 422.534 71.8937C422.49 71.8368 422.471 71.7646 422.48 71.6931C422.489 71.6217 422.526 71.5567 422.583 71.5126C422.64 71.4685 422.712 71.4488 422.783 71.4578C424.215 71.638 425.662 71.7932 427.085 71.9198C427.155 71.9258 427.22 71.9586 427.266 72.0111C427.312 72.0637 427.336 72.1321 427.333 72.202C427.33 72.2719 427.3 72.338 427.249 72.3864C427.199 72.4348 427.132 72.4618 427.062 72.4618ZM448.705 72.1714C448.636 72.1715 448.569 72.1452 448.519 72.0979C448.468 72.0506 448.438 71.9858 448.434 71.9167C448.429 71.8477 448.452 71.7796 448.496 71.7264C448.54 71.6732 448.603 71.6388 448.671 71.6304C450.12 71.4461 451.557 71.2241 452.943 70.9709C453.012 70.962 453.082 70.98 453.138 71.0211C453.195 71.0621 453.233 71.1232 453.245 71.1917C453.258 71.2601 453.244 71.3308 453.206 71.3892C453.168 71.4475 453.109 71.4891 453.041 71.5053C451.645 71.7605 450.198 71.9841 448.741 72.1693C448.729 72.1707 448.717 72.1714 448.705 72.1714ZM418.456 71.3818C418.441 71.3819 418.426 71.3807 418.412 71.3782C416.982 71.1465 415.556 70.8908 414.134 70.611C414.064 70.5971 414.001 70.5557 413.961 70.4958C413.921 70.436 413.906 70.3627 413.92 70.292C413.934 70.2214 413.976 70.1591 414.036 70.119C414.095 70.0789 414.169 70.0642 414.239 70.0782C415.655 70.3569 417.088 70.6141 418.499 70.8423C418.568 70.8516 418.63 70.8869 418.674 70.9409C418.717 70.9949 418.738 71.0635 418.733 71.1326C418.727 71.2017 418.695 71.266 418.644 71.3123C418.592 71.3587 418.525 71.3835 418.456 71.3818ZM324.054 71.1414C323.995 71.1409 323.938 71.1215 323.892 71.0861C323.845 71.0508 323.811 71.0013 323.794 70.945C323.778 70.8888 323.78 70.8287 323.801 70.7738C323.821 70.7189 323.859 70.672 323.908 70.6401C325.17 69.8413 326.243 68.8573 327.01 67.7946C327.054 67.7405 327.117 67.7053 327.186 67.6961C327.255 67.6869 327.324 67.7044 327.381 67.7451C327.437 67.7859 327.476 67.8466 327.489 67.915C327.502 67.9833 327.488 68.054 327.451 68.1126C326.643 69.2314 325.519 70.2645 324.199 71.0995C324.155 71.1269 324.105 71.1414 324.054 71.1414ZM312.097 70.8591C312.057 70.8592 312.018 70.8506 311.982 70.8339C311.947 70.8173 311.915 70.7929 311.89 70.7626C311.298 70.0634 310.831 69.2151 310.503 68.2417C310.335 67.7459 310.19 67.2424 310.069 66.7329C310.061 66.6982 310.06 66.6622 310.066 66.6271C310.071 66.5919 310.084 66.5582 310.103 66.5279C310.122 66.4976 310.146 66.4713 310.175 66.4504C310.204 66.4296 310.237 66.4147 310.271 66.4065C310.306 66.3983 310.342 66.397 310.377 66.4028C310.412 66.4085 310.446 66.4211 310.476 66.4398C310.507 66.4586 310.533 66.4831 310.554 66.512C310.574 66.5409 310.589 66.5737 310.598 66.6084C310.71 67.0851 310.852 67.5766 311.017 68.0681C311.324 68.9767 311.757 69.7653 312.304 70.412C312.338 70.4515 312.359 70.4999 312.366 70.5513C312.373 70.6026 312.365 70.655 312.344 70.702C312.322 70.749 312.287 70.7888 312.243 70.8166C312.199 70.8445 312.149 70.8592 312.097 70.8591ZM457.234 70.6049C457.168 70.6046 457.104 70.5802 457.055 70.5362C457.006 70.4922 456.974 70.4317 456.966 70.366C456.958 70.3004 456.974 70.2341 457.012 70.1796C457.049 70.1251 457.105 70.0861 457.169 70.07C458.568 69.7271 459.954 69.3366 461.325 68.8991C461.394 68.8772 461.469 68.8834 461.533 68.9164C461.597 68.9495 461.645 69.0066 461.667 69.0752C461.689 69.1438 461.683 69.2184 461.65 69.2824C461.616 69.3464 461.559 69.3947 461.491 69.4167C460.107 69.8584 458.709 70.2523 457.298 70.5978C457.277 70.6024 457.256 70.6048 457.234 70.6049ZM409.946 69.7081C409.925 69.7083 409.904 69.7059 409.884 69.701C408.473 69.3739 407.067 69.0246 405.666 68.6531C405.632 68.6439 405.6 68.6281 405.571 68.6064C405.543 68.5848 405.519 68.5578 405.501 68.5269C405.483 68.496 405.472 68.462 405.467 68.4266C405.462 68.3912 405.464 68.3553 405.474 68.3208C405.483 68.2863 405.498 68.254 405.52 68.2256C405.542 68.1973 405.569 68.1734 405.6 68.1555C405.63 68.1376 405.665 68.1259 405.7 68.1212C405.735 68.1165 405.771 68.1187 405.806 68.1279C407.198 68.4974 408.611 68.8486 410.007 69.1717C410.072 69.1864 410.129 69.2247 410.168 69.2792C410.207 69.3337 410.224 69.4006 410.217 69.4671C410.209 69.5336 410.177 69.595 410.127 69.6395C410.077 69.6839 410.013 69.7084 409.946 69.7081ZM227.093 68.8547C227.03 68.8545 226.968 68.832 226.92 68.7912C226.871 68.7505 226.838 68.6939 226.827 68.6315C226.815 68.569 226.826 68.5045 226.857 68.4491C226.889 68.3938 226.938 68.3511 226.997 68.3285C228.353 67.8178 229.713 67.3161 231.075 66.8232C231.142 66.8031 231.213 66.8093 231.276 66.8406C231.338 66.8718 231.386 66.9257 231.409 66.9912C231.433 67.0566 231.431 67.1287 231.403 67.1925C231.375 67.2563 231.324 67.307 231.26 67.3342C229.9 67.8263 228.543 68.3272 227.19 68.8368C227.159 68.8487 227.126 68.8547 227.093 68.8547ZM465.483 67.9431C465.42 67.9426 465.36 67.9205 465.311 67.8806C465.263 67.8407 465.23 67.7854 465.218 67.724C465.206 67.6626 465.215 67.5988 465.245 67.5436C465.274 67.4883 465.321 67.4448 465.379 67.4204C466.708 66.8745 468.009 66.2627 469.277 65.5875C469.309 65.5707 469.343 65.5602 469.379 65.5566C469.414 65.5531 469.45 65.5566 469.484 65.5669C469.518 65.5772 469.55 65.5941 469.578 65.6167C469.605 65.6393 469.628 65.6671 469.645 65.6985C469.662 65.73 469.672 65.7644 469.676 65.7999C469.679 65.8354 469.676 65.8713 469.666 65.9054C469.655 65.9396 469.638 65.9713 469.616 65.999C469.593 66.0266 469.566 66.0494 469.534 66.0663C468.25 66.7503 466.932 67.3698 465.586 67.9227C465.553 67.9363 465.518 67.9433 465.483 67.9431ZM401.562 67.4837C401.535 67.4837 401.509 67.4799 401.484 67.4725C400.106 67.0596 398.712 66.6186 397.34 66.1622C397.275 66.1369 397.222 66.0876 397.193 66.0243C397.163 65.9611 397.159 65.8888 397.181 65.8226C397.203 65.7563 397.25 65.7011 397.311 65.6683C397.373 65.6356 397.445 65.6279 397.512 65.6467C398.879 66.102 400.268 66.541 401.64 66.9524C401.703 66.9706 401.757 67.011 401.792 67.0661C401.828 67.1212 401.842 67.1873 401.833 67.2521C401.823 67.3169 401.79 67.3761 401.741 67.4187C401.691 67.4613 401.627 67.4844 401.562 67.4837ZM235.26 65.8994C235.195 65.8995 235.133 65.8768 235.084 65.8353C235.035 65.7938 235.002 65.7363 234.992 65.6729C234.981 65.6095 234.993 65.5444 235.026 65.4891C235.059 65.4339 235.11 65.392 235.171 65.3711C236.539 64.8954 237.91 64.4284 239.284 63.97C239.35 63.9524 239.421 63.9608 239.482 63.9937C239.543 64.0265 239.589 64.0813 239.611 64.1469C239.633 64.2124 239.629 64.2839 239.6 64.3467C239.571 64.4095 239.52 64.459 239.456 64.485C238.084 64.9432 236.715 65.4095 235.349 65.8841C235.32 65.8941 235.29 65.8993 235.26 65.8994ZM393.332 64.7433C393.3 64.7435 393.269 64.7377 393.239 64.7264C391.879 64.2278 390.526 63.7093 389.181 63.1712C389.148 63.158 389.118 63.1383 389.092 63.1134C389.067 63.0885 389.046 63.0588 389.032 63.026C389.018 62.9932 389.011 62.958 389.01 62.9223C389.01 62.8866 389.016 62.8511 389.03 62.818C389.043 62.7849 389.063 62.7546 389.088 62.7291C389.112 62.7035 389.142 62.6831 389.175 62.6691C389.208 62.655 389.243 62.6475 389.279 62.647C389.314 62.6466 389.35 62.6532 389.383 62.6664C390.723 63.2025 392.071 63.7193 393.426 64.2165C393.486 64.2378 393.537 64.28 393.57 64.3355C393.602 64.391 393.614 64.4563 393.603 64.5196C393.592 64.5829 393.558 64.6402 393.509 64.6812C393.459 64.7221 393.397 64.7442 393.332 64.7433ZM328.638 64.2007C328.567 64.2007 328.498 64.1722 328.447 64.1215C328.396 64.0708 328.367 64.002 328.367 63.9302C328.361 62.6087 327.872 61.3271 326.916 60.1199C326.871 60.0636 326.851 59.9917 326.859 59.9202C326.867 59.8487 326.903 59.7834 326.96 59.7387C327.016 59.6939 327.088 59.6734 327.159 59.6816C327.231 59.6899 327.296 59.7262 327.341 59.7826C328.375 61.0872 328.903 62.4816 328.91 63.9276C328.91 63.9997 328.882 64.0689 328.831 64.1201C328.78 64.1713 328.712 64.2003 328.639 64.2007H328.638ZM473.096 63.8245C473.039 63.8242 472.983 63.8058 472.937 63.7717C472.89 63.7377 472.856 63.6899 472.839 63.6351C472.821 63.5804 472.821 63.5215 472.839 63.467C472.858 63.4124 472.892 63.365 472.939 63.3315C474.165 62.4576 475.267 61.5282 476.213 60.5681C476.265 60.523 476.332 60.4991 476.401 60.5013C476.469 60.5034 476.535 60.5314 476.584 60.5797C476.633 60.6279 476.661 60.6929 476.665 60.7615C476.668 60.8302 476.645 60.8975 476.6 60.9499C475.632 61.9324 474.506 62.8823 473.254 63.7745C473.208 63.807 473.153 63.8245 473.096 63.8245ZM243.496 63.1498C243.431 63.1499 243.368 63.1268 243.319 63.0846C243.27 63.0425 243.237 62.9841 243.227 62.9201C243.217 62.856 243.23 62.7905 243.265 62.7353C243.299 62.6802 243.351 62.6391 243.413 62.6194C244.793 62.1778 246.175 61.7453 247.56 61.322C247.627 61.306 247.698 61.3162 247.758 61.3506C247.818 61.3849 247.863 61.4408 247.883 61.5069C247.903 61.5729 247.898 61.6443 247.867 61.7063C247.837 61.7684 247.784 61.8166 247.719 61.8411C246.336 62.264 244.956 62.6958 243.579 63.1365C243.552 63.1453 243.524 63.1498 243.496 63.1498ZM310.031 62.6378C309.993 62.6378 309.955 62.6297 309.92 62.614C309.885 62.5984 309.854 62.5756 309.829 62.5471C309.803 62.5186 309.784 62.485 309.772 62.4486C309.76 62.4122 309.757 62.3737 309.761 62.3357C309.924 60.857 310.399 59.4299 311.155 58.1487C311.173 58.1179 311.197 58.0909 311.226 58.0693C311.254 58.0478 311.287 58.0321 311.321 58.0232C311.356 58.0143 311.392 58.0123 311.427 58.0174C311.463 58.0224 311.497 58.0345 311.527 58.0528C311.558 58.0708 311.585 58.0948 311.606 58.1233C311.628 58.1518 311.644 58.1843 311.653 58.2189C311.661 58.2534 311.663 58.2894 311.658 58.3248C311.653 58.3601 311.641 58.3941 311.623 58.4248C310.906 59.6403 310.456 60.9942 310.301 62.3969C310.293 62.4631 310.262 62.5242 310.212 62.5686C310.162 62.613 310.098 62.6377 310.031 62.6378ZM385.267 61.5471C385.232 61.5469 385.197 61.5401 385.165 61.5272C383.827 60.9859 382.483 60.4579 381.134 59.9433C381.067 59.9178 381.012 59.8665 380.983 59.8007C380.953 59.735 380.951 59.6603 380.977 59.5929C381.002 59.5256 381.053 59.4712 381.119 59.4416C381.185 59.4121 381.259 59.4099 381.327 59.4355C382.657 59.9428 384.016 60.4772 385.369 61.0239C385.426 61.048 385.474 61.0913 385.504 61.1465C385.533 61.2017 385.543 61.2654 385.531 61.3269C385.519 61.3884 385.486 61.4439 385.438 61.484C385.39 61.5241 385.33 61.5464 385.267 61.5471ZM251.799 60.612C251.733 60.6124 251.67 60.589 251.62 60.5461C251.57 60.5032 251.537 60.4436 251.528 60.3786C251.519 60.3135 251.534 60.2473 251.57 60.1922C251.605 60.1371 251.66 60.097 251.723 60.0791C253.114 59.6742 254.508 59.2795 255.904 58.8949C255.973 58.8758 256.048 58.885 256.11 58.9206C256.173 58.9561 256.219 59.0151 256.238 59.0846C256.257 59.154 256.248 59.2282 256.212 59.2909C256.177 59.3535 256.118 59.3995 256.048 59.4186C254.654 59.803 253.263 60.197 251.875 60.6007C251.85 60.6082 251.825 60.612 251.799 60.612ZM377.162 58.458C377.131 58.458 377.1 58.4526 377.071 58.4422C375.699 57.9522 374.321 57.4775 372.976 57.0304C372.942 57.0192 372.911 57.0014 372.884 56.978C372.857 56.9547 372.835 56.9263 372.819 56.8944C372.803 56.8626 372.793 56.8278 372.791 56.7923C372.788 56.7567 372.792 56.721 372.804 56.6871C372.815 56.6533 372.833 56.622 372.856 56.595C372.879 56.568 372.908 56.5459 372.94 56.5299C372.971 56.5139 373.006 56.5044 373.042 56.5018C373.077 56.4992 373.113 56.5036 373.147 56.5149C374.496 56.963 375.877 57.4392 377.253 57.9308C377.314 57.9523 377.364 57.9944 377.397 58.0497C377.429 58.1049 377.44 58.1698 377.43 58.2328C377.419 58.2959 377.386 58.353 377.337 58.3942C377.288 58.4354 377.226 58.458 377.162 58.458ZM260.169 58.308C260.103 58.3074 260.039 58.283 259.99 58.2393C259.941 58.1956 259.909 58.1355 259.901 58.0702C259.893 58.0048 259.908 57.9387 259.945 57.8841C259.982 57.8295 260.037 57.79 260.101 57.773C261.503 57.4095 262.908 57.0576 264.316 56.7175C264.385 56.7029 264.457 56.7159 264.517 56.7537C264.577 56.7914 264.619 56.8509 264.636 56.9196C264.653 56.9883 264.642 57.0608 264.606 57.1216C264.57 57.1824 264.511 57.2268 264.443 57.2453C263.028 57.5873 261.624 57.9394 260.237 58.2988C260.215 58.305 260.192 58.3081 260.169 58.308ZM323.852 57.4142C323.801 57.4142 323.751 57.3999 323.707 57.3729C323.044 56.961 322.36 56.5848 321.657 56.2459C321.072 55.9623 320.479 55.6976 319.877 55.4522C319.813 55.4236 319.762 55.371 319.736 55.3055C319.709 55.2401 319.709 55.1669 319.736 55.1016C319.762 55.0362 319.813 54.9838 319.878 54.9554C319.943 54.927 320.016 54.9248 320.082 54.9494C320.695 55.1994 321.299 55.4688 321.895 55.7574C322.615 56.1051 323.316 56.4906 323.996 56.9125C324.046 56.9437 324.084 56.9904 324.105 57.0455C324.126 57.1005 324.129 57.1609 324.113 57.2176C324.096 57.2742 324.062 57.324 324.015 57.3595C323.968 57.395 323.911 57.4142 323.852 57.4142ZM268.607 56.2719C268.54 56.2724 268.475 56.2479 268.425 56.2033C268.375 56.1586 268.343 56.0969 268.336 56.0301C268.328 55.9633 268.346 55.8962 268.385 55.8417C268.425 55.7872 268.483 55.7491 268.548 55.7349C269.984 55.4154 271.413 55.1122 272.797 54.8325C272.866 54.8231 272.935 54.8402 272.992 54.8803C273.048 54.9204 273.087 54.9805 273.101 55.0484C273.114 55.1162 273.102 55.1867 273.065 55.2455C273.029 55.3044 272.971 55.347 272.904 55.3649C271.489 55.6511 270.076 55.9512 268.666 56.2653C268.647 56.2698 268.627 56.272 268.607 56.2719ZM368.929 55.7263C368.902 55.7263 368.875 55.7224 368.849 55.7145C367.469 55.2925 366.083 54.8883 364.692 54.5018C364.623 54.4825 364.564 54.4364 364.528 54.3737C364.493 54.3109 364.484 54.2366 364.503 54.1672C364.522 54.0978 364.568 54.0388 364.631 54.0034C364.694 53.9679 364.768 53.9588 364.838 53.9781C366.206 54.3578 367.609 54.7672 369.009 55.1949C369.071 55.2139 369.124 55.2546 369.159 55.3097C369.194 55.3648 369.208 55.4305 369.198 55.495C369.188 55.5594 369.156 55.6182 369.106 55.6607C369.057 55.7031 368.994 55.7264 368.929 55.7263ZM314.232 55.3179C314.175 55.3186 314.12 55.3016 314.074 55.2694C314.028 55.2371 313.992 55.1912 313.974 55.1381C313.955 55.0849 313.953 55.0272 313.968 54.9729C313.984 54.9187 314.016 54.8707 314.06 54.8356C314.452 54.518 314.859 54.2193 315.279 53.9403C314.061 53.6263 312.831 53.3622 311.592 53.1487C311.556 53.1426 311.523 53.1296 311.493 53.1105C311.463 53.0914 311.437 53.0666 311.416 53.0374C311.396 53.0083 311.381 52.9754 311.374 52.9406C311.366 52.9058 311.365 52.8699 311.371 52.8348C311.377 52.7995 311.39 52.7657 311.409 52.7354C311.428 52.7052 311.452 52.679 311.482 52.6584C311.511 52.6378 311.544 52.6233 311.579 52.6156C311.614 52.6079 311.65 52.6073 311.685 52.6138C313.151 52.869 314.57 53.1818 315.902 53.5442C316.515 53.1727 317.147 52.834 317.795 52.5295C317.828 52.5128 317.863 52.5028 317.9 52.5001C317.936 52.4974 317.972 52.5021 318.007 52.5138C318.042 52.5255 318.073 52.5441 318.101 52.5684C318.128 52.5927 318.15 52.6222 318.165 52.6552C318.181 52.6882 318.19 52.724 318.191 52.7605C318.192 52.7969 318.186 52.8333 318.173 52.8674C318.161 52.9015 318.141 52.9326 318.116 52.9589C318.09 52.9852 318.06 53.0062 318.026 53.0206C316.649 53.6703 315.43 54.4232 314.403 55.2577C314.354 55.2967 314.294 55.318 314.232 55.3179ZM277.116 54.5559C277.048 54.556 276.983 54.5307 276.932 54.4848C276.882 54.4389 276.851 54.3759 276.845 54.3082C276.839 54.2404 276.859 54.1729 276.9 54.119C276.942 54.0651 277.002 54.0286 277.069 54.0169C278.521 53.7566 279.964 53.5151 281.358 53.2998C281.394 53.2943 281.43 53.2959 281.464 53.3044C281.499 53.3128 281.532 53.3281 281.56 53.3492C281.589 53.3702 281.613 53.3968 281.632 53.4273C281.65 53.4578 281.663 53.4916 281.668 53.5269C281.674 53.5621 281.672 53.5981 281.664 53.6328C281.655 53.6674 281.64 53.7001 281.619 53.7288C281.598 53.7576 281.571 53.7819 281.541 53.8004C281.51 53.819 281.476 53.8313 281.441 53.8367C280.052 54.0511 278.612 54.2915 277.164 54.5518C277.148 54.5544 277.132 54.5558 277.116 54.5559ZM360.571 53.409C360.549 53.409 360.527 53.4063 360.505 53.4008C359.105 53.0532 357.699 52.727 356.288 52.4223C356.253 52.4148 356.22 52.4005 356.191 52.3802C356.162 52.3599 356.137 52.334 356.117 52.304C356.098 52.2739 356.085 52.2404 356.078 52.2053C356.072 52.1701 356.073 52.1341 356.08 52.0993C356.088 52.0642 356.102 52.0309 356.122 52.0014C356.142 51.9719 356.168 51.9466 356.198 51.9272C356.228 51.9078 356.262 51.8946 356.297 51.8884C356.332 51.8822 356.368 51.8831 356.403 51.891C357.793 52.1911 359.218 52.5214 360.636 52.8736C360.701 52.8892 360.757 52.9281 360.795 52.9828C360.833 53.0376 360.85 53.1043 360.842 53.1703C360.834 53.2364 360.801 53.2972 360.752 53.3412C360.702 53.3852 360.637 53.4093 360.571 53.409ZM285.697 53.2349C285.627 53.2362 285.56 53.2103 285.508 53.1628C285.457 53.1154 285.426 53.0499 285.421 52.98C285.417 52.9102 285.44 52.8414 285.485 52.788C285.53 52.7346 285.594 52.7007 285.664 52.6934C287.13 52.5081 288.584 52.3468 289.986 52.2136C290.057 52.2084 290.128 52.2309 290.183 52.2764C290.238 52.322 290.274 52.387 290.282 52.4581C290.285 52.4936 290.282 52.5295 290.271 52.5636C290.261 52.5977 290.244 52.6294 290.221 52.6569C290.198 52.6844 290.17 52.7071 290.139 52.7238C290.107 52.7405 290.073 52.7508 290.037 52.7541C288.641 52.8868 287.193 53.0476 285.732 53.2324C285.72 53.2342 285.709 53.2351 285.697 53.2349ZM307.34 52.578C305.897 52.4407 304.45 52.3472 303.002 52.2978C302.93 52.2953 302.862 52.2643 302.813 52.2117C302.763 52.159 302.737 52.0891 302.74 52.0171C302.745 51.867 302.878 51.7409 303.021 51.7552C304.513 51.8073 305.975 51.9017 307.366 52.036C307.435 52.042 307.5 52.0749 307.546 52.1277C307.593 52.1805 307.617 52.2492 307.613 52.3193C307.61 52.3893 307.58 52.4554 307.529 52.5037C307.478 52.5519 307.41 52.5786 307.34 52.578ZM294.338 52.4234C294.266 52.4254 294.196 52.3987 294.143 52.3492C294.117 52.3247 294.097 52.2954 294.082 52.2628C294.067 52.2303 294.059 52.1951 294.058 52.1595C294.057 52.1238 294.063 52.0883 294.076 52.055C294.089 52.0217 294.108 51.9912 294.132 51.9652C294.182 51.9129 294.25 51.8823 294.322 51.8803C295.802 51.794 297.265 51.7389 298.671 51.7169C298.84 51.7246 298.944 51.8343 298.947 51.9844C298.948 52.0565 298.92 52.126 298.87 52.1778C298.82 52.2296 298.751 52.2593 298.679 52.2605C297.282 52.2825 295.827 52.3371 294.354 52.4229L294.338 52.4234ZM352.092 51.5832C352.075 51.5831 352.059 51.5817 352.043 51.5791C350.602 51.3183 349.165 51.0851 347.772 50.886C347.737 50.881 347.703 50.869 347.672 50.8509C347.641 50.8327 347.614 50.8087 347.593 50.7801C347.571 50.7516 347.556 50.7191 347.547 50.6846C347.538 50.65 347.536 50.614 347.541 50.5787C347.546 50.5434 347.558 50.5094 347.576 50.4787C347.594 50.448 347.619 50.4212 347.647 50.3997C347.676 50.3783 347.708 50.3627 347.743 50.3538C347.777 50.345 347.813 50.343 347.848 50.348C349.249 50.5481 350.692 50.7824 352.14 51.0442C352.206 51.0571 352.264 51.094 352.305 51.1478C352.345 51.2015 352.364 51.2684 352.358 51.3353C352.352 51.4023 352.322 51.4647 352.273 51.5105C352.223 51.5562 352.159 51.5822 352.092 51.5832ZM321.973 51.5434C321.908 51.5429 321.845 51.5189 321.796 51.476C321.747 51.433 321.715 51.3738 321.706 51.3093C321.697 51.2447 321.712 51.1791 321.747 51.1242C321.782 51.0694 321.836 51.0291 321.898 51.0105C323.3 50.6154 324.723 50.301 326.161 50.0688C326.232 50.058 326.304 50.0754 326.363 50.1173C326.421 50.1592 326.461 50.2222 326.473 50.2929C326.485 50.364 326.468 50.4369 326.426 50.4954C326.384 50.554 326.32 50.5935 326.249 50.6053C324.832 50.8339 323.429 51.1437 322.047 51.5332C322.023 51.5399 321.998 51.5433 321.973 51.5434ZM343.506 50.3638C342.062 50.2187 340.615 50.1086 339.167 50.0336C339.131 50.0318 339.096 50.0229 339.064 50.0076C339.032 49.9923 339.003 49.9707 338.979 49.9442C338.955 49.9177 338.937 49.8868 338.925 49.8532C338.913 49.8195 338.908 49.7839 338.91 49.7483C338.917 49.5987 339.024 49.4823 339.194 49.4905C340.598 49.5625 342.057 49.6738 343.532 49.8213C343.681 49.8361 343.79 49.9693 343.775 50.1188C343.769 50.1859 343.737 50.2482 343.688 50.2935C343.638 50.3388 343.573 50.3639 343.506 50.3638ZM330.512 50.1025C330.443 50.1005 330.377 50.0723 330.328 50.0237C330.279 49.975 330.25 49.9096 330.248 49.8405C330.245 49.7715 330.269 49.7041 330.314 49.652C330.36 49.5999 330.423 49.567 330.492 49.5599C331.94 49.4526 333.392 49.3954 334.844 49.3884H334.845C334.881 49.3883 334.916 49.3952 334.949 49.4088C334.982 49.4224 335.012 49.4423 335.037 49.4674C335.063 49.4926 335.083 49.5224 335.097 49.5553C335.11 49.5883 335.117 49.6235 335.118 49.6592C335.118 49.6949 335.111 49.7302 335.097 49.7632C335.084 49.7962 335.064 49.8262 335.039 49.8514C335.013 49.8767 334.984 49.8968 334.951 49.9105C334.918 49.9243 334.883 49.9314 334.847 49.9315C333.364 49.9402 331.912 49.9974 330.533 50.1015L330.512 50.1025ZM479.091 57.5847C479.043 57.5847 478.996 57.572 478.955 57.5479C478.913 57.5239 478.879 57.4894 478.855 57.4478C478.832 57.4063 478.819 57.3592 478.82 57.3113C478.82 57.2635 478.833 57.2166 478.857 57.1753C479.218 56.5637 479.53 55.9248 479.791 55.2643C479.821 55.2019 479.873 55.153 479.937 55.1275C480.001 55.102 480.073 55.1018 480.137 55.1271C480.202 55.1523 480.254 55.201 480.284 55.2633C480.313 55.3257 480.318 55.397 480.298 55.4629C480.026 56.15 479.701 56.8148 479.325 57.451C479.301 57.4917 479.267 57.5255 479.226 57.5489C479.185 57.5724 479.138 57.5847 479.091 57.5847Z" fill="white"/>
<path d="M146.017 102.714H142.989C142.14 98.8437 140.714 95.1232 138.76 91.677L141.271 89.1657C145.022 85.4141 145.022 79.331 141.271 75.5789C137.52 71.8269 131.439 71.8269 127.688 75.5789L125.544 77.7237C122.212 75.5839 118.576 73.9604 114.759 72.9084L114.755 72.9074V69.3564C114.755 64.0507 110.455 59.7494 105.151 59.7494C99.8465 59.7494 95.5459 64.0507 95.5459 69.3564V72.3858C91.6772 73.2349 87.9579 74.6606 84.5125 76.6151L82.002 74.1038C78.2516 70.3518 72.1702 70.3518 68.4193 74.1038C64.6683 77.8559 64.6683 83.9385 68.4193 87.6906L70.5624 89.8344C68.4227 93.1677 66.7994 96.8055 65.7476 100.625L65.747 100.628H62.1987C56.8945 100.628 52.5945 104.929 52.5945 110.235C52.5945 115.541 56.8945 119.842 62.1987 119.842H65.225C66.0738 123.713 67.4993 127.434 69.4536 130.881L66.9451 133.39C63.1942 137.142 63.1942 143.225 66.9451 146.977C70.6961 150.729 76.7769 150.729 80.5279 146.977L82.6638 144.84C86.0034 146.973 89.642 148.597 93.46 149.658V153.2C93.46 158.506 97.76 162.807 103.064 162.807C108.369 162.807 112.668 158.506 112.668 153.2V150.173C116.538 149.324 120.258 147.898 123.703 145.942L126.212 148.452C129.963 152.204 136.044 152.204 139.795 148.452C143.545 144.7 143.545 138.617 139.795 134.865L137.658 132.727L137.658 132.727C139.79 129.386 141.414 125.747 142.474 121.928H146.016C151.32 121.928 155.62 117.627 155.62 112.321C155.621 107.015 151.321 102.714 146.017 102.714ZM132.704 111.279C132.704 127.073 119.897 139.885 104.107 139.885C88.317 139.885 75.5089 127.073 75.5089 111.279C75.5089 95.4755 88.317 82.6732 104.107 82.6732C119.897 82.6732 132.704 95.4755 132.704 111.279Z" fill="white"/>
<path d="M86.033 111.279C86.033 121.264 94.1252 129.358 104.107 129.358C114.089 129.358 122.19 121.264 122.19 111.279C122.19 101.294 114.089 93.1903 104.107 93.1903C94.1247 93.1903 86.033 101.294 86.033 111.279Z" fill="white"/>
<path d="M225.796 66.6762H223.816C223.262 64.1455 222.329 61.7125 221.051 59.4589L222.693 57.8169C225.146 55.3634 225.146 51.3857 222.693 48.9326C220.24 46.4791 216.264 46.4791 213.811 48.9326L212.409 50.3352C210.23 48.936 207.853 47.8745 205.357 47.1865L205.354 47.186V44.8636C205.354 41.3938 202.542 38.5814 199.074 38.5814C195.605 38.5814 192.793 41.3938 192.793 44.8636V46.8445C190.264 47.3997 187.832 48.3319 185.579 49.6099L183.937 47.9679C181.485 45.5144 177.508 45.5144 175.056 47.9679C172.603 50.4215 172.603 54.3992 175.056 56.8523L176.457 58.2539C175.058 60.4334 173.996 62.8122 173.309 65.3093L173.308 65.3114H170.988C167.519 65.3114 164.708 68.1238 164.708 71.5936C164.708 75.0634 167.52 77.8758 170.988 77.8758H172.967C173.522 80.4068 174.454 82.8401 175.732 85.0941L174.091 86.7351C171.638 89.1887 171.638 93.1664 174.091 95.6194C176.544 98.073 180.521 98.073 182.973 95.6194L184.37 94.2219L184.372 94.2229C186.555 95.6176 188.934 96.6791 191.43 97.3727V99.6885C191.43 103.158 194.242 105.971 197.71 105.971C201.179 105.971 203.991 103.158 203.991 99.6885V97.7096C206.521 97.1542 208.953 96.2218 211.207 94.9436L212.847 96.5846C215.3 99.0382 219.277 99.0382 221.729 96.5846C224.182 94.131 224.182 90.1534 221.729 87.7003L220.331 86.3023L220.332 86.3018C221.726 84.1176 222.788 81.7378 223.481 79.2407H225.797C229.266 79.2407 232.077 76.4277 232.077 72.9584C232.077 69.4891 229.265 66.6762 225.796 66.6762ZM217.092 72.277C217.092 82.6053 208.717 90.9828 198.392 90.9828C188.067 90.9828 179.691 82.6053 179.691 72.277C179.691 61.9431 188.067 53.5713 198.392 53.5713C208.717 53.5718 217.092 61.9431 217.092 72.277Z" fill="#ECECEC"/>
<path d="M186.573 72.277C186.573 78.8063 191.864 84.0993 198.392 84.0993C204.919 84.0993 210.217 78.8063 210.217 72.277C210.217 65.7478 204.919 60.4486 198.392 60.4486C191.864 60.4492 186.573 65.7478 186.573 72.277Z" fill="#ECECEC"/>
<path d="M585.003 134.963V420.605C585.003 424.937 581.596 428.448 577.385 428.448H117.971C113.76 428.448 110.344 424.937 110.344 420.605V134.963C110.344 130.631 113.76 127.12 117.971 127.12H577.385C581.597 127.12 585.003 130.631 585.003 134.963Z" fill="#B5BDFF"/>
<path d="M595.352 135.106V425.97C595.352 430.381 591.786 433.956 587.378 433.956H106.474C102.066 433.956 98.4907 430.381 98.4907 425.97V135.106C98.4907 130.696 102.066 127.12 106.474 127.12H587.378C591.786 127.12 595.352 130.695 595.352 135.106Z" fill="white"/>
<path d="M339.269 114.262C339.269 109.251 343.298 105.189 348.266 105.189C353.236 105.189 357.265 109.251 357.265 114.262C357.265 119.274 353.236 123.336 348.266 123.336C343.298 123.335 339.269 119.274 339.269 114.262Z" fill="#999999"/>
<path d="M623.87 461.994H72.6637C69.2256 461.994 66.438 456.635 66.438 450.023C66.438 443.412 69.2256 438.051 72.6637 438.051H623.87C627.308 438.051 630.094 443.412 630.094 450.023C630.094 456.635 627.308 461.994 623.87 461.994Z" fill="#2D2D2D"/>
<path d="M590.926 100.223H102.916C98.9039 100.223 95.6494 103.505 95.6494 107.551V430.719C95.6494 434.764 98.9044 438.046 102.916 438.046H590.926C594.938 438.046 598.193 434.764 598.193 430.719V107.551C598.193 103.505 594.938 100.223 590.926 100.223ZM593.365 423.874C593.365 428.254 589.839 431.804 585.479 431.804H109.878C105.518 431.804 101.982 428.254 101.982 423.874V135.05C101.982 130.67 105.518 127.12 109.878 127.12H585.479C589.839 127.12 593.365 130.67 593.365 135.05V423.874Z" fill="#2D2D2D"/>
<path d="M383.005 254.895C401.657 236.238 401.656 205.988 383.004 187.331C364.352 168.673 334.111 168.674 315.459 187.332C296.808 205.99 296.808 236.239 315.461 254.897C334.113 273.554 364.354 273.553 383.005 254.895Z" fill="url(#paint0_linear_21_1139)"/>
<path d="M348.525 226.146C358.765 226.146 367.066 217.842 367.066 207.599C367.066 197.356 358.765 189.052 348.525 189.052C338.284 189.052 329.983 197.356 329.983 207.599C329.983 217.842 338.284 226.146 348.525 226.146Z" fill="white"/>
<path d="M365.531 226.296C364.038 225.129 361.953 225.171 360.486 226.368C357.178 229.072 353.037 230.547 348.765 230.541C344.629 230.55 340.611 229.165 337.359 226.61C335.863 225.436 333.743 225.46 332.3 226.697C328.56 229.906 326.282 234.533 326.282 240.547V241.089C326.282 244.199 328.802 246.721 331.911 246.721H366.56C369.669 246.721 372.19 244.199 372.19 241.089V240.547C372.19 234.276 369.646 229.511 365.531 226.296Z" fill="white"/>
<path d="M315.953 299.327H246.131C244.402 299.327 243 296.976 243 294.075V291.252C243 288.351 244.402 286 246.131 286H315.953C317.682 286 319.084 288.351 319.084 291.252V294.075C319.084 296.976 317.682 299.327 315.953 299.327ZM315.953 330H246.34C244.61 330 243.209 327.649 243.209 324.748V321.925C243.209 319.024 244.61 316.673 246.34 316.673H315.953C317.682 316.673 319.084 319.024 319.084 321.925V324.748C319.084 327.648 317.682 330 315.953 330ZM334.869 299.327H326.25C324.521 299.327 323.119 296.976 323.119 294.075V291.252C323.119 288.351 324.521 286 326.25 286H334.869C336.598 286 338 288.351 338 291.252V294.075C338 296.976 336.598 299.327 334.869 299.327ZM334.869 330H326.25C324.521 330 323.119 327.649 323.119 324.748V321.925C323.119 319.024 324.521 316.673 326.25 316.673H334.869C336.598 316.673 338 319.024 338 321.925V324.748C338 327.648 336.598 330 334.869 330Z" fill="#62BD5A"/>
<path d="M248.453 322.453C248.163 322.743 248 323.137 248 323.547C248 323.957 248.163 324.351 248.453 324.641C248.743 324.931 249.136 325.094 249.547 325.094C249.957 325.094 250.35 324.931 250.64 324.641C250.93 324.351 251.093 323.957 251.093 323.547C251.093 323.137 250.93 322.743 250.64 322.453C250.35 322.163 249.957 322 249.547 322C249.136 322 248.743 322.163 248.453 322.453Z" fill="white"/>
<path d="M253.447 322.453C253.157 322.743 252.994 323.137 252.994 323.547C252.994 323.957 253.157 324.351 253.447 324.641C253.738 324.931 254.131 325.094 254.541 325.094C254.951 325.094 255.345 324.931 255.635 324.641C255.925 324.351 256.088 323.957 256.088 323.547C256.088 323.137 255.925 322.743 255.635 322.453C255.345 322.163 254.951 322 254.541 322C254.131 322 253.738 322.163 253.447 322.453Z" fill="white"/>
<path d="M258.442 322.453C258.152 322.743 257.989 323.137 257.989 323.547C257.989 323.957 258.152 324.351 258.442 324.641C258.732 324.931 259.126 325.094 259.536 325.094C259.946 325.094 260.34 324.931 260.63 324.641C260.92 324.351 261.083 323.957 261.083 323.547C261.083 323.137 260.92 322.743 260.63 322.453C260.34 322.163 259.946 322 259.536 322C259.126 322 258.732 322.163 258.442 322.453Z" fill="white"/>
<path d="M263.437 322.453C263.147 322.743 262.984 323.137 262.984 323.547C262.984 323.957 263.147 324.351 263.437 324.641C263.727 324.931 264.121 325.094 264.531 325.094C264.941 325.094 265.335 324.931 265.625 324.641C265.915 324.351 266.078 323.957 266.078 323.547C266.078 323.137 265.915 322.743 265.625 322.453C265.335 322.163 264.941 322 264.531 322C264.121 322 263.727 322.163 263.437 322.453Z" fill="white"/>
<path d="M268.432 322.453C268.142 322.743 267.979 323.137 267.979 323.547C267.979 323.957 268.142 324.351 268.432 324.641C268.722 324.931 269.115 325.094 269.525 325.094C269.936 325.094 270.329 324.931 270.619 324.641C270.909 324.351 271.072 323.957 271.072 323.547C271.072 323.137 270.909 322.743 270.619 322.453C270.329 322.163 269.936 322 269.525 322C269.115 322 268.722 322.163 268.432 322.453Z" fill="white"/>
<path d="M273.427 322.453C273.137 322.743 272.974 323.137 272.974 323.547C272.974 323.957 273.137 324.351 273.427 324.641C273.717 324.931 274.11 325.094 274.52 325.094C274.931 325.094 275.324 324.931 275.614 324.641C275.904 324.351 276.067 323.957 276.067 323.547C276.067 323.137 275.904 322.743 275.614 322.453C275.324 322.163 274.931 322 274.52 322C274.11 322 273.717 322.163 273.427 322.453Z" fill="white"/>
<path d="M278.422 322.453C278.132 322.743 277.969 323.137 277.969 323.547C277.969 323.957 278.132 324.351 278.422 324.641C278.712 324.931 279.105 325.094 279.515 325.094C279.926 325.094 280.319 324.931 280.609 324.641C280.899 324.351 281.062 323.957 281.062 323.547C281.062 323.137 280.899 322.743 280.609 322.453C280.319 322.163 279.926 322 279.515 322C279.105 322 278.712 322.163 278.422 322.453Z" fill="white"/>
<path d="M283.416 322.453C283.126 322.743 282.963 323.137 282.963 323.547C282.963 323.957 283.126 324.351 283.416 324.641C283.706 324.931 284.1 325.094 284.51 325.094C284.92 325.094 285.313 324.931 285.604 324.641C285.894 324.351 286.057 323.957 286.057 323.547C286.057 323.137 285.894 322.743 285.604 322.453C285.313 322.163 284.92 322 284.51 322C284.1 322 283.706 322.163 283.416 322.453Z" fill="white"/>
<path d="M248.453 291.453C248.163 291.743 248 292.137 248 292.547C248 292.957 248.163 293.351 248.453 293.641C248.743 293.931 249.136 294.094 249.547 294.094C249.957 294.094 250.35 293.931 250.64 293.641C250.93 293.351 251.093 292.957 251.093 292.547C251.093 292.137 250.93 291.743 250.64 291.453C250.35 291.163 249.957 291 249.547 291C249.136 291 248.743 291.163 248.453 291.453Z" fill="white"/>
<path d="M253.447 291.453C253.157 291.743 252.994 292.137 252.994 292.547C252.994 292.957 253.157 293.351 253.447 293.641C253.738 293.931 254.131 294.094 254.541 294.094C254.951 294.094 255.345 293.931 255.635 293.641C255.925 293.351 256.088 292.957 256.088 292.547C256.088 292.137 255.925 291.743 255.635 291.453C255.345 291.163 254.951 291 254.541 291C254.131 291 253.738 291.163 253.447 291.453Z" fill="white"/>
<path d="M258.442 291.453C258.152 291.743 257.989 292.137 257.989 292.547C257.989 292.957 258.152 293.351 258.442 293.641C258.732 293.931 259.126 294.094 259.536 294.094C259.946 294.094 260.34 293.931 260.63 293.641C260.92 293.351 261.083 292.957 261.083 292.547C261.083 292.137 260.92 291.743 260.63 291.453C260.34 291.163 259.946 291 259.536 291C259.126 291 258.732 291.163 258.442 291.453Z" fill="white"/>
<path d="M263.437 291.453C263.147 291.743 262.984 292.137 262.984 292.547C262.984 292.957 263.147 293.351 263.437 293.641C263.727 293.931 264.121 294.094 264.531 294.094C264.941 294.094 265.335 293.931 265.625 293.641C265.915 293.351 266.078 292.957 266.078 292.547C266.078 292.137 265.915 291.743 265.625 291.453C265.335 291.163 264.941 291 264.531 291C264.121 291 263.727 291.163 263.437 291.453Z" fill="white"/>
<path d="M268.432 291.453C268.142 291.743 267.979 292.137 267.979 292.547C267.979 292.957 268.142 293.351 268.432 293.641C268.722 293.931 269.115 294.094 269.525 294.094C269.936 294.094 270.329 293.931 270.619 293.641C270.909 293.351 271.072 292.957 271.072 292.547C271.072 292.137 270.909 291.743 270.619 291.453C270.329 291.163 269.936 291 269.525 291C269.115 291 268.722 291.163 268.432 291.453Z" fill="white"/>
<path d="M273.427 291.453C273.137 291.743 272.974 292.137 272.974 292.547C272.974 292.957 273.137 293.351 273.427 293.641C273.717 293.931 274.11 294.094 274.52 294.094C274.931 294.094 275.324 293.931 275.614 293.641C275.904 293.351 276.067 292.957 276.067 292.547C276.067 292.137 275.904 291.743 275.614 291.453C275.324 291.163 274.931 291 274.52 291C274.11 291 273.717 291.163 273.427 291.453Z" fill="white"/>
<path d="M278.422 291.453C278.132 291.743 277.969 292.137 277.969 292.547C277.969 292.957 278.132 293.351 278.422 293.641C278.712 293.931 279.105 294.094 279.515 294.094C279.926 294.094 280.319 293.931 280.609 293.641C280.899 293.351 281.062 292.957 281.062 292.547C281.062 292.137 280.899 291.743 280.609 291.453C280.319 291.163 279.926 291 279.515 291C279.105 291 278.712 291.163 278.422 291.453Z" fill="white"/>
<path d="M283.416 291.453C283.126 291.743 282.963 292.137 282.963 292.547C282.963 292.957 283.126 293.351 283.416 293.641C283.706 293.931 284.1 294.094 284.51 294.094C284.92 294.094 285.313 293.931 285.604 293.641C285.894 293.351 286.057 292.957 286.057 292.547C286.057 292.137 285.894 291.743 285.604 291.453C285.313 291.163 284.92 291 284.51 291C284.1 291 283.706 291.163 283.416 291.453Z" fill="white"/>
<path d="M425.953 299.327H356.131C354.402 299.327 353 296.976 353 294.075V291.252C353 288.351 354.402 286 356.131 286H425.953C427.682 286 429.084 288.351 429.084 291.252V294.075C429.084 296.976 427.682 299.327 425.953 299.327ZM425.953 330H356.34C354.61 330 353.209 327.649 353.209 324.748V321.925C353.209 319.024 354.61 316.673 356.34 316.673H425.953C427.682 316.673 429.084 319.024 429.084 321.925V324.748C429.084 327.648 427.682 330 425.953 330ZM444.869 299.327H436.25C434.521 299.327 433.119 296.976 433.119 294.075V291.252C433.119 288.351 434.521 286 436.25 286H444.869C446.598 286 448 288.351 448 291.252V294.075C448 296.976 446.598 299.327 444.869 299.327ZM444.869 330H436.25C434.521 330 433.119 327.649 433.119 324.748V321.925C433.119 319.024 434.521 316.673 436.25 316.673H444.869C446.598 316.673 448 319.024 448 321.925V324.748C448 327.648 446.598 330 444.869 330Z" fill="#62BD5A"/>
<path d="M357.453 322.453C357.163 322.743 357 323.137 357 323.547C357 323.957 357.163 324.351 357.453 324.641C357.743 324.931 358.136 325.094 358.547 325.094C358.957 325.094 359.35 324.931 359.64 324.641C359.93 324.351 360.093 323.957 360.093 323.547C360.093 323.137 359.93 322.743 359.64 322.453C359.35 322.163 358.957 322 358.547 322C358.136 322 357.743 322.163 357.453 322.453Z" fill="white"/>
<path d="M362.447 322.453C362.157 322.743 361.994 323.137 361.994 323.547C361.994 323.957 362.157 324.351 362.447 324.641C362.738 324.931 363.131 325.094 363.541 325.094C363.951 325.094 364.345 324.931 364.635 324.641C364.925 324.351 365.088 323.957 365.088 323.547C365.088 323.137 364.925 322.743 364.635 322.453C364.345 322.163 363.951 322 363.541 322C363.131 322 362.738 322.163 362.447 322.453Z" fill="white"/>
<path d="M367.442 322.453C367.152 322.743 366.989 323.137 366.989 323.547C366.989 323.957 367.152 324.351 367.442 324.641C367.732 324.931 368.126 325.094 368.536 325.094C368.946 325.094 369.34 324.931 369.63 324.641C369.92 324.351 370.083 323.957 370.083 323.547C370.083 323.137 369.92 322.743 369.63 322.453C369.34 322.163 368.946 322 368.536 322C368.126 322 367.732 322.163 367.442 322.453Z" fill="white"/>
<path d="M372.437 322.453C372.147 322.743 371.984 323.137 371.984 323.547C371.984 323.957 372.147 324.351 372.437 324.641C372.727 324.931 373.121 325.094 373.531 325.094C373.941 325.094 374.335 324.931 374.625 324.641C374.915 324.351 375.078 323.957 375.078 323.547C375.078 323.137 374.915 322.743 374.625 322.453C374.335 322.163 373.941 322 373.531 322C373.121 322 372.727 322.163 372.437 322.453Z" fill="white"/>
<path d="M377.432 322.453C377.142 322.743 376.979 323.137 376.979 323.547C376.979 323.957 377.142 324.351 377.432 324.641C377.722 324.931 378.115 325.094 378.525 325.094C378.936 325.094 379.329 324.931 379.619 324.641C379.909 324.351 380.072 323.957 380.072 323.547C380.072 323.137 379.909 322.743 379.619 322.453C379.329 322.163 378.936 322 378.525 322C378.115 322 377.722 322.163 377.432 322.453Z" fill="white"/>
<path d="M382.427 322.453C382.137 322.743 381.974 323.137 381.974 323.547C381.974 323.957 382.137 324.351 382.427 324.641C382.717 324.931 383.11 325.094 383.52 325.094C383.931 325.094 384.324 324.931 384.614 324.641C384.904 324.351 385.067 323.957 385.067 323.547C385.067 323.137 384.904 322.743 384.614 322.453C384.324 322.163 383.931 322 383.52 322C383.11 322 382.717 322.163 382.427 322.453Z" fill="white"/>
<path d="M387.422 322.453C387.132 322.743 386.969 323.137 386.969 323.547C386.969 323.957 387.132 324.351 387.422 324.641C387.712 324.931 388.105 325.094 388.515 325.094C388.926 325.094 389.319 324.931 389.609 324.641C389.899 324.351 390.062 323.957 390.062 323.547C390.062 323.137 389.899 322.743 389.609 322.453C389.319 322.163 388.926 322 388.515 322C388.105 322 387.712 322.163 387.422 322.453Z" fill="white"/>
<path d="M392.416 322.453C392.126 322.743 391.963 323.137 391.963 323.547C391.963 323.957 392.126 324.351 392.416 324.641C392.706 324.931 393.1 325.094 393.51 325.094C393.92 325.094 394.313 324.931 394.604 324.641C394.894 324.351 395.057 323.957 395.057 323.547C395.057 323.137 394.894 322.743 394.604 322.453C394.313 322.163 393.92 322 393.51 322C393.1 322 392.706 322.163 392.416 322.453Z" fill="white"/>
<path d="M357.453 291.453C357.163 291.743 357 292.137 357 292.547C357 292.957 357.163 293.351 357.453 293.641C357.743 293.931 358.136 294.094 358.547 294.094C358.957 294.094 359.35 293.931 359.64 293.641C359.93 293.351 360.093 292.957 360.093 292.547C360.093 292.137 359.93 291.743 359.64 291.453C359.35 291.163 358.957 291 358.547 291C358.136 291 357.743 291.163 357.453 291.453Z" fill="white"/>
<path d="M362.447 291.453C362.157 291.743 361.994 292.137 361.994 292.547C361.994 292.957 362.157 293.351 362.447 293.641C362.738 293.931 363.131 294.094 363.541 294.094C363.951 294.094 364.345 293.931 364.635 293.641C364.925 293.351 365.088 292.957 365.088 292.547C365.088 292.137 364.925 291.743 364.635 291.453C364.345 291.163 363.951 291 363.541 291C363.131 291 362.738 291.163 362.447 291.453Z" fill="white"/>
<path d="M367.442 291.453C367.152 291.743 366.989 292.137 366.989 292.547C366.989 292.957 367.152 293.351 367.442 293.641C367.732 293.931 368.126 294.094 368.536 294.094C368.946 294.094 369.34 293.931 369.63 293.641C369.92 293.351 370.083 292.957 370.083 292.547C370.083 292.137 369.92 291.743 369.63 291.453C369.34 291.163 368.946 291 368.536 291C368.126 291 367.732 291.163 367.442 291.453Z" fill="white"/>
<path d="M372.437 291.453C372.147 291.743 371.984 292.137 371.984 292.547C371.984 292.957 372.147 293.351 372.437 293.641C372.727 293.931 373.121 294.094 373.531 294.094C373.941 294.094 374.335 293.931 374.625 293.641C374.915 293.351 375.078 292.957 375.078 292.547C375.078 292.137 374.915 291.743 374.625 291.453C374.335 291.163 373.941 291 373.531 291C373.121 291 372.727 291.163 372.437 291.453Z" fill="white"/>
<path d="M377.432 291.453C377.142 291.743 376.979 292.137 376.979 292.547C376.979 292.957 377.142 293.351 377.432 293.641C377.722 293.931 378.115 294.094 378.525 294.094C378.936 294.094 379.329 293.931 379.619 293.641C379.909 293.351 380.072 292.957 380.072 292.547C380.072 292.137 379.909 291.743 379.619 291.453C379.329 291.163 378.936 291 378.525 291C378.115 291 377.722 291.163 377.432 291.453Z" fill="white"/>
<path d="M382.427 291.453C382.137 291.743 381.974 292.137 381.974 292.547C381.974 292.957 382.137 293.351 382.427 293.641C382.717 293.931 383.11 294.094 383.52 294.094C383.931 294.094 384.324 293.931 384.614 293.641C384.904 293.351 385.067 292.957 385.067 292.547C385.067 292.137 384.904 291.743 384.614 291.453C384.324 291.163 383.931 291 383.52 291C383.11 291 382.717 291.163 382.427 291.453Z" fill="white"/>
<path d="M387.422 291.453C387.132 291.743 386.969 292.137 386.969 292.547C386.969 292.957 387.132 293.351 387.422 293.641C387.712 293.931 388.105 294.094 388.515 294.094C388.926 294.094 389.319 293.931 389.609 293.641C389.899 293.351 390.062 292.957 390.062 292.547C390.062 292.137 389.899 291.743 389.609 291.453C389.319 291.163 388.926 291 388.515 291C388.105 291 387.712 291.163 387.422 291.453Z" fill="white"/>
<path d="M392.416 291.453C392.126 291.743 391.963 292.137 391.963 292.547C391.963 292.957 392.126 293.351 392.416 293.641C392.706 293.931 393.1 294.094 393.51 294.094C393.92 294.094 394.313 293.931 394.604 293.641C394.894 293.351 395.057 292.957 395.057 292.547C395.057 292.137 394.894 291.743 394.604 291.453C394.313 291.163 393.92 291 393.51 291C393.1 291 392.706 291.163 392.416 291.453Z" fill="white"/>
<path d="M381.754 371.991H320.265C319.119 371.99 318.02 371.535 317.209 370.724C316.399 369.914 315.944 368.814 315.944 367.668V357.107C315.944 355.96 316.399 354.861 317.209 354.05C318.02 353.24 319.119 352.784 320.265 352.784H381.754C382.9 352.784 383.999 353.24 384.809 354.05C385.62 354.861 386.075 355.96 386.075 357.107V367.668C386.075 368.814 385.62 369.914 384.81 370.725C383.999 371.535 382.9 371.991 381.754 371.991Z" fill="url(#paint1_linear_21_1139)"/>
<path d="M368.607 386.774H331.475C331.266 386.774 331.065 386.691 330.917 386.543C330.77 386.395 330.687 386.195 330.687 385.986V385.635C330.687 385.199 331.039 384.846 331.475 384.846H368.607C369.043 384.846 369.395 385.199 369.395 385.635V385.986C369.395 386.421 369.043 386.774 368.607 386.774ZM381.803 394.037H318.279C318.07 394.037 317.869 393.954 317.721 393.806C317.574 393.658 317.491 393.457 317.491 393.248V392.897C317.491 392.462 317.843 392.109 318.279 392.109H381.803C382.239 392.109 382.591 392.462 382.591 392.897V393.248C382.591 393.683 382.239 394.037 381.803 394.037Z" fill="#64BE58"/>
<path d="M322.542 363.433L325.428 363.252C325.49 363.721 325.617 364.078 325.809 364.324C326.121 364.721 326.567 364.92 327.148 364.92C327.581 364.92 327.915 364.818 328.149 364.615C328.383 364.412 328.5 364.177 328.5 363.909C328.5 363.655 328.389 363.426 328.166 363.226C327.943 363.025 327.425 362.835 326.613 362.657C325.283 362.358 324.335 361.96 323.768 361.465C323.197 360.969 322.911 360.338 322.911 359.57C322.911 359.065 323.057 358.589 323.349 358.14C323.642 357.691 324.081 357.339 324.668 357.082C325.255 356.825 326.059 356.697 327.081 356.697C328.335 356.697 329.291 356.93 329.949 357.396C330.608 357.863 330.999 358.605 331.125 359.623L328.266 359.79C328.19 359.348 328.031 359.027 327.787 358.826C327.544 358.625 327.208 358.524 326.78 358.524C326.427 358.524 326.162 358.599 325.983 358.749C325.805 358.898 325.715 359.08 325.715 359.295C325.715 359.451 325.789 359.592 325.936 359.716C326.079 359.845 326.418 359.966 326.954 360.078C328.279 360.363 329.228 360.652 329.802 360.945C330.375 361.237 330.792 361.6 331.054 362.033C331.314 362.466 331.445 362.95 331.445 363.486C331.448 364.105 331.266 364.712 330.923 365.227C330.575 365.758 330.089 366.161 329.464 366.436C328.839 366.71 328.051 366.848 327.101 366.848C325.432 366.848 324.276 366.526 323.633 365.884C322.991 365.241 322.627 364.424 322.542 363.433ZM332.892 356.864H335.616V358.719H332.892V356.864ZM332.892 359.57H335.616V366.681H332.892V359.57ZM342.304 359.57H344.854V366.286L344.861 366.601C344.861 367.047 344.766 367.472 344.577 367.877C344.387 368.281 344.135 368.608 343.82 368.858C343.506 369.108 343.107 369.289 342.622 369.4C342.138 369.512 341.583 369.568 340.958 369.568C339.53 369.568 338.549 369.353 338.016 368.925C337.483 368.496 337.216 367.922 337.216 367.203C337.216 367.114 337.221 366.994 337.229 366.842L339.874 367.143C339.941 367.389 340.043 367.558 340.182 367.652C340.382 367.79 340.635 367.859 340.938 367.859C341.33 367.859 341.624 367.754 341.818 367.545C342.013 367.335 342.11 366.969 342.11 366.447V365.369C341.842 365.686 341.574 365.916 341.306 366.059C340.888 366.282 340.421 366.397 339.948 366.393C338.997 366.393 338.23 365.978 337.645 365.147C337.229 364.558 337.022 363.78 337.022 362.811C337.022 361.704 337.29 360.86 337.825 360.28C338.361 359.7 339.061 359.409 339.927 359.409C340.48 359.409 340.937 359.503 341.296 359.691C341.655 359.878 341.991 360.188 342.304 360.622V359.57ZM339.74 363.018C339.74 363.531 339.849 363.912 340.068 364.16C340.287 364.407 340.575 364.531 340.931 364.531C341.27 364.531 341.555 364.403 341.785 364.147C342.015 363.89 342.129 363.502 342.129 362.985C342.129 362.467 342.009 362.071 341.768 361.796C341.527 361.521 341.232 361.384 340.884 361.384C340.536 361.384 340.259 361.51 340.051 361.762C339.844 362.015 339.74 362.433 339.74 363.018ZM346.501 359.57H349.038V360.728C349.418 360.255 349.801 359.917 350.19 359.714C350.578 359.51 351.051 359.409 351.609 359.409C352.363 359.409 352.953 359.633 353.379 360.082C353.805 360.531 354.019 361.224 354.019 362.161V366.681H351.281V362.771C351.281 362.325 351.198 362.009 351.033 361.824C350.868 361.638 350.636 361.546 350.337 361.546C350.006 361.546 349.739 361.671 349.533 361.921C349.328 362.171 349.226 362.619 349.226 363.267V366.682H346.501V359.57ZM366.784 356.864H369.81V362.713C369.814 363.272 369.722 363.828 369.539 364.356C369.362 364.866 369.071 365.328 368.689 365.708C368.303 366.094 367.898 366.365 367.474 366.521C366.884 366.739 366.177 366.849 365.352 366.849C364.874 366.849 364.353 366.816 363.788 366.749C363.223 366.682 362.752 366.549 362.372 366.351C361.993 366.152 361.646 365.87 361.331 365.504C361.016 365.138 360.801 364.761 360.685 364.373C360.498 363.748 360.404 363.196 360.404 362.714V356.865H363.43V362.853C363.43 363.388 363.578 363.806 363.875 364.107C364.172 364.408 364.583 364.559 365.11 364.559C365.632 364.559 366.041 364.41 366.338 364.114C366.635 363.817 366.783 363.397 366.783 362.853V356.864H366.784ZM371.651 369.386V359.569H374.202V360.621C374.554 360.179 374.878 359.879 375.172 359.723C375.57 359.513 376.009 359.408 376.491 359.408C377.442 359.408 378.177 359.772 378.697 360.5C379.217 361.228 379.477 362.127 379.477 363.199C379.477 364.382 379.194 365.284 378.627 365.907C378.06 366.53 377.344 366.842 376.478 366.842C376.058 366.842 375.676 366.77 375.33 366.627C374.98 366.482 374.664 366.265 374.403 365.991V369.386H371.651ZM374.383 363.145C374.383 363.708 374.501 364.125 374.737 364.397C374.974 364.67 375.273 364.806 375.634 364.806C375.951 364.806 376.217 364.675 376.431 364.414C376.645 364.153 376.752 363.71 376.752 363.085C376.752 362.509 376.641 362.086 376.418 361.816C376.195 361.546 375.923 361.411 375.601 361.411C375.253 361.411 374.963 361.547 374.731 361.819C374.499 362.092 374.383 362.534 374.383 363.145Z" fill="white"/>
<path d="M130.71 148.101H497.706V162.827H130.71V148.101ZM511.994 148.101H537.996V162.827H511.994V148.101ZM579.392 150.169H552.902C552.776 150.169 552.651 150.144 552.534 150.096C552.418 150.047 552.312 149.977 552.223 149.888C552.134 149.798 552.064 149.693 552.015 149.576C551.967 149.46 551.942 149.335 551.942 149.209V149.061C551.942 148.935 551.967 148.81 552.015 148.694C552.064 148.577 552.134 148.472 552.223 148.383C552.312 148.293 552.418 148.223 552.534 148.175C552.651 148.126 552.776 148.101 552.902 148.101H579.392C579.647 148.101 579.891 148.203 580.071 148.383C580.251 148.562 580.352 148.807 580.352 149.061V149.209C580.352 149.464 580.251 149.708 580.071 149.888C579.891 150.068 579.647 150.169 579.392 150.169ZM579.392 155.981H552.902C552.776 155.981 552.651 155.956 552.534 155.908C552.418 155.86 552.312 155.789 552.223 155.7C552.134 155.611 552.064 155.505 552.015 155.389C551.967 155.273 551.942 155.148 551.942 155.022V154.874C551.942 154.748 551.967 154.623 552.015 154.506C552.064 154.39 552.134 154.284 552.223 154.195C552.312 154.106 552.418 154.035 552.534 153.987C552.651 153.939 552.776 153.914 552.902 153.914H579.392C579.647 153.914 579.891 154.015 580.071 154.195C580.251 154.375 580.352 154.619 580.352 154.874V155.022C580.352 155.276 580.251 155.52 580.071 155.7C579.891 155.88 579.647 155.981 579.392 155.981ZM579.392 161.794H552.902C552.776 161.794 552.651 161.769 552.534 161.721C552.418 161.673 552.312 161.602 552.223 161.513C552.134 161.424 552.064 161.318 552.015 161.202C551.967 161.085 551.942 160.96 551.942 160.834V160.686C551.942 160.56 551.967 160.436 552.015 160.319C552.064 160.203 552.134 160.097 552.223 160.008C552.312 159.919 552.418 159.848 552.534 159.8C552.651 159.752 552.776 159.727 552.902 159.727H579.392C579.647 159.727 579.891 159.828 580.071 160.008C580.251 160.188 580.352 160.432 580.352 160.686V160.834C580.352 161.089 580.251 161.333 580.071 161.513C579.891 161.693 579.647 161.794 579.392 161.794Z" fill="url(#paint2_linear_21_1139)"/>
<path d="M192.7 435.989C192.7 435.989 177.024 438.308 177.292 438.153C177.56 437.997 205.982 452.579 205.982 452.579L233.988 440.027L220.102 435.989L192.7 435.989Z" fill="#30334D"/>
<path d="M198.721 457.384C198.642 457.385 198.562 457.385 198.486 457.387L198.342 457.387C194.353 457.433 191.749 457.334 191.749 457.334C191.749 457.334 191.558 457.377 191.209 457.449C187.799 458.156 169.415 461.66 170.981 454.73C172.354 448.646 183.385 449.402 187.808 449.96C187.826 449.96 187.839 449.963 187.852 449.966C188.956 450.107 189.636 450.231 189.636 450.231C189.636 450.231 191.831 449.288 195.294 447.944C195.437 447.887 195.584 447.828 195.729 447.773C207.14 443.343 231.137 434.947 237.348 439.993L237.348 439.997C237.416 440.049 237.483 440.107 237.547 440.166C237.551 440.163 237.556 440.168 237.558 440.175C237.625 440.237 237.687 440.302 237.749 440.367C237.804 440.42 237.857 440.479 237.905 440.544C237.925 440.563 237.945 440.587 237.964 440.612C238.107 440.793 238.235 440.987 238.346 441.191C238.4 441.292 238.448 441.395 238.491 441.501C238.592 441.728 238.669 441.972 238.725 442.229C238.781 442.488 238.828 442.743 238.859 442.994C238.916 443.443 238.939 443.879 238.919 444.305C238.418 455.495 211.723 457.211 198.721 457.384Z" fill="#FFD8D9"/>
<path d="M198.928 458.688L198.487 457.387L198.295 456.819C198.292 456.815 198.293 456.812 198.293 456.812L195.293 447.944L194.863 446.672C206.284 442.238 231.025 434.721 237.343 439.982L237.345 439.986C237.416 440.042 237.483 440.101 237.545 440.165C237.549 440.163 237.555 440.168 237.557 440.175C237.623 440.237 237.686 440.302 237.748 440.367C237.803 440.419 237.856 440.478 237.904 440.544C237.924 440.562 237.943 440.587 237.962 440.611C238.106 440.793 238.234 440.987 238.344 441.191C238.399 441.292 238.446 441.395 238.49 441.5C238.59 441.728 238.667 441.971 238.724 442.228C238.78 442.488 238.827 442.743 238.857 442.993C238.915 443.443 238.937 443.878 238.917 444.305C238.458 455.634 211.936 458.517 198.928 458.688ZM189.628 450.263C189.628 450.263 168.831 446.198 167.925 454.992C166.951 464.44 191.743 457.366 191.743 457.366C191.743 457.366 182.181 459.459 182.635 454.095C183.074 448.905 189.628 450.263 189.628 450.263Z" fill="black"/>
<path d="M220.53 414.562C216.449 420.295 220.1 435.989 220.1 435.989H192.7C193.457 434.915 195.59 421.389 190.785 413.932C183.03 401.904 191.385 392.551 191.385 392.551L202.78 390.479L203.507 386.85L204.006 384.35L204.123 383.77H209.248L209.435 384.86L209.836 387.235L210.43 390.74L220.905 393.015C220.905 393.014 229.877 401.427 220.53 414.562Z" fill="#FFD8D9"/>
<path d="M220.529 414.566C216.446 420.298 220.102 435.989 220.102 435.989H192.7C193.345 435.075 194.985 425.123 192.49 417.593C192.056 416.274 191.494 415.038 190.782 413.929C183.03 401.902 191.382 392.551 191.382 392.551L202.783 390.475C203.221 393.025 209.437 392.875 210.432 390.737L220.904 393.015C220.903 393.015 229.877 401.422 220.529 414.566Z" fill="#D94559"/>
<path d="M192.7 435.989C193.345 435.075 194.985 425.123 192.49 417.593C197.894 416.022 196.981 431.024 205.982 435.989H192.7Z" fill="#C4626E"/>
<path d="M235.432 426.49C235.147 428.266 233.896 430.191 232.046 432.095C227.312 436.958 217.669 436.741 211.055 438.509L210.365 434.984C210.365 434.984 222.173 431.653 224.712 427.509C224.982 427.067 225.169 426.655 225.244 426.287C226.106 422.158 221.327 416.996 221.327 416.996L220.818 393.025C220.818 393.025 236.87 417.461 235.432 426.49Z" fill="#FFD8D9"/>
<path d="M235.589 426.489C235.282 428.159 234.28 430.258 232.614 432.089C232.528 432.181 232.412 432.241 232.287 432.256C232.161 432.272 232.035 432.242 231.929 432.173L229.899 430.855L224.579 427.406C224.849 426.966 224.987 426.522 225.062 426.153C225.923 422.025 218.266 415.639 218.266 415.639L220.106 392.877C222.572 392.767 226.624 398.396 229.988 405.297C229.988 405.297 229.991 405.307 229.997 405.323C233.639 412.789 236.463 421.734 235.589 426.489Z" fill="#D94559"/>
<path d="M202.33 435.043L202.45 437.387C202.661 437.314 202.644 437.006 202.425 436.961C196.53 435.743 186.842 437.429 182.125 433.421C179.218 430.948 177.631 427.904 177.256 425.559C175.818 416.53 191.475 392.57 191.475 392.57L190.897 416.51C190.897 416.51 186.118 421.673 186.979 425.801C187.128 426.536 187.713 427.442 188.56 428.431C192.095 432.582 202.33 435.043 202.33 435.043Z" fill="#FFD8D9"/>
<path d="M186.978 425.8C187.128 426.535 188.129 427.177 188.974 428.166L184.032 432.278L182.045 433.929C179.139 431.456 177.433 428.29 176.793 426.002C175.805 422.481 177.211 416.464 179.582 410.489C179.592 410.456 179.599 410.44 179.599 410.44C183.177 401.423 188.935 392.521 191.943 392.449L193.678 416.741C193.678 416.741 186.116 421.673 186.978 425.8Z" fill="#D94559"/>
<path d="M241.091 453.956C242.741 461.002 223.991 457.586 220.511 456.894C220.155 456.823 219.96 456.782 219.96 456.782C219.96 456.782 217.243 456.909 213.099 456.892L212.856 456.891C206.839 456.86 197.939 456.531 189.965 455.108C180.181 453.364 171.785 449.983 171.799 443.501C171.8 443.486 171.801 443.476 171.799 443.466C171.801 443.201 171.817 442.934 171.849 442.66C171.851 442.653 171.85 442.65 171.849 442.647C171.884 442.365 171.93 442.081 171.99 441.79C172.046 441.528 172.122 441.279 172.222 441.046C172.265 440.938 172.314 440.833 172.368 440.73C172.425 440.623 172.487 440.518 172.552 440.416C172.552 440.416 172.556 440.415 172.555 440.411C172.617 440.317 172.682 440.225 172.752 440.136C172.769 440.112 172.789 440.089 172.811 440.067C172.858 440.003 172.911 439.942 172.968 439.886C173.031 439.819 173.094 439.753 173.161 439.689C173.163 439.682 173.169 439.677 173.173 439.68C173.93 438.974 174.99 438.497 176.29 438.207C185.235 436.217 205.536 443.179 215.827 447.077C215.976 447.132 216.126 447.191 216.271 447.247C219.81 448.587 222.053 449.53 222.053 449.53C222.053 449.53 222.745 449.397 223.868 449.245C223.881 449.242 223.896 449.242 223.913 449.239C228.414 448.634 239.638 447.772 241.091 453.956Z" fill="#FFD8D9"/>
<path d="M216.7 445.949L216.272 447.248L213.099 456.892L212.66 458.221C207.2 458.196 199.4 457.719 192.079 456.361L192.075 456.358C181.415 454.384 171.762 450.541 171.799 443.501C171.8 443.487 171.801 443.476 171.799 443.466C171.801 443.202 171.82 442.931 171.849 442.661C171.851 442.654 171.85 442.65 171.849 442.647C171.884 442.365 171.93 442.081 171.99 441.79C172.046 441.529 172.122 441.28 172.222 441.047C172.265 440.939 172.314 440.833 172.368 440.73C172.425 440.623 172.487 440.518 172.552 440.416C172.552 440.416 172.556 440.416 172.555 440.412C172.617 440.317 172.682 440.226 172.752 440.137C172.769 440.112 172.789 440.089 172.811 440.068C172.858 440.003 172.911 439.942 172.968 439.886C173.031 439.82 173.094 439.754 173.161 439.69C173.163 439.682 173.169 439.677 173.173 439.68C173.955 438.926 175.071 438.402 176.444 438.072C185.642 435.827 206.429 442.062 216.7 445.949ZM222.059 449.563C222.059 449.563 243.207 445.249 244.204 454.198C245.275 463.812 219.966 456.816 219.966 456.816C219.966 456.816 229.211 458.567 228.704 453.108C228.213 447.825 222.059 449.563 222.059 449.563Z" fill="black"/>
<path d="M225.557 414.839V437.336C225.557 437.917 225.326 438.475 224.915 438.886C224.504 439.298 223.947 439.529 223.365 439.529H188.906C188.324 439.529 187.767 439.298 187.355 438.886C186.944 438.475 186.713 437.917 186.713 437.336V414.839C186.713 414.257 186.944 413.7 187.355 413.288C187.767 412.877 188.324 412.646 188.906 412.646H223.365C223.947 412.646 224.504 412.877 224.915 413.289C225.326 413.7 225.557 414.258 225.557 414.839Z" fill="white"/>
<path d="M202.704 426.088C202.704 425.177 203.065 424.304 203.709 423.66C204.352 423.017 205.225 422.655 206.135 422.655C207.045 422.655 207.918 423.017 208.562 423.66C209.205 424.304 209.567 425.177 209.567 426.088C209.567 426.998 209.205 427.871 208.562 428.515C207.918 429.159 207.045 429.52 206.135 429.52C205.225 429.52 204.352 429.159 203.709 428.515C203.065 427.871 202.704 426.998 202.704 426.088Z" fill="#D7E0FA"/>
<path d="M225.557 414.839V437.336C225.557 437.917 225.326 438.475 224.915 438.886C224.504 439.298 223.947 439.529 223.365 439.529H188.906C188.324 439.529 187.767 439.298 187.355 438.886C186.944 438.475 186.713 437.917 186.713 437.336C221.565 438.936 225.557 433.823 223.365 412.646C223.947 412.646 224.504 412.877 224.915 413.289C225.326 413.7 225.557 414.258 225.557 414.839Z" fill="#D7E0FA"/>
<path d="M235.589 426.489C235.282 428.159 234.281 430.258 232.614 432.089C232.528 432.181 232.412 432.241 232.287 432.256C232.161 432.272 232.035 432.242 231.929 432.173L229.899 430.855C230.966 429.005 232.54 427.537 233.278 424.672C235.257 417.005 230.268 405.985 229.997 405.323C233.639 412.789 236.463 421.734 235.589 426.489Z" fill="#B53344"/>
<path d="M199.625 377.539C199.625 377.539 195.519 373.139 198.85 367.292C198.85 367.292 199.857 369.114 201.05 368.612C201.05 368.612 201.113 364.337 209.787 363.456C209.787 363.456 209.158 365.154 209.472 365.594C212.332 364.336 215.107 367.459 217.895 366.285C217.895 366.285 218.665 371.239 215.459 374.131C215.459 374.131 215.946 375.841 214.815 377.539C213.684 379.237 199.625 377.539 199.625 377.539Z" fill="#222438"/>
<path d="M200.919 376.211C200.919 376.211 199.045 374.378 198.869 376.157C198.66 378.262 201.165 379.827 201.165 379.827C201.165 379.827 201.775 386.335 207.264 386.335C212.709 386.335 213.62 379.803 213.62 379.803C213.62 379.803 216.484 379.021 215.876 376.548C215.588 375.373 214.095 376.573 214.095 376.573V373.482C214.095 373.482 212.568 374.258 209.622 372.994C207.489 372.078 206.728 370.806 204.905 370.878C202.828 370.961 200.837 373.241 200.919 376.211Z" fill="#FFD8D9"/>
<path d="M439.328 363.302C439.328 363.302 440.044 407.945 448.193 417.914C452.125 422.724 465.214 448.461 465.214 448.461C466.68 448.664 468.042 448.369 469.096 446.614C466.43 432.041 462.873 419.566 457.138 412.32C454.145 391.769 462.924 382.8 453.238 363.312L439.328 363.302Z" fill="#F9CBCB"/>
<path d="M435.833 363.299C432.395 384.721 433.636 396.931 436.339 419.282C436.367 419.508 436.406 419.738 436.458 419.96L444.415 454.198L448.425 454.752C449.436 443.439 448.851 429.213 446.853 419.645C448.338 391.749 462.37 383.984 449.311 363.31L435.833 363.299Z" fill="#F9CBCB"/>
<path d="M462.861 427.234C458.38 426.677 454.295 424.09 451.445 427.349C449.36 429.727 446.95 431.663 443.961 432.645C442.63 433.086 441.241 433.327 439.839 433.36C437.105 433.429 434.672 431.346 433.954 428.259C432.587 422.352 430.494 411.511 430.502 400.353C430.517 380.419 436.155 361.913 436.155 361.913C436.155 361.913 436.242 361.893 436.401 361.852C438.239 361.443 449.885 359.072 454.162 364.376C458.807 370.143 462.203 377.765 461.023 392.612C460.18 403.215 464.427 413.073 467.226 420.131C468.621 423.67 466.183 427.657 462.861 427.234Z" fill="black"/>
<path d="M439.206 328.704L434.329 339.039C434.329 339.039 434.163 338.776 433.882 338.309C432.021 335.292 424.963 323.735 423.173 319.127C421.734 315.416 421.469 305.886 421.728 299.415C421.827 297.015 421.995 295.029 422.207 293.92C422.207 293.92 419.186 291.158 421.991 289.621C424.69 288.146 422.794 283.828 423.805 283.688C424.816 283.548 425.366 289.386 425.366 289.386C425.366 289.386 426.799 287.866 427.282 288.447C428.011 289.309 425.529 293.922 425.529 293.922C425.885 295.003 426.218 296.091 426.529 297.185C428.16 302.918 429.272 309.152 429.838 315.852C432.85 318.975 436.002 323.558 439.206 328.704Z" fill="#F9CBCB"/>
<path d="M452.672 362.886L435.262 362.874C436.17 358.918 438.395 356.801 435.132 347.822C433.772 344.085 433.537 340.92 433.882 338.309C434.748 331.821 439.206 328.704 439.206 328.704L443.382 326.359L448.489 326.363L453.619 330.006C453.619 330.006 453.354 344.433 452.55 349.364C451.844 353.716 451.014 358.683 452.672 362.886Z" fill="#3E3279"/>
<path d="M455.545 365.587C447.534 369.687 444.796 365.272 438.714 365.224C438.239 365.223 437.738 365.249 437.219 365.302C435.374 365.502 433.881 363.848 434.19 362.02C435.151 356.403 434.831 350.195 433.422 341.816C433.107 339.954 432.59 338.131 431.879 336.381C431.451 335.325 430.955 334.297 430.396 333.304C427.772 328.607 424.392 322.257 423.173 319.126C421.734 315.415 421.469 305.885 421.728 299.414L426.528 297.185C428.159 302.918 429.368 308.589 430.356 315.623C432.798 318.166 435 321.807 437.45 325.844C437.918 326.613 438.666 327.17 439.536 327.399C440.406 327.628 441.331 327.51 442.117 327.07L443.382 326.359L448.489 326.362L453.619 330.006C453.619 330.006 453.354 344.433 452.55 349.364C451.844 353.716 453.886 361.384 455.545 365.587Z" fill="#FFBC47"/>
<path d="M471.218 351.049C471.208 351.119 471.208 351.198 471.191 351.277C471.023 352.675 470.143 354.275 468.929 355.892C466.624 358.958 463.089 362.076 460.819 363.939C459.518 365.001 458.639 365.66 458.639 365.66C460.885 370.743 456.329 375.417 454.977 372.726C454.696 372.145 455.726 370.159 455.727 369.368C455.727 368.876 454.862 368.33 454.268 367.459C453.593 366.469 454.165 365.235 454.578 364.655C455.379 363.557 456.162 362.326 456.963 361.061C459.101 357.695 461.389 354.039 464.581 351.571C459.196 348.702 455.567 347.416 451.851 344.019L453.619 330.006C453.62 330.006 471.67 344.622 471.218 351.049Z" fill="#F9CBCB"/>
<path d="M471.218 351.049C471.208 351.119 471.208 351.198 471.191 351.277C470.442 352.818 469.688 354.356 468.929 355.892C466.624 358.958 463.089 362.076 460.819 363.939L456.963 361.061C459.101 357.696 461.389 354.04 464.581 351.572C459.196 348.702 455.567 347.416 451.851 344.019L453.619 330.007C453.62 330.006 471.67 344.622 471.218 351.049Z" fill="#FE81DF"/>
<path d="M439.703 307.876C439.703 307.876 437.314 314.481 439.145 318.611C440.976 322.742 448.317 319.903 448.317 319.903L439.703 307.876Z" fill="#F9CBCB"/>
<path d="M444.497 320.149L443.386 326.358L448.487 326.362L448.317 319.903L444.497 320.149Z" fill="#F9CBCB"/>
<path d="M465.718 331.311C465.227 327.656 467.344 325.916 466.01 322.477C464.737 319.2 460.861 317.66 459.134 314.599C457.842 312.311 457.93 309.497 456.995 307.042C455.658 303.533 452.08 300.999 448.327 300.906C444.574 300.814 440.875 303.166 439.367 306.605C439.367 306.605 437.375 310.166 440.296 315.128C441.871 317.802 446.088 320.125 447.022 323.085C448.754 328.575 441.254 336.055 443.375 341.406C444.528 344.315 447.859 344.277 448.472 347.344C449.022 350.095 443.949 352.143 448.464 358.059C451.838 362.48 455.876 358.932 458.502 358.671C460.7 358.452 464.47 360.735 468.5 358.458C475.856 354.303 469.674 348.677 471.232 342.965C473.241 335.603 466.247 335.253 465.718 331.311ZM448.597 452.882L449.245 456.202C449.474 457.109 449.539 458.049 449.438 458.979L449.066 462.566L447.75 462.555L447.867 460.285C447.81 459.698 447.072 459.474 446.697 459.928L445.468 461.417C445.114 462.084 444.467 462.553 443.72 462.66C441.438 462.988 436.979 463.126 436.774 461.629C436.562 460.091 440.889 459.965 442.129 458.253C443.331 456.595 444.138 453.016 444.138 453.016C445.497 453.562 447.097 453.386 448.597 452.882ZM469.097 446.614L471.192 449.169C471.785 449.892 472.244 450.715 472.548 451.599L473.739 455.003L472.544 455.554L471.683 453.45C471.381 452.943 470.617 453.054 470.472 453.626L469.995 455.496C469.958 456.25 469.572 456.951 468.942 457.366C467.017 458.634 463.04 460.659 462.218 459.392C461.371 458.09 465.233 456.133 465.626 454.056C466.008 452.044 465.214 448.461 465.214 448.461C466.676 448.377 467.953 447.709 469.097 446.614Z" fill="#30334D"/>
<path d="M98.5354 367.514V460.543C87.4091 460.545 77.3289 456.044 70.0204 448.761C58.4359 437.216 58.1394 422.901 58.1338 420.208C60.1774 416.367 62.8098 410.208 63.6013 402.26C64.9269 388.976 60.3101 378.736 58.0491 374.436C64.137 373.081 71.6236 369.709 79.2669 364.691L98.489 367.522L98.5354 367.514Z" fill="#209959"/>
<path d="M138.932 420.059C138.935 422.75 138.694 437.066 127.152 448.655C119.855 455.98 109.763 460.523 98.6076 460.543H98.5356V367.514L117.59 364.62C125.252 369.608 132.752 372.952 138.845 374.286C136.601 378.592 132.023 388.851 133.396 402.131C134.219 410.075 136.874 416.223 138.932 420.059Z" fill="#3DB877"/>
<path d="M98.5354 371.339V455.834C89.0256 455.834 80.0827 452.14 73.3432 445.425C64.4794 436.592 63.0547 425.771 62.8669 421.306C65.8198 415.435 67.642 409.193 68.2865 402.727C69.2988 392.579 67.2169 383.904 64.6085 377.419C69.6764 375.627 75.1878 372.88 80.6609 369.398L98.5354 371.339Z" fill="#3DB877"/>
<path d="M134.203 421.173C134.031 425.64 132.645 436.466 123.817 445.329C117.088 452.085 108.132 455.816 98.6004 455.834H98.5361V371.339L116.216 369.332C121.702 372.792 127.224 375.519 132.298 377.292C129.713 383.789 127.665 392.471 128.714 402.616C129.382 409.077 131.228 415.314 134.203 421.173Z" fill="#389850"/>
<path d="M98.5316 373.949V453.381C89.6576 453.381 81.3097 449.933 75.0206 443.667C67.0294 435.704 65.5252 425.958 65.27 421.647C68.1617 415.762 69.9522 409.507 70.5962 403.046C71.41 394.889 70.3864 386.804 67.5555 378.983C72.0183 377.235 76.7647 374.805 81.428 371.876L98.4841 373.955L98.5316 373.949Z" fill="white"/>
<path d="M131.796 421.509C131.555 425.823 130.086 435.575 122.127 443.566C115.847 449.871 107.492 453.351 98.5948 453.368H98.5356V373.935L115.45 371.8C120.125 374.71 124.881 377.122 129.352 378.853C126.549 386.685 125.556 394.774 126.399 402.93C127.068 409.387 128.883 415.634 131.796 421.509Z" fill="#F3F0FF"/>
<path d="M87.3111 410.212L117.742 410.111C116.662 408.518 114.722 407.454 112.507 407.462L110.654 407.468L110.612 401.949L110.599 397.781C110.585 393.715 107.276 390.426 103.208 390.44L92.3627 390.476C88.2949 390.49 85.0108 393.8 85.0246 397.866L85.0567 407.553L83.18 407.559C80.966 407.567 79.029 408.644 77.9605 410.243L85.0654 410.219L87.3111 410.212ZM92.8128 393.995L102.785 393.962C103.347 393.96 103.904 394.068 104.425 394.282C104.945 394.495 105.418 394.809 105.817 395.206C106.216 395.602 106.533 396.073 106.75 396.592C106.967 397.111 107.079 397.668 107.081 398.23L107.094 401.949V407.479L88.573 407.541L88.5424 398.296C88.5337 395.93 90.4477 394.003 92.8128 393.995ZM118.643 412.989C118.64 412.382 118.528 411.781 118.314 411.214L77.3977 411.351C77.1859 411.92 77.0794 412.523 77.0834 413.13L77.1022 418.255C77.1354 428.661 86.4661 437.074 97.9414 437.034C103.682 437.015 108.865 434.885 112.614 431.464C116.366 428.04 118.677 423.318 118.658 418.115L118.643 412.989ZM97.9149 429.223C94.0777 429.238 90.9574 426.135 90.9426 422.293C90.9314 418.454 94.0292 415.333 97.8669 415.318C101.708 415.307 104.832 418.41 104.843 422.248C104.854 426.087 101.756 429.212 97.9149 429.223Z" fill="#209959"/>
<path d="M97.7894 427.957C97.3782 427.985 96.9918 428.164 96.7055 428.461C96.4192 428.757 96.2536 429.15 96.2408 429.562C96.2332 429.854 96.3035 430.142 96.4445 430.398C96.5855 430.653 96.7921 430.866 97.0429 431.015L96.7546 434.787C96.7515 434.824 96.7561 434.861 96.768 434.896C96.78 434.931 96.7991 434.963 96.8241 434.99C96.8491 435.017 96.8795 435.039 96.9133 435.053C96.9471 435.068 96.9836 435.076 97.0205 435.076L98.7911 435.068C98.8278 435.068 98.8641 435.06 98.8977 435.045C98.9312 435.031 98.9613 435.009 98.986 434.982C99.0107 434.955 99.0295 434.923 99.0411 434.888C99.0527 434.853 99.0568 434.816 99.0534 434.78L98.739 431.008C98.9823 430.862 99.1836 430.655 99.3229 430.408C99.4623 430.161 99.5351 429.882 99.534 429.599C99.5327 429.375 99.4859 429.153 99.3964 428.948C99.307 428.743 99.1767 428.557 99.0135 428.404C98.8504 428.25 98.6578 428.132 98.4473 428.055C98.2369 427.978 98.0131 427.945 97.7894 427.957Z" fill="#389850"/>
<path d="M478.239 59.6937L490.128 51.7404L482.331 48.5733L478.239 59.6937Z" fill="#A8A8A8"/>
<path d="M490.624 54.2353L502.119 38.6197L483.131 51.7404L490.624 54.2353ZM502.119 38.5911L471.268 45.3424L478.529 48.1507L502.119 38.5911Z" fill="white"/>
<path d="M502.119 38.6197L483.129 51.8195L478.239 59.6937L478.465 48.0675L502.119 38.6197Z" fill="#E8E8E8"/>
<defs>
<linearGradient id="paint0_linear_21_1139" x1="317.149" y1="253.207" x2="382.355" y2="188.57" gradientUnits="userSpaceOnUse">
<stop stop-color="#18BAD4"/>
<stop offset="0.54" stop-color="#31B680"/>
<stop offset="1" stop-color="#80C242"/>
</linearGradient>
<linearGradient id="paint1_linear_21_1139" x1="317.697" y1="362.387" x2="385.08" y2="363.433" gradientUnits="userSpaceOnUse">
<stop stop-color="#18BAD4"/>
<stop offset="0.54" stop-color="#31B680"/>
<stop offset="1" stop-color="#80C242"/>
</linearGradient>
<linearGradient id="paint2_linear_21_1139" x1="141.951" y1="155.464" x2="566.925" y2="210.596" gradientUnits="userSpaceOnUse">
<stop stop-color="#18BAD4"/>
<stop offset="0.54" stop-color="#31B680"/>
<stop offset="1" stop-color="#80C242"/>
</linearGradient>
</defs>
</svg>
