<svg width="696" height="458" viewBox="0 0 696 458" fill="none" xmlns="http://www.w3.org/2000/svg">
<path d="M221.034 71.2256C220.972 71.2256 220.911 71.2039 220.862 71.1641C220.814 71.1243 220.78 71.0689 220.768 71.0074C220.756 70.9458 220.765 70.8819 220.794 70.8265C220.824 70.7711 220.872 70.7276 220.93 70.7034C220.93 70.7034 221.639 70.4079 222.948 69.8903C223.014 69.8664 223.087 69.8693 223.151 69.8984C223.216 69.9275 223.266 69.9804 223.292 70.046C223.318 70.1116 223.317 70.1848 223.29 70.2499C223.263 70.3151 223.212 70.3672 223.147 70.3951C222.475 70.6594 221.806 70.9291 221.138 71.2041C221.106 71.2184 221.07 71.2257 221.034 71.2256ZM317.51 73.158H317.507C316.89 73.158 316.29 73.0993 315.724 72.983C315.654 72.9684 315.592 72.9266 315.552 72.8665C315.513 72.8064 315.498 72.733 315.513 72.6624C315.528 72.592 315.57 72.5304 315.63 72.4909C315.69 72.4513 315.763 72.437 315.834 72.4511C316.385 72.562 316.945 72.6169 317.507 72.6149H317.51C318.318 72.6149 319.161 72.5098 320.016 72.3021C320.086 72.2851 320.16 72.2966 320.222 72.334C320.283 72.3715 320.327 72.4319 320.344 72.5019C320.361 72.5719 320.35 72.6457 320.312 72.7072C320.275 72.7687 320.214 72.8128 320.144 72.8298C319.247 73.0473 318.36 73.158 317.51 73.158ZM435.724 72.8962H435.722C434.272 72.8808 432.823 72.8366 431.375 72.7635C431.339 72.7616 431.304 72.7528 431.272 72.7375C431.24 72.7221 431.211 72.7006 431.187 72.6741C431.163 72.6476 431.145 72.6167 431.133 72.583C431.121 72.5494 431.116 72.5138 431.118 72.4781C431.118 72.4422 431.126 72.4068 431.141 72.3741C431.156 72.3414 431.178 72.3121 431.204 72.288C431.231 72.2638 431.262 72.2454 431.296 72.2338C431.33 72.2222 431.366 72.2176 431.402 72.2204C432.85 72.2939 434.306 72.3378 435.727 72.3526C435.797 72.3559 435.863 72.3862 435.911 72.4371C435.959 72.4879 435.986 72.5555 435.986 72.6256C435.985 72.6957 435.958 72.763 435.909 72.8134C435.861 72.8638 435.794 72.8935 435.724 72.8962ZM440.061 72.8492C440.025 72.8498 439.99 72.8434 439.957 72.8303C439.924 72.8172 439.893 72.7977 439.868 72.7729C439.842 72.7481 439.822 72.7186 439.807 72.6858C439.793 72.6531 439.786 72.6179 439.785 72.5823C439.784 72.5466 439.791 72.5112 439.804 72.478C439.817 72.4448 439.836 72.4146 439.861 72.3889C439.886 72.3633 439.916 72.3428 439.948 72.3286C439.981 72.3144 440.016 72.3067 440.052 72.3061C441.502 72.2592 442.955 72.1801 444.37 72.0698C444.406 72.0668 444.442 72.0709 444.476 72.0819C444.51 72.0929 444.541 72.1105 444.568 72.1338C444.596 72.1571 444.618 72.1855 444.634 72.2175C444.65 72.2494 444.66 72.2842 444.662 72.3199C444.665 72.3555 444.661 72.3913 444.65 72.4252C444.639 72.4592 444.621 72.4906 444.598 72.5177C444.575 72.5449 444.546 72.5672 444.515 72.5833C444.483 72.5995 444.448 72.6092 444.412 72.6119C442.989 72.7226 441.528 72.8023 440.07 72.8492H440.061ZM427.062 72.4618C427.053 72.4618 427.046 72.4618 427.038 72.4608C425.594 72.3324 424.153 72.1777 422.715 71.9968C422.644 71.9878 422.579 71.9507 422.535 71.8937C422.49 71.8368 422.471 71.7646 422.48 71.6931C422.489 71.6217 422.526 71.5567 422.583 71.5126C422.64 71.4685 422.712 71.4488 422.783 71.4578C424.215 71.638 425.662 71.7932 427.085 71.9198C427.155 71.9258 427.22 71.9586 427.266 72.0111C427.312 72.0637 427.336 72.1321 427.333 72.202C427.33 72.2719 427.3 72.338 427.25 72.3864C427.199 72.4348 427.132 72.4618 427.062 72.4618ZM448.705 72.1714C448.636 72.1715 448.57 72.1452 448.519 72.0979C448.469 72.0506 448.438 71.9858 448.434 71.9167C448.43 71.8477 448.452 71.7796 448.496 71.7264C448.54 71.6732 448.603 71.6388 448.672 71.6304C450.12 71.4461 451.557 71.2241 452.944 70.9709C453.013 70.962 453.082 70.98 453.139 71.0211C453.195 71.0621 453.233 71.1232 453.246 71.1917C453.258 71.2601 453.244 71.3308 453.206 71.3892C453.168 71.4475 453.109 71.4891 453.042 71.5053C451.645 71.7605 450.198 71.9841 448.741 72.1693C448.729 72.1707 448.717 72.1714 448.705 72.1714ZM418.456 71.3818C418.441 71.3819 418.427 71.3807 418.412 71.3782C416.982 71.1465 415.556 70.8908 414.134 70.611C414.064 70.5971 414.002 70.5557 413.962 70.4958C413.921 70.436 413.907 70.3627 413.921 70.292C413.935 70.2214 413.976 70.1591 414.036 70.119C414.096 70.0789 414.169 70.0642 414.24 70.0782C415.655 70.3569 417.088 70.6141 418.499 70.8423C418.568 70.8516 418.63 70.8869 418.674 70.9409C418.717 70.9949 418.738 71.0635 418.733 71.1326C418.727 71.2017 418.696 71.266 418.644 71.3123C418.592 71.3587 418.525 71.3835 418.456 71.3818ZM324.054 71.1414C323.995 71.1409 323.939 71.1215 323.892 71.0861C323.845 71.0508 323.811 71.0013 323.795 70.945C323.778 70.8888 323.781 70.8287 323.801 70.7738C323.821 70.7189 323.859 70.672 323.908 70.6401C325.17 69.8413 326.244 68.8573 327.01 67.7946C327.054 67.7405 327.117 67.7053 327.186 67.6961C327.255 67.6869 327.325 67.7044 327.381 67.7451C327.437 67.7859 327.476 67.8466 327.489 67.915C327.502 67.9833 327.488 68.054 327.451 68.1126C326.644 69.2314 325.519 70.2645 324.199 71.0995C324.156 71.1269 324.105 71.1414 324.054 71.1414ZM312.097 70.8591C312.057 70.8592 312.018 70.8506 311.983 70.8339C311.947 70.8173 311.915 70.7929 311.89 70.7626C311.298 70.0634 310.832 69.2151 310.503 68.2417C310.335 67.7459 310.19 67.2424 310.07 66.7329C310.062 66.6982 310.06 66.6622 310.066 66.6271C310.072 66.5919 310.084 66.5582 310.103 66.5279C310.122 66.4976 310.146 66.4713 310.175 66.4504C310.204 66.4296 310.237 66.4147 310.271 66.4065C310.306 66.3983 310.342 66.397 310.377 66.4028C310.412 66.4085 310.446 66.4211 310.476 66.4398C310.507 66.4586 310.533 66.4831 310.554 66.512C310.575 66.5409 310.59 66.5737 310.598 66.6084C310.711 67.0851 310.852 67.5766 311.017 68.0681C311.324 68.9767 311.757 69.7653 312.305 70.412C312.338 70.4515 312.36 70.4999 312.367 70.5513C312.374 70.6026 312.366 70.655 312.344 70.702C312.322 70.749 312.287 70.7888 312.243 70.8166C312.2 70.8445 312.149 70.8592 312.097 70.8591ZM457.234 70.6049C457.168 70.6046 457.105 70.5802 457.055 70.5362C457.006 70.4922 456.974 70.4317 456.966 70.366C456.958 70.3004 456.975 70.2341 457.012 70.1796C457.049 70.1251 457.105 70.0861 457.17 70.07C458.568 69.7271 459.954 69.3366 461.326 68.8991C461.394 68.8772 461.469 68.8834 461.533 68.9164C461.597 68.9495 461.645 69.0066 461.667 69.0752C461.689 69.1438 461.683 69.2184 461.65 69.2824C461.617 69.3464 461.56 69.3947 461.491 69.4167C460.108 69.8584 458.709 70.2523 457.299 70.5978C457.278 70.6024 457.256 70.6048 457.234 70.6049ZM409.946 69.7081C409.925 69.7083 409.905 69.7059 409.884 69.701C408.473 69.3739 407.067 69.0246 405.667 68.6531C405.632 68.6439 405.6 68.6281 405.571 68.6064C405.543 68.5848 405.519 68.5578 405.501 68.5269C405.483 68.496 405.472 68.462 405.467 68.4266C405.462 68.3912 405.465 68.3553 405.474 68.3208C405.483 68.2863 405.499 68.254 405.52 68.2256C405.542 68.1973 405.569 68.1734 405.6 68.1555C405.631 68.1376 405.665 68.1259 405.7 68.1212C405.736 68.1165 405.771 68.1187 405.806 68.1279C407.198 68.4974 408.611 68.8486 410.007 69.1717C410.072 69.1864 410.13 69.2247 410.169 69.2792C410.207 69.3337 410.225 69.4006 410.217 69.4671C410.209 69.5336 410.178 69.595 410.128 69.6395C410.078 69.6839 410.013 69.7084 409.946 69.7081ZM227.094 68.8547C227.03 68.8545 226.969 68.832 226.92 68.7912C226.871 68.7505 226.838 68.6939 226.827 68.6315C226.816 68.569 226.827 68.5045 226.858 68.4491C226.889 68.3938 226.938 68.3511 226.998 68.3285C228.354 67.8178 229.713 67.3161 231.075 66.8232C231.142 66.8031 231.214 66.8093 231.276 66.8406C231.338 66.8718 231.386 66.9257 231.41 66.9912C231.433 67.0566 231.431 67.1287 231.403 67.1925C231.375 67.2563 231.324 67.307 231.26 67.3342C229.9 67.8263 228.543 68.3272 227.19 68.8368C227.159 68.8487 227.127 68.8547 227.094 68.8547ZM465.483 67.9431C465.42 67.9426 465.36 67.9205 465.312 67.8806C465.263 67.8407 465.23 67.7854 465.218 67.724C465.206 67.6626 465.215 67.5988 465.245 67.5436C465.274 67.4883 465.322 67.4448 465.379 67.4204C466.708 66.8745 468.009 66.2627 469.278 65.5875C469.309 65.5707 469.344 65.5602 469.379 65.5566C469.414 65.5531 469.45 65.5566 469.484 65.5669C469.519 65.5772 469.55 65.5941 469.578 65.6167C469.606 65.6393 469.628 65.6671 469.645 65.6985C469.662 65.73 469.673 65.7644 469.676 65.7999C469.68 65.8354 469.676 65.8713 469.666 65.9054C469.656 65.9396 469.639 65.9713 469.616 65.999C469.594 66.0266 469.566 66.0494 469.534 66.0663C468.25 66.7503 466.932 67.3698 465.586 67.9227C465.553 67.9363 465.518 67.9433 465.483 67.9431ZM401.562 67.4837C401.536 67.4837 401.509 67.4799 401.484 67.4725C400.106 67.0596 398.713 66.6186 397.341 66.1622C397.276 66.1369 397.223 66.0876 397.193 66.0243C397.163 65.9611 397.159 65.8888 397.181 65.8226C397.203 65.7563 397.25 65.7011 397.312 65.6683C397.373 65.6356 397.445 65.6279 397.513 65.6467C398.88 66.102 400.268 66.541 401.64 66.9524C401.703 66.9706 401.757 67.011 401.793 67.0661C401.828 67.1212 401.842 67.1873 401.833 67.2521C401.823 67.3169 401.791 67.3761 401.741 67.4187C401.691 67.4613 401.628 67.4844 401.562 67.4837ZM235.26 65.8994C235.196 65.8995 235.133 65.8768 235.084 65.8353C235.035 65.7938 235.002 65.7363 234.992 65.6729C234.981 65.6095 234.993 65.5444 235.026 65.4891C235.059 65.4339 235.11 65.392 235.171 65.3711C236.539 64.8954 237.91 64.4284 239.284 63.97C239.351 63.9524 239.422 63.9608 239.482 63.9937C239.543 64.0265 239.589 64.0813 239.611 64.1469C239.633 64.2124 239.629 64.2839 239.6 64.3467C239.571 64.4095 239.52 64.459 239.456 64.485C238.084 64.9432 236.715 65.4095 235.349 65.8841C235.32 65.8941 235.29 65.8993 235.26 65.8994ZM393.333 64.7433C393.301 64.7435 393.269 64.7377 393.239 64.7264C391.879 64.2278 390.526 63.7093 389.182 63.1712C389.148 63.158 389.118 63.1383 389.093 63.1134C389.067 63.0885 389.047 63.0588 389.033 63.026C389.019 62.9932 389.011 62.958 389.011 62.9223C389.01 62.8866 389.017 62.8511 389.03 62.818C389.043 62.7849 389.063 62.7546 389.088 62.7291C389.113 62.7035 389.142 62.6831 389.175 62.6691C389.208 62.655 389.243 62.6475 389.279 62.647C389.315 62.6466 389.35 62.6532 389.383 62.6664C390.723 63.2025 392.071 63.7193 393.426 64.2165C393.487 64.2378 393.538 64.28 393.57 64.3355C393.603 64.391 393.614 64.4563 393.603 64.5196C393.592 64.5829 393.558 64.6402 393.509 64.6812C393.459 64.7221 393.397 64.7442 393.333 64.7433ZM328.639 64.2007C328.567 64.2007 328.498 64.1722 328.447 64.1215C328.396 64.0708 328.368 64.002 328.367 63.9302C328.361 62.6087 327.872 61.3271 326.916 60.1199C326.871 60.0636 326.851 59.9917 326.859 59.9202C326.867 59.8487 326.904 59.7834 326.96 59.7387C327.016 59.6939 327.088 59.6734 327.16 59.6816C327.231 59.6899 327.296 59.7262 327.341 59.7826C328.375 61.0872 328.903 62.4816 328.91 63.9276C328.91 63.9997 328.882 64.0689 328.831 64.1201C328.781 64.1713 328.712 64.2003 328.64 64.2007H328.639ZM473.096 63.8245C473.039 63.8242 472.983 63.8058 472.937 63.7717C472.891 63.7377 472.856 63.6899 472.839 63.6351C472.821 63.5804 472.822 63.5215 472.84 63.467C472.858 63.4124 472.893 63.365 472.939 63.3315C474.165 62.4576 475.267 61.5282 476.214 60.5681C476.265 60.523 476.332 60.4991 476.401 60.5013C476.47 60.5034 476.535 60.5314 476.584 60.5797C476.633 60.6279 476.662 60.6929 476.665 60.7615C476.668 60.8302 476.645 60.8975 476.6 60.9499C475.632 61.9324 474.506 62.8823 473.255 63.7745C473.208 63.807 473.153 63.8245 473.096 63.8245ZM243.496 63.1498C243.431 63.1499 243.369 63.1268 243.319 63.0846C243.27 63.0425 243.237 62.9841 243.227 62.9201C243.217 62.856 243.231 62.7905 243.265 62.7353C243.299 62.6802 243.352 62.6391 243.413 62.6194C244.793 62.1778 246.175 61.7453 247.56 61.322C247.628 61.306 247.698 61.3162 247.758 61.3506C247.818 61.3849 247.863 61.4408 247.883 61.5069C247.903 61.5729 247.898 61.6443 247.867 61.7063C247.837 61.7684 247.784 61.8166 247.72 61.8411C246.337 62.264 244.957 62.6958 243.579 63.1365C243.552 63.1453 243.524 63.1498 243.496 63.1498ZM310.031 62.6378C309.993 62.6378 309.955 62.6297 309.92 62.614C309.886 62.5984 309.854 62.5756 309.829 62.5471C309.803 62.5186 309.784 62.485 309.772 62.4486C309.761 62.4122 309.757 62.3737 309.761 62.3357C309.924 60.857 310.4 59.4299 311.156 58.1487C311.174 58.1179 311.197 58.0909 311.226 58.0693C311.254 58.0478 311.287 58.0321 311.322 58.0232C311.356 58.0143 311.392 58.0123 311.427 58.0174C311.463 58.0224 311.497 58.0345 311.528 58.0528C311.558 58.0708 311.585 58.0948 311.607 58.1233C311.628 58.1518 311.644 58.1843 311.653 58.2189C311.662 58.2534 311.664 58.2894 311.659 58.3248C311.654 58.3601 311.642 58.3941 311.623 58.4248C310.907 59.6403 310.456 60.9942 310.301 62.3969C310.294 62.4631 310.262 62.5242 310.212 62.5686C310.162 62.613 310.098 62.6377 310.031 62.6378ZM385.267 61.5471C385.232 61.5469 385.198 61.5401 385.165 61.5272C383.827 60.9859 382.483 60.4579 381.134 59.9433C381.067 59.9178 381.012 59.8665 380.983 59.8007C380.953 59.735 380.951 59.6603 380.977 59.5929C381.002 59.5256 381.054 59.4712 381.119 59.4416C381.185 59.4121 381.26 59.4099 381.327 59.4355C382.657 59.9428 384.017 60.4772 385.369 61.0239C385.427 61.048 385.474 61.0913 385.504 61.1465C385.534 61.2017 385.543 61.2654 385.531 61.3269C385.519 61.3884 385.487 61.4439 385.438 61.484C385.39 61.5241 385.33 61.5464 385.267 61.5471ZM251.799 60.612C251.733 60.6124 251.67 60.589 251.62 60.5461C251.57 60.5032 251.538 60.4436 251.529 60.3786C251.519 60.3135 251.534 60.2473 251.57 60.1922C251.606 60.1371 251.66 60.097 251.724 60.0791C253.114 59.6742 254.508 59.2795 255.904 58.8949C255.974 58.8758 256.048 58.885 256.11 58.9206C256.173 58.9561 256.219 59.0151 256.238 59.0846C256.257 59.154 256.248 59.2282 256.213 59.2909C256.177 59.3535 256.118 59.3995 256.049 59.4186C254.655 59.803 253.264 60.197 251.875 60.6007C251.85 60.6082 251.825 60.612 251.799 60.612ZM377.162 58.458C377.131 58.458 377.1 58.4526 377.071 58.4422C375.699 57.9522 374.321 57.4775 372.976 57.0304C372.942 57.0192 372.911 57.0014 372.884 56.978C372.857 56.9547 372.835 56.9263 372.819 56.8944C372.803 56.8626 372.793 56.8278 372.791 56.7923C372.788 56.7567 372.793 56.721 372.804 56.6871C372.815 56.6533 372.833 56.622 372.856 56.595C372.879 56.568 372.908 56.5459 372.94 56.5299C372.972 56.5139 373.006 56.5044 373.042 56.5018C373.077 56.4992 373.113 56.5036 373.147 56.5149C374.496 56.963 375.877 57.4392 377.254 57.9308C377.314 57.9523 377.365 57.9944 377.397 58.0497C377.429 58.1049 377.441 58.1698 377.43 58.2328C377.419 58.2959 377.386 58.353 377.337 58.3942C377.288 58.4354 377.226 58.458 377.162 58.458ZM260.169 58.308C260.103 58.3074 260.04 58.283 259.991 58.2393C259.941 58.1956 259.91 58.1355 259.901 58.0702C259.893 58.0048 259.909 57.9387 259.945 57.8841C259.982 57.8295 260.037 57.79 260.101 57.773C261.503 57.4095 262.908 57.0576 264.316 56.7175C264.386 56.7029 264.458 56.7159 264.517 56.7537C264.577 56.7914 264.62 56.8509 264.636 56.9196C264.653 56.9883 264.642 57.0608 264.606 57.1216C264.57 57.1824 264.512 57.2268 264.443 57.2453C263.028 57.5873 261.625 57.9394 260.237 58.2988C260.215 58.305 260.192 58.3081 260.169 58.308ZM323.852 57.4142C323.801 57.4142 323.751 57.3999 323.708 57.3729C323.045 56.961 322.36 56.5848 321.657 56.2459C321.073 55.9623 320.479 55.6976 319.877 55.4522C319.813 55.4236 319.762 55.371 319.736 55.3055C319.709 55.2401 319.709 55.1669 319.736 55.1016C319.763 55.0362 319.814 54.9838 319.878 54.9554C319.943 54.927 320.016 54.9248 320.082 54.9494C320.695 55.1994 321.3 55.4688 321.895 55.7574C322.615 56.1051 323.316 56.4906 323.996 56.9125C324.046 56.9437 324.084 56.9904 324.105 57.0455C324.126 57.1005 324.129 57.1609 324.113 57.2176C324.097 57.2742 324.062 57.324 324.015 57.3595C323.968 57.395 323.911 57.4142 323.852 57.4142ZM268.608 56.2719C268.541 56.2724 268.476 56.2479 268.425 56.2033C268.375 56.1586 268.343 56.0969 268.336 56.0301C268.329 55.9633 268.346 55.8962 268.386 55.8417C268.425 55.7872 268.483 55.7491 268.549 55.7349C269.984 55.4154 271.414 55.1122 272.797 54.8325C272.866 54.8231 272.936 54.8402 272.992 54.8803C273.048 54.9204 273.087 54.9805 273.101 55.0484C273.115 55.1162 273.102 55.1867 273.066 55.2455C273.029 55.3044 272.971 55.347 272.905 55.3649C271.489 55.6511 270.076 55.9512 268.666 56.2653C268.647 56.2698 268.627 56.272 268.608 56.2719ZM368.929 55.7263C368.902 55.7263 368.875 55.7224 368.85 55.7145C367.469 55.2925 366.083 54.8883 364.692 54.5018C364.623 54.4825 364.564 54.4364 364.529 54.3737C364.493 54.3109 364.484 54.2366 364.503 54.1672C364.523 54.0978 364.569 54.0388 364.631 54.0034C364.694 53.9679 364.768 53.9588 364.838 53.9781C366.206 54.3578 367.609 54.7672 369.009 55.1949C369.071 55.2139 369.125 55.2546 369.159 55.3097C369.194 55.3648 369.208 55.4305 369.198 55.495C369.189 55.5594 369.156 55.6182 369.107 55.6607C369.057 55.7031 368.994 55.7264 368.929 55.7263ZM314.232 55.3179C314.176 55.3186 314.12 55.3016 314.074 55.2694C314.028 55.2371 313.993 55.1912 313.974 55.1381C313.955 55.0849 313.953 55.0272 313.969 54.9729C313.984 54.9187 314.016 54.8707 314.06 54.8356C314.452 54.518 314.859 54.2193 315.279 53.9403C314.061 53.6263 312.831 53.3622 311.592 53.1487C311.557 53.1426 311.523 53.1296 311.493 53.1105C311.463 53.0914 311.437 53.0666 311.417 53.0374C311.396 53.0083 311.382 52.9754 311.374 52.9406C311.366 52.9058 311.365 52.8699 311.371 52.8348C311.377 52.7995 311.39 52.7657 311.409 52.7354C311.428 52.7052 311.453 52.679 311.482 52.6584C311.511 52.6378 311.544 52.6233 311.579 52.6156C311.614 52.6079 311.65 52.6073 311.685 52.6138C313.152 52.869 314.571 53.1818 315.902 53.5442C316.515 53.1727 317.147 52.834 317.796 52.5295C317.828 52.5128 317.863 52.5028 317.9 52.5001C317.936 52.4974 317.973 52.5021 318.007 52.5138C318.042 52.5255 318.074 52.5441 318.101 52.5684C318.128 52.5927 318.15 52.6222 318.166 52.6552C318.181 52.6882 318.19 52.724 318.191 52.7605C318.193 52.7969 318.187 52.8333 318.174 52.8674C318.161 52.9015 318.141 52.9326 318.116 52.9589C318.091 52.9852 318.06 53.0062 318.027 53.0206C316.649 53.6703 315.43 54.4232 314.403 55.2577C314.354 55.2967 314.294 55.318 314.232 55.3179ZM277.116 54.5559C277.048 54.556 276.983 54.5307 276.933 54.4848C276.882 54.4389 276.851 54.3759 276.845 54.3082C276.839 54.2404 276.859 54.1729 276.9 54.119C276.942 54.0651 277.002 54.0286 277.069 54.0169C278.521 53.7566 279.965 53.5151 281.359 53.2998C281.394 53.2943 281.43 53.2959 281.465 53.3044C281.499 53.3128 281.532 53.3281 281.561 53.3492C281.589 53.3702 281.614 53.3968 281.632 53.4273C281.651 53.4578 281.663 53.4916 281.668 53.5269C281.674 53.5621 281.672 53.5981 281.664 53.6328C281.655 53.6674 281.64 53.7001 281.619 53.7288C281.598 53.7576 281.571 53.7819 281.541 53.8004C281.51 53.819 281.477 53.8313 281.441 53.8367C280.052 54.0511 278.612 54.2915 277.164 54.5518C277.148 54.5544 277.132 54.5558 277.116 54.5559ZM360.571 53.409C360.549 53.409 360.527 53.4063 360.506 53.4008C359.105 53.0532 357.699 52.727 356.288 52.4223C356.253 52.4148 356.22 52.4005 356.191 52.3802C356.162 52.3599 356.137 52.334 356.117 52.304C356.098 52.2739 356.085 52.2404 356.079 52.2053C356.072 52.1701 356.073 52.1341 356.081 52.0993C356.088 52.0642 356.102 52.0309 356.122 52.0014C356.142 51.9719 356.168 51.9466 356.198 51.9272C356.228 51.9078 356.262 51.8946 356.297 51.8884C356.332 51.8822 356.368 51.8831 356.403 51.891C357.793 52.1911 359.218 52.5214 360.636 52.8736C360.701 52.8892 360.758 52.9281 360.796 52.9828C360.833 53.0376 360.85 53.1043 360.842 53.1703C360.834 53.2364 360.802 53.2972 360.752 53.3412C360.702 53.3852 360.638 53.4093 360.571 53.409ZM285.697 53.2349C285.628 53.2362 285.56 53.2103 285.508 53.1628C285.457 53.1154 285.426 53.0499 285.422 52.98C285.417 52.9102 285.44 52.8414 285.485 52.788C285.531 52.7346 285.595 52.7007 285.664 52.6934C287.13 52.5081 288.584 52.3468 289.986 52.2136C290.058 52.2084 290.128 52.2309 290.183 52.2764C290.238 52.322 290.274 52.387 290.282 52.4581C290.286 52.4936 290.282 52.5295 290.271 52.5636C290.261 52.5977 290.244 52.6294 290.221 52.6569C290.198 52.6844 290.17 52.7071 290.139 52.7238C290.107 52.7405 290.073 52.7508 290.037 52.7541C288.642 52.8868 287.193 53.0476 285.732 53.2324C285.721 53.2342 285.709 53.2351 285.697 53.2349ZM307.34 52.578C305.897 52.4407 304.451 52.3472 303.002 52.2978C302.93 52.2953 302.862 52.2643 302.813 52.2117C302.764 52.159 302.737 52.0891 302.74 52.0171C302.745 51.867 302.878 51.7409 303.021 51.7552C304.513 51.8073 305.975 51.9017 307.366 52.036C307.436 52.042 307.501 52.0749 307.547 52.1277C307.593 52.1805 307.617 52.2492 307.614 52.3193C307.61 52.3893 307.58 52.4554 307.529 52.5037C307.478 52.5519 307.41 52.5786 307.34 52.578ZM294.338 52.4234C294.266 52.4254 294.196 52.3987 294.144 52.3492C294.118 52.3247 294.097 52.2954 294.082 52.2628C294.068 52.2303 294.06 52.1951 294.059 52.1595C294.058 52.1238 294.064 52.0883 294.076 52.055C294.089 52.0217 294.108 51.9912 294.133 51.9652C294.182 51.9129 294.25 51.8823 294.322 51.8803C295.803 51.794 297.266 51.7389 298.671 51.7169C298.84 51.7246 298.944 51.8343 298.947 51.9844C298.948 52.0565 298.921 52.126 298.87 52.1778C298.82 52.2296 298.752 52.2593 298.68 52.2605C297.282 52.2825 295.827 52.3371 294.355 52.4229L294.338 52.4234ZM352.092 51.5832C352.076 51.5831 352.059 51.5817 352.043 51.5791C350.602 51.3183 349.165 51.0851 347.772 50.886C347.737 50.881 347.703 50.869 347.672 50.8509C347.641 50.8327 347.615 50.8087 347.593 50.7801C347.572 50.7516 347.556 50.7191 347.547 50.6846C347.538 50.65 347.536 50.614 347.541 50.5787C347.546 50.5434 347.558 50.5094 347.577 50.4787C347.595 50.448 347.619 50.4212 347.647 50.3997C347.676 50.3783 347.708 50.3627 347.743 50.3538C347.777 50.345 347.813 50.343 347.849 50.348C349.249 50.5481 350.692 50.7824 352.14 51.0442C352.206 51.0571 352.265 51.094 352.305 51.1478C352.345 51.2015 352.365 51.2684 352.359 51.3353C352.353 51.4023 352.322 51.4647 352.273 51.5105C352.224 51.5562 352.159 51.5822 352.092 51.5832ZM321.974 51.5434C321.908 51.5429 321.846 51.5189 321.797 51.476C321.748 51.433 321.716 51.3738 321.707 51.3093C321.698 51.2447 321.712 51.1791 321.747 51.1242C321.782 51.0694 321.836 51.0291 321.899 51.0105C323.3 50.6154 324.724 50.301 326.161 50.0688C326.232 50.058 326.305 50.0754 326.363 50.1173C326.421 50.1592 326.461 50.2222 326.473 50.2929C326.485 50.364 326.468 50.4369 326.426 50.4954C326.384 50.554 326.32 50.5935 326.249 50.6053C324.832 50.8339 323.429 51.1437 322.048 51.5332C322.024 51.5399 321.999 51.5433 321.974 51.5434ZM343.506 50.3638C342.062 50.2187 340.616 50.1086 339.167 50.0336C339.131 50.0318 339.096 50.0229 339.064 50.0076C339.032 49.9923 339.003 49.9707 338.979 49.9442C338.955 49.9177 338.937 49.8868 338.925 49.8532C338.913 49.8195 338.908 49.7839 338.91 49.7483C338.917 49.5987 339.024 49.4823 339.195 49.4905C340.598 49.5625 342.057 49.6738 343.532 49.8213C343.681 49.8361 343.79 49.9693 343.775 50.1188C343.769 50.1859 343.738 50.2482 343.688 50.2935C343.638 50.3388 343.573 50.3639 343.506 50.3638ZM330.512 50.1025C330.443 50.1005 330.377 50.0723 330.328 50.0237C330.279 49.975 330.25 49.9096 330.248 49.8405C330.245 49.7715 330.269 49.7041 330.315 49.652C330.36 49.5999 330.423 49.567 330.492 49.5599C331.94 49.4526 333.392 49.3954 334.844 49.3884H334.846C334.881 49.3883 334.917 49.3952 334.95 49.4088C334.982 49.4224 335.012 49.4423 335.038 49.4674C335.063 49.4926 335.083 49.5224 335.097 49.5553C335.111 49.5883 335.118 49.6235 335.118 49.6592C335.118 49.6949 335.111 49.7302 335.097 49.7632C335.084 49.7962 335.064 49.8262 335.039 49.8514C335.014 49.8767 334.984 49.8968 334.951 49.9105C334.918 49.9243 334.883 49.9314 334.847 49.9315C333.364 49.9402 331.912 49.9974 330.533 50.1015L330.512 50.1025ZM479.091 57.5847C479.043 57.5847 478.996 57.572 478.955 57.5479C478.914 57.5239 478.879 57.4894 478.856 57.4478C478.832 57.4063 478.819 57.3592 478.82 57.3113C478.82 57.2635 478.833 57.2166 478.857 57.1753C479.218 56.5637 479.531 55.9248 479.792 55.2643C479.821 55.2019 479.873 55.153 479.938 55.1275C480.002 55.102 480.073 55.1018 480.137 55.1271C480.202 55.1523 480.254 55.201 480.284 55.2633C480.314 55.3257 480.319 55.397 480.298 55.4629C480.026 56.15 479.701 56.8148 479.325 57.451C479.301 57.4917 479.267 57.5255 479.226 57.5489C479.185 57.5724 479.138 57.5847 479.091 57.5847Z" fill="white"/>
<path d="M146.016 102.714H142.989C142.14 98.8437 140.714 95.1232 138.76 91.677L141.27 89.1657C145.021 85.4141 145.021 79.331 141.27 75.5789C137.52 71.8269 131.439 71.8269 127.688 75.5789L125.544 77.7237C122.212 75.5839 118.576 73.9604 114.759 72.9084L114.755 72.9074V69.3564C114.755 64.0507 110.455 59.7494 105.15 59.7494C99.8462 59.7494 95.5457 64.0507 95.5457 69.3564V72.3858C91.6769 73.2349 87.9576 74.6606 84.5123 76.6151L82.0018 74.1038C78.2513 70.3518 72.17 70.3518 68.4191 74.1038C64.6681 77.8559 64.6681 83.9385 68.4191 87.6906L70.5622 89.8344C68.4225 93.1677 66.7991 96.8055 65.7473 100.625L65.7468 100.628H62.1984C56.8942 100.628 52.5942 104.929 52.5942 110.235C52.5942 115.541 56.8942 119.842 62.1984 119.842H65.2248C66.0736 123.713 67.499 127.434 69.4534 130.881L66.9449 133.39C63.194 137.142 63.194 143.225 66.9449 146.977C70.6959 150.729 76.7767 150.729 80.5276 146.977L82.6636 144.84C86.0031 146.973 89.6418 148.597 93.4597 149.658V153.2C93.4597 158.506 97.7597 162.807 103.064 162.807C108.369 162.807 112.668 158.506 112.668 153.2V150.173C116.538 149.324 120.257 147.898 123.703 145.942L126.212 148.452C129.962 152.204 136.043 152.204 139.794 148.452C143.545 144.7 143.545 138.617 139.794 134.865L137.657 132.727L137.658 132.727C139.79 129.386 141.413 125.747 142.474 121.928H146.015C151.32 121.928 155.62 117.627 155.62 112.321C155.621 107.015 151.321 102.714 146.016 102.714ZM132.704 111.279C132.704 127.073 119.897 139.885 104.106 139.885C88.3168 139.885 75.5087 127.073 75.5087 111.279C75.5087 95.4755 88.3168 82.6732 104.106 82.6732C119.897 82.6732 132.704 95.4755 132.704 111.279Z" fill="white"/>
<path d="M86.0332 111.279C86.0332 121.264 94.1255 129.358 104.107 129.358C114.09 129.358 122.191 121.264 122.191 111.279C122.191 101.294 114.09 93.1903 104.107 93.1903C94.125 93.1903 86.0332 101.294 86.0332 111.279Z" fill="white"/>
<path d="M225.796 66.6762H223.816C223.262 64.1455 222.329 61.7125 221.051 59.4589L222.693 57.8169C225.146 55.3634 225.146 51.3857 222.693 48.9326C220.24 46.4791 216.264 46.4791 213.811 48.9326L212.409 50.3352C210.23 48.936 207.853 47.8745 205.357 47.1865L205.354 47.186V44.8636C205.354 41.3938 202.542 38.5814 199.074 38.5814C195.605 38.5814 192.793 41.3938 192.793 44.8636V46.8445C190.264 47.3997 187.832 48.3319 185.579 49.6099L183.937 47.9679C181.485 45.5144 177.508 45.5144 175.056 47.9679C172.603 50.4215 172.603 54.3992 175.056 56.8523L176.457 58.2539C175.058 60.4334 173.996 62.8122 173.309 65.3093L173.308 65.3114H170.988C167.519 65.3114 164.708 68.1238 164.708 71.5936C164.708 75.0634 167.52 77.8758 170.988 77.8758H172.967C173.522 80.4068 174.454 82.8401 175.732 85.0941L174.091 86.7351C171.638 89.1887 171.638 93.1664 174.091 95.6194C176.544 98.073 180.521 98.073 182.973 95.6194L184.37 94.2219L184.372 94.2229C186.555 95.6176 188.934 96.6791 191.43 97.3727V99.6885C191.43 103.158 194.242 105.971 197.71 105.971C201.179 105.971 203.991 103.158 203.991 99.6885V97.7096C206.521 97.1542 208.953 96.2218 211.207 94.9436L212.847 96.5846C215.3 99.0382 219.277 99.0382 221.729 96.5846C224.182 94.131 224.182 90.1534 221.729 87.7003L220.331 86.3023L220.332 86.3018C221.726 84.1176 222.788 81.7378 223.481 79.2407H225.797C229.266 79.2407 232.077 76.4277 232.077 72.9584C232.077 69.4891 229.265 66.6762 225.796 66.6762ZM217.092 72.277C217.092 82.6053 208.717 90.9828 198.392 90.9828C188.067 90.9828 179.691 82.6053 179.691 72.277C179.691 61.9431 188.067 53.5713 198.392 53.5713C208.717 53.5718 217.092 61.9431 217.092 72.277Z" fill="#ECECEC"/>
<path d="M186.573 72.277C186.573 78.8063 191.864 84.0993 198.391 84.0993C204.919 84.0993 210.216 78.8063 210.216 72.277C210.216 65.7478 204.919 60.4486 198.391 60.4486C191.864 60.4492 186.573 65.7478 186.573 72.277Z" fill="#ECECEC"/>
<path d="M585.003 134.963V420.605C585.003 424.937 581.596 428.448 577.386 428.448H117.971C113.76 428.448 110.344 424.937 110.344 420.605V134.963C110.344 130.631 113.76 127.12 117.971 127.12H577.386C581.597 127.12 585.003 130.631 585.003 134.963Z" fill="#B5BDFF"/>
<path d="M595.352 135.106V425.97C595.352 430.381 591.786 433.956 587.378 433.956H106.474C102.066 433.956 98.4907 430.381 98.4907 425.97V135.106C98.4907 130.696 102.066 127.12 106.474 127.12H587.378C591.786 127.12 595.352 130.695 595.352 135.106Z" fill="white"/>
<path d="M339.269 114.262C339.269 109.251 343.298 105.189 348.267 105.189C353.236 105.189 357.266 109.251 357.266 114.262C357.266 119.274 353.236 123.336 348.267 123.336C343.298 123.335 339.269 119.274 339.269 114.262Z" fill="#999999"/>
<path d="M623.87 461.994H72.6637C69.2256 461.994 66.438 456.635 66.438 450.023C66.438 443.412 69.2256 438.051 72.6637 438.051H623.87C627.308 438.051 630.094 443.412 630.094 450.023C630.094 456.635 627.308 461.994 623.87 461.994Z" fill="#2D2D2D"/>
<path d="M590.926 100.223H102.916C98.9039 100.223 95.6494 103.505 95.6494 107.551V430.719C95.6494 434.764 98.9044 438.046 102.916 438.046H590.926C594.938 438.046 598.193 434.764 598.193 430.719V107.551C598.193 103.505 594.938 100.223 590.926 100.223ZM593.365 423.874C593.365 428.254 589.839 431.804 585.479 431.804H109.878C105.518 431.804 101.982 428.254 101.982 423.874V135.05C101.982 130.67 105.518 127.12 109.878 127.12H585.479C589.839 127.12 593.365 130.67 593.365 135.05V423.874Z" fill="#2D2D2D"/>
<path d="M383.005 254.895C401.657 236.238 401.656 205.988 383.004 187.331C364.351 168.673 334.111 168.674 315.459 187.332C296.808 205.99 296.808 236.239 315.46 254.897C334.113 273.554 364.353 273.553 383.005 254.895Z" fill="url(#paint0_linear_21_1236)"/>
<path d="M348.524 226.146C358.765 226.146 367.066 217.842 367.066 207.599C367.066 197.356 358.765 189.052 348.524 189.052C338.284 189.052 329.983 197.356 329.983 207.599C329.983 217.842 338.284 226.146 348.524 226.146Z" fill="white"/>
<path d="M365.531 226.296C364.038 225.129 361.953 225.171 360.486 226.368C357.178 229.072 353.037 230.547 348.765 230.541C344.629 230.55 340.611 229.165 337.359 226.61C335.863 225.436 333.743 225.46 332.3 226.697C328.56 229.906 326.282 234.533 326.282 240.547V241.089C326.282 244.199 328.802 246.721 331.911 246.721H366.56C369.669 246.721 372.19 244.199 372.19 241.089V240.547C372.19 234.276 369.646 229.511 365.531 226.296Z" fill="white"/>
<path d="M397.707 299.405H281.782C278.911 299.405 276.583 297.077 276.583 294.205V291.41C276.583 288.538 278.911 286.21 281.782 286.21H397.707C400.579 286.21 402.906 288.538 402.906 291.41V294.205C402.906 297.077 400.578 299.405 397.707 299.405ZM397.707 329.774H282.129C279.257 329.774 276.93 327.446 276.93 324.574V321.779C276.93 318.907 279.257 316.579 282.129 316.579H397.707C400.579 316.579 402.906 318.907 402.906 321.779V324.574C402.906 327.446 400.578 329.774 397.707 329.774ZM429.114 299.405H414.804C411.933 299.405 409.606 297.077 409.606 294.205V291.41C409.606 288.538 411.933 286.21 414.804 286.21H429.114C431.985 286.21 434.313 288.538 434.313 291.41V294.205C434.313 297.077 431.985 299.405 429.114 299.405ZM429.114 329.774H414.804C411.933 329.774 409.606 327.446 409.606 324.574V321.779C409.606 318.907 411.933 316.579 414.804 316.579H429.114C431.985 316.579 434.313 318.907 434.313 321.779V324.574C434.313 327.446 431.985 329.774 429.114 329.774Z" fill="#62BD5A"/>
<path d="M288.746 319.053L289.13 321.751C289.135 321.783 289.146 321.813 289.164 321.839C289.181 321.866 289.205 321.888 289.232 321.905C289.26 321.921 289.291 321.931 289.322 321.934C289.354 321.937 289.386 321.933 289.416 321.922L291.973 320.981C292.202 320.897 292.372 321.2 292.179 321.351L290.036 323.033C290.011 323.053 289.99 323.078 289.976 323.106C289.962 323.135 289.954 323.167 289.954 323.198C289.953 323.23 289.96 323.262 289.973 323.291C289.986 323.32 290.006 323.346 290.031 323.366L292.123 325.111C292.311 325.268 292.133 325.566 291.906 325.475L289.378 324.459C289.348 324.447 289.316 324.441 289.285 324.443C289.253 324.445 289.222 324.455 289.194 324.47C289.166 324.486 289.142 324.507 289.123 324.533C289.105 324.56 289.092 324.589 289.087 324.621L288.623 327.306C288.581 327.547 288.234 327.542 288.199 327.3L287.815 324.602C287.811 324.57 287.799 324.54 287.781 324.514C287.764 324.487 287.74 324.465 287.713 324.448C287.685 324.432 287.655 324.422 287.623 324.419C287.591 324.416 287.559 324.42 287.529 324.431L284.972 325.372C284.743 325.456 284.573 325.153 284.766 325.002L286.909 323.32C286.935 323.3 286.955 323.275 286.969 323.246C286.983 323.218 286.991 323.186 286.991 323.154C286.992 323.122 286.985 323.091 286.972 323.062C286.959 323.033 286.939 323.007 286.914 322.987L284.821 321.242C284.634 321.085 284.812 320.787 285.039 320.878L287.567 321.894C287.596 321.906 287.628 321.911 287.66 321.909C287.692 321.907 287.723 321.898 287.751 321.883C287.779 321.867 287.803 321.846 287.822 321.819C287.84 321.793 287.853 321.763 287.858 321.732L288.322 319.047C288.364 318.806 288.711 318.811 288.746 319.053ZM300.792 319.053L301.176 321.751C301.181 321.783 301.192 321.813 301.21 321.839C301.228 321.866 301.251 321.888 301.279 321.905C301.306 321.921 301.337 321.931 301.369 321.934C301.401 321.937 301.433 321.933 301.463 321.922L304.02 320.981C304.249 320.897 304.418 321.2 304.226 321.351L302.082 323.033C302.057 323.053 302.036 323.078 302.022 323.106C302.008 323.135 302 323.167 302 323.198C302 323.23 302.006 323.262 302.019 323.291C302.033 323.32 302.052 323.346 302.077 323.366L304.17 325.111C304.358 325.268 304.18 325.566 303.953 325.475L301.425 324.459C301.395 324.447 301.363 324.441 301.331 324.443C301.299 324.445 301.268 324.455 301.24 324.47C301.212 324.486 301.188 324.507 301.17 324.533C301.151 324.56 301.139 324.589 301.133 324.621L300.67 327.306C300.628 327.547 300.281 327.542 300.246 327.3L299.862 324.602C299.857 324.57 299.846 324.54 299.828 324.514C299.81 324.487 299.787 324.465 299.76 324.448C299.732 324.432 299.701 324.422 299.67 324.419C299.638 324.416 299.606 324.42 299.576 324.431L297.019 325.372C296.79 325.456 296.62 325.153 296.813 325.002L298.956 323.32C298.981 323.3 299.002 323.275 299.016 323.246C299.03 323.218 299.038 323.186 299.038 323.154C299.039 323.122 299.032 323.091 299.019 323.062C299.005 323.033 298.986 323.007 298.961 322.987L296.868 321.242C296.68 321.085 296.858 320.787 297.086 320.878L299.613 321.894C299.643 321.906 299.675 321.911 299.707 321.909C299.739 321.907 299.77 321.898 299.798 321.883C299.826 321.867 299.85 321.846 299.868 321.819C299.887 321.793 299.899 321.763 299.905 321.732L300.369 319.047C300.41 318.806 300.758 318.811 300.792 319.053ZM312.838 319.053L313.223 321.751C313.227 321.783 313.239 321.813 313.256 321.839C313.274 321.866 313.298 321.888 313.325 321.905C313.352 321.921 313.383 321.931 313.415 321.934C313.447 321.937 313.479 321.933 313.509 321.922L316.066 320.981C316.295 320.897 316.464 321.2 316.272 321.351L314.128 323.033C314.103 323.053 314.083 323.078 314.069 323.106C314.054 323.135 314.047 323.167 314.046 323.198C314.046 323.23 314.052 323.262 314.066 323.291C314.079 323.32 314.099 323.346 314.123 323.366L316.216 325.111C316.404 325.268 316.226 325.566 315.999 325.475L313.471 324.459C313.442 324.447 313.41 324.441 313.378 324.443C313.346 324.445 313.315 324.455 313.287 324.47C313.259 324.486 313.235 324.507 313.216 324.533C313.198 324.56 313.185 324.589 313.18 324.621L312.716 327.306C312.674 327.547 312.327 327.542 312.292 327.3L311.908 324.602C311.904 324.57 311.892 324.54 311.874 324.514C311.857 324.487 311.833 324.465 311.806 324.448C311.778 324.432 311.748 324.422 311.716 324.419C311.684 324.416 311.652 324.42 311.622 324.431L309.065 325.372C308.836 325.456 308.667 325.153 308.859 325.002L311.002 323.32C311.028 323.3 311.048 323.275 311.062 323.246C311.076 323.218 311.084 323.186 311.085 323.154C311.085 323.122 311.078 323.091 311.065 323.062C311.052 323.033 311.032 323.007 311.008 322.987L308.915 321.242C308.727 321.085 308.905 320.787 309.132 320.878L311.66 321.894C311.689 321.906 311.721 321.911 311.753 321.909C311.785 321.907 311.816 321.898 311.844 321.883C311.872 321.867 311.896 321.846 311.915 321.819C311.933 321.793 311.946 321.763 311.951 321.732L312.415 319.047C312.457 318.806 312.804 318.811 312.838 319.053ZM324.885 319.053L325.269 321.751C325.273 321.783 325.285 321.813 325.303 321.839C325.32 321.866 325.344 321.888 325.371 321.905C325.399 321.921 325.429 321.931 325.461 321.934C325.493 321.937 325.525 321.933 325.555 321.922L328.112 320.981C328.341 320.897 328.511 321.2 328.318 321.351L326.175 323.033C326.15 323.053 326.129 323.078 326.115 323.106C326.101 323.135 326.093 323.167 326.093 323.198C326.092 323.23 326.099 323.262 326.112 323.291C326.125 323.32 326.145 323.346 326.17 323.366L328.263 325.111C328.45 325.268 328.272 325.566 328.045 325.475L325.517 324.459C325.488 324.447 325.456 324.441 325.424 324.443C325.392 324.445 325.361 324.455 325.333 324.47C325.305 324.486 325.281 324.507 325.262 324.533C325.244 324.56 325.232 324.589 325.226 324.621L324.762 327.306C324.72 327.547 324.373 327.542 324.339 327.3L323.955 324.602C323.95 324.57 323.939 324.54 323.921 324.514C323.903 324.487 323.88 324.465 323.852 324.448C323.825 324.432 323.794 324.422 323.762 324.419C323.73 324.416 323.698 324.42 323.668 324.431L321.111 325.372C320.882 325.456 320.713 325.153 320.905 325.002L323.049 323.32C323.074 323.3 323.094 323.275 323.109 323.246C323.123 323.218 323.13 323.186 323.131 323.154C323.131 323.122 323.125 323.091 323.111 323.062C323.098 323.033 323.078 323.007 323.054 322.987L320.961 321.242C320.773 321.085 320.951 320.787 321.178 320.878L323.706 321.894C323.736 321.906 323.768 321.911 323.8 321.909C323.831 321.907 323.863 321.898 323.89 321.883C323.918 321.867 323.943 321.846 323.961 321.819C323.98 321.793 323.992 321.763 323.997 321.732L324.461 319.047C324.503 318.806 324.851 318.811 324.885 319.053ZM336.932 319.053L337.316 321.751C337.32 321.783 337.332 321.813 337.35 321.839C337.367 321.866 337.391 321.888 337.418 321.905C337.446 321.921 337.476 321.931 337.508 321.934C337.54 321.937 337.572 321.933 337.602 321.922L340.159 320.981C340.388 320.897 340.557 321.2 340.365 321.351L338.222 323.033C338.196 323.053 338.176 323.078 338.162 323.106C338.148 323.135 338.14 323.167 338.139 323.198C338.139 323.23 338.146 323.262 338.159 323.291C338.172 323.32 338.192 323.346 338.216 323.366L340.31 325.111C340.497 325.268 340.319 325.566 340.092 325.475L337.564 324.459C337.535 324.447 337.503 324.441 337.471 324.443C337.439 324.445 337.408 324.455 337.38 324.47C337.352 324.486 337.328 324.507 337.309 324.533C337.291 324.56 337.278 324.589 337.273 324.621L336.809 327.306C336.767 327.547 336.42 327.542 336.386 327.3L336.001 324.602C335.997 324.57 335.985 324.54 335.968 324.514C335.95 324.487 335.926 324.465 335.899 324.448C335.872 324.432 335.841 324.422 335.809 324.419C335.777 324.416 335.745 324.42 335.715 324.431L333.158 325.372C332.929 325.456 332.76 325.153 332.952 325.002L335.096 323.32C335.121 323.3 335.141 323.275 335.155 323.246C335.17 323.218 335.177 323.186 335.178 323.154C335.178 323.122 335.172 323.091 335.158 323.062C335.145 323.033 335.125 323.007 335.101 322.987L333.008 321.242C332.82 321.085 332.998 320.787 333.225 320.878L335.753 321.894C335.783 321.906 335.814 321.911 335.846 321.909C335.878 321.907 335.909 321.898 335.937 321.883C335.965 321.867 335.989 321.846 336.008 321.819C336.026 321.793 336.039 321.763 336.044 321.732L336.508 319.047C336.549 318.806 336.897 318.811 336.932 319.053ZM285.976 292.807C285.976 292.397 286.139 292.003 286.429 291.713C286.719 291.423 287.112 291.26 287.522 291.26C287.932 291.26 288.326 291.423 288.616 291.713C288.906 292.003 289.069 292.397 289.069 292.807C289.069 293.217 288.906 293.611 288.616 293.901C288.326 294.191 287.932 294.354 287.522 294.354C287.112 294.354 286.719 294.191 286.429 293.901C286.139 293.611 285.976 293.217 285.976 292.807ZM290.97 292.807C290.97 292.397 291.133 292.003 291.423 291.713C291.713 291.423 292.106 291.26 292.517 291.26C292.927 291.26 293.32 291.423 293.61 291.713C293.9 292.003 294.063 292.397 294.063 292.807C294.063 293.217 293.9 293.611 293.61 293.901C293.32 294.191 292.927 294.354 292.517 294.354C292.106 294.354 291.713 294.191 291.423 293.901C291.133 293.611 290.97 293.217 290.97 292.807ZM295.965 292.807C295.965 292.397 296.128 292.003 296.418 291.713C296.708 291.423 297.101 291.26 297.512 291.26C297.922 291.26 298.315 291.423 298.605 291.713C298.895 292.003 299.058 292.397 299.058 292.807C299.058 293.217 298.895 293.611 298.605 293.901C298.315 294.191 297.922 294.354 297.512 294.354C297.101 294.354 296.708 294.191 296.418 293.901C296.128 293.611 295.965 293.217 295.965 292.807ZM300.96 292.807C300.96 292.397 301.123 292.003 301.413 291.713C301.703 291.423 302.096 291.26 302.507 291.26C302.917 291.26 303.31 291.423 303.6 291.713C303.89 292.003 304.053 292.397 304.053 292.807C304.053 293.217 303.89 293.611 303.6 293.901C303.31 294.191 302.917 294.354 302.507 294.354C302.096 294.354 301.703 294.191 301.413 293.901C301.123 293.611 300.96 293.217 300.96 292.807ZM305.954 292.807C305.954 292.397 306.117 292.003 306.407 291.713C306.697 291.423 307.091 291.26 307.501 291.26C307.911 291.26 308.305 291.423 308.595 291.713C308.885 292.003 309.048 292.397 309.048 292.807C309.048 293.217 308.885 293.611 308.595 293.901C308.305 294.191 307.911 294.354 307.501 294.354C307.091 294.354 306.697 294.191 306.407 293.901C306.117 293.611 305.954 293.217 305.954 292.807ZM310.949 292.807C310.949 292.397 311.112 292.003 311.402 291.713C311.692 291.423 312.086 291.26 312.496 291.26C312.906 291.26 313.3 291.423 313.59 291.713C313.88 292.003 314.043 292.397 314.043 292.807C314.043 293.217 313.88 293.611 313.59 293.901C313.3 294.191 312.906 294.354 312.496 294.354C312.086 294.354 311.692 294.191 311.402 293.901C311.112 293.611 310.949 293.217 310.949 292.807ZM315.944 292.807C315.944 292.397 316.107 292.003 316.397 291.713C316.687 291.423 317.081 291.26 317.491 291.26C317.901 291.26 318.295 291.423 318.585 291.713C318.875 292.003 319.038 292.397 319.038 292.807C319.038 293.217 318.875 293.611 318.585 293.901C318.295 294.191 317.901 294.354 317.491 294.354C317.081 294.354 316.687 294.191 316.397 293.901C316.107 293.611 315.944 293.217 315.944 292.807ZM320.939 292.807C320.939 292.397 321.102 292.003 321.392 291.713C321.682 291.423 322.075 291.26 322.485 291.26C322.896 291.26 323.289 291.423 323.579 291.713C323.869 292.003 324.032 292.397 324.032 292.807C324.032 293.217 323.869 293.611 323.579 293.901C323.289 294.191 322.896 294.354 322.485 294.354C322.075 294.354 321.682 294.191 321.392 293.901C321.102 293.611 320.939 293.217 320.939 292.807Z" fill="white"/>
<path d="M381.754 371.991H320.265C319.119 371.99 318.02 371.535 317.21 370.724C316.399 369.914 315.944 368.814 315.944 367.668V357.107C315.944 355.96 316.399 354.861 317.21 354.05C318.02 353.24 319.119 352.784 320.265 352.784H381.754C382.9 352.784 383.999 353.24 384.81 354.05C385.62 354.861 386.075 355.96 386.076 357.107V367.668C386.076 368.814 385.62 369.914 384.81 370.725C383.999 371.535 382.9 371.991 381.754 371.991Z" fill="url(#paint1_linear_21_1236)"/>
<path d="M368.607 386.774H331.475C331.266 386.774 331.065 386.691 330.917 386.543C330.77 386.395 330.687 386.195 330.687 385.986V385.635C330.687 385.199 331.039 384.846 331.475 384.846H368.607C369.043 384.846 369.395 385.199 369.395 385.635V385.986C369.395 386.421 369.043 386.774 368.607 386.774ZM381.803 394.037H318.279C318.07 394.037 317.869 393.954 317.721 393.806C317.574 393.658 317.491 393.457 317.491 393.248V392.897C317.491 392.462 317.843 392.109 318.279 392.109H381.803C382.239 392.109 382.591 392.462 382.591 392.897V393.248C382.591 393.683 382.239 394.037 381.803 394.037Z" fill="#64BE58"/>
<path d="M333.079 366.388V357.002H335.347V364.545H339.252V366.388H333.079Z" fill="white"/>
<path d="M343.712 366.52C342.973 366.52 342.337 366.369 341.806 366.067C341.277 365.761 340.869 365.337 340.582 364.793C340.298 364.246 340.156 363.612 340.156 362.891C340.156 362.167 340.298 361.533 340.582 360.989C340.869 360.442 341.277 360.017 341.806 359.715C342.337 359.409 342.973 359.256 343.712 359.256C344.452 359.256 345.086 359.409 345.614 359.715C346.146 360.017 346.554 360.442 346.838 360.989C347.125 361.533 347.269 362.167 347.269 362.891C347.269 363.612 347.125 364.246 346.838 364.793C346.554 365.337 346.146 365.761 345.614 366.067C345.086 366.369 344.452 366.52 343.712 366.52ZM343.726 364.829C343.995 364.829 344.223 364.747 344.409 364.582C344.595 364.417 344.737 364.188 344.835 363.894C344.936 363.601 344.986 363.262 344.986 362.877C344.986 362.486 344.936 362.144 344.835 361.85C344.737 361.557 344.595 361.328 344.409 361.163C344.223 360.998 343.995 360.916 343.726 360.916C343.448 360.916 343.213 360.998 343.02 361.163C342.831 361.328 342.686 361.557 342.585 361.85C342.487 362.144 342.438 362.486 342.438 362.877C342.438 363.262 342.487 363.601 342.585 363.894C342.686 364.188 342.831 364.417 343.02 364.582C343.213 364.747 343.448 364.829 343.726 364.829Z" fill="white"/>
<path d="M351.698 369.174C351.029 369.174 350.456 369.081 349.979 368.894C349.503 368.708 349.129 368.453 348.857 368.129C348.585 367.805 348.421 367.439 348.366 367.029L350.488 366.91C350.528 367.054 350.601 367.179 350.708 367.286C350.818 367.393 350.96 367.475 351.134 367.533C351.312 367.591 351.519 367.62 351.758 367.62C352.133 367.62 352.444 367.529 352.688 367.345C352.936 367.165 353.059 366.849 353.059 366.397V365.159H352.981C352.893 365.376 352.758 365.57 352.578 365.741C352.398 365.912 352.173 366.047 351.904 366.145C351.639 366.242 351.333 366.291 350.988 366.291C350.474 366.291 350.004 366.172 349.576 365.934C349.151 365.692 348.811 365.32 348.554 364.816C348.301 364.308 348.174 363.656 348.174 362.859C348.174 362.037 348.305 361.36 348.568 360.828C348.831 360.294 349.174 359.898 349.599 359.641C350.027 359.385 350.487 359.256 350.979 359.256C351.348 359.256 351.664 359.321 351.927 359.449C352.193 359.574 352.412 359.736 352.583 359.935C352.754 360.133 352.884 360.34 352.972 360.553H353.036V359.348H355.268V366.415C355.268 367.011 355.119 367.513 354.819 367.923C354.52 368.332 354.101 368.642 353.563 368.853C353.026 369.067 352.404 369.174 351.698 369.174ZM351.767 364.66C352.039 364.66 352.271 364.588 352.463 364.444C352.656 364.301 352.804 364.095 352.908 363.826C353.012 363.557 353.064 363.234 353.064 362.859C353.064 362.477 353.012 362.148 352.908 361.873C352.807 361.595 352.659 361.381 352.463 361.232C352.271 361.082 352.039 361.007 351.767 361.007C351.489 361.007 351.254 361.084 351.061 361.236C350.869 361.389 350.722 361.604 350.621 361.883C350.523 362.157 350.474 362.483 350.474 362.859C350.474 363.234 350.525 363.557 350.626 363.826C350.727 364.095 350.872 364.301 351.061 364.444C351.254 364.588 351.489 364.66 351.767 364.66Z" fill="white"/>
<path d="M361.738 357.002V366.388H359.47V357.002H361.738Z" fill="white"/>
<path d="M365.403 362.373V366.388H363.162V359.348H365.293V360.641H365.371C365.527 360.21 365.793 359.872 366.169 359.628C366.545 359.38 366.992 359.256 367.512 359.256C368.007 359.256 368.436 359.368 368.799 359.591C369.166 359.811 369.45 360.12 369.652 360.517C369.857 360.911 369.957 361.372 369.954 361.901V366.388H367.713V362.341C367.716 361.95 367.617 361.644 367.415 361.424C367.217 361.204 366.94 361.094 366.586 361.094C366.351 361.094 366.143 361.146 365.963 361.25C365.785 361.351 365.648 361.496 365.55 361.685C365.455 361.875 365.407 362.104 365.403 362.373Z" fill="white"/>
<path d="M130.71 148.101H497.707V162.827H130.71V148.101ZM511.994 148.101H537.996V162.827H511.994V148.101ZM579.393 150.169H552.902C552.776 150.169 552.651 150.144 552.535 150.096C552.418 150.047 552.313 149.977 552.223 149.888C552.134 149.798 552.064 149.693 552.016 149.576C551.967 149.46 551.943 149.335 551.943 149.209V149.061C551.943 148.935 551.967 148.81 552.016 148.694C552.064 148.577 552.134 148.472 552.223 148.383C552.313 148.293 552.418 148.223 552.535 148.175C552.651 148.126 552.776 148.101 552.902 148.101H579.393C579.647 148.101 579.891 148.203 580.071 148.383C580.251 148.562 580.352 148.807 580.352 149.061V149.209C580.352 149.464 580.251 149.708 580.071 149.888C579.891 150.068 579.647 150.169 579.393 150.169ZM579.393 155.981H552.902C552.776 155.981 552.651 155.956 552.535 155.908C552.418 155.86 552.313 155.789 552.223 155.7C552.134 155.611 552.064 155.505 552.016 155.389C551.967 155.273 551.943 155.148 551.943 155.022V154.874C551.943 154.748 551.967 154.623 552.016 154.506C552.064 154.39 552.134 154.284 552.223 154.195C552.313 154.106 552.418 154.035 552.535 153.987C552.651 153.939 552.776 153.914 552.902 153.914H579.393C579.647 153.914 579.891 154.015 580.071 154.195C580.251 154.375 580.352 154.619 580.352 154.874V155.022C580.352 155.276 580.251 155.52 580.071 155.7C579.891 155.88 579.647 155.981 579.393 155.981ZM579.393 161.794H552.902C552.776 161.794 552.651 161.769 552.535 161.721C552.418 161.673 552.313 161.602 552.223 161.513C552.134 161.424 552.064 161.318 552.016 161.202C551.967 161.085 551.943 160.96 551.943 160.834V160.686C551.943 160.56 551.967 160.436 552.016 160.319C552.064 160.203 552.134 160.097 552.223 160.008C552.313 159.919 552.418 159.848 552.535 159.8C552.651 159.752 552.776 159.727 552.902 159.727H579.393C579.647 159.727 579.891 159.828 580.071 160.008C580.251 160.188 580.352 160.432 580.352 160.686V160.834C580.352 161.089 580.251 161.333 580.071 161.513C579.891 161.693 579.647 161.794 579.393 161.794Z" fill="url(#paint2_linear_21_1236)"/>
<path d="M192.7 435.989C192.7 435.989 177.024 438.308 177.291 438.153C177.559 437.997 205.982 452.579 205.982 452.579L233.987 440.027L220.102 435.989L192.7 435.989Z" fill="#30334D"/>
<path d="M198.721 457.384C198.642 457.385 198.562 457.385 198.486 457.387L198.342 457.387C194.353 457.433 191.749 457.334 191.749 457.334C191.749 457.334 191.558 457.377 191.209 457.449C187.799 458.156 169.415 461.66 170.981 454.73C172.354 448.646 183.385 449.402 187.808 449.96C187.826 449.96 187.839 449.963 187.852 449.966C188.956 450.107 189.636 450.231 189.636 450.231C189.636 450.231 191.831 449.288 195.294 447.944C195.437 447.887 195.584 447.828 195.729 447.773C207.14 443.343 231.137 434.947 237.348 439.993L237.348 439.997C237.416 440.049 237.483 440.107 237.547 440.166C237.551 440.163 237.556 440.168 237.558 440.175C237.625 440.237 237.687 440.302 237.749 440.367C237.804 440.42 237.857 440.479 237.905 440.544C237.925 440.563 237.945 440.587 237.964 440.612C238.107 440.793 238.235 440.987 238.346 441.191C238.4 441.292 238.448 441.395 238.491 441.501C238.592 441.728 238.669 441.972 238.725 442.229C238.781 442.488 238.828 442.743 238.859 442.994C238.916 443.443 238.939 443.879 238.919 444.305C238.418 455.495 211.723 457.211 198.721 457.384Z" fill="#FFD8D9"/>
<path d="M198.928 458.688L198.487 457.387L198.295 456.819C198.292 456.815 198.293 456.812 198.293 456.812L195.293 447.944L194.863 446.672C206.284 442.238 231.025 434.721 237.343 439.982L237.345 439.986C237.416 440.042 237.483 440.101 237.545 440.165C237.549 440.163 237.555 440.168 237.557 440.175C237.623 440.237 237.686 440.302 237.748 440.367C237.803 440.419 237.856 440.478 237.904 440.544C237.924 440.562 237.943 440.587 237.962 440.611C238.106 440.793 238.234 440.987 238.344 441.191C238.399 441.292 238.446 441.395 238.49 441.5C238.59 441.728 238.667 441.971 238.724 442.228C238.78 442.488 238.827 442.743 238.857 442.993C238.915 443.443 238.937 443.878 238.917 444.305C238.458 455.634 211.936 458.517 198.928 458.688ZM189.628 450.263C189.628 450.263 168.831 446.198 167.925 454.992C166.951 464.44 191.743 457.366 191.743 457.366C191.743 457.366 182.181 459.459 182.635 454.095C183.074 448.905 189.628 450.263 189.628 450.263Z" fill="black"/>
<path d="M220.531 414.562C216.449 420.295 220.1 435.989 220.1 435.989H192.7C193.457 434.915 195.59 421.389 190.785 413.932C183.03 401.904 191.385 392.551 191.385 392.551L202.78 390.479L203.507 386.85L204.006 384.35L204.124 383.77H209.249L209.435 384.86L209.836 387.235L210.43 390.74L220.905 393.015C220.906 393.014 229.877 401.427 220.531 414.562Z" fill="#FFD8D9"/>
<path d="M220.529 414.566C216.446 420.298 220.102 435.989 220.102 435.989H192.7C193.345 435.075 194.985 425.123 192.491 417.593C192.056 416.274 191.494 415.038 190.783 413.929C183.03 401.902 191.382 392.551 191.382 392.551L202.784 390.475C203.221 393.025 209.437 392.875 210.432 390.737L220.905 393.015C220.904 393.015 229.878 401.422 220.529 414.566Z" fill="#D94559"/>
<path d="M192.7 435.989C193.344 435.075 194.985 425.123 192.49 417.593C197.893 416.022 196.981 431.024 205.982 435.989H192.7Z" fill="#C4626E"/>
<path d="M235.431 426.49C235.147 428.266 233.896 430.191 232.045 432.095C227.312 436.958 217.669 436.741 211.055 438.509L210.364 434.984C210.364 434.984 222.172 431.653 224.712 427.509C224.981 427.067 225.169 426.655 225.244 426.287C226.105 422.158 221.326 416.996 221.326 416.996L220.818 393.025C220.818 393.025 236.869 417.461 235.431 426.49Z" fill="#FFD8D9"/>
<path d="M235.589 426.489C235.282 428.159 234.281 430.258 232.614 432.089C232.528 432.181 232.412 432.241 232.287 432.256C232.162 432.272 232.035 432.242 231.929 432.173L229.9 430.855L224.579 427.406C224.85 426.966 224.987 426.522 225.062 426.153C225.923 422.025 218.267 415.639 218.267 415.639L220.107 392.877C222.573 392.767 226.624 398.396 229.988 405.297C229.988 405.297 229.991 405.307 229.998 405.323C233.639 412.789 236.464 421.734 235.589 426.489Z" fill="#D94559"/>
<path d="M202.33 435.043L202.45 437.387C202.661 437.314 202.644 437.006 202.425 436.961C196.53 435.743 186.842 437.429 182.125 433.421C179.218 430.948 177.631 427.904 177.256 425.559C175.818 416.53 191.475 392.57 191.475 392.57L190.897 416.51C190.897 416.51 186.118 421.673 186.979 425.801C187.128 426.536 187.713 427.442 188.56 428.431C192.095 432.582 202.33 435.043 202.33 435.043Z" fill="#FFD8D9"/>
<path d="M186.977 425.8C187.127 426.535 188.129 427.177 188.974 428.166L184.032 432.278L182.045 433.929C179.139 431.456 177.432 428.29 176.793 426.002C175.805 422.481 177.211 416.464 179.582 410.489C179.592 410.456 179.598 410.44 179.598 410.44C183.177 401.423 188.935 392.521 191.943 392.449L193.678 416.741C193.678 416.741 186.116 421.673 186.977 425.8Z" fill="#D94559"/>
<path d="M241.091 453.956C242.741 461.002 223.991 457.586 220.511 456.894C220.155 456.823 219.96 456.782 219.96 456.782C219.96 456.782 217.243 456.909 213.099 456.892L212.856 456.891C206.839 456.86 197.939 456.531 189.965 455.108C180.181 453.364 171.785 449.983 171.799 443.501C171.8 443.486 171.801 443.476 171.799 443.466C171.801 443.201 171.817 442.934 171.849 442.66C171.851 442.653 171.85 442.65 171.849 442.647C171.884 442.365 171.93 442.081 171.99 441.79C172.046 441.528 172.122 441.279 172.222 441.046C172.265 440.938 172.314 440.833 172.368 440.73C172.425 440.623 172.487 440.518 172.552 440.416C172.552 440.416 172.556 440.415 172.555 440.411C172.617 440.317 172.682 440.225 172.752 440.136C172.769 440.112 172.789 440.089 172.811 440.067C172.858 440.003 172.911 439.942 172.968 439.886C173.031 439.819 173.094 439.753 173.161 439.689C173.163 439.682 173.169 439.677 173.173 439.68C173.93 438.974 174.99 438.497 176.29 438.207C185.235 436.217 205.536 443.179 215.827 447.077C215.976 447.132 216.126 447.191 216.271 447.247C219.81 448.587 222.053 449.53 222.053 449.53C222.053 449.53 222.745 449.397 223.868 449.245C223.881 449.242 223.896 449.242 223.913 449.239C228.414 448.634 239.638 447.772 241.091 453.956Z" fill="#FFD8D9"/>
<path d="M216.7 445.949L216.272 447.248L213.099 456.892L212.66 458.221C207.2 458.196 199.4 457.719 192.079 456.361L192.075 456.358C181.415 454.384 171.762 450.541 171.799 443.501C171.8 443.487 171.801 443.476 171.799 443.466C171.801 443.202 171.82 442.931 171.849 442.661C171.851 442.654 171.85 442.65 171.849 442.647C171.884 442.365 171.93 442.081 171.99 441.79C172.046 441.529 172.122 441.28 172.222 441.047C172.265 440.939 172.314 440.833 172.368 440.73C172.425 440.623 172.487 440.518 172.552 440.416C172.552 440.416 172.556 440.416 172.555 440.412C172.617 440.317 172.682 440.226 172.752 440.137C172.769 440.112 172.789 440.089 172.811 440.068C172.858 440.003 172.911 439.942 172.968 439.886C173.031 439.82 173.094 439.754 173.161 439.69C173.163 439.682 173.169 439.677 173.173 439.68C173.955 438.926 175.071 438.402 176.444 438.072C185.642 435.827 206.429 442.062 216.7 445.949ZM222.059 449.563C222.059 449.563 243.207 445.249 244.204 454.198C245.275 463.812 219.966 456.816 219.966 456.816C219.966 456.816 229.211 458.567 228.704 453.108C228.213 447.825 222.059 449.563 222.059 449.563Z" fill="black"/>
<path d="M225.558 414.839V437.336C225.558 437.917 225.327 438.475 224.916 438.886C224.505 439.298 223.947 439.529 223.366 439.529H188.906C188.325 439.529 187.767 439.298 187.356 438.886C186.945 438.475 186.714 437.917 186.713 437.336V414.839C186.714 414.257 186.945 413.7 187.356 413.288C187.767 412.877 188.325 412.646 188.906 412.646H223.366C223.947 412.646 224.505 412.877 224.916 413.289C225.327 413.7 225.558 414.258 225.558 414.839Z" fill="white"/>
<path d="M202.704 426.088C202.704 425.177 203.066 424.304 203.709 423.66C204.353 423.017 205.226 422.655 206.136 422.655C207.046 422.655 207.919 423.017 208.562 423.66C209.206 424.304 209.567 425.177 209.567 426.088C209.567 426.998 209.206 427.871 208.562 428.515C207.919 429.159 207.046 429.52 206.136 429.52C205.226 429.52 204.353 429.159 203.709 428.515C203.066 427.871 202.704 426.998 202.704 426.088Z" fill="#D7E0FA"/>
<path d="M225.558 414.839V437.336C225.558 437.917 225.327 438.475 224.916 438.886C224.505 439.298 223.947 439.529 223.366 439.529H188.906C188.325 439.529 187.767 439.298 187.356 438.886C186.945 438.475 186.714 437.917 186.713 437.336C221.565 438.936 225.558 433.823 223.366 412.646C223.947 412.646 224.505 412.877 224.916 413.289C225.327 413.7 225.558 414.258 225.558 414.839Z" fill="#D7E0FA"/>
<path d="M235.589 426.489C235.282 428.159 234.281 430.258 232.614 432.089C232.528 432.181 232.412 432.241 232.287 432.256C232.161 432.272 232.035 432.242 231.929 432.173L229.899 430.855C230.966 429.005 232.54 427.537 233.278 424.672C235.257 417.005 230.268 405.985 229.997 405.323C233.639 412.789 236.463 421.734 235.589 426.489Z" fill="#B53344"/>
<path d="M199.626 377.539C199.626 377.539 195.52 373.139 198.851 367.292C198.851 367.292 199.857 369.114 201.05 368.612C201.05 368.612 201.113 364.337 209.787 363.456C209.787 363.456 209.158 365.154 209.473 365.594C212.332 364.336 215.108 367.459 217.895 366.285C217.895 366.285 218.665 371.239 215.46 374.131C215.46 374.131 215.946 375.841 214.815 377.539C213.684 379.237 199.626 377.539 199.626 377.539Z" fill="#222438"/>
<path d="M200.919 376.211C200.919 376.211 199.045 374.378 198.869 376.157C198.66 378.262 201.165 379.827 201.165 379.827C201.165 379.827 201.775 386.335 207.264 386.335C212.709 386.335 213.62 379.803 213.62 379.803C213.62 379.803 216.484 379.021 215.876 376.548C215.588 375.373 214.095 376.573 214.095 376.573V373.482C214.095 373.482 212.568 374.258 209.622 372.994C207.489 372.078 206.728 370.806 204.905 370.878C202.828 370.961 200.837 373.241 200.919 376.211Z" fill="#FFD8D9"/>
<path d="M439.328 363.302C439.328 363.302 440.044 407.945 448.193 417.914C452.125 422.724 465.214 448.461 465.214 448.461C466.68 448.664 468.042 448.369 469.096 446.614C466.43 432.041 462.873 419.566 457.138 412.32C454.145 391.769 462.924 382.8 453.238 363.312L439.328 363.302Z" fill="#F9CBCB"/>
<path d="M435.833 363.299C432.395 384.721 433.636 396.931 436.339 419.282C436.367 419.508 436.406 419.738 436.458 419.96L444.415 454.198L448.425 454.752C449.436 443.439 448.851 429.213 446.853 419.645C448.338 391.749 462.37 383.984 449.311 363.31L435.833 363.299Z" fill="#F9CBCB"/>
<path d="M462.861 427.234C458.38 426.677 454.295 424.09 451.445 427.349C449.36 429.727 446.95 431.663 443.961 432.645C442.63 433.086 441.241 433.327 439.839 433.36C437.105 433.429 434.672 431.346 433.954 428.259C432.587 422.352 430.494 411.511 430.502 400.353C430.517 380.419 436.155 361.913 436.155 361.913C436.155 361.913 436.242 361.893 436.401 361.852C438.239 361.443 449.885 359.072 454.162 364.376C458.807 370.143 462.203 377.765 461.023 392.612C460.18 403.215 464.427 413.073 467.226 420.131C468.621 423.67 466.183 427.657 462.861 427.234Z" fill="black"/>
<path d="M439.206 328.704L434.329 339.039C434.329 339.039 434.163 338.776 433.882 338.309C432.021 335.292 424.963 323.735 423.173 319.127C421.734 315.416 421.469 305.886 421.728 299.415C421.827 297.015 421.995 295.029 422.207 293.92C422.207 293.92 419.186 291.158 421.991 289.621C424.69 288.146 422.794 283.828 423.805 283.688C424.816 283.548 425.366 289.386 425.366 289.386C425.366 289.386 426.799 287.866 427.282 288.447C428.011 289.309 425.529 293.922 425.529 293.922C425.885 295.003 426.218 296.091 426.529 297.185C428.16 302.918 429.272 309.152 429.838 315.852C432.85 318.975 436.002 323.558 439.206 328.704Z" fill="#F9CBCB"/>
<path d="M452.672 362.886L435.262 362.874C436.17 358.918 438.395 356.801 435.132 347.822C433.772 344.085 433.537 340.92 433.882 338.309C434.748 331.821 439.206 328.704 439.206 328.704L443.382 326.359L448.489 326.363L453.619 330.006C453.619 330.006 453.354 344.433 452.55 349.364C451.844 353.716 451.014 358.683 452.672 362.886Z" fill="#3E3279"/>
<path d="M455.545 365.587C447.534 369.687 444.796 365.272 438.714 365.224C438.239 365.223 437.738 365.249 437.219 365.302C435.374 365.502 433.881 363.848 434.19 362.02C435.151 356.403 434.831 350.195 433.422 341.816C433.107 339.954 432.59 338.131 431.879 336.381C431.451 335.325 430.955 334.297 430.396 333.304C427.772 328.607 424.392 322.257 423.173 319.126C421.734 315.415 421.469 305.885 421.728 299.414L426.528 297.185C428.159 302.918 429.368 308.589 430.356 315.623C432.798 318.166 435 321.807 437.45 325.844C437.918 326.613 438.666 327.17 439.536 327.399C440.406 327.628 441.331 327.51 442.117 327.07L443.382 326.359L448.489 326.362L453.619 330.006C453.619 330.006 453.354 344.433 452.55 349.364C451.844 353.716 453.886 361.384 455.545 365.587Z" fill="#FFBC47"/>
<path d="M471.218 351.049C471.208 351.119 471.208 351.198 471.191 351.277C471.023 352.675 470.143 354.275 468.929 355.892C466.624 358.958 463.089 362.076 460.819 363.939C459.518 365.001 458.639 365.66 458.639 365.66C460.885 370.743 456.329 375.417 454.977 372.726C454.696 372.145 455.726 370.159 455.727 369.368C455.727 368.876 454.862 368.33 454.268 367.459C453.593 366.469 454.165 365.235 454.578 364.655C455.379 363.557 456.162 362.326 456.963 361.061C459.101 357.695 461.389 354.039 464.581 351.571C459.196 348.702 455.567 347.416 451.851 344.019L453.619 330.006C453.62 330.006 471.67 344.622 471.218 351.049Z" fill="#F9CBCB"/>
<path d="M471.218 351.049C471.208 351.119 471.208 351.198 471.191 351.277C470.442 352.818 469.688 354.356 468.929 355.892C466.624 358.958 463.089 362.076 460.819 363.939L456.963 361.061C459.101 357.696 461.389 354.04 464.581 351.572C459.196 348.702 455.567 347.416 451.851 344.019L453.619 330.007C453.62 330.006 471.67 344.622 471.218 351.049Z" fill="#FE81DF"/>
<path d="M439.703 307.876C439.703 307.876 437.314 314.481 439.145 318.611C440.976 322.742 448.317 319.903 448.317 319.903L439.703 307.876Z" fill="#F9CBCB"/>
<path d="M444.497 320.149L443.386 326.358L448.487 326.362L448.317 319.903L444.497 320.149Z" fill="#F9CBCB"/>
<path d="M465.718 331.311C465.227 327.656 467.344 325.916 466.01 322.477C464.737 319.2 460.861 317.66 459.134 314.599C457.842 312.311 457.93 309.497 456.995 307.042C455.658 303.533 452.08 300.999 448.327 300.906C444.574 300.814 440.875 303.166 439.367 306.605C439.367 306.605 437.375 310.166 440.296 315.128C441.871 317.802 446.088 320.125 447.022 323.085C448.754 328.575 441.254 336.055 443.375 341.406C444.528 344.315 447.859 344.277 448.472 347.344C449.022 350.095 443.949 352.143 448.464 358.059C451.838 362.48 455.876 358.932 458.502 358.671C460.7 358.452 464.47 360.735 468.5 358.458C475.856 354.303 469.674 348.677 471.232 342.965C473.241 335.603 466.247 335.253 465.718 331.311ZM448.597 452.882L449.245 456.202C449.474 457.109 449.539 458.049 449.438 458.979L449.066 462.566L447.75 462.555L447.867 460.285C447.81 459.698 447.072 459.474 446.697 459.928L445.468 461.417C445.114 462.084 444.467 462.553 443.72 462.66C441.438 462.988 436.979 463.126 436.774 461.629C436.562 460.091 440.889 459.965 442.129 458.253C443.331 456.595 444.138 453.016 444.138 453.016C445.497 453.562 447.097 453.386 448.597 452.882ZM469.097 446.614L471.192 449.169C471.785 449.892 472.244 450.715 472.548 451.599L473.739 455.003L472.544 455.554L471.683 453.45C471.381 452.943 470.617 453.054 470.472 453.626L469.995 455.496C469.958 456.25 469.572 456.951 468.942 457.366C467.017 458.634 463.04 460.659 462.218 459.392C461.371 458.09 465.233 456.133 465.626 454.056C466.008 452.044 465.214 448.461 465.214 448.461C466.676 448.377 467.953 447.709 469.097 446.614Z" fill="#30334D"/>
<path d="M98.5352 367.514V460.543C87.4089 460.545 77.3286 456.044 70.0201 448.761C58.4356 437.216 58.1391 422.901 58.1335 420.208C60.1771 416.367 62.8096 410.208 63.601 402.26C64.9267 388.976 60.3098 378.736 58.0488 374.436C64.1368 373.081 71.6234 369.709 79.2666 364.691L98.4888 367.522L98.5352 367.514Z" fill="#209959"/>
<path d="M138.931 420.059C138.935 422.75 138.693 437.066 127.152 448.655C119.854 455.98 109.763 460.523 98.6071 460.543H98.5352V367.514L117.59 364.62C125.252 369.608 132.751 372.952 138.844 374.286C136.6 378.592 132.022 388.851 133.395 402.131C134.219 410.075 136.873 416.223 138.931 420.059Z" fill="#3DB877"/>
<path d="M98.5352 371.339V455.834C89.0254 455.834 80.0825 452.14 73.3429 445.425C64.4791 436.592 63.0545 425.771 62.8667 421.306C65.8196 415.435 67.6418 409.193 68.2862 402.727C69.2986 392.579 67.2167 383.904 64.6082 377.419C69.6762 375.627 75.1875 372.88 80.6606 369.398L98.5352 371.339Z" fill="#3DB877"/>
<path d="M134.202 421.173C134.031 425.64 132.645 436.466 123.816 445.329C117.088 452.085 108.132 455.816 98.5999 455.834H98.5356V371.339L116.215 369.332C121.701 372.792 127.224 375.519 132.297 377.292C129.713 383.789 127.664 392.471 128.713 402.616C129.381 409.077 131.227 415.314 134.202 421.173Z" fill="#389850"/>
<path d="M98.5311 373.949V453.381C89.6571 453.381 81.3092 449.933 75.0202 443.667C67.0289 435.704 65.5247 425.958 65.2695 421.647C68.1612 415.762 69.9517 409.507 70.5957 403.046C71.4095 394.889 70.3859 386.804 67.555 378.983C72.0178 377.235 76.7642 374.805 81.4275 371.876L98.4836 373.955L98.5311 373.949Z" fill="white"/>
<path d="M131.795 421.509C131.555 425.823 130.085 435.575 122.126 443.566C115.847 449.871 107.491 453.351 98.5944 453.368H98.5352V373.935L115.45 371.8C120.124 374.71 124.881 377.122 129.351 378.853C126.549 386.685 125.556 394.774 126.398 402.93C127.068 409.387 128.883 415.634 131.795 421.509Z" fill="#F3F0FF"/>
<path d="M87.3109 410.212L117.741 410.111C116.662 408.518 114.722 407.454 112.507 407.462L110.654 407.468L110.612 401.949L110.598 397.781C110.585 393.715 107.275 390.426 103.208 390.44L92.3625 390.476C88.2946 390.49 85.0106 393.8 85.0244 397.866L85.0565 407.553L83.1798 407.559C80.9657 407.567 79.0288 408.644 77.9603 410.243L85.0652 410.219L87.3109 410.212ZM92.8125 393.995L102.785 393.962C103.347 393.96 103.904 394.068 104.424 394.282C104.945 394.495 105.418 394.809 105.817 395.206C106.216 395.602 106.533 396.073 106.75 396.592C106.967 397.111 107.079 397.668 107.081 398.23L107.093 401.949V407.479L88.5727 407.541L88.5421 398.296C88.5334 395.93 90.4474 394.003 92.8125 393.995ZM118.643 412.989C118.64 412.382 118.528 411.781 118.313 411.214L77.3974 411.351C77.1856 411.92 77.0791 412.523 77.0831 413.13L77.102 418.255C77.1352 428.661 86.4658 437.074 97.9412 437.034C103.682 437.015 108.865 434.885 112.613 431.464C116.366 428.04 118.676 423.318 118.657 418.115L118.643 412.989ZM97.9146 429.223C94.0775 429.238 90.9572 426.135 90.9424 422.293C90.9312 418.454 94.029 415.333 97.8667 415.318C101.707 415.307 104.831 418.41 104.842 422.248C104.854 426.087 101.756 429.212 97.9146 429.223Z" fill="#209959"/>
<path d="M97.7894 427.957C97.3782 427.985 96.9918 428.164 96.7055 428.461C96.4192 428.757 96.2536 429.15 96.2408 429.562C96.2332 429.854 96.3035 430.142 96.4445 430.398C96.5855 430.653 96.7921 430.866 97.0429 431.015L96.7546 434.787C96.7515 434.824 96.7561 434.861 96.768 434.896C96.78 434.931 96.7991 434.963 96.8241 434.99C96.8491 435.017 96.8795 435.039 96.9133 435.053C96.9471 435.068 96.9836 435.076 97.0205 435.076L98.7911 435.068C98.8278 435.068 98.8641 435.06 98.8977 435.045C98.9312 435.031 98.9613 435.009 98.986 434.982C99.0107 434.955 99.0295 434.923 99.0411 434.888C99.0527 434.853 99.0568 434.816 99.0534 434.78L98.739 431.008C98.9823 430.862 99.1836 430.655 99.3229 430.408C99.4623 430.161 99.5351 429.882 99.534 429.599C99.5327 429.375 99.4859 429.153 99.3964 428.948C99.307 428.743 99.1767 428.557 99.0135 428.404C98.8504 428.25 98.6578 428.132 98.4473 428.055C98.2369 427.978 98.0131 427.945 97.7894 427.957Z" fill="#389850"/>
<path d="M478.239 59.6937L490.128 51.7404L482.331 48.5733L478.239 59.6937Z" fill="#A8A8A8"/>
<path d="M490.624 54.2353L502.119 38.6197L483.131 51.7404L490.624 54.2353ZM502.119 38.5911L471.268 45.3424L478.529 48.1507L502.119 38.5911Z" fill="white"/>
<path d="M502.119 38.6197L483.129 51.8195L478.239 59.6937L478.465 48.0675L502.119 38.6197Z" fill="#E8E8E8"/>
<defs>
<linearGradient id="paint0_linear_21_1236" x1="317.149" y1="253.207" x2="382.355" y2="188.57" gradientUnits="userSpaceOnUse">
<stop stop-color="#18BAD4"/>
<stop offset="0.54" stop-color="#31B680"/>
<stop offset="1" stop-color="#80C242"/>
</linearGradient>
<linearGradient id="paint1_linear_21_1236" x1="317.697" y1="362.387" x2="385.081" y2="363.433" gradientUnits="userSpaceOnUse">
<stop stop-color="#18BAD4"/>
<stop offset="0.54" stop-color="#31B680"/>
<stop offset="1" stop-color="#80C242"/>
</linearGradient>
<linearGradient id="paint2_linear_21_1236" x1="141.951" y1="155.464" x2="566.926" y2="210.596" gradientUnits="userSpaceOnUse">
<stop stop-color="#18BAD4"/>
<stop offset="0.54" stop-color="#31B680"/>
<stop offset="1" stop-color="#80C242"/>
</linearGradient>
</defs>
</svg>
