<svg width="17" height="17" viewBox="0 0 17 17" fill="none" xmlns="http://www.w3.org/2000/svg">
<path d="M3.54102 8.50004C3.54102 8.50004 5.34372 4.95837 8.49935 4.95837C11.6543 4.95837 13.4577 8.50004 13.4577 8.50004C13.4577 8.50004 11.6543 12.0417 8.49935 12.0417C5.34372 12.0417 3.54102 8.50004 3.54102 8.50004Z" stroke="#73C04D" stroke-width="1.41667" stroke-linecap="round" stroke-linejoin="round"/>
<path d="M14.875 12.0417V13.4583C14.875 13.8341 14.7257 14.1944 14.4601 14.4601C14.1944 14.7257 13.8341 14.875 13.4583 14.875H3.54167C3.16594 14.875 2.80561 14.7257 2.53993 14.4601C2.27426 14.1944 2.125 13.8341 2.125 13.4583V12.0417M14.875 4.95833V3.54167C14.875 3.16594 14.7257 2.80561 14.4601 2.53993C14.1944 2.27426 13.8341 2.125 13.4583 2.125H3.54167C3.16594 2.125 2.80561 2.27426 2.53993 2.53993C2.27426 2.80561 2.125 3.16594 2.125 3.54167V4.95833M8.5 9.20833C8.68786 9.20833 8.86803 9.13371 9.00087 9.00087C9.13371 8.86803 9.20833 8.68786 9.20833 8.5C9.20833 8.31214 9.13371 8.13197 9.00087 7.99913C8.86803 7.86629 8.68786 7.79167 8.5 7.79167C8.31214 7.79167 8.13197 7.86629 7.99913 7.99913C7.86629 8.13197 7.79167 8.31214 7.79167 8.5C7.79167 8.68786 7.86629 8.86803 7.99913 9.00087C8.13197 9.13371 8.31214 9.20833 8.5 9.20833Z" stroke="#73C04D" stroke-width="1.41667" stroke-linecap="round" stroke-linejoin="round"/>
</svg>
