<svg width="5" height="19" viewBox="0 0 5 19" fill="none" xmlns="http://www.w3.org/2000/svg">
<path d="M2.56678 18.8839C1.93719 18.8839 1.39841 18.6599 0.950439 18.2119C0.501709 17.7632 0.277344 17.224 0.277344 16.5944C0.277344 15.9648 0.501709 15.4257 0.950439 14.9769C1.39841 14.529 1.93719 14.305 2.56678 14.305C3.19638 14.305 3.73554 14.529 4.18427 14.9769C4.63224 15.4257 4.85622 15.9648 4.85622 16.5944C4.85622 17.224 4.63224 17.7632 4.18427 18.2119C3.73554 18.6599 3.19638 18.8839 2.56678 18.8839ZM2.56678 12.0156C1.93719 12.0156 1.39841 11.7912 0.950439 11.3425C0.501709 10.8945 0.277344 10.3557 0.277344 9.72611C0.277344 9.09652 0.501709 8.55735 0.950439 8.10862C1.39841 7.66066 1.93719 7.43667 2.56678 7.43667C3.19638 7.43667 3.73554 7.66066 4.18427 8.10862C4.63224 8.55735 4.85622 9.09652 4.85622 9.72611C4.85622 10.3557 4.63224 10.8945 4.18427 11.3425C3.73554 11.7912 3.19638 12.0156 2.56678 12.0156ZM2.56678 5.14724C1.93719 5.14724 1.39841 4.92287 0.950439 4.47414C0.501709 4.02617 0.277344 3.48739 0.277344 2.8578C0.277344 2.2282 0.501709 1.68942 0.950439 1.24145C1.39841 0.792724 1.93719 0.568359 2.56678 0.568359C3.19638 0.568359 3.73554 0.792724 4.18427 1.24145C4.63224 1.68942 4.85622 2.2282 4.85622 2.8578C4.85622 3.48739 4.63224 4.02617 4.18427 4.47414C3.73554 4.92287 3.19638 5.14724 2.56678 5.14724Z" fill="#040406"/>
</svg>
