<svg width="4" height="13" viewBox="0 0 4 13" fill="none" xmlns="http://www.w3.org/2000/svg">
<path d="M2.09766 12.6562C1.68516 12.6562 1.33216 12.5095 1.03866 12.216C0.744656 11.922 0.597656 11.5687 0.597656 11.1562C0.597656 10.7437 0.744656 10.3905 1.03866 10.0965C1.33216 9.803 1.68516 9.65625 2.09766 9.65625C2.51016 9.65625 2.86341 9.803 3.15741 10.0965C3.45091 10.3905 3.59766 10.7437 3.59766 11.1562C3.59766 11.5687 3.45091 11.922 3.15741 12.216C2.86341 12.5095 2.51016 12.6562 2.09766 12.6562ZM2.09766 8.15625C1.68516 8.15625 1.33216 8.00925 1.03866 7.71525C0.744656 7.42175 0.597656 7.06875 0.597656 6.65625C0.597656 6.24375 0.744656 5.8905 1.03866 5.5965C1.33216 5.303 1.68516 5.15625 2.09766 5.15625C2.51016 5.15625 2.86341 5.303 3.15741 5.5965C3.45091 5.8905 3.59766 6.24375 3.59766 6.65625C3.59766 7.06875 3.45091 7.42175 3.15741 7.71525C2.86341 8.00925 2.51016 8.15625 2.09766 8.15625ZM2.09766 3.65625C1.68516 3.65625 1.33216 3.50925 1.03866 3.21525C0.744656 2.92175 0.597656 2.56875 0.597656 2.15625C0.597656 1.74375 0.744656 1.39075 1.03866 1.09725C1.33216 0.80325 1.68516 0.65625 2.09766 0.65625C2.51016 0.65625 2.86341 0.80325 3.15741 1.09725C3.45091 1.39075 3.59766 1.74375 3.59766 2.15625C3.59766 2.56875 3.45091 2.92175 3.15741 3.21525C2.86341 3.50925 2.51016 3.65625 2.09766 3.65625Z" fill="#E0F1FF"/>
</svg>
