<svg width="38" height="39" viewBox="0 0 38 39" fill="none" xmlns="http://www.w3.org/2000/svg">
<g clip-path="url(#clip0_879_64347)">
<path d="M31.9819 13.2974L17.1037 2.38758C15.9416 1.53663 14.5666 1.0241 13.131 0.906779C11.6955 0.78946 10.2555 1.07194 8.97068 1.72291C7.68586 2.37389 6.60639 3.36792 5.85193 4.59483C5.09747 5.82174 4.69748 7.23361 4.6963 8.67393V30.5046C4.69406 31.9463 5.09196 33.3604 5.8457 34.5894C6.59945 35.8184 7.67947 36.8141 8.96555 37.4657C10.2516 38.1173 11.6933 38.3993 13.1301 38.2801C14.5669 38.161 15.9425 37.6455 17.1037 36.7909L31.9819 25.8811C32.9691 25.1566 33.7719 24.2098 34.3252 23.1174C34.8785 22.025 35.1668 20.8177 35.1668 19.5931C35.1668 18.3686 34.8785 17.1613 34.3252 16.0689C33.7719 14.9765 32.9691 14.0297 31.9819 13.3052V13.2974Z" fill="white"/>
</g>
<defs>
<clipPath id="clip0_879_64347">
<rect width="37.4373" height="37.4373" fill="white" transform="translate(0.0166016 0.865234)"/>
</clipPath>
</defs>
</svg>
