<svg width="31" height="39" viewBox="0 0 31 39" fill="none" xmlns="http://www.w3.org/2000/svg">
<path d="M27.5024 13.0924L12.6242 2.1825C11.4621 1.33156 10.0871 0.819019 8.65153 0.701701C7.216 0.584382 5.77601 0.866865 4.49119 1.51784C3.20637 2.16881 2.1269 3.16284 1.37244 4.38975C0.617974 5.61666 0.217984 7.02853 0.216806 8.46885V30.2995C0.214566 31.7412 0.612463 33.1553 1.36621 34.3843C2.11996 35.6133 3.19998 36.609 4.48606 37.2606C5.77213 37.9123 7.21381 38.1942 8.65061 38.075C10.0874 37.9559 11.463 37.4404 12.6242 36.5858L27.5024 25.676C28.4896 24.9515 29.2924 24.0047 29.8457 22.9123C30.399 21.8199 30.6873 20.6126 30.6873 19.3881C30.6873 18.1635 30.399 16.9562 29.8457 15.8638C29.2924 14.7714 28.4896 13.8246 27.5024 13.1002V13.0924Z" fill="white"/>
</svg>
