<svg width="15" height="16" viewBox="0 0 15 16" fill="none" xmlns="http://www.w3.org/2000/svg">
<path d="M9.26437 7.97375C9.297 7.99159 9.3241 8.01804 9.34272 8.05022C9.36135 8.0824 9.37078 8.11908 9.37 8.15625C9.37189 8.18796 9.36605 8.21966 9.35299 8.24862C9.33992 8.27758 9.32002 8.30293 9.295 8.3225L5.9375 10.0025C5.90552 10.0202 5.8695 10.0292 5.83297 10.0288C5.79644 10.0283 5.76065 10.0183 5.72913 9.99988C5.69761 9.9814 5.67144 9.95505 5.65318 9.92341C5.63492 9.89176 5.62521 9.85591 5.625 9.81938V6.49312C5.62429 6.45604 5.63369 6.41946 5.65219 6.38731C5.67069 6.35516 5.69759 6.32865 5.73 6.31063C5.75984 6.29342 5.79368 6.28436 5.82812 6.28438C5.87852 6.28586 5.92765 6.30051 5.97063 6.32687L9.26437 7.97375ZM15 3.78125V12.5312C14.999 13.3597 14.6694 14.154 14.0836 14.7399C13.4978 15.3257 12.7035 15.6553 11.875 15.6562H3.125C2.2965 15.6553 1.50222 15.3257 0.916387 14.7399C0.330551 14.154 0.000992411 13.3597 0 12.5312L0 3.78125C0.000992411 2.95275 0.330551 2.15847 0.916387 1.57264C1.50222 0.986801 2.2965 0.657242 3.125 0.65625L11.875 0.65625C12.7035 0.657242 13.4978 0.986801 14.0836 1.57264C14.6694 2.15847 14.999 2.95275 15 3.78125ZM10.62 8.15625C10.6202 7.89291 10.5491 7.63444 10.4142 7.40829C10.2793 7.18214 10.0856 6.99677 9.85375 6.87187L6.555 5.225C6.33281 5.09752 6.08101 5.03072 5.82485 5.0313C5.56869 5.03187 5.31719 5.0998 5.09557 5.22827C4.87396 5.35675 4.69003 5.54124 4.56224 5.76325C4.43445 5.98525 4.36729 6.23697 4.3675 6.49312V9.81938C4.366 10.0755 4.43257 10.3274 4.56039 10.5493C4.68822 10.7713 4.87272 10.9553 5.095 11.0825C5.32001 11.2139 5.5757 11.2835 5.83625 11.2844C6.07729 11.2855 6.31438 11.2232 6.52375 11.1038L9.88375 9.42438C10.1084 9.29786 10.2951 9.11357 10.4246 8.89059C10.5541 8.66762 10.6215 8.41408 10.62 8.15625Z" fill="white"/>
</svg>
