<svg width="256" height="256" viewBox="0 0 256 256" fill="none" xmlns="http://www.w3.org/2000/svg">
<g clip-path="url(#clip0_99_1184)">
<path d="M48.4324 0H55.3514V6.91892H48.4324V0ZM83.027 0H89.9459V6.91892H83.027V0ZM96.8649 0H103.784V6.91892H96.8649V0ZM103.784 0H110.703V6.91892H103.784V0ZM131.459 0H138.378V6.91892H131.459V0ZM138.378 0H145.297V6.91892H138.378V0ZM152.216 0H159.135V6.91892H152.216V0ZM159.135 0H166.054V6.91892H159.135V0ZM166.054 0H172.973V6.91892H166.054V0ZM186.811 0H193.73V6.91892H186.811V0ZM193.73 0H200.649V6.91892H193.73V0ZM200.649 0H207.568V6.91892H200.649V0ZM6.91892 6.91892H13.8378V13.8378H6.91892V6.91892ZM13.8378 6.91892H20.7568V13.8378H13.8378V6.91892ZM20.7568 6.91892H27.6757V13.8378H20.7568V6.91892ZM27.6757 6.91892H34.5946V13.8378H27.6757V6.91892ZM34.5946 6.91892H41.5135V13.8378H34.5946V6.91892ZM48.4324 6.91892H55.3514V13.8378H48.4324V6.91892ZM55.3514 6.91892H62.2703V13.8378H55.3514V6.91892ZM62.2703 6.91892H69.1892V13.8378H62.2703V6.91892ZM69.1892 6.91892H76.1081V13.8378H69.1892V6.91892ZM103.784 6.91892H110.703V13.8378H103.784V6.91892ZM110.703 6.91892H117.622V13.8378H110.703V6.91892ZM124.541 6.91892H131.459V13.8378H124.541V6.91892ZM152.216 6.91892H159.135V13.8378H152.216V6.91892ZM159.135 6.91892H166.054V13.8378H159.135V6.91892ZM172.973 6.91892H179.892V13.8378H172.973V6.91892ZM186.811 6.91892H193.73V13.8378H186.811V6.91892ZM200.649 6.91892H207.568V13.8378H200.649V6.91892ZM214.486 6.91892H221.405V13.8378H214.486V6.91892ZM221.405 6.91892H228.324V13.8378H221.405V6.91892ZM228.324 6.91892H235.243V13.8378H228.324V6.91892ZM235.243 6.91892H242.162V13.8378H235.243V6.91892ZM242.162 6.91892H249.081V13.8378H242.162V6.91892ZM6.91892 13.8378H13.8378V20.7568H6.91892V13.8378ZM34.5946 13.8378H41.5135V20.7568H34.5946V13.8378ZM48.4324 13.8378H55.3514V20.7568H48.4324V13.8378ZM55.3514 13.8378H62.2703V20.7568H55.3514V13.8378ZM69.1892 13.8378H76.1081V20.7568H69.1892V13.8378ZM83.027 13.8378H89.9459V20.7568H83.027V13.8378ZM96.8649 13.8378H103.784V20.7568H96.8649V13.8378ZM103.784 13.8378H110.703V20.7568H103.784V13.8378ZM110.703 13.8378H117.622V20.7568H110.703V13.8378ZM117.622 13.8378H124.541V20.7568H117.622V13.8378ZM138.378 13.8378H145.297V20.7568H138.378V13.8378ZM159.135 13.8378H166.054V20.7568H159.135V13.8378ZM193.73 13.8378H200.649V20.7568H193.73V13.8378ZM200.649 13.8378H207.568V20.7568H200.649V13.8378ZM214.486 13.8378H221.405V20.7568H214.486V13.8378ZM242.162 13.8378H249.081V20.7568H242.162V13.8378ZM6.91892 20.7568H13.8378V27.6757H6.91892V20.7568ZM34.5946 20.7568H41.5135V27.6757H34.5946V20.7568ZM48.4324 20.7568H55.3514V27.6757H48.4324V20.7568ZM55.3514 20.7568H62.2703V27.6757H55.3514V20.7568ZM62.2703 20.7568H69.1892V27.6757H62.2703V20.7568ZM83.027 20.7568H89.9459V27.6757H83.027V20.7568ZM103.784 20.7568H110.703V27.6757H103.784V20.7568ZM131.459 20.7568H138.378V27.6757H131.459V20.7568ZM138.378 20.7568H145.297V27.6757H138.378V20.7568ZM152.216 20.7568H159.135V27.6757H152.216V20.7568ZM159.135 20.7568H166.054V27.6757H159.135V20.7568ZM166.054 20.7568H172.973V27.6757H166.054V20.7568ZM179.892 20.7568H186.811V27.6757H179.892V20.7568ZM186.811 20.7568H193.73V27.6757H186.811V20.7568ZM200.649 20.7568H207.568V27.6757H200.649V20.7568ZM214.486 20.7568H221.405V27.6757H214.486V20.7568ZM242.162 20.7568H249.081V27.6757H242.162V20.7568ZM6.91892 27.6757H13.8378V34.5946H6.91892V27.6757ZM34.5946 27.6757H41.5135V34.5946H34.5946V27.6757ZM48.4324 27.6757H55.3514V34.5946H48.4324V27.6757ZM55.3514 27.6757H62.2703V34.5946H55.3514V27.6757ZM62.2703 27.6757H69.1892V34.5946H62.2703V27.6757ZM89.9459 27.6757H96.8649V34.5946H89.9459V27.6757ZM96.8649 27.6757H103.784V34.5946H96.8649V27.6757ZM103.784 27.6757H110.703V34.5946H103.784V27.6757ZM117.622 27.6757H124.541V34.5946H117.622V27.6757ZM145.297 27.6757H152.216V34.5946H145.297V27.6757ZM152.216 27.6757H159.135V34.5946H152.216V27.6757ZM159.135 27.6757H166.054V34.5946H159.135V27.6757ZM166.054 27.6757H172.973V34.5946H166.054V27.6757ZM186.811 27.6757H193.73V34.5946H186.811V27.6757ZM200.649 27.6757H207.568V34.5946H200.649V27.6757ZM214.486 27.6757H221.405V34.5946H214.486V27.6757ZM242.162 27.6757H249.081V34.5946H242.162V27.6757ZM6.91892 34.5946H13.8378V41.5135H6.91892V34.5946ZM13.8378 34.5946H20.7568V41.5135H13.8378V34.5946ZM20.7568 34.5946H27.6757V41.5135H20.7568V34.5946ZM27.6757 34.5946H34.5946V41.5135H27.6757V34.5946ZM34.5946 34.5946H41.5135V41.5135H34.5946V34.5946ZM48.4324 34.5946H55.3514V41.5135H48.4324V34.5946ZM55.3514 34.5946H62.2703V41.5135H55.3514V34.5946ZM69.1892 34.5946H76.1081V41.5135H69.1892V34.5946ZM83.027 34.5946H89.9459V41.5135H83.027V34.5946ZM89.9459 34.5946H96.8649V41.5135H89.9459V34.5946ZM103.784 34.5946H110.703V41.5135H103.784V34.5946ZM110.703 34.5946H117.622V41.5135H110.703V34.5946ZM124.541 34.5946H131.459V41.5135H124.541V34.5946ZM131.459 34.5946H138.378V41.5135H131.459V34.5946ZM152.216 34.5946H159.135V41.5135H152.216V34.5946ZM166.054 34.5946H172.973V41.5135H166.054V34.5946ZM172.973 34.5946H179.892V41.5135H172.973V34.5946ZM179.892 34.5946H186.811V41.5135H179.892V34.5946ZM186.811 34.5946H193.73V41.5135H186.811V34.5946ZM200.649 34.5946H207.568V41.5135H200.649V34.5946ZM214.486 34.5946H221.405V41.5135H214.486V34.5946ZM221.405 34.5946H228.324V41.5135H221.405V34.5946ZM228.324 34.5946H235.243V41.5135H228.324V34.5946ZM235.243 34.5946H242.162V41.5135H235.243V34.5946ZM242.162 34.5946H249.081V41.5135H242.162V34.5946ZM48.4324 41.5135H55.3514V48.4324H48.4324V41.5135ZM62.2703 41.5135H69.1892V48.4324H62.2703V41.5135ZM76.1081 41.5135H83.027V48.4324H76.1081V41.5135ZM89.9459 41.5135H96.8649V48.4324H89.9459V41.5135ZM103.784 41.5135H110.703V48.4324H103.784V41.5135ZM117.622 41.5135H124.541V48.4324H117.622V41.5135ZM131.459 41.5135H138.378V48.4324H131.459V41.5135ZM145.297 41.5135H152.216V48.4324H145.297V41.5135ZM159.135 41.5135H166.054V48.4324H159.135V41.5135ZM172.973 41.5135H179.892V48.4324H172.973V41.5135ZM186.811 41.5135H193.73V48.4324H186.811V41.5135ZM200.649 41.5135H207.568V48.4324H200.649V41.5135ZM0 48.4324H6.91892V55.3514H0V48.4324ZM6.91892 48.4324H13.8378V55.3514H6.91892V48.4324ZM13.8378 48.4324H20.7568V55.3514H13.8378V48.4324ZM20.7568 48.4324H27.6757V55.3514H20.7568V48.4324ZM27.6757 48.4324H34.5946V55.3514H27.6757V48.4324ZM34.5946 48.4324H41.5135V55.3514H34.5946V48.4324ZM41.5135 48.4324H48.4324V55.3514H41.5135V48.4324ZM48.4324 48.4324H55.3514V55.3514H48.4324V48.4324ZM69.1892 48.4324H76.1081V55.3514H69.1892V48.4324ZM76.1081 48.4324H83.027V55.3514H76.1081V48.4324ZM96.8649 48.4324H103.784V55.3514H96.8649V48.4324ZM103.784 48.4324H110.703V55.3514H103.784V48.4324ZM117.622 48.4324H124.541V55.3514H117.622V48.4324ZM124.541 48.4324H131.459V55.3514H124.541V48.4324ZM145.297 48.4324H152.216V55.3514H145.297V48.4324ZM159.135 48.4324H166.054V55.3514H159.135V48.4324ZM166.054 48.4324H172.973V55.3514H166.054V48.4324ZM186.811 48.4324H193.73V55.3514H186.811V48.4324ZM200.649 48.4324H207.568V55.3514H200.649V48.4324ZM207.568 48.4324H214.486V55.3514H207.568V48.4324ZM214.486 48.4324H221.405V55.3514H214.486V48.4324ZM221.405 48.4324H228.324V55.3514H221.405V48.4324ZM228.324 48.4324H235.243V55.3514H228.324V48.4324ZM235.243 48.4324H242.162V55.3514H235.243V48.4324ZM242.162 48.4324H249.081V55.3514H242.162V48.4324ZM249.081 48.4324H256V55.3514H249.081V48.4324ZM13.8378 55.3514H20.7568V62.2703H13.8378V55.3514ZM34.5946 55.3514H41.5135V62.2703H34.5946V55.3514ZM48.4324 55.3514H55.3514V62.2703H48.4324V55.3514ZM55.3514 55.3514H62.2703V62.2703H55.3514V55.3514ZM69.1892 55.3514H76.1081V62.2703H69.1892V55.3514ZM76.1081 55.3514H83.027V62.2703H76.1081V55.3514ZM89.9459 55.3514H96.8649V62.2703H89.9459V55.3514ZM103.784 55.3514H110.703V62.2703H103.784V55.3514ZM131.459 55.3514H138.378V62.2703H131.459V55.3514ZM145.297 55.3514H152.216V62.2703H145.297V55.3514ZM152.216 55.3514H159.135V62.2703H152.216V55.3514ZM172.973 55.3514H179.892V62.2703H172.973V55.3514ZM179.892 55.3514H186.811V62.2703H179.892V55.3514ZM193.73 55.3514H200.649V62.2703H193.73V55.3514ZM200.649 55.3514H207.568V62.2703H200.649V55.3514ZM214.486 55.3514H221.405V62.2703H214.486V55.3514ZM221.405 55.3514H228.324V62.2703H221.405V55.3514ZM228.324 55.3514H235.243V62.2703H228.324V55.3514ZM235.243 55.3514H242.162V62.2703H235.243V55.3514ZM242.162 55.3514H249.081V62.2703H242.162V55.3514ZM20.7568 62.2703H27.6757V69.1892H20.7568V62.2703ZM27.6757 62.2703H34.5946V69.1892H27.6757V62.2703ZM34.5946 62.2703H41.5135V69.1892H34.5946V62.2703ZM41.5135 62.2703H48.4324V69.1892H41.5135V62.2703ZM62.2703 62.2703H69.1892V69.1892H62.2703V62.2703ZM76.1081 62.2703H83.027V69.1892H76.1081V62.2703ZM83.027 62.2703H89.9459V69.1892H83.027V62.2703ZM89.9459 62.2703H96.8649V69.1892H89.9459V62.2703ZM117.622 62.2703H124.541V69.1892H117.622V62.2703ZM124.541 62.2703H131.459V69.1892H124.541V62.2703ZM145.297 62.2703H152.216V69.1892H145.297V62.2703ZM193.73 62.2703H200.649V69.1892H193.73V62.2703ZM207.568 62.2703H214.486V69.1892H207.568V62.2703ZM235.243 62.2703H242.162V69.1892H235.243V62.2703ZM242.162 62.2703H249.081V69.1892H242.162V62.2703ZM249.081 62.2703H256V69.1892H249.081V62.2703ZM13.8378 69.1892H20.7568V76.1081H13.8378V69.1892ZM27.6757 69.1892H34.5946V76.1081H27.6757V69.1892ZM48.4324 69.1892H55.3514V76.1081H48.4324V69.1892ZM55.3514 69.1892H62.2703V76.1081H55.3514V69.1892ZM76.1081 69.1892H83.027V76.1081H76.1081V69.1892ZM89.9459 69.1892H96.8649V76.1081H89.9459V69.1892ZM96.8649 69.1892H103.784V76.1081H96.8649V69.1892ZM117.622 69.1892H124.541V76.1081H117.622V69.1892ZM131.459 69.1892H138.378V76.1081H131.459V69.1892ZM138.378 69.1892H145.297V76.1081H138.378V69.1892ZM145.297 69.1892H152.216V76.1081H145.297V69.1892ZM179.892 69.1892H186.811V76.1081H179.892V69.1892ZM228.324 69.1892H235.243V76.1081H228.324V69.1892ZM0 76.1081H6.91892V83.027H0V76.1081ZM13.8378 76.1081H20.7568V83.027H13.8378V76.1081ZM20.7568 76.1081H27.6757V83.027H20.7568V76.1081ZM27.6757 76.1081H34.5946V83.027H27.6757V76.1081ZM34.5946 76.1081H41.5135V83.027H34.5946V76.1081ZM41.5135 76.1081H48.4324V83.027H41.5135V76.1081ZM55.3514 76.1081H62.2703V83.027H55.3514V76.1081ZM62.2703 76.1081H69.1892V83.027H62.2703V76.1081ZM69.1892 76.1081H76.1081V83.027H69.1892V76.1081ZM76.1081 76.1081H83.027V83.027H76.1081V76.1081ZM83.027 76.1081H89.9459V83.027H83.027V76.1081ZM89.9459 76.1081H96.8649V83.027H89.9459V76.1081ZM96.8649 76.1081H103.784V83.027H96.8649V76.1081ZM110.703 76.1081H117.622V83.027H110.703V76.1081ZM124.541 76.1081H131.459V83.027H124.541V76.1081ZM131.459 76.1081H138.378V83.027H131.459V76.1081ZM138.378 76.1081H145.297V83.027H138.378V76.1081ZM145.297 76.1081H152.216V83.027H145.297V76.1081ZM159.135 76.1081H166.054V83.027H159.135V76.1081ZM172.973 76.1081H179.892V83.027H172.973V76.1081ZM179.892 76.1081H186.811V83.027H179.892V76.1081ZM193.73 76.1081H200.649V83.027H193.73V76.1081ZM207.568 76.1081H214.486V83.027H207.568V76.1081ZM221.405 76.1081H228.324V83.027H221.405V76.1081ZM228.324 76.1081H235.243V83.027H228.324V76.1081ZM249.081 76.1081H256V83.027H249.081V76.1081ZM0 83.027H6.91892V89.9459H0V83.027ZM20.7568 83.027H27.6757V89.9459H20.7568V83.027ZM27.6757 83.027H34.5946V89.9459H27.6757V83.027ZM55.3514 83.027H62.2703V89.9459H55.3514V83.027ZM76.1081 83.027H83.027V89.9459H76.1081V83.027ZM83.027 83.027H89.9459V89.9459H83.027V83.027ZM89.9459 83.027H96.8649V89.9459H89.9459V83.027ZM110.703 83.027H117.622V89.9459H110.703V83.027ZM117.622 83.027H124.541V89.9459H117.622V83.027ZM145.297 83.027H152.216V89.9459H145.297V83.027ZM152.216 83.027H159.135V89.9459H152.216V83.027ZM166.054 83.027H172.973V89.9459H166.054V83.027ZM172.973 83.027H179.892V89.9459H172.973V83.027ZM179.892 83.027H186.811V89.9459H179.892V83.027ZM186.811 83.027H193.73V89.9459H186.811V83.027ZM221.405 83.027H228.324V89.9459H221.405V83.027ZM235.243 83.027H242.162V89.9459H235.243V83.027ZM249.081 83.027H256V89.9459H249.081V83.027ZM0 89.9459H6.91892V96.8649H0V89.9459ZM6.91892 89.9459H13.8378V96.8649H6.91892V89.9459ZM13.8378 89.9459H20.7568V96.8649H13.8378V89.9459ZM20.7568 89.9459H27.6757V96.8649H20.7568V89.9459ZM34.5946 89.9459H41.5135V96.8649H34.5946V89.9459ZM41.5135 89.9459H48.4324V96.8649H41.5135V89.9459ZM48.4324 89.9459H55.3514V96.8649H48.4324V89.9459ZM55.3514 89.9459H62.2703V96.8649H55.3514V89.9459ZM62.2703 89.9459H69.1892V96.8649H62.2703V89.9459ZM76.1081 89.9459H83.027V96.8649H76.1081V89.9459ZM96.8649 89.9459H103.784V96.8649H96.8649V89.9459ZM110.703 89.9459H117.622V96.8649H110.703V89.9459ZM117.622 89.9459H124.541V96.8649H117.622V89.9459ZM124.541 89.9459H131.459V96.8649H124.541V89.9459ZM131.459 89.9459H138.378V96.8649H131.459V89.9459ZM138.378 89.9459H145.297V96.8649H138.378V89.9459ZM152.216 89.9459H159.135V96.8649H152.216V89.9459ZM166.054 89.9459H172.973V96.8649H166.054V89.9459ZM200.649 89.9459H207.568V96.8649H200.649V89.9459ZM207.568 89.9459H214.486V96.8649H207.568V89.9459ZM214.486 89.9459H221.405V96.8649H214.486V89.9459ZM249.081 89.9459H256V96.8649H249.081V89.9459ZM0 96.8649H6.91892V103.784H0V96.8649ZM6.91892 96.8649H13.8378V103.784H6.91892V96.8649ZM13.8378 96.8649H20.7568V103.784H13.8378V96.8649ZM20.7568 96.8649H27.6757V103.784H20.7568V96.8649ZM27.6757 96.8649H34.5946V103.784H27.6757V96.8649ZM48.4324 96.8649H55.3514V103.784H48.4324V96.8649ZM69.1892 96.8649H76.1081V103.784H69.1892V96.8649ZM76.1081 96.8649H83.027V103.784H76.1081V96.8649ZM83.027 96.8649H89.9459V103.784H83.027V96.8649ZM89.9459 96.8649H96.8649V103.784H89.9459V96.8649ZM159.135 96.8649H166.054V103.784H159.135V96.8649ZM166.054 96.8649H172.973V103.784H166.054V96.8649ZM172.973 96.8649H179.892V103.784H172.973V96.8649ZM179.892 96.8649H186.811V103.784H179.892V96.8649ZM207.568 96.8649H214.486V103.784H207.568V96.8649ZM228.324 96.8649H235.243V103.784H228.324V96.8649ZM235.243 96.8649H242.162V103.784H235.243V96.8649ZM242.162 96.8649H249.081V103.784H242.162V96.8649ZM0 103.784H6.91892V110.703H0V103.784ZM41.5135 103.784H48.4324V110.703H41.5135V103.784ZM48.4324 103.784H55.3514V110.703H48.4324V103.784ZM62.2703 103.784H69.1892V110.703H62.2703V103.784ZM76.1081 103.784H83.027V110.703H76.1081V103.784ZM89.9459 103.784H96.8649V110.703H89.9459V103.784ZM110.703 103.784H117.622V110.703H110.703V103.784ZM117.622 103.784H124.541V110.703H117.622V103.784ZM131.459 103.784H138.378V110.703H131.459V103.784ZM138.378 103.784H145.297V110.703H138.378V103.784ZM145.297 103.784H152.216V110.703H145.297V103.784ZM152.216 103.784H159.135V110.703H152.216V103.784ZM166.054 103.784H172.973V110.703H166.054V103.784ZM172.973 103.784H179.892V110.703H172.973V103.784ZM179.892 103.784H186.811V110.703H179.892V103.784ZM193.73 103.784H200.649V110.703H193.73V103.784ZM200.649 103.784H207.568V110.703H200.649V103.784ZM207.568 103.784H214.486V110.703H207.568V103.784ZM221.405 103.784H228.324V110.703H221.405V103.784ZM242.162 103.784H249.081V110.703H242.162V103.784ZM0 110.703H6.91892V117.622H0V110.703ZM6.91892 110.703H13.8378V117.622H6.91892V110.703ZM34.5946 110.703H41.5135V117.622H34.5946V110.703ZM48.4324 110.703H55.3514V117.622H48.4324V110.703ZM55.3514 110.703H62.2703V117.622H55.3514V110.703ZM96.8649 110.703H103.784V117.622H96.8649V110.703ZM117.622 110.703H124.541V117.622H117.622V110.703ZM131.459 110.703H138.378V117.622H131.459V110.703ZM145.297 110.703H152.216V117.622H145.297V110.703ZM159.135 110.703H166.054V117.622H159.135V110.703ZM179.892 110.703H186.811V117.622H179.892V110.703ZM193.73 110.703H200.649V117.622H193.73V110.703ZM200.649 110.703H207.568V117.622H200.649V110.703ZM214.486 110.703H221.405V117.622H214.486V110.703ZM221.405 110.703H228.324V117.622H221.405V110.703ZM6.91892 117.622H13.8378V124.541H6.91892V117.622ZM13.8378 117.622H20.7568V124.541H13.8378V117.622ZM27.6757 117.622H34.5946V124.541H27.6757V117.622ZM34.5946 117.622H41.5135V124.541H34.5946V117.622ZM41.5135 117.622H48.4324V124.541H41.5135V117.622ZM62.2703 117.622H69.1892V124.541H62.2703V117.622ZM83.027 117.622H89.9459V124.541H83.027V117.622ZM89.9459 117.622H96.8649V124.541H89.9459V117.622ZM96.8649 117.622H103.784V124.541H96.8649V117.622ZM124.541 117.622H131.459V124.541H124.541V117.622ZM159.135 117.622H166.054V124.541H159.135V117.622ZM166.054 117.622H172.973V124.541H166.054V117.622ZM179.892 117.622H186.811V124.541H179.892V117.622ZM193.73 117.622H200.649V124.541H193.73V117.622ZM200.649 117.622H207.568V124.541H200.649V117.622ZM207.568 117.622H214.486V124.541H207.568V117.622ZM221.405 117.622H228.324V124.541H221.405V117.622ZM242.162 117.622H249.081V124.541H242.162V117.622ZM249.081 117.622H256V124.541H249.081V117.622ZM0 124.541H6.91892V131.459H0V124.541ZM34.5946 124.541H41.5135V131.459H34.5946V124.541ZM48.4324 124.541H55.3514V131.459H48.4324V124.541ZM55.3514 124.541H62.2703V131.459H55.3514V124.541ZM62.2703 124.541H69.1892V131.459H62.2703V124.541ZM76.1081 124.541H83.027V131.459H76.1081V124.541ZM96.8649 124.541H103.784V131.459H96.8649V124.541ZM110.703 124.541H117.622V131.459H110.703V124.541ZM117.622 124.541H124.541V131.459H117.622V124.541ZM138.378 124.541H145.297V131.459H138.378V124.541ZM152.216 124.541H159.135V131.459H152.216V124.541ZM172.973 124.541H179.892V131.459H172.973V124.541ZM179.892 124.541H186.811V131.459H179.892V124.541ZM200.649 124.541H207.568V131.459H200.649V124.541ZM221.405 124.541H228.324V131.459H221.405V124.541ZM228.324 124.541H235.243V131.459H228.324V124.541ZM242.162 124.541H249.081V131.459H242.162V124.541ZM13.8378 131.459H20.7568V138.378H13.8378V131.459ZM20.7568 131.459H27.6757V138.378H20.7568V131.459ZM41.5135 131.459H48.4324V138.378H41.5135V131.459ZM48.4324 131.459H55.3514V138.378H48.4324V131.459ZM62.2703 131.459H69.1892V138.378H62.2703V131.459ZM83.027 131.459H89.9459V138.378H83.027V131.459ZM96.8649 131.459H103.784V138.378H96.8649V131.459ZM110.703 131.459H117.622V138.378H110.703V131.459ZM117.622 131.459H124.541V138.378H117.622V131.459ZM124.541 131.459H131.459V138.378H124.541V131.459ZM131.459 131.459H138.378V138.378H131.459V131.459ZM138.378 131.459H145.297V138.378H138.378V131.459ZM145.297 131.459H152.216V138.378H145.297V131.459ZM152.216 131.459H159.135V138.378H152.216V131.459ZM159.135 131.459H166.054V138.378H159.135V131.459ZM166.054 131.459H172.973V138.378H166.054V131.459ZM179.892 131.459H186.811V138.378H179.892V131.459ZM200.649 131.459H207.568V138.378H200.649V131.459ZM207.568 131.459H214.486V138.378H207.568V131.459ZM214.486 131.459H221.405V138.378H214.486V131.459ZM221.405 131.459H228.324V138.378H221.405V131.459ZM235.243 131.459H242.162V138.378H235.243V131.459ZM242.162 131.459H249.081V138.378H242.162V131.459ZM6.91892 138.378H13.8378V145.297H6.91892V138.378ZM83.027 138.378H89.9459V145.297H83.027V138.378ZM89.9459 138.378H96.8649V145.297H89.9459V138.378ZM110.703 138.378H117.622V145.297H110.703V138.378ZM145.297 138.378H152.216V145.297H145.297V138.378ZM152.216 138.378H159.135V145.297H152.216V138.378ZM159.135 138.378H166.054V145.297H159.135V138.378ZM166.054 138.378H172.973V145.297H166.054V138.378ZM172.973 138.378H179.892V145.297H172.973V138.378ZM186.811 138.378H193.73V145.297H186.811V138.378ZM228.324 138.378H235.243V145.297H228.324V138.378ZM235.243 138.378H242.162V145.297H235.243V138.378ZM6.91892 145.297H13.8378V152.216H6.91892V145.297ZM34.5946 145.297H41.5135V152.216H34.5946V145.297ZM41.5135 145.297H48.4324V152.216H41.5135V145.297ZM48.4324 145.297H55.3514V152.216H48.4324V145.297ZM62.2703 145.297H69.1892V152.216H62.2703V145.297ZM69.1892 145.297H76.1081V152.216H69.1892V145.297ZM76.1081 145.297H83.027V152.216H76.1081V145.297ZM89.9459 145.297H96.8649V152.216H89.9459V145.297ZM117.622 145.297H124.541V152.216H117.622V145.297ZM124.541 145.297H131.459V152.216H124.541V145.297ZM145.297 145.297H152.216V152.216H145.297V145.297ZM166.054 145.297H172.973V152.216H166.054V145.297ZM193.73 145.297H200.649V152.216H193.73V145.297ZM200.649 145.297H207.568V152.216H200.649V145.297ZM207.568 145.297H214.486V152.216H207.568V145.297ZM249.081 145.297H256V152.216H249.081V145.297ZM13.8378 152.216H20.7568V159.135H13.8378V152.216ZM20.7568 152.216H27.6757V159.135H20.7568V152.216ZM34.5946 152.216H41.5135V159.135H34.5946V152.216ZM69.1892 152.216H76.1081V159.135H69.1892V152.216ZM83.027 152.216H89.9459V159.135H83.027V152.216ZM89.9459 152.216H96.8649V159.135H89.9459V152.216ZM96.8649 152.216H103.784V159.135H96.8649V152.216ZM110.703 152.216H117.622V159.135H110.703V152.216ZM131.459 152.216H138.378V159.135H131.459V152.216ZM138.378 152.216H145.297V159.135H138.378V152.216ZM166.054 152.216H172.973V159.135H166.054V152.216ZM172.973 152.216H179.892V159.135H172.973V152.216ZM179.892 152.216H186.811V159.135H179.892V152.216ZM207.568 152.216H214.486V159.135H207.568V152.216ZM242.162 152.216H249.081V159.135H242.162V152.216ZM0 159.135H6.91892V166.054H0V159.135ZM6.91892 159.135H13.8378V166.054H6.91892V159.135ZM13.8378 159.135H20.7568V166.054H13.8378V159.135ZM20.7568 159.135H27.6757V166.054H20.7568V159.135ZM41.5135 159.135H48.4324V166.054H41.5135V159.135ZM48.4324 159.135H55.3514V166.054H48.4324V159.135ZM55.3514 159.135H62.2703V166.054H55.3514V159.135ZM89.9459 159.135H96.8649V166.054H89.9459V159.135ZM103.784 159.135H110.703V166.054H103.784V159.135ZM124.541 159.135H131.459V166.054H124.541V159.135ZM138.378 159.135H145.297V166.054H138.378V159.135ZM145.297 159.135H152.216V166.054H145.297V159.135ZM152.216 159.135H159.135V166.054H152.216V159.135ZM172.973 159.135H179.892V166.054H172.973V159.135ZM186.811 159.135H193.73V166.054H186.811V159.135ZM200.649 159.135H207.568V166.054H200.649V159.135ZM214.486 159.135H221.405V166.054H214.486V159.135ZM221.405 159.135H228.324V166.054H221.405V159.135ZM0 166.054H6.91892V172.973H0V166.054ZM6.91892 166.054H13.8378V172.973H6.91892V166.054ZM13.8378 166.054H20.7568V172.973H13.8378V166.054ZM27.6757 166.054H34.5946V172.973H27.6757V166.054ZM34.5946 166.054H41.5135V172.973H34.5946V166.054ZM62.2703 166.054H69.1892V172.973H62.2703V166.054ZM89.9459 166.054H96.8649V172.973H89.9459V166.054ZM103.784 166.054H110.703V172.973H103.784V166.054ZM110.703 166.054H117.622V172.973H110.703V166.054ZM117.622 166.054H124.541V172.973H117.622V166.054ZM145.297 166.054H152.216V172.973H145.297V166.054ZM159.135 166.054H166.054V172.973H159.135V166.054ZM172.973 166.054H179.892V172.973H172.973V166.054ZM186.811 166.054H193.73V172.973H186.811V166.054ZM200.649 166.054H207.568V172.973H200.649V166.054ZM221.405 166.054H228.324V172.973H221.405V166.054ZM235.243 166.054H242.162V172.973H235.243V166.054ZM242.162 166.054H249.081V172.973H242.162V166.054ZM6.91892 172.973H13.8378V179.892H6.91892V172.973ZM13.8378 172.973H20.7568V179.892H13.8378V172.973ZM20.7568 172.973H27.6757V179.892H20.7568V172.973ZM41.5135 172.973H48.4324V179.892H41.5135V172.973ZM48.4324 172.973H55.3514V179.892H48.4324V172.973ZM55.3514 172.973H62.2703V179.892H55.3514V172.973ZM76.1081 172.973H83.027V179.892H76.1081V172.973ZM83.027 172.973H89.9459V179.892H83.027V172.973ZM96.8649 172.973H103.784V179.892H96.8649V172.973ZM110.703 172.973H117.622V179.892H110.703V172.973ZM131.459 172.973H138.378V179.892H131.459V172.973ZM138.378 172.973H145.297V179.892H138.378V172.973ZM152.216 172.973H159.135V179.892H152.216V172.973ZM166.054 172.973H172.973V179.892H166.054V172.973ZM172.973 172.973H179.892V179.892H172.973V172.973ZM200.649 172.973H207.568V179.892H200.649V172.973ZM207.568 172.973H214.486V179.892H207.568V172.973ZM214.486 172.973H221.405V179.892H214.486V172.973ZM235.243 172.973H242.162V179.892H235.243V172.973ZM249.081 172.973H256V179.892H249.081V172.973ZM20.7568 179.892H27.6757V186.811H20.7568V179.892ZM34.5946 179.892H41.5135V186.811H34.5946V179.892ZM55.3514 179.892H62.2703V186.811H55.3514V179.892ZM62.2703 179.892H69.1892V186.811H62.2703V179.892ZM69.1892 179.892H76.1081V186.811H69.1892V179.892ZM89.9459 179.892H96.8649V186.811H89.9459V179.892ZM96.8649 179.892H103.784V186.811H96.8649V179.892ZM110.703 179.892H117.622V186.811H110.703V179.892ZM117.622 179.892H124.541V186.811H117.622V179.892ZM124.541 179.892H131.459V186.811H124.541V179.892ZM152.216 179.892H159.135V186.811H152.216V179.892ZM159.135 179.892H166.054V186.811H159.135V179.892ZM172.973 179.892H179.892V186.811H172.973V179.892ZM221.405 179.892H228.324V186.811H221.405V179.892ZM228.324 179.892H235.243V186.811H228.324V179.892ZM6.91892 186.811H13.8378V193.73H6.91892V186.811ZM13.8378 186.811H20.7568V193.73H13.8378V186.811ZM20.7568 186.811H27.6757V193.73H20.7568V186.811ZM27.6757 186.811H34.5946V193.73H27.6757V186.811ZM41.5135 186.811H48.4324V193.73H41.5135V186.811ZM48.4324 186.811H55.3514V193.73H48.4324V186.811ZM55.3514 186.811H62.2703V193.73H55.3514V186.811ZM69.1892 186.811H76.1081V193.73H69.1892V186.811ZM83.027 186.811H89.9459V193.73H83.027V186.811ZM89.9459 186.811H96.8649V193.73H89.9459V186.811ZM103.784 186.811H110.703V193.73H103.784V186.811ZM110.703 186.811H117.622V193.73H110.703V186.811ZM117.622 186.811H124.541V193.73H117.622V186.811ZM124.541 186.811H131.459V193.73H124.541V186.811ZM131.459 186.811H138.378V193.73H131.459V186.811ZM145.297 186.811H152.216V193.73H145.297V186.811ZM152.216 186.811H159.135V193.73H152.216V186.811ZM172.973 186.811H179.892V193.73H172.973V186.811ZM179.892 186.811H186.811V193.73H179.892V186.811ZM193.73 186.811H200.649V193.73H193.73V186.811ZM200.649 186.811H207.568V193.73H200.649V186.811ZM221.405 186.811H228.324V193.73H221.405V186.811ZM242.162 186.811H249.081V193.73H242.162V186.811ZM6.91892 193.73H13.8378V200.649H6.91892V193.73ZM13.8378 193.73H20.7568V200.649H13.8378V193.73ZM27.6757 193.73H34.5946V200.649H27.6757V193.73ZM34.5946 193.73H41.5135V200.649H34.5946V193.73ZM69.1892 193.73H76.1081V200.649H69.1892V193.73ZM76.1081 193.73H83.027V200.649H76.1081V193.73ZM103.784 193.73H110.703V200.649H103.784V193.73ZM110.703 193.73H117.622V200.649H110.703V193.73ZM117.622 193.73H124.541V200.649H117.622V193.73ZM138.378 193.73H145.297V200.649H138.378V193.73ZM145.297 193.73H152.216V200.649H145.297V193.73ZM179.892 193.73H186.811V200.649H179.892V193.73ZM186.811 193.73H193.73V200.649H186.811V193.73ZM249.081 193.73H256V200.649H249.081V193.73ZM0 200.649H6.91892V207.568H0V200.649ZM6.91892 200.649H13.8378V207.568H6.91892V200.649ZM13.8378 200.649H20.7568V207.568H13.8378V200.649ZM20.7568 200.649H27.6757V207.568H20.7568V200.649ZM27.6757 200.649H34.5946V207.568H27.6757V200.649ZM34.5946 200.649H41.5135V207.568H34.5946V200.649ZM41.5135 200.649H48.4324V207.568H41.5135V200.649ZM48.4324 200.649H55.3514V207.568H48.4324V200.649ZM62.2703 200.649H69.1892V207.568H62.2703V200.649ZM89.9459 200.649H96.8649V207.568H89.9459V200.649ZM124.541 200.649H131.459V207.568H124.541V200.649ZM138.378 200.649H145.297V207.568H138.378V200.649ZM159.135 200.649H166.054V207.568H159.135V200.649ZM166.054 200.649H172.973V207.568H166.054V200.649ZM172.973 200.649H179.892V207.568H172.973V200.649ZM179.892 200.649H186.811V207.568H179.892V200.649ZM186.811 200.649H193.73V207.568H186.811V200.649ZM200.649 200.649H207.568V207.568H200.649V200.649ZM207.568 200.649H214.486V207.568H207.568V200.649ZM214.486 200.649H221.405V207.568H214.486V200.649ZM235.243 200.649H242.162V207.568H235.243V200.649ZM249.081 200.649H256V207.568H249.081V200.649ZM48.4324 207.568H55.3514V214.486H48.4324V207.568ZM55.3514 207.568H62.2703V214.486H55.3514V207.568ZM62.2703 207.568H69.1892V214.486H62.2703V207.568ZM69.1892 207.568H76.1081V214.486H69.1892V207.568ZM83.027 207.568H89.9459V214.486H83.027V207.568ZM124.541 207.568H131.459V214.486H124.541V207.568ZM138.378 207.568H145.297V214.486H138.378V207.568ZM145.297 207.568H152.216V214.486H145.297V207.568ZM152.216 207.568H159.135V214.486H152.216V207.568ZM166.054 207.568H172.973V214.486H166.054V207.568ZM179.892 207.568H186.811V214.486H179.892V207.568ZM186.811 207.568H193.73V214.486H186.811V207.568ZM200.649 207.568H207.568V214.486H200.649V207.568ZM214.486 207.568H221.405V214.486H214.486V207.568ZM235.243 207.568H242.162V214.486H235.243V207.568ZM242.162 207.568H249.081V214.486H242.162V207.568ZM6.91892 214.486H13.8378V221.405H6.91892V214.486ZM13.8378 214.486H20.7568V221.405H13.8378V214.486ZM20.7568 214.486H27.6757V221.405H20.7568V214.486ZM27.6757 214.486H34.5946V221.405H27.6757V214.486ZM34.5946 214.486H41.5135V221.405H34.5946V214.486ZM48.4324 214.486H55.3514V221.405H48.4324V214.486ZM55.3514 214.486H62.2703V221.405H55.3514V214.486ZM62.2703 214.486H69.1892V221.405H62.2703V214.486ZM69.1892 214.486H76.1081V221.405H69.1892V214.486ZM83.027 214.486H89.9459V221.405H83.027V214.486ZM96.8649 214.486H103.784V221.405H96.8649V214.486ZM103.784 214.486H110.703V221.405H103.784V214.486ZM117.622 214.486H124.541V221.405H117.622V214.486ZM131.459 214.486H138.378V221.405H131.459V214.486ZM138.378 214.486H145.297V221.405H138.378V214.486ZM145.297 214.486H152.216V221.405H145.297V214.486ZM152.216 214.486H159.135V221.405H152.216V214.486ZM159.135 214.486H166.054V221.405H159.135V214.486ZM179.892 214.486H186.811V221.405H179.892V214.486ZM200.649 214.486H207.568V221.405H200.649V214.486ZM207.568 214.486H214.486V221.405H207.568V214.486ZM214.486 214.486H221.405V221.405H214.486V214.486ZM235.243 214.486H242.162V221.405H235.243V214.486ZM6.91892 221.405H13.8378V228.324H6.91892V221.405ZM34.5946 221.405H41.5135V228.324H34.5946V221.405ZM48.4324 221.405H55.3514V228.324H48.4324V221.405ZM62.2703 221.405H69.1892V228.324H62.2703V221.405ZM69.1892 221.405H76.1081V228.324H69.1892V221.405ZM76.1081 221.405H83.027V228.324H76.1081V221.405ZM83.027 221.405H89.9459V228.324H83.027V221.405ZM89.9459 221.405H96.8649V228.324H89.9459V221.405ZM131.459 221.405H138.378V228.324H131.459V221.405ZM138.378 221.405H145.297V228.324H138.378V221.405ZM145.297 221.405H152.216V228.324H145.297V221.405ZM152.216 221.405H159.135V228.324H152.216V221.405ZM172.973 221.405H179.892V228.324H172.973V221.405ZM228.324 221.405H235.243V228.324H228.324V221.405ZM235.243 221.405H242.162V228.324H235.243V221.405ZM242.162 221.405H249.081V228.324H242.162V221.405ZM6.91892 228.324H13.8378V235.243H6.91892V228.324ZM34.5946 228.324H41.5135V235.243H34.5946V228.324ZM48.4324 228.324H55.3514V235.243H48.4324V228.324ZM62.2703 228.324H69.1892V235.243H62.2703V228.324ZM89.9459 228.324H96.8649V235.243H89.9459V228.324ZM110.703 228.324H117.622V235.243H110.703V228.324ZM117.622 228.324H124.541V235.243H117.622V228.324ZM124.541 228.324H131.459V235.243H124.541V228.324ZM145.297 228.324H152.216V235.243H145.297V228.324ZM166.054 228.324H172.973V235.243H166.054V228.324ZM179.892 228.324H186.811V235.243H179.892V228.324ZM214.486 228.324H221.405V235.243H214.486V228.324ZM221.405 228.324H228.324V235.243H221.405V228.324ZM242.162 228.324H249.081V235.243H242.162V228.324ZM249.081 228.324H256V235.243H249.081V228.324ZM6.91892 235.243H13.8378V242.162H6.91892V235.243ZM34.5946 235.243H41.5135V242.162H34.5946V235.243ZM48.4324 235.243H55.3514V242.162H48.4324V235.243ZM55.3514 235.243H62.2703V242.162H55.3514V235.243ZM69.1892 235.243H76.1081V242.162H69.1892V235.243ZM83.027 235.243H89.9459V242.162H83.027V235.243ZM96.8649 235.243H103.784V242.162H96.8649V235.243ZM110.703 235.243H117.622V242.162H110.703V235.243ZM124.541 235.243H131.459V242.162H124.541V235.243ZM131.459 235.243H138.378V242.162H131.459V235.243ZM138.378 235.243H145.297V242.162H138.378V235.243ZM172.973 235.243H179.892V242.162H172.973V235.243ZM193.73 235.243H200.649V242.162H193.73V235.243ZM207.568 235.243H214.486V242.162H207.568V235.243ZM235.243 235.243H242.162V242.162H235.243V235.243ZM242.162 235.243H249.081V242.162H242.162V235.243ZM6.91892 242.162H13.8378V249.081H6.91892V242.162ZM13.8378 242.162H20.7568V249.081H13.8378V242.162ZM20.7568 242.162H27.6757V249.081H20.7568V242.162ZM27.6757 242.162H34.5946V249.081H27.6757V242.162ZM34.5946 242.162H41.5135V249.081H34.5946V242.162ZM48.4324 242.162H55.3514V249.081H48.4324V242.162ZM69.1892 242.162H76.1081V249.081H69.1892V242.162ZM83.027 242.162H89.9459V249.081H83.027V242.162ZM89.9459 242.162H96.8649V249.081H89.9459V242.162ZM96.8649 242.162H103.784V249.081H96.8649V242.162ZM103.784 242.162H110.703V249.081H103.784V242.162ZM145.297 242.162H152.216V249.081H145.297V242.162ZM152.216 242.162H159.135V249.081H152.216V242.162ZM172.973 242.162H179.892V249.081H172.973V242.162ZM179.892 242.162H186.811V249.081H179.892V242.162ZM186.811 242.162H193.73V249.081H186.811V242.162ZM193.73 242.162H200.649V249.081H193.73V242.162ZM207.568 242.162H214.486V249.081H207.568V242.162ZM214.486 242.162H221.405V249.081H214.486V242.162ZM221.405 242.162H228.324V249.081H221.405V242.162ZM48.4324 249.081H55.3514V256H48.4324V249.081ZM69.1892 249.081H76.1081V256H69.1892V249.081ZM83.027 249.081H89.9459V256H83.027V249.081ZM89.9459 249.081H96.8649V256H89.9459V249.081ZM110.703 249.081H117.622V256H110.703V249.081ZM117.622 249.081H124.541V256H117.622V249.081ZM138.378 249.081H145.297V256H138.378V249.081ZM145.297 249.081H152.216V256H145.297V249.081ZM152.216 249.081H159.135V256H152.216V249.081ZM159.135 249.081H166.054V256H159.135V249.081ZM172.973 249.081H179.892V256H172.973V249.081ZM179.892 249.081H186.811V256H179.892V249.081ZM186.811 249.081H193.73V256H186.811V249.081ZM228.324 249.081H235.243V256H228.324V249.081ZM235.243 249.081H242.162V256H235.243V249.081ZM242.162 249.081H249.081V256H242.162V249.081Z" fill="white"/>
<path d="M0 0H6.91892V6.91892H0V0ZM6.91892 0H13.8378V6.91892H6.91892V0ZM13.8378 0H20.7568V6.91892H13.8378V0ZM20.7568 0H27.6757V6.91892H20.7568V0ZM27.6757 0H34.5946V6.91892H27.6757V0ZM34.5946 0H41.5135V6.91892H34.5946V0ZM41.5135 0H48.4324V6.91892H41.5135V0ZM55.3514 0H62.2703V6.91892H55.3514V0ZM62.2703 0H69.1892V6.91892H62.2703V0ZM69.1892 0H76.1081V6.91892H69.1892V0ZM76.1081 0H83.027V6.91892H76.1081V0ZM89.9459 0H96.8649V6.91892H89.9459V0ZM110.703 0H117.622V6.91892H110.703V0ZM117.622 0H124.541V6.91892H117.622V0ZM124.541 0H131.459V6.91892H124.541V0ZM145.297 0H152.216V6.91892H145.297V0ZM172.973 0H179.892V6.91892H172.973V0ZM179.892 0H186.811V6.91892H179.892V0ZM207.568 0H214.486V6.91892H207.568V0ZM214.486 0H221.405V6.91892H214.486V0ZM221.405 0H228.324V6.91892H221.405V0ZM228.324 0H235.243V6.91892H228.324V0ZM235.243 0H242.162V6.91892H235.243V0ZM242.162 0H249.081V6.91892H242.162V0ZM249.081 0H256V6.91892H249.081V0ZM0 6.91892H6.91892V13.8378H0V6.91892ZM41.5135 6.91892H48.4324V13.8378H41.5135V6.91892ZM76.1081 6.91892H83.027V13.8378H76.1081V6.91892ZM83.027 6.91892H89.9459V13.8378H83.027V6.91892ZM89.9459 6.91892H96.8649V13.8378H89.9459V6.91892ZM96.8649 6.91892H103.784V13.8378H96.8649V6.91892ZM117.622 6.91892H124.541V13.8378H117.622V6.91892ZM131.459 6.91892H138.378V13.8378H131.459V6.91892ZM138.378 6.91892H145.297V13.8378H138.378V6.91892ZM145.297 6.91892H152.216V13.8378H145.297V6.91892ZM166.054 6.91892H172.973V13.8378H166.054V6.91892ZM179.892 6.91892H186.811V13.8378H179.892V6.91892ZM193.73 6.91892H200.649V13.8378H193.73V6.91892ZM207.568 6.91892H214.486V13.8378H207.568V6.91892ZM249.081 6.91892H256V13.8378H249.081V6.91892ZM0 13.8378H6.91892V20.7568H0V13.8378ZM13.8378 13.8378H20.7568V20.7568H13.8378V13.8378ZM20.7568 13.8378H27.6757V20.7568H20.7568V13.8378ZM27.6757 13.8378H34.5946V20.7568H27.6757V13.8378ZM41.5135 13.8378H48.4324V20.7568H41.5135V13.8378ZM62.2703 13.8378H69.1892V20.7568H62.2703V13.8378ZM76.1081 13.8378H83.027V20.7568H76.1081V13.8378ZM89.9459 13.8378H96.8649V20.7568H89.9459V13.8378ZM124.541 13.8378H131.459V20.7568H124.541V13.8378ZM131.459 13.8378H138.378V20.7568H131.459V13.8378ZM145.297 13.8378H152.216V20.7568H145.297V13.8378ZM152.216 13.8378H159.135V20.7568H152.216V13.8378ZM166.054 13.8378H172.973V20.7568H166.054V13.8378ZM172.973 13.8378H179.892V20.7568H172.973V13.8378ZM179.892 13.8378H186.811V20.7568H179.892V13.8378ZM186.811 13.8378H193.73V20.7568H186.811V13.8378ZM207.568 13.8378H214.486V20.7568H207.568V13.8378ZM221.405 13.8378H228.324V20.7568H221.405V13.8378ZM228.324 13.8378H235.243V20.7568H228.324V13.8378ZM235.243 13.8378H242.162V20.7568H235.243V13.8378ZM249.081 13.8378H256V20.7568H249.081V13.8378ZM0 20.7568H6.91892V27.6757H0V20.7568ZM13.8378 20.7568H20.7568V27.6757H13.8378V20.7568ZM20.7568 20.7568H27.6757V27.6757H20.7568V20.7568ZM27.6757 20.7568H34.5946V27.6757H27.6757V20.7568ZM41.5135 20.7568H48.4324V27.6757H41.5135V20.7568ZM69.1892 20.7568H76.1081V27.6757H69.1892V20.7568ZM76.1081 20.7568H83.027V27.6757H76.1081V20.7568ZM89.9459 20.7568H96.8649V27.6757H89.9459V20.7568ZM96.8649 20.7568H103.784V27.6757H96.8649V20.7568ZM110.703 20.7568H117.622V27.6757H110.703V20.7568ZM117.622 20.7568H124.541V27.6757H117.622V20.7568ZM124.541 20.7568H131.459V27.6757H124.541V20.7568ZM145.297 20.7568H152.216V27.6757H145.297V20.7568ZM172.973 20.7568H179.892V27.6757H172.973V20.7568ZM193.73 20.7568H200.649V27.6757H193.73V20.7568ZM207.568 20.7568H214.486V27.6757H207.568V20.7568ZM221.405 20.7568H228.324V27.6757H221.405V20.7568ZM228.324 20.7568H235.243V27.6757H228.324V20.7568ZM235.243 20.7568H242.162V27.6757H235.243V20.7568ZM249.081 20.7568H256V27.6757H249.081V20.7568ZM0 27.6757H6.91892V34.5946H0V27.6757ZM13.8378 27.6757H20.7568V34.5946H13.8378V27.6757ZM20.7568 27.6757H27.6757V34.5946H20.7568V27.6757ZM27.6757 27.6757H34.5946V34.5946H27.6757V27.6757ZM41.5135 27.6757H48.4324V34.5946H41.5135V27.6757ZM69.1892 27.6757H76.1081V34.5946H69.1892V27.6757ZM76.1081 27.6757H83.027V34.5946H76.1081V27.6757ZM83.027 27.6757H89.9459V34.5946H83.027V27.6757ZM110.703 27.6757H117.622V34.5946H110.703V27.6757ZM124.541 27.6757H131.459V34.5946H124.541V27.6757ZM131.459 27.6757H138.378V34.5946H131.459V27.6757ZM138.378 27.6757H145.297V34.5946H138.378V27.6757ZM172.973 27.6757H179.892V34.5946H172.973V27.6757ZM179.892 27.6757H186.811V34.5946H179.892V27.6757ZM193.73 27.6757H200.649V34.5946H193.73V27.6757ZM207.568 27.6757H214.486V34.5946H207.568V27.6757ZM221.405 27.6757H228.324V34.5946H221.405V27.6757ZM228.324 27.6757H235.243V34.5946H228.324V27.6757ZM235.243 27.6757H242.162V34.5946H235.243V27.6757ZM249.081 27.6757H256V34.5946H249.081V27.6757ZM0 34.5946H6.91892V41.5135H0V34.5946ZM41.5135 34.5946H48.4324V41.5135H41.5135V34.5946ZM62.2703 34.5946H69.1892V41.5135H62.2703V34.5946ZM76.1081 34.5946H83.027V41.5135H76.1081V34.5946ZM96.8649 34.5946H103.784V41.5135H96.8649V34.5946ZM117.622 34.5946H124.541V41.5135H117.622V34.5946ZM138.378 34.5946H145.297V41.5135H138.378V34.5946ZM145.297 34.5946H152.216V41.5135H145.297V34.5946ZM159.135 34.5946H166.054V41.5135H159.135V34.5946ZM193.73 34.5946H200.649V41.5135H193.73V34.5946ZM207.568 34.5946H214.486V41.5135H207.568V34.5946ZM249.081 34.5946H256V41.5135H249.081V34.5946ZM0 41.5135H6.91892V48.4324H0V41.5135ZM6.91892 41.5135H13.8378V48.4324H6.91892V41.5135ZM13.8378 41.5135H20.7568V48.4324H13.8378V41.5135ZM20.7568 41.5135H27.6757V48.4324H20.7568V41.5135ZM27.6757 41.5135H34.5946V48.4324H27.6757V41.5135ZM34.5946 41.5135H41.5135V48.4324H34.5946V41.5135ZM41.5135 41.5135H48.4324V48.4324H41.5135V41.5135ZM55.3514 41.5135H62.2703V48.4324H55.3514V41.5135ZM69.1892 41.5135H76.1081V48.4324H69.1892V41.5135ZM83.027 41.5135H89.9459V48.4324H83.027V41.5135ZM96.8649 41.5135H103.784V48.4324H96.8649V41.5135ZM110.703 41.5135H117.622V48.4324H110.703V41.5135ZM124.541 41.5135H131.459V48.4324H124.541V41.5135ZM138.378 41.5135H145.297V48.4324H138.378V41.5135ZM152.216 41.5135H159.135V48.4324H152.216V41.5135ZM166.054 41.5135H172.973V48.4324H166.054V41.5135ZM179.892 41.5135H186.811V48.4324H179.892V41.5135ZM193.73 41.5135H200.649V48.4324H193.73V41.5135ZM207.568 41.5135H214.486V48.4324H207.568V41.5135ZM214.486 41.5135H221.405V48.4324H214.486V41.5135ZM221.405 41.5135H228.324V48.4324H221.405V41.5135ZM228.324 41.5135H235.243V48.4324H228.324V41.5135ZM235.243 41.5135H242.162V48.4324H235.243V41.5135ZM242.162 41.5135H249.081V48.4324H242.162V41.5135ZM249.081 41.5135H256V48.4324H249.081V41.5135ZM55.3514 48.4324H62.2703V55.3514H55.3514V48.4324ZM62.2703 48.4324H69.1892V55.3514H62.2703V48.4324ZM83.027 48.4324H89.9459V55.3514H83.027V48.4324ZM89.9459 48.4324H96.8649V55.3514H89.9459V48.4324ZM110.703 48.4324H117.622V55.3514H110.703V48.4324ZM131.459 48.4324H138.378V55.3514H131.459V48.4324ZM138.378 48.4324H145.297V55.3514H138.378V48.4324ZM152.216 48.4324H159.135V55.3514H152.216V48.4324ZM172.973 48.4324H179.892V55.3514H172.973V48.4324ZM179.892 48.4324H186.811V55.3514H179.892V48.4324ZM193.73 48.4324H200.649V55.3514H193.73V48.4324ZM0 55.3514H6.91892V62.2703H0V55.3514ZM6.91892 55.3514H13.8378V62.2703H6.91892V55.3514ZM20.7568 55.3514H27.6757V62.2703H20.7568V55.3514ZM27.6757 55.3514H34.5946V62.2703H27.6757V55.3514ZM41.5135 55.3514H48.4324V62.2703H41.5135V55.3514ZM62.2703 55.3514H69.1892V62.2703H62.2703V55.3514ZM83.027 55.3514H89.9459V62.2703H83.027V55.3514ZM96.8649 55.3514H103.784V62.2703H96.8649V55.3514ZM110.703 55.3514H117.622V62.2703H110.703V55.3514ZM117.622 55.3514H124.541V62.2703H117.622V55.3514ZM124.541 55.3514H131.459V62.2703H124.541V55.3514ZM138.378 55.3514H145.297V62.2703H138.378V55.3514ZM159.135 55.3514H166.054V62.2703H159.135V55.3514ZM166.054 55.3514H172.973V62.2703H166.054V55.3514ZM186.811 55.3514H193.73V62.2703H186.811V55.3514ZM207.568 55.3514H214.486V62.2703H207.568V55.3514ZM249.081 55.3514H256V62.2703H249.081V55.3514ZM0 62.2703H6.91892V69.1892H0V62.2703ZM6.91892 62.2703H13.8378V69.1892H6.91892V62.2703ZM13.8378 62.2703H20.7568V69.1892H13.8378V62.2703ZM48.4324 62.2703H55.3514V69.1892H48.4324V62.2703ZM55.3514 62.2703H62.2703V69.1892H55.3514V62.2703ZM69.1892 62.2703H76.1081V69.1892H69.1892V62.2703ZM96.8649 62.2703H103.784V69.1892H96.8649V62.2703ZM103.784 62.2703H110.703V69.1892H103.784V62.2703ZM110.703 62.2703H117.622V69.1892H110.703V62.2703ZM131.459 62.2703H138.378V69.1892H131.459V62.2703ZM138.378 62.2703H145.297V69.1892H138.378V62.2703ZM152.216 62.2703H159.135V69.1892H152.216V62.2703ZM159.135 62.2703H166.054V69.1892H159.135V62.2703ZM166.054 62.2703H172.973V69.1892H166.054V62.2703ZM172.973 62.2703H179.892V69.1892H172.973V62.2703ZM179.892 62.2703H186.811V69.1892H179.892V62.2703ZM186.811 62.2703H193.73V69.1892H186.811V62.2703ZM200.649 62.2703H207.568V69.1892H200.649V62.2703ZM214.486 62.2703H221.405V69.1892H214.486V62.2703ZM221.405 62.2703H228.324V69.1892H221.405V62.2703ZM228.324 62.2703H235.243V69.1892H228.324V62.2703ZM0 69.1892H6.91892V76.1081H0V69.1892ZM6.91892 69.1892H13.8378V76.1081H6.91892V69.1892ZM20.7568 69.1892H27.6757V76.1081H20.7568V69.1892ZM34.5946 69.1892H41.5135V76.1081H34.5946V69.1892ZM41.5135 69.1892H48.4324V76.1081H41.5135V69.1892ZM62.2703 69.1892H69.1892V76.1081H62.2703V69.1892ZM69.1892 69.1892H76.1081V76.1081H69.1892V69.1892ZM83.027 69.1892H89.9459V76.1081H83.027V69.1892ZM103.784 69.1892H110.703V76.1081H103.784V69.1892ZM110.703 69.1892H117.622V76.1081H110.703V69.1892ZM124.541 69.1892H131.459V76.1081H124.541V69.1892ZM152.216 69.1892H159.135V76.1081H152.216V69.1892ZM159.135 69.1892H166.054V76.1081H159.135V69.1892ZM166.054 69.1892H172.973V76.1081H166.054V69.1892ZM172.973 69.1892H179.892V76.1081H172.973V69.1892ZM186.811 69.1892H193.73V76.1081H186.811V69.1892ZM193.73 69.1892H200.649V76.1081H193.73V69.1892ZM200.649 69.1892H207.568V76.1081H200.649V69.1892ZM207.568 69.1892H214.486V76.1081H207.568V69.1892ZM214.486 69.1892H221.405V76.1081H214.486V69.1892ZM221.405 69.1892H228.324V76.1081H221.405V69.1892ZM235.243 69.1892H242.162V76.1081H235.243V69.1892ZM242.162 69.1892H249.081V76.1081H242.162V69.1892ZM249.081 69.1892H256V76.1081H249.081V69.1892ZM6.91892 76.1081H13.8378V83.027H6.91892V76.1081ZM48.4324 76.1081H55.3514V83.027H48.4324V76.1081ZM103.784 76.1081H110.703V83.027H103.784V76.1081ZM117.622 76.1081H124.541V83.027H117.622V76.1081ZM152.216 76.1081H159.135V83.027H152.216V76.1081ZM166.054 76.1081H172.973V83.027H166.054V76.1081ZM186.811 76.1081H193.73V83.027H186.811V76.1081ZM200.649 76.1081H207.568V83.027H200.649V76.1081ZM214.486 76.1081H221.405V83.027H214.486V76.1081ZM235.243 76.1081H242.162V83.027H235.243V76.1081ZM242.162 76.1081H249.081V83.027H242.162V76.1081ZM6.91892 83.027H13.8378V89.9459H6.91892V83.027ZM13.8378 83.027H20.7568V89.9459H13.8378V83.027ZM34.5946 83.027H41.5135V89.9459H34.5946V83.027ZM41.5135 83.027H48.4324V89.9459H41.5135V83.027ZM48.4324 83.027H55.3514V89.9459H48.4324V83.027ZM62.2703 83.027H69.1892V89.9459H62.2703V83.027ZM69.1892 83.027H76.1081V89.9459H69.1892V83.027ZM96.8649 83.027H103.784V89.9459H96.8649V83.027ZM103.784 83.027H110.703V89.9459H103.784V83.027ZM124.541 83.027H131.459V89.9459H124.541V83.027ZM131.459 83.027H138.378V89.9459H131.459V83.027ZM138.378 83.027H145.297V89.9459H138.378V83.027ZM159.135 83.027H166.054V89.9459H159.135V83.027ZM193.73 83.027H200.649V89.9459H193.73V83.027ZM200.649 83.027H207.568V89.9459H200.649V83.027ZM207.568 83.027H214.486V89.9459H207.568V83.027ZM214.486 83.027H221.405V89.9459H214.486V83.027ZM228.324 83.027H235.243V89.9459H228.324V83.027ZM242.162 83.027H249.081V89.9459H242.162V83.027ZM27.6757 89.9459H34.5946V96.8649H27.6757V89.9459ZM69.1892 89.9459H76.1081V96.8649H69.1892V89.9459ZM83.027 89.9459H89.9459V96.8649H83.027V89.9459ZM89.9459 89.9459H96.8649V96.8649H89.9459V89.9459ZM103.784 89.9459H110.703V96.8649H103.784V89.9459ZM145.297 89.9459H152.216V96.8649H145.297V89.9459ZM159.135 89.9459H166.054V96.8649H159.135V89.9459ZM172.973 89.9459H179.892V96.8649H172.973V89.9459ZM179.892 89.9459H186.811V96.8649H179.892V89.9459ZM186.811 89.9459H193.73V96.8649H186.811V89.9459ZM193.73 89.9459H200.649V96.8649H193.73V89.9459ZM221.405 89.9459H228.324V96.8649H221.405V89.9459ZM228.324 89.9459H235.243V96.8649H228.324V89.9459ZM235.243 89.9459H242.162V96.8649H235.243V89.9459ZM242.162 89.9459H249.081V96.8649H242.162V89.9459ZM34.5946 96.8649H41.5135V103.784H34.5946V96.8649ZM41.5135 96.8649H48.4324V103.784H41.5135V96.8649ZM55.3514 96.8649H62.2703V103.784H55.3514V96.8649ZM62.2703 96.8649H69.1892V103.784H62.2703V96.8649ZM96.8649 96.8649H103.784V103.784H96.8649V96.8649ZM103.784 96.8649H110.703V103.784H103.784V96.8649ZM110.703 96.8649H117.622V103.784H110.703V96.8649ZM117.622 96.8649H124.541V103.784H117.622V96.8649ZM124.541 96.8649H131.459V103.784H124.541V96.8649ZM131.459 96.8649H138.378V103.784H131.459V96.8649ZM138.378 96.8649H145.297V103.784H138.378V96.8649ZM145.297 96.8649H152.216V103.784H145.297V96.8649ZM152.216 96.8649H159.135V103.784H152.216V96.8649ZM186.811 96.8649H193.73V103.784H186.811V96.8649ZM193.73 96.8649H200.649V103.784H193.73V96.8649ZM200.649 96.8649H207.568V103.784H200.649V96.8649ZM214.486 96.8649H221.405V103.784H214.486V96.8649ZM221.405 96.8649H228.324V103.784H221.405V96.8649ZM249.081 96.8649H256V103.784H249.081V96.8649ZM6.91892 103.784H13.8378V110.703H6.91892V103.784ZM13.8378 103.784H20.7568V110.703H13.8378V103.784ZM20.7568 103.784H27.6757V110.703H20.7568V103.784ZM27.6757 103.784H34.5946V110.703H27.6757V103.784ZM34.5946 103.784H41.5135V110.703H34.5946V103.784ZM55.3514 103.784H62.2703V110.703H55.3514V103.784ZM69.1892 103.784H76.1081V110.703H69.1892V103.784ZM83.027 103.784H89.9459V110.703H83.027V103.784ZM96.8649 103.784H103.784V110.703H96.8649V103.784ZM103.784 103.784H110.703V110.703H103.784V103.784ZM124.541 103.784H131.459V110.703H124.541V103.784ZM159.135 103.784H166.054V110.703H159.135V103.784ZM186.811 103.784H193.73V110.703H186.811V103.784ZM214.486 103.784H221.405V110.703H214.486V103.784ZM228.324 103.784H235.243V110.703H228.324V103.784ZM235.243 103.784H242.162V110.703H235.243V103.784ZM249.081 103.784H256V110.703H249.081V103.784ZM13.8378 110.703H20.7568V117.622H13.8378V110.703ZM20.7568 110.703H27.6757V117.622H20.7568V110.703ZM27.6757 110.703H34.5946V117.622H27.6757V110.703ZM41.5135 110.703H48.4324V117.622H41.5135V110.703ZM62.2703 110.703H69.1892V117.622H62.2703V110.703ZM69.1892 110.703H76.1081V117.622H69.1892V110.703ZM76.1081 110.703H83.027V117.622H76.1081V110.703ZM83.027 110.703H89.9459V117.622H83.027V110.703ZM89.9459 110.703H96.8649V117.622H89.9459V110.703ZM103.784 110.703H110.703V117.622H103.784V110.703ZM110.703 110.703H117.622V117.622H110.703V110.703ZM124.541 110.703H131.459V117.622H124.541V110.703ZM138.378 110.703H145.297V117.622H138.378V110.703ZM152.216 110.703H159.135V117.622H152.216V110.703ZM166.054 110.703H172.973V117.622H166.054V110.703ZM172.973 110.703H179.892V117.622H172.973V110.703ZM186.811 110.703H193.73V117.622H186.811V110.703ZM207.568 110.703H214.486V117.622H207.568V110.703ZM228.324 110.703H235.243V117.622H228.324V110.703ZM235.243 110.703H242.162V117.622H235.243V110.703ZM242.162 110.703H249.081V117.622H242.162V110.703ZM249.081 110.703H256V117.622H249.081V110.703ZM0 117.622H6.91892V124.541H0V117.622ZM20.7568 117.622H27.6757V124.541H20.7568V117.622ZM48.4324 117.622H55.3514V124.541H48.4324V117.622ZM55.3514 117.622H62.2703V124.541H55.3514V117.622ZM69.1892 117.622H76.1081V124.541H69.1892V117.622ZM76.1081 117.622H83.027V124.541H76.1081V117.622ZM103.784 117.622H110.703V124.541H103.784V117.622ZM110.703 117.622H117.622V124.541H110.703V117.622ZM117.622 117.622H124.541V124.541H117.622V117.622ZM131.459 117.622H138.378V124.541H131.459V117.622ZM138.378 117.622H145.297V124.541H138.378V117.622ZM145.297 117.622H152.216V124.541H145.297V117.622ZM152.216 117.622H159.135V124.541H152.216V117.622ZM172.973 117.622H179.892V124.541H172.973V117.622ZM186.811 117.622H193.73V124.541H186.811V117.622ZM214.486 117.622H221.405V124.541H214.486V117.622ZM228.324 117.622H235.243V124.541H228.324V117.622ZM235.243 117.622H242.162V124.541H235.243V117.622ZM6.91892 124.541H13.8378V131.459H6.91892V124.541ZM13.8378 124.541H20.7568V131.459H13.8378V124.541ZM20.7568 124.541H27.6757V131.459H20.7568V124.541ZM27.6757 124.541H34.5946V131.459H27.6757V124.541ZM41.5135 124.541H48.4324V131.459H41.5135V124.541ZM69.1892 124.541H76.1081V131.459H69.1892V124.541ZM83.027 124.541H89.9459V131.459H83.027V124.541ZM89.9459 124.541H96.8649V131.459H89.9459V124.541ZM103.784 124.541H110.703V131.459H103.784V124.541ZM124.541 124.541H131.459V131.459H124.541V124.541ZM131.459 124.541H138.378V131.459H131.459V124.541ZM145.297 124.541H152.216V131.459H145.297V124.541ZM159.135 124.541H166.054V131.459H159.135V124.541ZM166.054 124.541H172.973V131.459H166.054V124.541ZM186.811 124.541H193.73V131.459H186.811V124.541ZM193.73 124.541H200.649V131.459H193.73V124.541ZM207.568 124.541H214.486V131.459H207.568V124.541ZM214.486 124.541H221.405V131.459H214.486V124.541ZM235.243 124.541H242.162V131.459H235.243V124.541ZM249.081 124.541H256V131.459H249.081V124.541ZM0 131.459H6.91892V138.378H0V131.459ZM6.91892 131.459H13.8378V138.378H6.91892V131.459ZM27.6757 131.459H34.5946V138.378H27.6757V131.459ZM34.5946 131.459H41.5135V138.378H34.5946V131.459ZM55.3514 131.459H62.2703V138.378H55.3514V131.459ZM69.1892 131.459H76.1081V138.378H69.1892V131.459ZM76.1081 131.459H83.027V138.378H76.1081V131.459ZM89.9459 131.459H96.8649V138.378H89.9459V131.459ZM103.784 131.459H110.703V138.378H103.784V131.459ZM172.973 131.459H179.892V138.378H172.973V131.459ZM186.811 131.459H193.73V138.378H186.811V131.459ZM193.73 131.459H200.649V138.378H193.73V131.459ZM228.324 131.459H235.243V138.378H228.324V131.459ZM249.081 131.459H256V138.378H249.081V131.459ZM0 138.378H6.91892V145.297H0V138.378ZM13.8378 138.378H20.7568V145.297H13.8378V138.378ZM20.7568 138.378H27.6757V145.297H20.7568V138.378ZM27.6757 138.378H34.5946V145.297H27.6757V138.378ZM34.5946 138.378H41.5135V145.297H34.5946V138.378ZM41.5135 138.378H48.4324V145.297H41.5135V138.378ZM48.4324 138.378H55.3514V145.297H48.4324V138.378ZM55.3514 138.378H62.2703V145.297H55.3514V138.378ZM62.2703 138.378H69.1892V145.297H62.2703V138.378ZM69.1892 138.378H76.1081V145.297H69.1892V138.378ZM76.1081 138.378H83.027V145.297H76.1081V138.378ZM96.8649 138.378H103.784V145.297H96.8649V138.378ZM103.784 138.378H110.703V145.297H103.784V138.378ZM117.622 138.378H124.541V145.297H117.622V138.378ZM124.541 138.378H131.459V145.297H124.541V138.378ZM131.459 138.378H138.378V145.297H131.459V138.378ZM138.378 138.378H145.297V145.297H138.378V138.378ZM179.892 138.378H186.811V145.297H179.892V138.378ZM193.73 138.378H200.649V145.297H193.73V138.378ZM200.649 138.378H207.568V145.297H200.649V138.378ZM207.568 138.378H214.486V145.297H207.568V138.378ZM214.486 138.378H221.405V145.297H214.486V138.378ZM221.405 138.378H228.324V145.297H221.405V138.378ZM242.162 138.378H249.081V145.297H242.162V138.378ZM249.081 138.378H256V145.297H249.081V138.378ZM0 145.297H6.91892V152.216H0V145.297ZM13.8378 145.297H20.7568V152.216H13.8378V145.297ZM20.7568 145.297H27.6757V152.216H20.7568V145.297ZM27.6757 145.297H34.5946V152.216H27.6757V145.297ZM55.3514 145.297H62.2703V152.216H55.3514V145.297ZM83.027 145.297H89.9459V152.216H83.027V145.297ZM96.8649 145.297H103.784V152.216H96.8649V145.297ZM103.784 145.297H110.703V152.216H103.784V145.297ZM110.703 145.297H117.622V152.216H110.703V145.297ZM131.459 145.297H138.378V152.216H131.459V145.297ZM138.378 145.297H145.297V152.216H138.378V145.297ZM152.216 145.297H159.135V152.216H152.216V145.297ZM159.135 145.297H166.054V152.216H159.135V145.297ZM172.973 145.297H179.892V152.216H172.973V145.297ZM179.892 145.297H186.811V152.216H179.892V145.297ZM186.811 145.297H193.73V152.216H186.811V145.297ZM214.486 145.297H221.405V152.216H214.486V145.297ZM221.405 145.297H228.324V152.216H221.405V145.297ZM228.324 145.297H235.243V152.216H228.324V145.297ZM235.243 145.297H242.162V152.216H235.243V145.297ZM242.162 145.297H249.081V152.216H242.162V145.297ZM0 152.216H6.91892V159.135H0V152.216ZM6.91892 152.216H13.8378V159.135H6.91892V152.216ZM27.6757 152.216H34.5946V159.135H27.6757V152.216ZM41.5135 152.216H48.4324V159.135H41.5135V152.216ZM48.4324 152.216H55.3514V159.135H48.4324V152.216ZM55.3514 152.216H62.2703V159.135H55.3514V152.216ZM62.2703 152.216H69.1892V159.135H62.2703V152.216ZM76.1081 152.216H83.027V159.135H76.1081V152.216ZM103.784 152.216H110.703V159.135H103.784V152.216ZM117.622 152.216H124.541V159.135H117.622V152.216ZM124.541 152.216H131.459V159.135H124.541V152.216ZM145.297 152.216H152.216V159.135H145.297V152.216ZM152.216 152.216H159.135V159.135H152.216V152.216ZM159.135 152.216H166.054V159.135H159.135V152.216ZM186.811 152.216H193.73V159.135H186.811V152.216ZM193.73 152.216H200.649V159.135H193.73V152.216ZM200.649 152.216H207.568V159.135H200.649V152.216ZM214.486 152.216H221.405V159.135H214.486V152.216ZM221.405 152.216H228.324V159.135H221.405V152.216ZM228.324 152.216H235.243V159.135H228.324V152.216ZM235.243 152.216H242.162V159.135H235.243V152.216ZM249.081 152.216H256V159.135H249.081V152.216ZM27.6757 159.135H34.5946V166.054H27.6757V159.135ZM34.5946 159.135H41.5135V166.054H34.5946V159.135ZM62.2703 159.135H69.1892V166.054H62.2703V159.135ZM69.1892 159.135H76.1081V166.054H69.1892V159.135ZM76.1081 159.135H83.027V166.054H76.1081V159.135ZM83.027 159.135H89.9459V166.054H83.027V159.135ZM96.8649 159.135H103.784V166.054H96.8649V159.135ZM110.703 159.135H117.622V166.054H110.703V159.135ZM117.622 159.135H124.541V166.054H117.622V159.135ZM131.459 159.135H138.378V166.054H131.459V159.135ZM159.135 159.135H166.054V166.054H159.135V159.135ZM166.054 159.135H172.973V166.054H166.054V159.135ZM179.892 159.135H186.811V166.054H179.892V159.135ZM193.73 159.135H200.649V166.054H193.73V159.135ZM207.568 159.135H214.486V166.054H207.568V159.135ZM228.324 159.135H235.243V166.054H228.324V159.135ZM235.243 159.135H242.162V166.054H235.243V159.135ZM242.162 159.135H249.081V166.054H242.162V159.135ZM249.081 159.135H256V166.054H249.081V159.135ZM20.7568 166.054H27.6757V172.973H20.7568V166.054ZM41.5135 166.054H48.4324V172.973H41.5135V166.054ZM48.4324 166.054H55.3514V172.973H48.4324V166.054ZM55.3514 166.054H62.2703V172.973H55.3514V166.054ZM69.1892 166.054H76.1081V172.973H69.1892V166.054ZM76.1081 166.054H83.027V172.973H76.1081V166.054ZM83.027 166.054H89.9459V172.973H83.027V166.054ZM96.8649 166.054H103.784V172.973H96.8649V166.054ZM124.541 166.054H131.459V172.973H124.541V166.054ZM131.459 166.054H138.378V172.973H131.459V166.054ZM138.378 166.054H145.297V172.973H138.378V166.054ZM152.216 166.054H159.135V172.973H152.216V166.054ZM166.054 166.054H172.973V172.973H166.054V166.054ZM179.892 166.054H186.811V172.973H179.892V166.054ZM193.73 166.054H200.649V172.973H193.73V166.054ZM207.568 166.054H214.486V172.973H207.568V166.054ZM214.486 166.054H221.405V172.973H214.486V166.054ZM228.324 166.054H235.243V172.973H228.324V166.054ZM249.081 166.054H256V172.973H249.081V166.054ZM0 172.973H6.91892V179.892H0V172.973ZM27.6757 172.973H34.5946V179.892H27.6757V172.973ZM34.5946 172.973H41.5135V179.892H34.5946V172.973ZM62.2703 172.973H69.1892V179.892H62.2703V172.973ZM69.1892 172.973H76.1081V179.892H69.1892V172.973ZM89.9459 172.973H96.8649V179.892H89.9459V172.973ZM103.784 172.973H110.703V179.892H103.784V172.973ZM117.622 172.973H124.541V179.892H117.622V172.973ZM124.541 172.973H131.459V179.892H124.541V172.973ZM145.297 172.973H152.216V179.892H145.297V172.973ZM159.135 172.973H166.054V179.892H159.135V172.973ZM179.892 172.973H186.811V179.892H179.892V172.973ZM186.811 172.973H193.73V179.892H186.811V172.973ZM193.73 172.973H200.649V179.892H193.73V172.973ZM221.405 172.973H228.324V179.892H221.405V172.973ZM228.324 172.973H235.243V179.892H228.324V172.973ZM242.162 172.973H249.081V179.892H242.162V172.973ZM0 179.892H6.91892V186.811H0V179.892ZM6.91892 179.892H13.8378V186.811H6.91892V179.892ZM13.8378 179.892H20.7568V186.811H13.8378V179.892ZM27.6757 179.892H34.5946V186.811H27.6757V179.892ZM41.5135 179.892H48.4324V186.811H41.5135V179.892ZM48.4324 179.892H55.3514V186.811H48.4324V179.892ZM76.1081 179.892H83.027V186.811H76.1081V179.892ZM83.027 179.892H89.9459V186.811H83.027V179.892ZM103.784 179.892H110.703V186.811H103.784V179.892ZM131.459 179.892H138.378V186.811H131.459V179.892ZM138.378 179.892H145.297V186.811H138.378V179.892ZM145.297 179.892H152.216V186.811H145.297V179.892ZM166.054 179.892H172.973V186.811H166.054V179.892ZM179.892 179.892H186.811V186.811H179.892V179.892ZM186.811 179.892H193.73V186.811H186.811V179.892ZM193.73 179.892H200.649V186.811H193.73V179.892ZM200.649 179.892H207.568V186.811H200.649V179.892ZM207.568 179.892H214.486V186.811H207.568V179.892ZM214.486 179.892H221.405V186.811H214.486V179.892ZM235.243 179.892H242.162V186.811H235.243V179.892ZM242.162 179.892H249.081V186.811H242.162V179.892ZM249.081 179.892H256V186.811H249.081V179.892ZM0 186.811H6.91892V193.73H0V186.811ZM34.5946 186.811H41.5135V193.73H34.5946V186.811ZM62.2703 186.811H69.1892V193.73H62.2703V186.811ZM76.1081 186.811H83.027V193.73H76.1081V186.811ZM96.8649 186.811H103.784V193.73H96.8649V186.811ZM138.378 186.811H145.297V193.73H138.378V186.811ZM159.135 186.811H166.054V193.73H159.135V186.811ZM166.054 186.811H172.973V193.73H166.054V186.811ZM186.811 186.811H193.73V193.73H186.811V186.811ZM207.568 186.811H214.486V193.73H207.568V186.811ZM214.486 186.811H221.405V193.73H214.486V186.811ZM228.324 186.811H235.243V193.73H228.324V186.811ZM235.243 186.811H242.162V193.73H235.243V186.811ZM249.081 186.811H256V193.73H249.081V186.811ZM0 193.73H6.91892V200.649H0V193.73ZM20.7568 193.73H27.6757V200.649H20.7568V193.73ZM41.5135 193.73H48.4324V200.649H41.5135V193.73ZM48.4324 193.73H55.3514V200.649H48.4324V193.73ZM55.3514 193.73H62.2703V200.649H55.3514V193.73ZM62.2703 193.73H69.1892V200.649H62.2703V193.73ZM83.027 193.73H89.9459V200.649H83.027V193.73ZM89.9459 193.73H96.8649V200.649H89.9459V193.73ZM96.8649 193.73H103.784V200.649H96.8649V193.73ZM124.541 193.73H131.459V200.649H124.541V193.73ZM131.459 193.73H138.378V200.649H131.459V193.73ZM152.216 193.73H159.135V200.649H152.216V193.73ZM159.135 193.73H166.054V200.649H159.135V193.73ZM166.054 193.73H172.973V200.649H166.054V193.73ZM172.973 193.73H179.892V200.649H172.973V193.73ZM193.73 193.73H200.649V200.649H193.73V193.73ZM200.649 193.73H207.568V200.649H200.649V193.73ZM207.568 193.73H214.486V200.649H207.568V193.73ZM214.486 193.73H221.405V200.649H214.486V193.73ZM221.405 193.73H228.324V200.649H221.405V193.73ZM228.324 193.73H235.243V200.649H228.324V193.73ZM235.243 193.73H242.162V200.649H235.243V193.73ZM242.162 193.73H249.081V200.649H242.162V193.73ZM55.3514 200.649H62.2703V207.568H55.3514V200.649ZM69.1892 200.649H76.1081V207.568H69.1892V200.649ZM76.1081 200.649H83.027V207.568H76.1081V200.649ZM83.027 200.649H89.9459V207.568H83.027V200.649ZM96.8649 200.649H103.784V207.568H96.8649V200.649ZM103.784 200.649H110.703V207.568H103.784V200.649ZM110.703 200.649H117.622V207.568H110.703V200.649ZM117.622 200.649H124.541V207.568H117.622V200.649ZM131.459 200.649H138.378V207.568H131.459V200.649ZM145.297 200.649H152.216V207.568H145.297V200.649ZM152.216 200.649H159.135V207.568H152.216V200.649ZM193.73 200.649H200.649V207.568H193.73V200.649ZM221.405 200.649H228.324V207.568H221.405V200.649ZM228.324 200.649H235.243V207.568H228.324V200.649ZM242.162 200.649H249.081V207.568H242.162V200.649ZM0 207.568H6.91892V214.486H0V207.568ZM6.91892 207.568H13.8378V214.486H6.91892V207.568ZM13.8378 207.568H20.7568V214.486H13.8378V207.568ZM20.7568 207.568H27.6757V214.486H20.7568V207.568ZM27.6757 207.568H34.5946V214.486H27.6757V207.568ZM34.5946 207.568H41.5135V214.486H34.5946V207.568ZM41.5135 207.568H48.4324V214.486H41.5135V207.568ZM76.1081 207.568H83.027V214.486H76.1081V207.568ZM89.9459 207.568H96.8649V214.486H89.9459V207.568ZM96.8649 207.568H103.784V214.486H96.8649V207.568ZM103.784 207.568H110.703V214.486H103.784V207.568ZM110.703 207.568H117.622V214.486H110.703V207.568ZM117.622 207.568H124.541V214.486H117.622V207.568ZM131.459 207.568H138.378V214.486H131.459V207.568ZM159.135 207.568H166.054V214.486H159.135V207.568ZM172.973 207.568H179.892V214.486H172.973V207.568ZM193.73 207.568H200.649V214.486H193.73V207.568ZM207.568 207.568H214.486V214.486H207.568V207.568ZM221.405 207.568H228.324V214.486H221.405V207.568ZM228.324 207.568H235.243V214.486H228.324V207.568ZM249.081 207.568H256V214.486H249.081V207.568ZM0 214.486H6.91892V221.405H0V214.486ZM41.5135 214.486H48.4324V221.405H41.5135V214.486ZM76.1081 214.486H83.027V221.405H76.1081V214.486ZM89.9459 214.486H96.8649V221.405H89.9459V214.486ZM110.703 214.486H117.622V221.405H110.703V214.486ZM124.541 214.486H131.459V221.405H124.541V214.486ZM166.054 214.486H172.973V221.405H166.054V214.486ZM172.973 214.486H179.892V221.405H172.973V214.486ZM186.811 214.486H193.73V221.405H186.811V214.486ZM193.73 214.486H200.649V221.405H193.73V214.486ZM221.405 214.486H228.324V221.405H221.405V214.486ZM228.324 214.486H235.243V221.405H228.324V214.486ZM242.162 214.486H249.081V221.405H242.162V214.486ZM249.081 214.486H256V221.405H249.081V214.486ZM0 221.405H6.91892V228.324H0V221.405ZM13.8378 221.405H20.7568V228.324H13.8378V221.405ZM20.7568 221.405H27.6757V228.324H20.7568V221.405ZM27.6757 221.405H34.5946V228.324H27.6757V221.405ZM41.5135 221.405H48.4324V228.324H41.5135V221.405ZM55.3514 221.405H62.2703V228.324H55.3514V221.405ZM96.8649 221.405H103.784V228.324H96.8649V221.405ZM103.784 221.405H110.703V228.324H103.784V221.405ZM110.703 221.405H117.622V228.324H110.703V221.405ZM117.622 221.405H124.541V228.324H117.622V221.405ZM124.541 221.405H131.459V228.324H124.541V221.405ZM159.135 221.405H166.054V228.324H159.135V221.405ZM166.054 221.405H172.973V228.324H166.054V221.405ZM179.892 221.405H186.811V228.324H179.892V221.405ZM186.811 221.405H193.73V228.324H186.811V221.405ZM193.73 221.405H200.649V228.324H193.73V221.405ZM200.649 221.405H207.568V228.324H200.649V221.405ZM207.568 221.405H214.486V228.324H207.568V221.405ZM214.486 221.405H221.405V228.324H214.486V221.405ZM221.405 221.405H228.324V228.324H221.405V221.405ZM249.081 221.405H256V228.324H249.081V221.405ZM0 228.324H6.91892V235.243H0V228.324ZM13.8378 228.324H20.7568V235.243H13.8378V228.324ZM20.7568 228.324H27.6757V235.243H20.7568V228.324ZM27.6757 228.324H34.5946V235.243H27.6757V228.324ZM41.5135 228.324H48.4324V235.243H41.5135V228.324ZM55.3514 228.324H62.2703V235.243H55.3514V228.324ZM69.1892 228.324H76.1081V235.243H69.1892V228.324ZM76.1081 228.324H83.027V235.243H76.1081V228.324ZM83.027 228.324H89.9459V235.243H83.027V228.324ZM96.8649 228.324H103.784V235.243H96.8649V228.324ZM103.784 228.324H110.703V235.243H103.784V228.324ZM131.459 228.324H138.378V235.243H131.459V228.324ZM138.378 228.324H145.297V235.243H138.378V228.324ZM152.216 228.324H159.135V235.243H152.216V228.324ZM159.135 228.324H166.054V235.243H159.135V228.324ZM172.973 228.324H179.892V235.243H172.973V228.324ZM186.811 228.324H193.73V235.243H186.811V228.324ZM193.73 228.324H200.649V235.243H193.73V228.324ZM200.649 228.324H207.568V235.243H200.649V228.324ZM207.568 228.324H214.486V235.243H207.568V228.324ZM228.324 228.324H235.243V235.243H228.324V228.324ZM235.243 228.324H242.162V235.243H235.243V228.324ZM0 235.243H6.91892V242.162H0V235.243ZM13.8378 235.243H20.7568V242.162H13.8378V235.243ZM20.7568 235.243H27.6757V242.162H20.7568V235.243ZM27.6757 235.243H34.5946V242.162H27.6757V235.243ZM41.5135 235.243H48.4324V242.162H41.5135V235.243ZM62.2703 235.243H69.1892V242.162H62.2703V235.243ZM76.1081 235.243H83.027V242.162H76.1081V235.243ZM89.9459 235.243H96.8649V242.162H89.9459V235.243ZM103.784 235.243H110.703V242.162H103.784V235.243ZM117.622 235.243H124.541V242.162H117.622V235.243ZM145.297 235.243H152.216V242.162H145.297V235.243ZM152.216 235.243H159.135V242.162H152.216V235.243ZM159.135 235.243H166.054V242.162H159.135V235.243ZM166.054 235.243H172.973V242.162H166.054V235.243ZM179.892 235.243H186.811V242.162H179.892V235.243ZM186.811 235.243H193.73V242.162H186.811V235.243ZM200.649 235.243H207.568V242.162H200.649V235.243ZM214.486 235.243H221.405V242.162H214.486V235.243ZM221.405 235.243H228.324V242.162H221.405V235.243ZM228.324 235.243H235.243V242.162H228.324V235.243ZM249.081 235.243H256V242.162H249.081V235.243ZM0 242.162H6.91892V249.081H0V242.162ZM41.5135 242.162H48.4324V249.081H41.5135V242.162ZM55.3514 242.162H62.2703V249.081H55.3514V242.162ZM62.2703 242.162H69.1892V249.081H62.2703V242.162ZM76.1081 242.162H83.027V249.081H76.1081V242.162ZM110.703 242.162H117.622V249.081H110.703V242.162ZM117.622 242.162H124.541V249.081H117.622V242.162ZM124.541 242.162H131.459V249.081H124.541V242.162ZM131.459 242.162H138.378V249.081H131.459V242.162ZM138.378 242.162H145.297V249.081H138.378V242.162ZM159.135 242.162H166.054V249.081H159.135V242.162ZM166.054 242.162H172.973V249.081H166.054V242.162ZM200.649 242.162H207.568V249.081H200.649V242.162ZM228.324 242.162H235.243V249.081H228.324V242.162ZM235.243 242.162H242.162V249.081H235.243V242.162ZM242.162 242.162H249.081V249.081H242.162V242.162ZM249.081 242.162H256V249.081H249.081V242.162ZM0 249.081H6.91892V256H0V249.081ZM6.91892 249.081H13.8378V256H6.91892V249.081ZM13.8378 249.081H20.7568V256H13.8378V249.081ZM20.7568 249.081H27.6757V256H20.7568V249.081ZM27.6757 249.081H34.5946V256H27.6757V249.081ZM34.5946 249.081H41.5135V256H34.5946V249.081ZM41.5135 249.081H48.4324V256H41.5135V249.081ZM55.3514 249.081H62.2703V256H55.3514V249.081ZM62.2703 249.081H69.1892V256H62.2703V249.081ZM76.1081 249.081H83.027V256H76.1081V249.081ZM96.8649 249.081H103.784V256H96.8649V249.081ZM103.784 249.081H110.703V256H103.784V249.081ZM124.541 249.081H131.459V256H124.541V249.081ZM131.459 249.081H138.378V256H131.459V249.081ZM166.054 249.081H172.973V256H166.054V249.081ZM193.73 249.081H200.649V256H193.73V249.081ZM200.649 249.081H207.568V256H200.649V249.081ZM207.568 249.081H214.486V256H207.568V249.081ZM214.486 249.081H221.405V256H214.486V249.081ZM221.405 249.081H228.324V256H221.405V249.081ZM249.081 249.081H256V256H249.081V249.081Z" fill="black"/>
</g>
<defs>
<clipPath id="clip0_99_1184">
<rect width="256" height="256" fill="white"/>
</clipPath>
</defs>
</svg>
