<svg width="31" height="28" viewBox="0 0 31 28" fill="none" xmlns="http://www.w3.org/2000/svg">
<path fill-rule="evenodd" clip-rule="evenodd" d="M18.2918 6.23594C17.9393 6.40257 17.6271 6.78092 17.6271 7.36789V9.28565C17.6271 9.90529 17.1119 10.4076 16.4764 10.4076H12.9321C8.19984 10.4076 4.04059 14.4719 3.83756 19.7488C6.11379 17.5873 9.08205 16.3461 12.2992 16.3461H16.4764C17.1119 16.3461 17.6271 16.8484 17.6271 17.4681V20.4086C17.6271 20.9956 17.9393 21.3739 18.2918 21.5406C18.6441 21.7071 19.0396 21.6742 19.358 21.382C19.3579 21.3821 19.3581 21.3819 19.358 21.382L26.424 14.8825C27.0197 14.2631 26.9365 13.3481 26.463 12.9296L26.4461 12.9145L19.3583 6.39477C19.3582 6.39462 19.3585 6.39493 19.3583 6.39477C19.04 6.1028 18.644 6.0694 18.2918 6.23594ZM17.2876 4.21686C18.4225 3.68031 19.8623 3.77511 20.9362 4.7612L28.0179 11.2753C29.5559 12.6444 29.4729 15.0341 28.0637 16.4574C28.0513 16.47 28.0385 16.4823 28.0255 16.4943L20.9369 23.0146C19.863 24.0007 18.4225 24.0962 17.2876 23.5597C16.1527 23.0231 15.3257 21.8672 15.3257 20.4086V18.59H12.2992C8.80994 18.59 5.62322 20.4029 3.66241 23.5484C3.3944 23.9783 2.86562 24.1817 2.36872 24.046C1.87183 23.9103 1.52832 23.4687 1.52832 22.9656V20.1529C1.52832 13.607 6.64541 8.16368 12.9321 8.16368H15.3257V7.36789C15.3257 5.90926 16.1527 4.7534 17.2876 4.21686Z" fill="#040406"/>
</svg>
