<svg width="20" height="18" viewBox="0 0 20 18" fill="none" xmlns="http://www.w3.org/2000/svg">
<path fill-rule="evenodd" clip-rule="evenodd" d="M12.0434 3.68391C11.8175 3.79073 11.6174 4.03327 11.6174 4.40957V5.63898C11.6174 6.03622 11.2871 6.35825 10.8797 6.35825H8.60754C5.5738 6.35825 2.90742 8.96377 2.77726 12.3466C4.23649 10.9609 6.13936 10.1652 8.2018 10.1652H10.8797C11.2871 10.1652 11.6174 10.4873 11.6174 10.8845V12.7696C11.6174 13.1459 11.8175 13.3884 12.0434 13.4953C12.2693 13.602 12.5229 13.5809 12.727 13.3936C12.7269 13.3937 12.7271 13.3936 12.727 13.3936L17.2568 9.22694C17.6387 8.82992 17.5853 8.2433 17.2818 7.97504L17.271 7.96531L12.7272 3.78573C12.7271 3.78563 12.7273 3.78583 12.7272 3.78573C12.5231 3.59855 12.2693 3.57714 12.0434 3.68391ZM11.3997 2.38953C12.1272 2.04556 13.0502 2.10633 13.7387 2.73849L18.2786 6.9145C19.2646 7.79218 19.2114 9.32415 18.308 10.2366C18.3 10.2446 18.2918 10.2525 18.2835 10.2602L13.7392 14.4402C13.0507 15.0724 12.1272 15.1336 11.3997 14.7896C10.6722 14.4457 10.142 13.7047 10.142 12.7696V11.6038H8.2018C5.96491 11.6038 3.922 12.7659 2.66498 14.7824C2.49317 15.058 2.15418 15.1884 1.83563 15.1014C1.51709 15.0145 1.29688 14.7314 1.29688 14.4088V12.6057C1.29688 8.40928 4.5773 4.91972 8.60754 4.91972H10.142V4.40957C10.142 3.47448 10.6722 2.73349 11.3997 2.38953Z" fill="#040406"/>
</svg>
