<svg width="30" height="30" viewBox="0 0 30 30" fill="none" xmlns="http://www.w3.org/2000/svg">
<g id="Iconsax/Bold/usersquare">
<path id="Vector" d="M20.2375 2.5H9.7625C5.2125 2.5 2.5 5.2125 2.5 9.7625V20.2375C2.5 23.75 4.1125 26.1625 6.95 27.075C7.775 27.3625 8.725 27.5 9.7625 27.5H20.2375C21.275 27.5 22.225 27.3625 23.05 27.075C25.8875 26.1625 27.5 23.75 27.5 20.2375V9.7625C27.5 5.2125 24.7875 2.5 20.2375 2.5ZM25.625 20.2375C25.625 22.9125 24.575 24.6 22.4625 25.3C21.25 22.9125 18.375 21.2125 15 21.2125C11.625 21.2125 8.7625 22.9 7.5375 25.3H7.525C5.4375 24.625 4.375 22.925 4.375 20.25V9.7625C4.375 6.2375 6.2375 4.375 9.7625 4.375H20.2375C23.7625 4.375 25.625 6.2375 25.625 9.7625V20.2375Z" fill="url(#paint0_linear_129_476)"/>
<path id="Vector_2" d="M15.0026 10C12.5276 10 10.5276 12 10.5276 14.475C10.5276 16.95 12.5276 18.9625 15.0026 18.9625C17.4776 18.9625 19.4776 16.95 19.4776 14.475C19.4776 12 17.4776 10 15.0026 10Z" fill="url(#paint1_linear_129_476)"/>
</g>
<defs>
<linearGradient id="paint0_linear_129_476" x1="2.5" y1="21.25" x2="28.4554" y2="19.5872" gradientUnits="userSpaceOnUse">
<stop stop-color="#18BAD4"/>
<stop offset="0.515625" stop-color="#31B680"/>
<stop offset="1" stop-color="#80C242"/>
</linearGradient>
<linearGradient id="paint1_linear_129_476" x1="10.5276" y1="16.7219" x2="19.8197" y2="16.1274" gradientUnits="userSpaceOnUse">
<stop stop-color="#18BAD4"/>
<stop offset="0.515625" stop-color="#31B680"/>
<stop offset="1" stop-color="#80C242"/>
</linearGradient>
</defs>
</svg>
