<svg width="28" height="28" viewBox="0 0 28 28" fill="none" xmlns="http://www.w3.org/2000/svg">
<rect y="28" width="28" height="28" rx="5" transform="rotate(-90 0 28)" fill="white"/>
<path d="M17.27 15.5C17.33 15.005 17.375 14.51 17.375 14C17.375 13.49 17.33 12.995 17.27 12.5H19.805C19.925 12.98 20 13.4825 20 14C20 14.5175 19.925 15.02 19.805 15.5M15.9425 19.67C16.3925 18.8375 16.7375 17.9375 16.9775 17H19.19C18.4634 18.2512 17.3106 19.199 15.9425 19.67ZM15.755 15.5H12.245C12.17 15.005 12.125 14.51 12.125 14C12.125 13.49 12.17 12.9875 12.245 12.5H15.755C15.8225 12.9875 15.875 13.49 15.875 14C15.875 14.51 15.8225 15.005 15.755 15.5ZM14 19.97C13.3775 19.07 12.875 18.0725 12.5675 17H15.4325C15.125 18.0725 14.6225 19.07 14 19.97ZM11 11H8.81C9.52914 9.74541 10.6811 8.79611 12.05 8.33C11.6 9.1625 11.2625 10.0625 11 11ZM8.81 17H11C11.2625 17.9375 11.6 18.8375 12.05 19.67C10.684 19.1987 9.53363 18.2508 8.81 17ZM8.195 15.5C8.075 15.02 8 14.5175 8 14C8 13.4825 8.075 12.98 8.195 12.5H10.73C10.67 12.995 10.625 13.49 10.625 14C10.625 14.51 10.67 15.005 10.73 15.5M14 8.0225C14.6225 8.9225 15.125 9.9275 15.4325 11H12.5675C12.875 9.9275 13.3775 8.9225 14 8.0225ZM19.19 11H16.9775C16.7428 10.0711 16.3952 9.17442 15.9425 8.33C17.3225 8.8025 18.47 9.755 19.19 11ZM14 6.5C9.8525 6.5 6.5 9.875 6.5 14C6.5 15.9891 7.29018 17.8968 8.6967 19.3033C9.39314 19.9997 10.2199 20.5522 11.1299 20.9291C12.0398 21.306 13.0151 21.5 14 21.5C15.9891 21.5 17.8968 20.7098 19.3033 19.3033C20.7098 17.8968 21.5 15.9891 21.5 14C21.5 13.0151 21.306 12.0398 20.9291 11.1299C20.5522 10.2199 19.9997 9.39314 19.3033 8.6967C18.6069 8.00026 17.7801 7.44781 16.8701 7.0709C15.9602 6.69399 14.9849 6.5 14 6.5Z" fill="url(#paint0_linear_591_1188)"/>
<defs>
<linearGradient id="paint0_linear_591_1188" x1="6.875" y1="14" x2="21.2904" y2="14.0612" gradientUnits="userSpaceOnUse">
<stop stop-color="#18BAD4"/>
<stop offset="0.54" stop-color="#31B680"/>
<stop offset="1" stop-color="#80C242"/>
</linearGradient>
</defs>
</svg>
