<svg width="16" height="16" viewBox="0 0 16 16" fill="none" xmlns="http://www.w3.org/2000/svg">
<path d="M7.8824 5.43301C7.91455 5.46516 7.94671 5.46516 7.97887 5.43301C8.20396 5.27222 9.04004 4.53262 9.04004 3.76085C9.04004 2.98909 8.23612 1.73497 7.97887 1.38124C7.94671 1.31693 7.8824 1.31693 7.85024 1.38124C7.59298 1.73497 6.78906 3.02124 6.78906 3.76085C6.82122 4.53262 7.68945 5.27222 7.8824 5.43301Z" fill="#E84127"/>
<path d="M8.14062 7.97322C8.14062 8.03753 8.17278 8.06969 8.2371 8.06969C8.59082 8.00538 9.8771 7.68381 10.4238 7.07283C10.9704 6.46185 11.1634 5.11126 11.2277 4.72538C11.2277 4.66106 11.1955 4.62891 11.1312 4.62891C10.7132 4.72538 9.29827 5.04695 8.75161 5.65793C8.20494 6.26891 8.14062 7.61949 8.14062 7.97322Z" fill="#E84127"/>
<path d="M7.65856 8.06969C7.72287 8.06969 7.75503 8.03753 7.75503 7.97322C7.75503 7.58734 7.69071 6.26891 7.14405 5.65793C6.59738 5.04695 5.18248 4.72538 4.76444 4.62891C4.70013 4.62891 4.66797 4.66106 4.66797 4.72538C4.73228 5.11126 4.92522 6.46185 5.47189 7.07283C6.01856 7.68381 7.27267 7.97322 7.65856 8.06969Z" fill="#E84127"/>
<path d="M11.1312 7.84449C10.7132 7.94096 9.29827 8.26253 8.75161 8.87351C8.20494 9.48449 8.14062 10.8351 8.14062 11.1888C8.14062 11.2531 8.17278 11.2853 8.2371 11.2853C8.59082 11.221 9.8771 10.8994 10.4238 10.2884C10.9704 9.67743 11.1634 8.32684 11.2277 7.94096C11.2277 7.87665 11.1634 7.81233 11.1312 7.84449Z" fill="#E84127"/>
<path d="M7.65856 11.2855C7.72287 11.2855 7.75503 11.2534 7.75503 11.189C7.75503 10.8032 7.69071 9.48473 7.14405 8.87375C6.59738 8.26277 5.18248 7.9412 4.76444 7.84473C4.70013 7.84473 4.66797 7.87688 4.66797 7.9412C4.73228 8.32708 4.92522 9.67767 5.47189 10.2886C6.01856 10.8996 7.27267 11.189 7.65856 11.2855Z" fill="#E84127"/>
<path d="M11.1312 11.0603C10.7132 11.1568 9.29827 11.4784 8.75161 12.0893C8.20494 12.7003 8.14062 14.0509 8.14062 14.4046C8.14062 14.4689 8.17278 14.5011 8.2371 14.5011C8.59082 14.4368 9.8771 14.1152 10.4238 13.5042C10.9704 12.8933 11.1634 11.5427 11.2277 11.1568C11.2277 11.0925 11.1634 11.0282 11.1312 11.0603Z" fill="#E84127"/>
<path d="M7.65856 14.4691C7.72287 14.4691 7.75503 14.4369 7.75503 14.3726C7.75503 13.9868 7.69071 12.6683 7.14405 12.0573C6.59738 11.4464 5.18248 11.1248 4.76444 11.0283C4.70013 11.0283 4.66797 11.0605 4.66797 11.1248C4.73228 11.5107 4.92522 12.8613 5.47189 13.4722C6.01856 14.1154 7.27267 14.4048 7.65856 14.4691Z" fill="#E84127"/>
</svg>
