<svg width="140" height="134" viewBox="0 0 140 134" fill="none" xmlns="http://www.w3.org/2000/svg">
<g clip-path="url(#clip0_869_49533)">
<path d="M140 66.7751C139.562 66.7751 139.414 67.1722 139.187 67.4257C134.378 72.7481 129.579 78.0701 124.79 83.3917C124.337 83.8918 124.102 84.358 124.184 85.0871C124.997 92.2942 125.741 99.5082 126.541 106.717C126.631 107.53 126.406 107.801 125.601 107.972C118.595 109.42 111.605 110.944 104.594 112.387C103.697 112.573 103.18 112.97 102.738 113.742C99.2141 119.921 95.639 126.075 92.1154 132.249C91.702 132.977 91.393 133.198 90.5501 132.812C83.6668 129.681 76.7565 126.603 69.8556 123.511L69.8271 84.2373L70.0738 83.7359C70.1159 83.7189 70.1552 83.6956 70.1904 83.6668C79.7059 73.0246 89.2238 62.3851 98.7438 51.7483C99.2073 51.2306 99.1098 50.9595 98.6381 50.5503C97.0118 49.1462 95.4072 47.73 93.8446 46.2623C93.2565 45.7093 92.9597 45.8123 92.4596 46.3829C89.5106 49.7412 86.5237 53.0669 83.5395 56.394C79.0021 61.4536 74.4607 66.5059 69.9153 71.551C69.8949 70.9588 69.8583 70.3679 69.8583 69.7756C69.8583 49.6793 69.8583 29.5825 69.8583 9.48523C76.7592 6.39258 83.6682 3.31482 90.5528 0.184222C91.3944 -0.197955 91.7047 0.0175463 92.1194 0.745308C95.643 6.92519 99.2155 13.0779 102.74 19.2524C103.182 20.0262 103.699 20.4274 104.597 20.6076C111.427 22.0035 118.24 23.4848 125.071 24.8848C126.244 25.1246 126.654 25.4662 126.491 26.8228C125.633 33.9323 124.93 41.0595 124.163 48.1799C124.132 48.3803 124.148 48.5852 124.209 48.7784C124.27 48.9717 124.375 49.1481 124.516 49.2939C129.568 54.8811 134.614 60.4728 139.656 66.0691C139.733 66.1544 139.887 66.1707 140.005 66.2195L140 66.7751Z" fill="#0ED578"/>
<path d="M69.8529 9.48868C69.8529 29.585 69.8529 49.6818 69.8529 69.7791C69.8529 70.3713 69.8896 70.9622 69.9099 71.5544C69.8774 71.6493 69.8462 71.7455 69.815 71.8417C68.0722 73.7716 66.2914 75.6689 64.6055 77.6476C63.9197 78.4607 63.5443 78.4892 62.7718 77.7058C57.2872 72.1494 51.7416 66.6498 46.2379 61.1096C45.6552 60.5242 45.2893 60.3249 44.6307 61.0473C43.2402 62.557 41.7846 64.0098 40.2749 65.4057C39.5973 66.0278 39.7762 66.3544 40.3291 66.9046C47.9971 74.5427 55.6487 82.1971 63.2841 89.8677C63.9035 90.4898 64.2219 90.441 64.7749 89.8149C66.4256 87.9284 68.1372 86.0948 69.8258 84.2408L69.8543 123.514C62.9114 126.631 55.9604 129.721 49.0352 132.873C48.1624 133.271 47.951 132.85 47.6013 132.247C44.155 126.234 40.6557 120.251 37.2609 114.208C36.5832 113.012 35.7633 112.491 34.4487 112.225C27.6604 110.85 20.8964 109.351 14.1121 107.956C13.284 107.785 13.0834 107.514 13.1715 106.713C13.9684 99.5048 14.7206 92.2909 15.527 85.0837C15.6083 84.3573 15.3779 83.8871 14.9239 83.3857C10.1169 78.0704 5.34234 72.724 0.508214 67.4318C-0.169405 66.6932 -0.169405 66.3124 0.508214 65.5711C5.31117 60.3127 10.0491 55.0002 14.8385 49.7243C15.4145 49.09 15.5839 48.5046 15.4876 47.6508C14.6826 40.4883 13.9481 33.3178 13.1607 26.154C13.0713 25.3409 13.4223 25.1986 14.1094 25.0549C20.9357 23.6387 27.7485 22.152 34.5802 20.7561C35.7891 20.5081 36.5684 20.0189 37.1904 18.913C40.5663 12.9134 44.0465 6.97065 47.4373 0.979145C47.9605 0.0548739 48.3603 -0.197217 49.4119 0.283892C56.2071 3.39551 63.0361 6.42856 69.8529 9.48868Z" fill="#04EA84"/>
<path d="M69.8179 71.8413C69.849 71.745 69.8802 71.6488 69.9127 71.554C74.4537 66.5016 78.9951 61.4493 83.5369 56.397C86.5184 53.0699 89.5081 49.7442 92.4571 46.3859C92.9572 45.8153 93.2539 45.7082 93.8421 46.2652C95.4047 47.733 97.0161 49.1492 98.6356 50.5532C99.1072 50.9598 99.2048 51.2308 98.7413 51.7512C89.214 62.3817 79.6962 73.0235 70.1878 83.6766C70.1527 83.7053 70.1134 83.7286 70.0713 83.7457C69.6932 83.3134 69.8639 82.797 69.8612 82.3105C69.8341 78.8167 69.8287 75.3283 69.8179 71.8413Z" fill="#F4EFE9"/>
<path d="M69.8178 71.8406C69.8286 75.3276 69.834 78.816 69.8611 82.303C69.8611 82.7841 69.6931 83.3059 70.0712 83.7382C69.9885 83.9049 69.9072 84.0729 69.8246 84.2396C68.1359 86.0936 66.4243 87.9272 64.7736 89.8137C64.2247 90.4399 63.9062 90.4913 63.2828 89.8666C55.6519 82.1923 48.0003 74.538 40.3278 66.9035C39.7749 66.3532 39.6015 66.0266 40.2736 65.4046C41.7793 64.0087 43.2389 62.5586 44.6294 61.0461C45.2948 60.3238 45.6539 60.523 46.2367 61.1085C51.7403 66.6487 57.2859 72.1455 62.7706 77.7047C63.5431 78.488 63.9184 78.4541 64.6042 77.6464C66.2928 75.6678 68.075 73.7704 69.8178 71.8406Z" fill="#FBFAF3"/>
</g>
<defs>
<clipPath id="clip0_869_49533">
<rect width="140" height="133.027" fill="white"/>
</clipPath>
</defs>
</svg>
