<svg width="19" height="18" viewBox="0 0 19 18" fill="none" xmlns="http://www.w3.org/2000/svg">
<g clip-path="url(#clip0_867_18593)">
<path d="M9.67676 16.5C13.8189 16.5 17.1768 13.1421 17.1768 9C17.1768 4.85786 13.8189 1.5 9.67676 1.5C5.53462 1.5 2.17676 4.85786 2.17676 9C2.17676 13.1421 5.53462 16.5 9.67676 16.5Z" stroke="#A0A0A0" stroke-width="2" stroke-linecap="round" stroke-linejoin="round"/>
<path d="M7.49414 6.74945C7.67047 6.2482 8.0185 5.82553 8.47661 5.5563C8.93471 5.28707 9.47331 5.18865 9.99702 5.27848C10.5207 5.36831 10.9958 5.64059 11.3379 6.0471C11.6801 6.4536 11.8674 6.96809 11.8666 7.49945C11.8666 8.99945 9.61664 9.74945 9.61664 9.74945" stroke="#A0A0A0" stroke-width="2" stroke-linecap="round" stroke-linejoin="round"/>
<path d="M9.67676 12.75H9.68426" stroke="#A0A0A0" stroke-width="2" stroke-linecap="round" stroke-linejoin="round"/>
</g>
<defs>
<clipPath id="clip0_867_18593">
<rect width="18" height="18" fill="white" transform="translate(0.676758)"/>
</clipPath>
</defs>
</svg>
