<svg width="150" height="28" viewBox="0 0 150 28" fill="none" xmlns="http://www.w3.org/2000/svg">
<g clip-path="url(#clip0_879_63807)">
<path d="M22.8475 26.134C22.5518 26.1399 22.258 26.086 21.9838 25.9755C21.7095 25.865 21.4603 25.7003 21.2512 25.4912C21.0421 25.2821 20.8774 25.033 20.7669 24.7587C20.6565 24.4844 20.6025 24.1906 20.6084 23.895V15.0552C20.6084 13.9479 20.3538 13.1351 19.8477 12.6382C19.5766 12.3818 19.2564 12.183 18.9064 12.0539C18.5563 11.9247 18.1837 11.8679 17.8111 11.8867C17.4093 11.8734 17.0095 11.9471 16.6389 12.1027C16.2683 12.2584 15.9357 12.4923 15.664 12.7885C15.0744 13.4409 14.7658 14.2994 14.8052 15.1779V23.8919C14.8127 24.1841 14.7623 24.4749 14.6571 24.7476C14.5518 25.0202 14.3936 25.2694 14.1917 25.4807C13.8791 25.8038 13.4767 26.0256 13.0366 26.1174C12.5965 26.2092 12.139 26.1667 11.7233 25.9956C11.3076 25.8244 10.9529 25.5324 10.705 25.1573C10.4572 24.7823 10.3276 24.3414 10.3332 23.8919V15.0552C10.3332 13.9479 10.0755 13.1351 9.57248 12.6382C9.30105 12.3814 8.98031 12.1824 8.62971 12.0533C8.2791 11.9241 7.90592 11.8674 7.53277 11.8867C7.12664 11.873 6.72229 11.9467 6.3471 12.1028C5.97192 12.2589 5.63464 12.4938 5.3581 12.7916C5.06302 13.1123 4.83439 13.4883 4.6854 13.8979C4.53642 14.3075 4.47003 14.7425 4.49008 15.1779V23.8919C4.49809 24.1842 4.44798 24.4751 4.34268 24.7478C4.23737 25.0206 4.07896 25.2697 3.87663 25.4807C3.44343 25.8949 2.86719 26.126 2.26786 26.126C1.66854 26.126 1.0923 25.8949 0.659101 25.4807C0.449677 25.2716 0.284878 25.0221 0.174688 24.7475C0.0644983 24.4728 0.0112091 24.1786 0.018048 23.8827V10.1415C0.00701525 9.84107 0.0591964 9.54167 0.171211 9.26269C0.283225 8.98371 0.452577 8.73137 0.668302 8.52199C0.879344 8.31966 1.12846 8.16125 1.4012 8.05594C1.67394 7.95064 1.96487 7.90054 2.25713 7.90854C2.55418 7.89843 2.85018 7.94896 3.12705 8.05707C3.40391 8.16518 3.65583 8.32859 3.86743 8.53733C3.98646 8.6587 4.08953 8.79475 4.17415 8.9422C4.29991 8.85018 4.42873 8.76737 4.56062 8.68762C5.6443 8.0398 6.88687 7.70633 8.14929 7.72451C9.35385 7.70399 10.5427 8.00014 11.5969 8.58334C12.1479 8.89511 12.6425 9.29743 13.0599 9.77342C13.5061 9.34361 14.0061 8.97348 14.5475 8.67229C15.7405 8.03257 17.0772 7.70843 18.4307 7.73064C19.6351 7.71084 20.8238 8.00695 21.8782 8.58947C22.909 9.18157 23.7382 10.0695 24.2584 11.1383C24.8379 12.3653 25.1215 13.711 25.0866 15.0675V23.9042C25.0946 24.1964 25.0445 24.4874 24.9392 24.7601C24.8338 25.0328 24.6754 25.282 24.4731 25.493C24.2622 25.7078 24.0085 25.8759 23.7285 25.9864C23.4484 26.0968 23.1482 26.1471 22.8475 26.134Z" fill="#E94025"/>
<path d="M50.039 26.1003C49.7434 26.1061 49.4496 26.0522 49.1753 25.9417C48.901 25.8313 48.6518 25.6666 48.4427 25.4575C48.2336 25.2484 48.0689 24.9992 47.9585 24.7249C47.848 24.4506 47.7941 24.1568 47.7999 23.8612V10.1108C47.7904 9.81054 47.8433 9.5116 47.9552 9.23284C48.0671 8.95408 48.2357 8.70157 48.4502 8.49128C48.764 8.17073 49.167 7.95211 49.6068 7.8639C50.0466 7.7757 50.5028 7.82201 50.9159 7.99679C51.329 8.17157 51.6799 8.46672 51.9229 8.84379C52.1659 9.22086 52.2896 9.66236 52.2781 10.1108V23.8612C52.2861 24.1534 52.236 24.4444 52.1307 24.7171C52.0254 24.9899 51.867 25.239 51.6646 25.45C51.4536 25.6653 51.2001 25.8343 50.9203 25.9462C50.6404 26.0582 50.3403 26.1106 50.039 26.1003Z" fill="#E94025"/>
<path d="M103.077 26.1984C102.782 26.2043 102.488 26.1503 102.214 26.0399C101.939 25.9294 101.69 25.7647 101.481 25.5556C101.272 25.3465 101.107 25.0973 100.997 24.8231C100.886 24.5488 100.833 24.255 100.838 23.9593V10.2089C100.827 9.9085 100.88 9.60911 100.992 9.33013C101.104 9.05115 101.273 8.79881 101.489 8.58943C101.803 8.27167 102.205 8.0555 102.643 7.96892C103.081 7.88235 103.535 7.92936 103.946 8.10387C104.357 8.27838 104.707 8.57234 104.949 8.94767C105.191 9.323 105.315 9.7624 105.304 10.2089V23.9593C105.312 24.2516 105.262 24.5426 105.157 24.8154C105.052 25.0881 104.893 25.3372 104.691 25.5482C104.481 25.7619 104.23 25.93 103.952 26.0419C103.674 26.1538 103.377 26.2071 103.077 26.1984Z" fill="#E94025"/>
<path d="M110.878 26.1984C110.582 26.2038 110.289 26.1496 110.015 26.039C109.74 25.9284 109.492 25.7637 109.283 25.5546C109.073 25.3456 108.909 25.0966 108.798 24.8225C108.688 24.5484 108.633 24.2549 108.639 23.9593V10.2089C108.629 9.90844 108.683 9.6093 108.795 9.3305C108.908 9.0517 109.077 8.79934 109.292 8.58942C109.606 8.26887 110.009 8.05025 110.449 7.96205C110.889 7.87385 111.345 7.92016 111.758 8.09493C112.171 8.26971 112.522 8.56487 112.765 8.94193C113.008 9.319 113.132 9.7605 113.12 10.2089V23.9593C113.128 24.2516 113.078 24.5425 112.973 24.8153C112.867 25.088 112.709 25.3371 112.507 25.5482C112.295 25.764 112.041 25.9333 111.761 26.0453C111.48 26.1572 111.18 26.2094 110.878 26.1984Z" fill="#E94025"/>
<path d="M50.0387 6.44855C49.4076 6.45342 48.7945 6.23901 48.304 5.84196C47.8135 5.44492 47.4761 4.88988 47.3494 4.27167C47.2227 3.65346 47.3146 3.01044 47.6094 2.45248C47.9043 1.89452 48.3837 1.45625 48.9658 1.21254C49.5479 0.968823 50.1965 0.934801 50.8009 1.11628C51.4053 1.29775 51.928 1.68347 52.2795 2.20752C52.6311 2.73158 52.7898 3.36145 52.7285 3.98952C52.6672 4.61759 52.3897 5.20489 51.9434 5.65107C51.6967 5.90641 51.4006 6.10881 51.0731 6.24592C50.7457 6.38303 50.3937 6.45198 50.0387 6.44855Z" fill="#E94025"/>
<path d="M50.0389 1.70653C49.5622 1.69943 49.0977 1.85809 48.725 2.15541C48.3522 2.45272 48.0942 2.87024 47.9951 3.33665C47.896 3.80305 47.962 4.28939 48.1816 4.71259C48.4013 5.13578 48.7611 5.46958 49.1995 5.65695C49.638 5.84433 50.1279 5.87365 50.5856 5.73991C51.0432 5.60618 51.4403 5.31768 51.7089 4.92371C51.9774 4.52973 52.1009 4.05472 52.0581 3.57983C52.0154 3.10494 51.809 2.65963 51.4744 2.31997C51.2897 2.12513 51.067 1.97018 50.8202 1.86468C50.5733 1.75917 50.3074 1.70535 50.0389 1.70653Z" fill="#E94025"/>
<path d="M104.69 1.46418C104.517 1.19707 104.28 0.977545 104 0.825572C103.72 0.673599 103.406 0.593994 103.088 0.593994C102.769 0.593994 102.456 0.673599 102.176 0.825572C101.896 0.977545 101.659 1.19707 101.485 1.46418C101.037 2.04695 100.817 3.42107 100.817 4.22469C100.797 4.97268 101.033 5.70495 101.485 6.3012C101.659 6.56831 101.896 6.78784 102.176 6.93981C102.456 7.09178 102.769 7.17139 103.088 7.17139C103.406 7.17139 103.72 7.09178 104 6.93981C104.28 6.78784 104.517 6.56831 104.69 6.3012C105.144 5.70535 105.38 4.97304 105.362 4.22469C105.35 3.43641 105.126 2.04695 104.69 1.46418ZM101.485 5.71536C100.682 4.40258 101.148 1.00102 103.074 1.00102C101.148 1.0409 100.85 4.34738 101.675 5.60187C103.049 7.73053 105.114 5.80738 104.927 3.84129C104.905 2.6788 104.531 1.04703 103.108 1.00102C105.031 1.00102 105.494 4.40258 104.69 5.71536C103.924 7.11709 102.237 7.11709 101.473 5.71536H101.485Z" fill="#E94025"/>
<path d="M70.5866 26.134C70.2907 26.1407 69.9966 26.0874 69.7219 25.9772C69.4472 25.8671 69.1977 25.7024 68.9884 25.4931C68.7791 25.2838 68.6145 25.0343 68.5043 24.7596C68.3942 24.4849 68.3408 24.1908 68.3475 23.8949V16.2912C68.387 15.4104 68.1945 14.5347 67.7893 13.7516C67.4527 13.1497 66.9415 12.6642 66.3232 12.359C65.6269 12.0331 64.865 11.8715 64.0964 11.8867C63.3912 11.8754 62.6931 12.0276 62.0566 12.3314C61.4911 12.6043 61.0028 13.0145 60.6365 13.5246C60.2992 14.0055 60.1241 14.5814 60.1366 15.1686V23.8826C60.1441 24.1748 60.0937 24.4656 59.9884 24.7383C59.8832 25.011 59.725 25.2601 59.5231 25.4715C59.2099 25.793 58.8076 26.0134 58.368 26.1043C57.9285 26.1952 57.4718 26.1524 57.0567 25.9815C56.6416 25.8106 56.2872 25.5194 56.0391 25.1453C55.791 24.7713 55.6606 24.3315 55.6645 23.8826V10.1108C55.6535 9.81033 55.7057 9.51094 55.8177 9.23196C55.9297 8.95298 56.0991 8.70064 56.3148 8.49126C56.7508 8.0899 57.3217 7.86712 57.9143 7.86712C58.507 7.86712 59.0779 8.0899 59.5139 8.49126C59.7072 8.68487 59.8614 8.914 59.9679 9.16605C60.2136 8.99126 60.4697 8.83147 60.7347 8.68756C61.9595 8.02914 63.3315 7.69247 64.7221 7.70911C66.1604 7.68877 67.5809 8.02939 68.8536 8.69983C70.0915 9.37383 71.1061 10.3938 71.7736 11.6352C72.5151 13.0692 72.8793 14.6684 72.8318 16.282V23.8826C72.8377 24.1783 72.7837 24.4721 72.6733 24.7464C72.5628 25.0207 72.3981 25.2698 72.189 25.4789C71.9799 25.688 71.7308 25.8527 71.4565 25.9632C71.1822 26.0736 70.8884 26.1276 70.5928 26.1217L70.5866 26.134Z" fill="#E94025"/>
<path d="M88.6832 26.223C87.0432 26.2402 85.4288 25.8165 84.0087 24.9961C82.638 24.199 81.5009 23.0556 80.7114 21.6804C79.8896 20.2453 79.4661 18.6167 79.4845 16.963C79.4597 15.3324 79.8424 13.7215 80.5979 12.2763C81.313 10.9244 82.3707 9.78415 83.6652 8.96981C84.9848 8.14823 86.5123 7.72242 88.0666 7.74291C89.3335 7.73379 90.5855 8.0161 91.7259 8.568C92.3117 8.85284 92.8624 9.20487 93.3668 9.61699V2.86908C93.3571 2.56882 93.4099 2.26982 93.5219 1.99103C93.6338 1.71225 93.8024 1.45976 94.0171 1.24958C94.3309 0.929026 94.7339 0.710407 95.1737 0.622206C95.6135 0.534004 96.0697 0.580311 96.4828 0.755091C96.8959 0.929871 97.2469 1.22502 97.4898 1.60209C97.7328 1.97916 97.8565 2.42066 97.845 2.86908V16.96C97.8635 18.6136 97.4399 20.2422 96.6181 21.6774C95.8225 23.0762 94.6651 24.2352 93.2674 25.0329C91.8697 25.8305 90.283 26.2373 88.674 26.2107L88.6832 26.223ZM88.6832 11.8561C87.8197 11.8422 86.9696 12.0707 86.2294 12.5155C85.4994 12.9561 84.8985 13.5814 84.4872 14.3283C84.0501 15.14 83.8294 16.0505 83.8461 16.9722C83.8337 17.8952 84.0564 18.8061 84.4933 19.6192C84.8967 20.3772 85.4963 21.0128 86.2294 21.4596C86.9754 21.8903 87.8217 22.1171 88.6832 22.1171C89.5446 22.1171 90.3909 21.8903 91.137 21.4596C91.8625 21.0121 92.453 20.376 92.8454 19.6192C93.2742 18.8013 93.4924 17.8895 93.4803 16.9661C93.497 16.0435 93.2796 15.1318 92.8485 14.316C92.4495 13.5718 91.8585 12.948 91.137 12.5094C90.3971 12.0644 89.5464 11.8379 88.6832 11.8561Z" fill="#E94025"/>
<path d="M124.033 26.2229C122.594 26.2359 121.164 25.9982 119.806 25.5205C118.65 25.1403 117.591 24.5123 116.702 23.6802C116.486 23.4629 116.322 23.1991 116.222 22.909C116.123 22.6188 116.091 22.3099 116.129 22.0055C116.162 21.7128 116.256 21.4303 116.404 21.1754C116.552 20.9206 116.75 20.6988 116.987 20.524C117.394 20.173 117.91 19.9736 118.447 19.9596C118.529 19.9552 118.611 19.9552 118.693 19.9596C119.245 20.0277 119.755 20.2923 120.128 20.705C120.548 21.1158 121.046 21.4362 121.594 21.6466C122.325 21.9594 123.113 22.1151 123.907 22.1036C124.971 22.1036 125.772 21.938 126.293 21.6159C126.867 21.2571 126.947 20.889 126.953 20.6406C126.959 20.3921 126.907 20.0271 126.339 19.5885C125.981 19.3217 125.162 18.9321 123.297 18.5978C121.067 18.1561 119.484 17.4997 118.451 16.5888C117.934 16.1586 117.52 15.6189 117.237 15.0088C116.955 14.3988 116.812 13.7336 116.819 13.0614C116.781 11.9371 117.172 10.8404 117.914 9.9942C118.636 9.201 119.549 8.60641 120.567 8.26735C121.611 7.90114 122.709 7.71548 123.815 7.71831C125.144 7.7046 126.462 7.95265 127.695 8.44831C128.768 8.86733 129.718 9.55108 130.456 10.4359C130.642 10.6353 130.786 10.8699 130.881 11.1258C130.975 11.3818 131.017 11.654 131.005 11.9266C130.988 12.2046 130.908 12.4753 130.772 12.7181C130.635 12.9609 130.445 13.1695 130.216 13.3283C129.858 13.5824 129.429 13.7167 128.99 13.7117C128.832 13.7108 128.675 13.6964 128.52 13.6687C127.968 13.5759 127.454 13.3244 127.042 12.9449C126.646 12.5484 126.163 12.2501 125.631 12.0738C125.022 11.8979 124.39 11.8142 123.757 11.8253C123.066 11.8024 122.379 11.9377 121.748 12.221C121.242 12.4695 121.174 12.7455 121.174 12.9848C121.171 13.212 121.235 13.4351 121.358 13.6258C121.586 13.8878 121.882 14.0802 122.214 14.181C123 14.468 123.808 14.6876 124.631 14.8374C125.961 15.0655 127.252 15.4785 128.468 16.0643C129.35 16.4899 130.104 17.1419 130.652 17.9537C131.116 18.7139 131.354 19.5905 131.339 20.4811C131.35 21.5219 131.048 22.5421 130.474 23.4103C129.851 24.3174 128.984 25.0307 127.974 25.4684C126.731 26.0021 125.386 26.2596 124.033 26.2229Z" fill="#E94025"/>
<path d="M147.761 26.134C147.466 26.1398 147.172 26.0859 146.897 25.9754C146.623 25.865 146.374 25.7003 146.165 25.4912C145.956 25.2821 145.791 25.0329 145.681 24.7586C145.57 24.4843 145.516 24.1905 145.522 23.8949V16.2912C145.562 15.4104 145.369 14.5346 144.964 13.7515C144.628 13.1491 144.117 12.6634 143.498 12.359C142.803 12.0328 142.042 11.8712 141.274 11.8867C140.564 11.8763 139.861 12.0317 139.222 12.3406C138.656 12.6144 138.167 13.0244 137.799 13.5338C137.463 14.015 137.289 14.5909 137.302 15.1778V23.8918C137.31 24.1841 137.26 24.475 137.155 24.7478C137.049 25.0205 136.891 25.2696 136.688 25.4806C136.478 25.6985 136.224 25.8693 135.942 25.9819C135.661 26.0945 135.359 26.1464 135.057 26.134C134.761 26.1398 134.467 26.0859 134.193 25.9754C133.919 25.865 133.67 25.7003 133.46 25.4912C133.251 25.2821 133.087 25.0329 132.976 24.7586C132.866 24.4843 132.812 24.1905 132.818 23.8949V2.88434C132.808 2.58403 132.86 2.28492 132.972 2.00608C133.084 1.72724 133.253 1.47479 133.468 1.26484C133.782 0.944285 134.185 0.725666 134.625 0.637464C135.064 0.549263 135.521 0.59557 135.934 0.77035C136.347 0.94513 136.698 1.24028 136.941 1.61735C137.184 1.99442 137.307 2.43592 137.296 2.88434V9.05868C137.488 8.929 137.686 8.80922 137.891 8.69981C139.116 8.04089 140.488 7.70419 141.878 7.72137C143.317 7.70036 144.737 8.04103 146.01 8.71208C147.248 9.38675 148.263 10.4065 148.933 11.6474C149.672 13.0821 150.035 14.681 149.988 16.2943V23.8949C149.995 24.1908 149.941 24.4849 149.831 24.7596C149.721 25.0343 149.556 25.2838 149.347 25.4931C149.138 25.7024 148.888 25.867 148.614 25.9772C148.339 26.0873 148.045 26.1407 147.749 26.134H147.761Z" fill="#E94025"/>
<path d="M112.478 1.40601C112.404 1.31016 112.324 1.21899 112.239 1.13303L112.009 3.05005C112.009 3.20648 111.843 3.32916 111.635 3.32916H111.491C111.282 3.32916 111.11 3.20648 111.11 3.05005L110.877 1.09009L110.644 3.05005C110.644 3.20648 110.475 3.32916 110.267 3.32916H110.123C109.914 3.32916 109.745 3.20648 109.745 3.05005L109.515 1.13303C109.436 1.21891 109.353 1.30786 109.276 1.40601C108.828 1.98879 108.604 3.36291 108.604 4.16652C108.587 4.91574 108.823 5.64885 109.276 6.24611C109.45 6.51256 109.687 6.73149 109.967 6.88303C110.246 7.03457 110.559 7.11393 110.877 7.11393C111.195 7.11393 111.508 7.03457 111.788 6.88303C112.067 6.73149 112.305 6.51256 112.478 6.24611C112.932 5.64914 113.17 4.91607 113.153 4.16652C113.153 3.36291 112.926 1.98879 112.478 1.40601ZM109.614 6.19703C108.617 5.12963 108.792 3.50093 109.282 2.2495C108.951 3.49787 108.825 5.03455 109.782 6.03447C110.883 7.19695 112.31 6.17863 112.61 4.86585C112.777 3.98019 112.724 3.06719 112.457 2.20656C112.825 3.05776 112.944 3.99575 112.8 4.91186C112.527 6.4148 110.825 7.51287 109.614 6.19703Z" fill="#E94025"/>
<path d="M41.0612 16.598C41.0618 15.5757 40.7592 14.5761 40.1917 13.7258C39.6241 12.8755 38.8172 12.2126 37.8728 11.8209C36.9285 11.4293 35.8893 11.3265 34.8865 11.5256C33.8837 11.7246 32.9626 12.2166 32.2395 12.9393C31.5163 13.662 31.0238 14.5829 30.8241 15.5855C30.6245 16.5882 30.7266 17.6275 31.1177 18.572C31.5088 19.5166 32.1712 20.324 33.0212 20.892C33.8712 21.46 34.8706 21.7632 35.8929 21.7632C36.5715 21.7636 37.2435 21.6303 37.8705 21.3709C38.4975 21.1115 39.0673 20.7311 39.5472 20.2514C40.0272 19.7718 40.408 19.2022 40.6677 18.5754C40.9275 17.9485 41.0612 17.2766 41.0612 16.598ZM35.9144 17.6255C35.7865 17.6247 35.6621 17.5839 35.5586 17.509C35.4335 17.4065 35.3338 17.2765 35.2673 17.1291C35.2008 16.9817 35.1693 16.8209 35.1752 16.6593C35.1695 16.4973 35.2011 16.3362 35.2676 16.1884C35.3341 16.0405 35.4336 15.9099 35.5586 15.8067C35.6728 15.7251 35.8115 15.6852 35.9516 15.6935C36.0918 15.7019 36.2247 15.7581 36.3284 15.8527C36.4353 15.9574 36.5194 16.0832 36.5753 16.222C36.6313 16.3608 36.6579 16.5097 36.6536 16.6593C36.6572 16.8081 36.6304 16.9561 36.5751 17.0942C36.5197 17.2324 36.4369 17.3578 36.3315 17.463C36.2168 17.566 36.0685 17.6238 35.9144 17.6255Z" fill="#E94025"/>
<path d="M45.404 25.3979L43.3275 21.1713L43.3827 21.0915C44.1484 19.7454 44.5432 18.2202 44.5268 16.6716V16.641C44.5428 15.0934 44.148 13.5693 43.3827 12.2241C42.6342 10.9088 41.5455 9.81921 40.2309 9.06959C38.9162 8.31998 37.424 7.938 35.9109 7.96374H35.2975C33.8489 7.94268 32.425 8.33992 31.1966 9.10783C29.9802 9.86982 28.9867 10.9395 28.3164 12.2088C27.6502 13.4833 27.292 14.8962 27.2705 16.3342C27.2705 16.4354 27.2705 16.5367 27.2705 16.641C27.2705 16.7452 27.2705 16.8679 27.2705 16.9783C27.2915 18.4174 27.6497 19.8314 28.3164 21.1068C28.9833 22.3746 29.9724 23.4442 31.1843 24.2078C32.4133 24.9744 33.8368 25.3716 35.2852 25.3519H35.8986C37.0209 25.3599 38.1341 25.1516 39.1775 24.7384L43.3674 27.2474C43.5637 27.3657 43.7929 27.4176 44.021 27.3955C44.2492 27.3735 44.4641 27.2785 44.6341 27.1248L45.1463 26.6616C45.3204 26.5073 45.4396 26.3007 45.4861 26.0728C45.5325 25.8449 45.5037 25.608 45.404 25.3979ZM32.9541 21.7632C32.0826 21.2624 31.3605 20.5382 30.8622 19.6652C30.7345 19.443 30.6218 19.2124 30.5248 18.9751C30.4788 18.8586 30.4359 18.7359 30.396 18.6163C30.3561 18.4966 30.3255 18.3954 30.2979 18.2819C30.2287 18.0138 30.1784 17.7412 30.1476 17.466C30.1322 17.3311 30.1138 17.1931 30.1077 17.0581C30.1016 16.9231 30.1077 16.782 30.1077 16.641C30.1077 16.4999 30.1077 16.3833 30.1077 16.2545C30.1119 16.1188 30.1252 15.9835 30.1476 15.8496C30.1476 15.7852 30.1629 15.7177 30.1721 15.6502C30.1905 15.5214 30.2151 15.3895 30.2427 15.2638C30.2547 15.1986 30.2701 15.1341 30.2887 15.0705C30.3169 14.9448 30.3528 14.8208 30.396 14.6994C30.4359 14.5798 30.4758 14.4571 30.5248 14.3405C30.6224 14.1035 30.7351 13.873 30.8622 13.6504C31.3604 12.7766 32.0825 12.0513 32.9541 11.5493C33.8626 11.0472 34.8836 10.7838 35.9216 10.7838C36.9597 10.7838 37.9807 11.0472 38.8892 11.5493C39.7481 12.0554 40.4573 12.7805 40.9442 13.6504C41.0696 13.8725 41.1793 14.1031 41.2724 14.3405C41.3215 14.4571 41.3675 14.5798 41.4043 14.6994C41.4411 14.819 41.4779 14.9448 41.5055 15.0705C41.5695 15.327 41.6176 15.5872 41.6497 15.8496C41.6686 15.9838 41.6798 16.119 41.6834 16.2545C41.6834 16.3833 41.6834 16.5091 41.6834 16.641C41.6834 16.7728 41.6834 16.9201 41.6834 17.0581C41.6834 17.1961 41.662 17.3311 41.6497 17.466C41.6374 17.601 41.6221 17.6961 41.6037 17.8065C41.5535 18.0802 41.487 18.3506 41.4043 18.6163C41.3675 18.7359 41.3215 18.8586 41.2724 18.9751C41.1799 19.2128 41.0702 19.4435 40.9442 19.6652C40.4572 20.5343 39.748 21.2583 38.8892 21.7632C38.3429 22.083 37.745 22.3051 37.1225 22.4196H37.101V22.438C36.7114 22.5092 36.3161 22.5441 35.9201 22.5423C34.8793 22.5543 33.8546 22.2852 32.9541 21.7632ZM44.536 25.9745L44.0207 26.4408C43.9987 26.4603 43.9711 26.4723 43.9419 26.475C43.9127 26.4778 43.8833 26.4712 43.8581 26.4561L40.1958 24.263L40.297 24.2109C40.6588 23.9986 41.0043 23.7597 41.3307 23.4962C41.8508 23.0753 42.3183 22.5934 42.7232 22.0608L44.5636 25.812C44.5766 25.8385 44.5809 25.8685 44.576 25.8977C44.571 25.9269 44.557 25.9538 44.536 25.9745Z" fill="#E94025"/>
</g>
<defs>
<clipPath id="clip0_879_63807">
<rect width="150" height="26.8138" fill="white" transform="translate(0 0.59314)"/>
</clipPath>
</defs>
</svg>
