<svg width="37" height="37" viewBox="0 0 37 37" fill="none" xmlns="http://www.w3.org/2000/svg">
<path d="M18.0975 19.5642C18.9237 19.5642 19.5935 18.8944 19.5935 18.0682C19.5935 17.242 18.9237 16.5723 18.0975 16.5723C17.2713 16.5723 16.6016 17.242 16.6016 18.0682C16.6016 18.8944 17.2713 19.5642 18.0975 19.5642Z" stroke="#040406" stroke-width="2.99192" stroke-linecap="round" stroke-linejoin="round"/>
<path d="M28.5702 19.5642C29.3964 19.5642 30.0661 18.8944 30.0661 18.0682C30.0661 17.242 29.3964 16.5723 28.5702 16.5723C27.744 16.5723 27.0742 17.242 27.0742 18.0682C27.0742 18.8944 27.744 19.5642 28.5702 19.5642Z" stroke="#040406" stroke-width="2.99192" stroke-linecap="round" stroke-linejoin="round"/>
<path d="M7.62584 19.5642C8.45204 19.5642 9.1218 18.8944 9.1218 18.0682C9.1218 17.242 8.45204 16.5723 7.62584 16.5723C6.79965 16.5723 6.12988 17.242 6.12988 18.0682C6.12988 18.8944 6.79965 19.5642 7.62584 19.5642Z" stroke="#040406" stroke-width="2.99192" stroke-linecap="round" stroke-linejoin="round"/>
</svg>
