<svg width="12" height="7" viewBox="0 0 12 7" fill="none" xmlns="http://www.w3.org/2000/svg">
<path d="M11.5917 0.842201C11.5142 0.764094 11.422 0.702099 11.3205 0.659792C11.2189 0.617485 11.11 0.595703 11 0.595703C10.89 0.595703 10.7811 0.617485 10.6795 0.659792C10.578 0.702099 10.4858 0.764094 10.4083 0.842201L6.59168 4.65886C6.51421 4.73697 6.42204 4.79896 6.32049 4.84127C6.21894 4.88358 6.11002 4.90536 6.00001 4.90536C5.89 4.90536 5.78108 4.88358 5.67953 4.84127C5.57798 4.79896 5.48581 4.73697 5.40834 4.65886L1.59168 0.842201C1.51421 0.764094 1.42204 0.702099 1.32049 0.659792C1.21894 0.617485 1.11002 0.595703 1.00001 0.595703C0.89 0.595703 0.781078 0.617485 0.679529 0.659792C0.577979 0.702099 0.485812 0.764094 0.408343 0.842201C0.253134 0.998336 0.166016 1.20955 0.166016 1.4297C0.166016 1.64985 0.253134 1.86106 0.408343 2.0172L4.23334 5.84219C4.70209 6.31036 5.33751 6.57332 6.00001 6.57332C6.66251 6.57332 7.29793 6.31036 7.76668 5.84219L11.5917 2.0172C11.7469 1.86106 11.834 1.64985 11.834 1.4297C11.834 1.20955 11.7469 0.998336 11.5917 0.842201Z" fill="#040406"/>
</svg>
