<svg width="18" height="18" viewBox="0 0 18 18" fill="none" xmlns="http://www.w3.org/2000/svg">
<path d="M9.00008 2.49998C8.42545 2.49998 7.87435 2.72826 7.46802 3.13459C7.06169 3.54092 6.83342 4.09202 6.83342 4.66665C6.83342 5.24129 7.06169 5.79239 7.46802 6.19872C7.87435 6.60504 8.42545 6.83332 9.00008 6.83332C9.57472 6.83332 10.1258 6.60504 10.5321 6.19872C10.9385 5.79239 11.1667 5.24129 11.1667 4.66665C11.1667 4.09202 10.9385 3.54092 10.5321 3.13459C10.1258 2.72826 9.57472 2.49998 9.00008 2.49998ZM5.38897 4.66665C5.38911 3.98341 5.58308 3.31422 5.94836 2.73682C6.31363 2.15941 6.83522 1.69748 7.45255 1.40468C8.06987 1.11188 8.75759 1.00022 9.43585 1.08267C10.1141 1.16511 10.755 1.43829 11.2842 1.87047C11.8134 2.30264 12.2092 2.87608 12.4255 3.52418C12.6418 4.17228 12.6698 4.86845 12.5062 5.53183C12.3426 6.19521 11.9942 6.79858 11.5015 7.27185C11.0087 7.74513 10.3917 8.06889 9.7223 8.20554V12.6111H8.27786V8.20554C7.46233 8.03879 6.72941 7.59553 6.20302 6.9507C5.67663 6.30588 5.38907 5.49905 5.38897 4.66665ZM2.57591 8.27776H6.11119V9.72221H3.86869L3.3068 14.7778H14.6934L14.1315 9.72221H11.889V8.27776H15.4242L16.3068 16.2222H1.69336L2.57591 8.27776Z" fill="white"/>
</svg>
