<svg width="19" height="21" viewBox="0 0 19 21" fill="none" xmlns="http://www.w3.org/2000/svg">
<path d="M18.404 18.3979L16.3275 14.1713L16.3827 14.0915C17.1484 12.7454 17.5432 11.2202 17.5268 9.67162V9.64095C17.5428 8.0934 17.148 6.56928 16.3827 5.22413C15.6342 3.90883 14.5455 2.81921 13.2309 2.06959C11.9162 1.31998 10.424 0.938004 8.9109 0.963744H8.29746C6.8489 0.942678 5.42502 1.33992 4.19657 2.10783C2.9802 2.86982 1.98665 3.93955 1.31644 5.2088C0.6502 6.48331 0.291976 7.89625 0.270508 9.33423C0.270508 9.43545 0.270508 9.53667 0.270508 9.64095C0.270508 9.74524 0.270508 9.86792 0.270508 9.97834C0.291498 11.4174 0.649735 12.8314 1.31644 14.1068C1.98326 15.3746 2.97244 16.4442 4.1843 17.2078C5.41331 17.9744 6.83681 18.3716 8.28519 18.3519H8.89864C10.0209 18.3599 11.1341 18.1516 12.1775 17.7384L16.3674 20.2474C16.5637 20.3657 16.7929 20.4176 17.021 20.3955C17.2492 20.3735 17.4641 20.2785 17.6341 20.1248L18.1463 19.6616C18.3204 19.5073 18.4396 19.3007 18.4861 19.0728C18.5325 18.8449 18.5037 18.608 18.404 18.3979ZM5.95409 14.7632C5.0826 14.2624 4.36049 13.5382 3.86224 12.6652C3.7345 12.443 3.62178 12.2124 3.52484 11.9751C3.47883 11.8586 3.43589 11.7359 3.39602 11.6163C3.35615 11.4966 3.32548 11.3954 3.29787 11.2819C3.22866 11.0138 3.17844 10.7412 3.14757 10.466C3.13224 10.3311 3.11383 10.1931 3.1077 10.0581C3.10156 9.92314 3.1077 9.78204 3.1077 9.64095C3.1077 9.49986 3.1077 9.3833 3.1077 9.25448C3.11186 9.11877 3.12518 8.98351 3.14757 8.8496C3.14757 8.78519 3.16291 8.71772 3.17211 8.65024C3.19052 8.52141 3.21505 8.38952 3.24266 8.26376C3.25473 8.19862 3.27009 8.13412 3.28866 8.07052C3.31693 7.94476 3.35278 7.82083 3.39602 7.69939C3.43589 7.57977 3.47577 7.45708 3.52484 7.34053C3.6224 7.10349 3.7351 6.87297 3.86224 6.6504C4.36041 5.77659 5.08248 5.05134 5.95409 4.54934C6.86257 4.0472 7.88362 3.7838 8.92164 3.7838C9.95966 3.7838 10.9807 4.0472 11.8892 4.54934C12.7481 5.05545 13.4573 5.78049 13.9442 6.6504C14.0696 6.87248 14.1793 7.10309 14.2724 7.34053C14.3215 7.45708 14.3675 7.57977 14.4043 7.69939C14.4411 7.81901 14.4779 7.94477 14.5055 8.07052C14.5695 8.32703 14.6176 8.58721 14.6497 8.8496C14.6686 8.98382 14.6798 9.11899 14.6834 9.25448C14.6834 9.3833 14.6834 9.50906 14.6834 9.64095C14.6834 9.77284 14.6834 9.92007 14.6834 10.0581C14.6834 10.1961 14.662 10.3311 14.6497 10.466C14.6374 10.601 14.6221 10.6961 14.6037 10.8065C14.5535 11.0802 14.487 11.3506 14.4043 11.6163C14.3675 11.7359 14.3215 11.8586 14.2724 11.9751C14.1799 12.2128 14.0702 12.4435 13.9442 12.6652C13.4572 13.5343 12.748 14.2583 11.8892 14.7632C11.3429 15.083 10.745 15.3051 10.1225 15.4196H10.101V15.438C9.71143 15.5092 9.31611 15.5441 8.92011 15.5423C7.87933 15.5543 6.85461 15.2852 5.95409 14.7632ZM17.536 18.9745L17.0207 19.4408C16.9987 19.4603 16.9711 19.4723 16.9419 19.475C16.9127 19.4778 16.8833 19.4712 16.8581 19.4561L13.1958 17.263L13.297 17.2109C13.6588 16.9986 14.0043 16.7597 14.3307 16.4962C14.8508 16.0753 15.3183 15.5934 15.7232 15.0608L17.5636 18.812C17.5766 18.8385 17.5809 18.8685 17.576 18.8977C17.571 18.9269 17.557 18.9538 17.536 18.9745Z" fill="#E94025"/>
</svg>
