<svg width="40" height="40" viewBox="0 0 40 40" fill="none" xmlns="http://www.w3.org/2000/svg">
<circle cx="20" cy="20" r="20" fill="#10CE52"/>
<path d="M20.293 13.0342L20 13.3263L19.707 13.0334C18.6951 12.0399 17.3318 11.4862 15.9137 11.4927C14.4956 11.4992 13.1374 12.0654 12.1346 13.0682C11.1319 14.0709 10.5657 15.4291 10.5591 16.8472C10.5526 18.2653 11.1063 19.6286 12.0999 20.6406L12.3928 20.9335L20 28.5407L27.6072 20.9335L27.9001 20.6406C28.8857 19.627 29.4327 18.2663 29.4228 16.8526C29.4129 15.4389 28.8469 14.0859 27.8472 13.0863C26.8475 12.0867 25.4945 11.5208 24.0808 11.5111C22.6671 11.5013 21.3064 12.0485 20.293 13.0342Z" fill="white"/>
<path d="M20.293 13.0342L20 13.3263L19.707 13.0334C18.6951 12.0399 17.3318 11.4862 15.9137 11.4927C14.4956 11.4992 13.1374 12.0654 12.1346 13.0682C11.1319 14.0709 10.5657 15.4291 10.5591 16.8472C10.5526 18.2653 11.1063 19.6286 12.0999 20.6406L12.3928 20.9335L20 28.5407L27.6072 20.9335L27.9001 20.6406C28.8857 19.627 29.4327 18.2663 29.4228 16.8526C29.4129 15.4389 28.8469 14.0859 27.8472 13.0863C26.8475 12.0867 25.4945 11.5208 24.0808 11.5111C22.6671 11.5013 21.3064 12.0485 20.293 13.0342Z" fill="white"/>
</svg>
