<svg width="40" height="40" viewBox="0 0 40 40" fill="none" xmlns="http://www.w3.org/2000/svg">
<circle cx="20" cy="20" r="20" fill="#FA5A7D"/>
<path d="M20.1433 12.2269C21.1462 12.2269 21.9701 11.403 21.9701 10.4C21.9701 9.39702 21.1462 8.57314 20.1433 8.57314C19.1403 8.57314 18.3164 9.39702 18.3164 10.4C18.3164 11.403 19.1045 12.2269 20.1433 12.2269ZM17.4925 16.3104C17.4925 16.0955 17.6358 15.9522 17.8507 15.9522C18.0298 15.9522 18.2089 16.0955 18.2089 16.3104V17.4567H22.0776V16.3104C22.0776 16.0955 22.2209 15.9522 22.4358 15.9522C22.6149 15.9522 22.794 16.0955 22.794 16.3104V17.4567H23.7612V14.4836C23.7612 13.803 23.2239 13.2657 22.5433 13.2657H20.8955L20.1433 14.5552L19.391 13.2657H17.7074C17.0268 13.2657 16.4895 13.803 16.4895 14.4836V17.4567H17.4925V16.3104ZM26.2686 21.1104L27.3074 18.6388C27.4149 18.3881 27.2358 18.1373 26.9851 18.1373H13.3015C13.0507 18.1373 12.8716 18.3881 12.9791 18.6388L14.0179 21.1104C14.0895 21.2537 14.197 21.3254 14.3403 21.3254H16.2388V28.4537C16.2388 28.8119 16.5253 29.1343 16.9194 29.1343H17.0985C17.2776 28.9194 17.4567 28.7403 17.6716 28.597C18.0298 28.3104 18.388 28.1313 18.7821 27.9881C18.0298 27.5582 17.5283 26.7702 17.5283 25.8746C17.5283 24.5134 18.6388 23.4388 19.9642 23.4388C21.2895 23.4388 22.4 24.5134 22.4 25.8746C22.4 26.7702 21.8985 27.5582 21.1821 27.9881C21.6119 28.1313 22.0059 28.3463 22.3642 28.6328C22.5791 28.8119 22.7582 28.991 22.9373 29.1702H23.403C23.7612 29.1702 24.0836 28.8836 24.0836 28.4896V21.3254H25.9821C26.0895 21.3254 26.197 21.2179 26.2686 21.1104Z" fill="white"/>
<path d="M12.3702 27.5224C13.3198 27.5224 14.0896 26.7526 14.0896 25.803C14.0896 24.8534 13.3198 24.0836 12.3702 24.0836C11.4206 24.0836 10.6508 24.8534 10.6508 25.803C10.6508 26.7526 11.4206 27.5224 12.3702 27.5224Z" fill="white"/>
<path d="M12.406 28.4537C10.7224 28.4537 9.3612 29.8149 9.32538 31.4627H15.4508C15.4508 29.7791 14.0896 28.4537 12.406 28.4537Z" fill="white"/>
<path d="M19.9642 27.5224C20.9138 27.5224 21.6836 26.7526 21.6836 25.803C21.6836 24.8534 20.9138 24.0836 19.9642 24.0836C19.0146 24.0836 18.2448 24.8534 18.2448 25.803C18.2448 26.7526 19.0146 27.5224 19.9642 27.5224Z" fill="white"/>
<path d="M21.8985 29.0985C21.3612 28.6687 20.7164 28.4179 20 28.4179C19.2836 28.4179 18.603 28.6687 18.1015 29.0985C17.4209 29.6358 16.9552 30.4955 16.9552 31.4627H23.0806C23.0448 30.4955 22.6149 29.6716 21.8985 29.0985Z" fill="white"/>
<path d="M27.5224 27.5224C28.472 27.5224 29.2418 26.7526 29.2418 25.803C29.2418 24.8534 28.472 24.0836 27.5224 24.0836C26.5728 24.0836 25.803 24.8534 25.803 25.803C25.803 26.7526 26.5728 27.5224 27.5224 27.5224Z" fill="white"/>
<path d="M27.594 28.4537C25.9104 28.4537 24.5492 29.8149 24.5134 31.4627H30.6388C30.603 29.7791 29.2418 28.4537 27.594 28.4537Z" fill="white"/>
</svg>
