<svg width="40" height="40" viewBox="0 0 40 40" fill="none" xmlns="http://www.w3.org/2000/svg">
<circle cx="20" cy="20" r="20" fill="#3895FF"/>
<path d="M17 17C17 15.7574 15.9926 14.75 14.75 14.75C13.5074 14.75 12.5 15.7574 12.5 17C12.5 18.2426 13.5074 19.25 14.75 19.25C15.9926 19.25 17 18.2426 17 17Z" fill="white"/>
<path d="M11 22.3572C11 21.885 11.2223 21.4405 11.6 21.1572L12.7429 20.3C13.0025 20.1053 13.3183 20 13.6429 20H15.8572C16.1817 20 16.4975 20.1053 16.7571 20.3L17.9 21.1572C18.2777 21.4405 18.5 21.885 18.5 22.3572V26C18.5 26.8285 17.8285 27.5 17 27.5H12.5C11.6716 27.5 11 26.8285 11 26V22.3572Z" fill="white"/>
<path d="M18.125 28.25H11.375C10.7537 28.25 10.25 28.7537 10.25 29.375C10.25 29.9963 10.7537 30.5 11.375 30.5H18.125C18.7463 30.5 19.25 29.9963 19.25 29.375C19.25 28.7537 18.7463 28.25 18.125 28.25Z" fill="white"/>
<path d="M20.75 9.5C19.0932 9.5 17.75 10.8431 17.75 12.5V14C17.75 14.7608 18.0332 15.4555 18.5 15.9843V18.5L20.2367 16.9563C20.4035 16.985 20.575 17 20.75 17H26.75C28.4068 17 29.75 15.6568 29.75 14V12.5C29.75 10.8431 28.4068 9.5 26.75 9.5H20.75Z" fill="white"/>
<path d="M23 12.125H20V11.375H23V12.125ZM23 15.125H20V14.375H23V15.125ZM20 13.625H23V12.875H20V13.625ZM25.625 11.9375C25.625 11.6268 25.8769 11.375 26.1875 11.375H26.2533C26.5276 11.375 26.75 11.5974 26.75 11.8717V11.9071C26.75 12.0998 26.6267 12.2708 26.4439 12.3317C25.9548 12.4948 25.625 12.9524 25.625 13.4679V14H26.375V13.4679C26.375 13.2752 26.4983 13.1042 26.6811 13.0433C27.1702 12.8802 27.5 12.4226 27.5 11.9071V11.8717C27.5 11.1832 26.9418 10.625 26.2533 10.625H26.1875C25.4626 10.625 24.875 11.2126 24.875 11.9375V12.125H25.625V11.9375ZM26.375 14.375H25.625V15.125H26.375V14.375Z" fill="#3895FF"/>
</svg>
