<svg width="24" height="24" viewBox="0 0 24 24" fill="none" xmlns="http://www.w3.org/2000/svg">
<path d="M8.5 19.0005H8C4 19.0005 2 18.0005 2 13.0005V8.00049C2 4.00049 4 2.00049 8 2.00049H16C20 2.00049 22 4.00049 22 8.00049V13.0005C22 17.0005 20 19.0005 16 19.0005H15.5C15.19 19.0005 14.89 19.1505 14.7 19.4005L13.2 21.4005C12.54 22.2805 11.46 22.2805 10.8 21.4005L9.3 19.4005C9.14 19.1805 8.77 19.0005 8.5 19.0005Z" stroke="#666666" stroke-width="1.5" stroke-miterlimit="10" stroke-linecap="round" stroke-linejoin="round"/>
<path d="M15.9965 11H16.0054" stroke="#666666" stroke-width="2" stroke-linecap="round" stroke-linejoin="round"/>
<path d="M11.9955 11H12.0045" stroke="#666666" stroke-width="2" stroke-linecap="round" stroke-linejoin="round"/>
<path d="M7.99451 11H8.00349" stroke="#666666" stroke-width="2" stroke-linecap="round" stroke-linejoin="round"/>
</svg>
