<svg xmlns="http://www.w3.org/2000/svg" width="25" height="24" viewBox="0 0 25 24" fill="none">
  <path d="M11.468 12C11.468 12.5297 11.934 12.959 12.5089 12.959C13.0838 12.959 13.5498 12.5297 13.5498 12C13.5498 11.4704 13.0838 11.041 12.5089 11.041C11.934 11.041 11.468 11.4704 11.468 12Z" stroke="#666666" stroke-width="1.91803" stroke-linecap="round" stroke-linejoin="round"/>
  <path d="M11.468 18.7129C11.468 19.2426 11.934 19.6719 12.5089 19.6719C13.0838 19.6719 13.5498 19.2426 13.5498 18.7129C13.5498 18.1833 13.0838 17.7539 12.5089 17.7539C11.934 17.7539 11.468 18.1833 11.468 18.7129Z" stroke="#666666" stroke-width="1.91803" stroke-linecap="round" stroke-linejoin="round"/>
  <path d="M11.468 5.28665C11.468 5.8163 11.934 6.24567 12.5089 6.24567C13.0838 6.24567 13.5498 5.8163 13.5498 5.28665C13.5498 4.757 13.0838 4.32764 12.5089 4.32764C11.934 4.32764 11.468 4.757 11.468 5.28665Z" stroke="#666666" stroke-width="1.91803" stroke-linecap="round" stroke-linejoin="round"/>
</svg>