<svg width="24" height="24" viewBox="0 0 30 30" fill="none" xmlns="http://www.w3.org/2000/svg">
<path d="M14.1993 7.26106L15 8.33132L15.8007 7.26106C16.8833 5.81397 18.6173 4.87451 20.55 4.87451C23.8305 4.87451 26.5 7.54712 26.5 10.862C26.5 12.2408 26.2802 13.512 25.8986 14.6917L25.8985 14.6917L25.8965 14.6982C24.9806 17.5966 23.0989 19.9457 21.0498 21.7067C18.9963 23.4716 16.8321 24.596 15.4529 25.0653L15.4529 25.0652L15.4422 25.069C15.37 25.0945 15.2098 25.1245 15 25.1245C14.7902 25.1245 14.63 25.0945 14.5578 25.069L14.5578 25.069L14.5471 25.0653C13.1679 24.596 11.0037 23.4716 8.95023 21.7067C6.90111 19.9457 5.01942 17.5966 4.10352 14.6982L4.10355 14.6982L4.10144 14.6917C3.71978 13.512 3.5 12.2408 3.5 10.862C3.5 7.54712 6.16945 4.87451 9.45 4.87451C11.3827 4.87451 13.1167 5.81397 14.1993 7.26106Z" stroke="#E84127" stroke-width="2" fill="#E84127"/>
</svg>
