<svg width="24" height="24" viewBox="0 0 24 24" fill="none" xmlns="http://www.w3.org/2000/svg">
<path d="M11.3995 5.7789L12 6.58159L12.6005 5.7789C13.4756 4.60921 14.8774 3.84961 16.44 3.84961C19.0923 3.84961 21.25 6.01031 21.25 8.68961C21.25 9.79804 21.0733 10.8202 20.7664 11.7687L20.7649 11.7736C20.0286 14.1037 18.5165 15.9903 16.8724 17.4033C15.225 18.8191 13.4881 19.722 12.3784 20.0996L12.3784 20.0995L12.3704 20.1024C12.3056 20.1252 12.1714 20.1496 12 20.1496C11.8286 20.1496 11.6944 20.1252 11.6296 20.1024L11.6296 20.1023L11.6216 20.0996C10.5119 19.722 8.775 18.8191 7.12759 17.4033C5.48349 15.9903 3.97144 14.1037 3.23514 11.7736L3.23516 11.7736L3.23358 11.7687C2.92671 10.8202 2.75 9.79804 2.75 8.68961C2.75 6.01031 4.90771 3.84961 7.56 3.84961C9.12264 3.84961 10.5244 4.60921 11.3995 5.7789Z" stroke="#666666" stroke-width="1.5"/>
</svg>